M48
; DRILL file {KiCad 7.0.11} date Tuesday, March 19, 2024 at 09:31:37 PM
; FORMAT={-:-/ absolute / metric / decimal}
; #@! TF.CreationDate,2024-03-19T21:31:37+01:00
; #@! TF.GenerationSoftware,Kicad,Pcbnew,7.0.11
; #@! TF.FileFunction,Plated,1,2,PTH
FMAT,2
METRIC
; #@! TA.AperFunction,Plated,PTH,ViaDrill
T1C0.400
; #@! TA.AperFunction,Plated,PTH,ComponentDrill
T2C0.500
; #@! TA.AperFunction,Plated,PTH,ComponentDrill
T3C0.800
; #@! TA.AperFunction,Plated,PTH,ComponentDrill
T4C1.000
; #@! TA.AperFunction,Plated,PTH,ComponentDrill
T5C1.100
; #@! TA.AperFunction,Plated,PTH,ComponentDrill
T6C1.500
; #@! TA.AperFunction,Plated,PTH,ComponentDrill
T7C1.700
; #@! TA.AperFunction,Plated,PTH,ComponentDrill
T8C3.200
%
G90
G05
T1
X21.946Y-90.373
X21.946Y-91.643
X21.946Y-92.71
X24.13Y-37.44
X24.13Y-39.319
X24.13Y-42.418
X24.13Y-43.536
X24.13Y-44.653
X32.385Y-66.04
X34.925Y-66.04
X35.179Y-78.994
X35.179Y-86.741
X35.204Y-80.162
X35.204Y-81.331
X35.204Y-85.598
X35.204Y-87.986
X36.905Y-71.531
X38.937Y-78.284
X40.005Y-74.93
X43.84Y-66.04
X46.99Y-82.652
X46.99Y-83.82
X46.99Y-84.988
X47.319Y-78.232
X48.006Y-61.722
X48.514Y-64.389
X49.911Y-73.025
X51.562Y-57.658
X53.594Y-65.786
X54.737Y-64.135
X54.991Y-72.39
X58.42Y-96.622
X58.42Y-97.79
X58.42Y-99.06
X59.03Y-52.883
X59.03Y-53.975
X59.03Y-55.016
X59.055Y-48.768
X59.182Y-64.135
X60.833Y-66.802
X60.833Y-68.58
X60.833Y-70.231
X65.659Y-47.498
X65.913Y-41.656
X66.151Y-82.55
X67.239Y-85.217
X68.58Y-86.614
X69.139Y-46.838
X69.596Y-82.55
X70.485Y-67.818
X70.612Y-31.75
X70.612Y-35.179
X70.993Y-81.026
X73.66Y-37.973
X73.914Y-45.212
X74.803Y-91.059
X74.803Y-91.948
X74.828Y-90.17
X76.327Y-51.308
X81.026Y-43.053
X85.242Y-51.308
X87.122Y-38.557
X93.472Y-41.504
X93.472Y-45.974
X94.742Y-36.83
X95.123Y-50.927
X95.86Y-92.253
X96.012Y-40.488
X96.469Y-91.542
X97.079Y-90.83
T2
X22.492Y-99.949
X23.195Y-98.252
X23.195Y-101.646
X24.892Y-97.549
X24.892Y-102.349
X26.589Y-98.252
X26.589Y-101.646
X27.292Y-99.949
X34.557Y-25.019
X35.26Y-23.322
X35.26Y-26.716
X36.957Y-22.619
X36.957Y-27.419
X38.654Y-23.322
X38.654Y-26.716
X39.357Y-25.019
X97.549Y-25.019
X97.6Y-100.0
X98.252Y-23.322
X98.252Y-26.716
X98.303Y-98.303
X98.303Y-101.697
X99.949Y-22.619
X99.949Y-27.419
X100.0Y-97.6
X100.0Y-102.4
X101.646Y-23.322
X101.646Y-26.716
X101.697Y-98.303
X101.697Y-101.697
X102.349Y-25.019
X102.4Y-100.0
T3
X76.708Y-66.294
X76.708Y-75.819
X76.708Y-85.344
X95.758Y-66.294
X95.758Y-85.344
T4
X23.216Y-68.529
X23.216Y-71.069
X23.216Y-73.609
X23.216Y-76.149
X23.221Y-59.065
X23.221Y-61.605
X23.221Y-64.145
X25.756Y-68.529
X25.756Y-71.069
X25.756Y-73.609
X25.756Y-76.149
X25.761Y-59.065
X25.761Y-61.605
X25.761Y-64.145
X39.497Y-43.561
X39.497Y-46.101
X39.497Y-48.641
X45.583Y-55.118
X48.123Y-55.118
X50.663Y-55.118
X53.203Y-55.118
X63.754Y-61.468
X63.754Y-79.375
X66.294Y-57.404
X66.294Y-92.456
X69.469Y-54.864
X81.026Y-57.404
X100.076Y-54.864
X103.378Y-57.404
T5
X51.181Y-28.176
T6
X26.908Y-24.526
X46.156Y-23.151
X46.156Y-33.201
X56.206Y-23.151
X56.206Y-33.201
X66.0Y-24.526
X78.0Y-24.526
X90.0Y-24.526
T7
X24.368Y-21.986
X24.368Y-27.066
X29.448Y-21.986
X29.448Y-27.066
X63.46Y-21.986
X63.46Y-27.066
X68.54Y-21.986
X68.54Y-27.066
X75.46Y-21.986
X75.46Y-27.066
X80.54Y-21.986
X80.54Y-27.066
X87.46Y-21.986
X87.46Y-27.066
X92.54Y-21.986
X92.54Y-27.066
T8
X24.892Y-99.949
X36.957Y-25.019
X99.949Y-25.019
X100.0Y-100.0
T4
X34.387Y-91.059G85X36.987Y-91.059
G05
X34.587Y-97.359G85X36.787Y-97.359
G05
X40.487Y-92.859G85X40.487Y-95.059
G05
M30
