G04 #@! TF.GenerationSoftware,KiCad,Pcbnew,7.0.11*
G04 #@! TF.CreationDate,2024-03-19T21:31:16+01:00*
G04 #@! TF.ProjectId,GPSDO,47505344-4f2e-46b6-9963-61645f706362,rev?*
G04 #@! TF.SameCoordinates,Original*
G04 #@! TF.FileFunction,Legend,Bot*
G04 #@! TF.FilePolarity,Positive*
%FSLAX46Y46*%
G04 Gerber Fmt 4.6, Leading zero omitted, Abs format (unit mm)*
G04 Created by KiCad (PCBNEW 7.0.11) date 2024-03-19 21:31:16*
%MOMM*%
%LPD*%
G01*
G04 APERTURE LIST*
G04 Aperture macros list*
%AMRoundRect*
0 Rectangle with rounded corners*
0 $1 Rounding radius*
0 $2 $3 $4 $5 $6 $7 $8 $9 X,Y pos of 4 corners*
0 Add a 4 corners polygon primitive as box body*
4,1,4,$2,$3,$4,$5,$6,$7,$8,$9,$2,$3,0*
0 Add four circle primitives for the rounded corners*
1,1,$1+$1,$2,$3*
1,1,$1+$1,$4,$5*
1,1,$1+$1,$6,$7*
1,1,$1+$1,$8,$9*
0 Add four rect primitives between the rounded corners*
20,1,$1+$1,$2,$3,$4,$5,0*
20,1,$1+$1,$4,$5,$6,$7,0*
20,1,$1+$1,$6,$7,$8,$9,0*
20,1,$1+$1,$8,$9,$2,$3,0*%
%AMFreePoly0*
4,1,6,1.000000,0.000000,0.500000,-0.750000,-0.500000,-0.750000,-0.500000,0.750000,0.500000,0.750000,1.000000,0.000000,1.000000,0.000000,$1*%
%AMFreePoly1*
4,1,6,0.500000,-0.750000,-0.650000,-0.750000,-0.150000,0.000000,-0.650000,0.750000,0.500000,0.750000,0.500000,-0.750000,0.500000,-0.750000,$1*%
G04 Aperture macros list end*
%ADD10C,0.300000*%
%ADD11C,0.200000*%
%ADD12C,0.150000*%
%ADD13C,0.120000*%
%ADD14FreePoly0,270.000000*%
%ADD15FreePoly1,270.000000*%
%ADD16R,2.000000X2.000000*%
%ADD17RoundRect,0.200100X-0.949900X-0.949900X0.949900X-0.949900X0.949900X0.949900X-0.949900X0.949900X0*%
%ADD18C,2.500000*%
%ADD19R,3.500000X3.500000*%
%ADD20C,4.000000*%
%ADD21R,1.600000X1.600000*%
%ADD22C,1.600000*%
%ADD23R,1.700000X1.700000*%
%ADD24O,1.700000X1.700000*%
%ADD25C,0.800000*%
%ADD26C,6.400000*%
%ADD27R,4.600000X2.000000*%
%ADD28O,4.200000X2.000000*%
%ADD29O,2.000000X4.200000*%
%ADD30RoundRect,0.250000X1.000000X-1.500000X1.000000X1.500000X-1.000000X1.500000X-1.000000X-1.500000X0*%
%ADD31RoundRect,0.250000X0.475000X-0.337500X0.475000X0.337500X-0.475000X0.337500X-0.475000X-0.337500X0*%
%ADD32RoundRect,0.250000X0.337500X0.475000X-0.337500X0.475000X-0.337500X-0.475000X0.337500X-0.475000X0*%
%ADD33RoundRect,0.100000X0.680000X0.100000X-0.680000X0.100000X-0.680000X-0.100000X0.680000X-0.100000X0*%
%ADD34RoundRect,0.250000X-1.100000X0.412500X-1.100000X-0.412500X1.100000X-0.412500X1.100000X0.412500X0*%
%ADD35RoundRect,0.250000X-0.475000X0.337500X-0.475000X-0.337500X0.475000X-0.337500X0.475000X0.337500X0*%
%ADD36RoundRect,0.250000X0.412500X1.100000X-0.412500X1.100000X-0.412500X-1.100000X0.412500X-1.100000X0*%
%ADD37RoundRect,0.218750X0.381250X-0.218750X0.381250X0.218750X-0.381250X0.218750X-0.381250X-0.218750X0*%
%ADD38RoundRect,0.250000X1.500000X1.000000X-1.500000X1.000000X-1.500000X-1.000000X1.500000X-1.000000X0*%
%ADD39RoundRect,0.150000X-0.512500X-0.150000X0.512500X-0.150000X0.512500X0.150000X-0.512500X0.150000X0*%
%ADD40RoundRect,0.250000X0.350000X0.450000X-0.350000X0.450000X-0.350000X-0.450000X0.350000X-0.450000X0*%
%ADD41RoundRect,0.150000X-0.150000X0.725000X-0.150000X-0.725000X0.150000X-0.725000X0.150000X0.725000X0*%
G04 APERTURE END LIST*
D10*
X79692285Y-29150328D02*
X80406571Y-29150328D01*
X80406571Y-29150328D02*
X80477999Y-29864614D01*
X80477999Y-29864614D02*
X80406571Y-29793185D01*
X80406571Y-29793185D02*
X80263714Y-29721757D01*
X80263714Y-29721757D02*
X79906571Y-29721757D01*
X79906571Y-29721757D02*
X79763714Y-29793185D01*
X79763714Y-29793185D02*
X79692285Y-29864614D01*
X79692285Y-29864614D02*
X79620856Y-30007471D01*
X79620856Y-30007471D02*
X79620856Y-30364614D01*
X79620856Y-30364614D02*
X79692285Y-30507471D01*
X79692285Y-30507471D02*
X79763714Y-30578900D01*
X79763714Y-30578900D02*
X79906571Y-30650328D01*
X79906571Y-30650328D02*
X80263714Y-30650328D01*
X80263714Y-30650328D02*
X80406571Y-30578900D01*
X80406571Y-30578900D02*
X80477999Y-30507471D01*
X77835143Y-30650328D02*
X77835143Y-29150328D01*
X77835143Y-29150328D02*
X77335143Y-30221757D01*
X77335143Y-30221757D02*
X76835143Y-29150328D01*
X76835143Y-29150328D02*
X76835143Y-30650328D01*
X75478000Y-30578900D02*
X75620857Y-30650328D01*
X75620857Y-30650328D02*
X75906571Y-30650328D01*
X75906571Y-30650328D02*
X76049428Y-30578900D01*
X76049428Y-30578900D02*
X76120857Y-30507471D01*
X76120857Y-30507471D02*
X76192285Y-30364614D01*
X76192285Y-30364614D02*
X76192285Y-29936042D01*
X76192285Y-29936042D02*
X76120857Y-29793185D01*
X76120857Y-29793185D02*
X76049428Y-29721757D01*
X76049428Y-29721757D02*
X75906571Y-29650328D01*
X75906571Y-29650328D02*
X75620857Y-29650328D01*
X75620857Y-29650328D02*
X75478000Y-29721757D01*
X45464856Y-87316328D02*
X44464856Y-87316328D01*
X44464856Y-87316328D02*
X45107713Y-88816328D01*
X44107713Y-87316328D02*
X43607713Y-88816328D01*
X43607713Y-88816328D02*
X43107713Y-87316328D01*
X42607714Y-88816328D02*
X42607714Y-87316328D01*
X42607714Y-87316328D02*
X42250571Y-87316328D01*
X42250571Y-87316328D02*
X42036285Y-87387757D01*
X42036285Y-87387757D02*
X41893428Y-87530614D01*
X41893428Y-87530614D02*
X41821999Y-87673471D01*
X41821999Y-87673471D02*
X41750571Y-87959185D01*
X41750571Y-87959185D02*
X41750571Y-88173471D01*
X41750571Y-88173471D02*
X41821999Y-88459185D01*
X41821999Y-88459185D02*
X41893428Y-88602042D01*
X41893428Y-88602042D02*
X42036285Y-88744900D01*
X42036285Y-88744900D02*
X42250571Y-88816328D01*
X42250571Y-88816328D02*
X42607714Y-88816328D01*
X40250571Y-88673471D02*
X40321999Y-88744900D01*
X40321999Y-88744900D02*
X40536285Y-88816328D01*
X40536285Y-88816328D02*
X40679142Y-88816328D01*
X40679142Y-88816328D02*
X40893428Y-88744900D01*
X40893428Y-88744900D02*
X41036285Y-88602042D01*
X41036285Y-88602042D02*
X41107714Y-88459185D01*
X41107714Y-88459185D02*
X41179142Y-88173471D01*
X41179142Y-88173471D02*
X41179142Y-87959185D01*
X41179142Y-87959185D02*
X41107714Y-87673471D01*
X41107714Y-87673471D02*
X41036285Y-87530614D01*
X41036285Y-87530614D02*
X40893428Y-87387757D01*
X40893428Y-87387757D02*
X40679142Y-87316328D01*
X40679142Y-87316328D02*
X40536285Y-87316328D01*
X40536285Y-87316328D02*
X40321999Y-87387757D01*
X40321999Y-87387757D02*
X40250571Y-87459185D01*
X38464857Y-88244900D02*
X37322000Y-88244900D01*
X34822000Y-88744900D02*
X34964857Y-88816328D01*
X34964857Y-88816328D02*
X35250571Y-88816328D01*
X35250571Y-88816328D02*
X35393428Y-88744900D01*
X35393428Y-88744900D02*
X35464857Y-88673471D01*
X35464857Y-88673471D02*
X35536285Y-88530614D01*
X35536285Y-88530614D02*
X35536285Y-88102042D01*
X35536285Y-88102042D02*
X35464857Y-87959185D01*
X35464857Y-87959185D02*
X35393428Y-87887757D01*
X35393428Y-87887757D02*
X35250571Y-87816328D01*
X35250571Y-87816328D02*
X34964857Y-87816328D01*
X34964857Y-87816328D02*
X34822000Y-87887757D01*
X33607714Y-88744900D02*
X33750571Y-88816328D01*
X33750571Y-88816328D02*
X34036286Y-88816328D01*
X34036286Y-88816328D02*
X34179143Y-88744900D01*
X34179143Y-88744900D02*
X34250571Y-88602042D01*
X34250571Y-88602042D02*
X34250571Y-88030614D01*
X34250571Y-88030614D02*
X34179143Y-87887757D01*
X34179143Y-87887757D02*
X34036286Y-87816328D01*
X34036286Y-87816328D02*
X33750571Y-87816328D01*
X33750571Y-87816328D02*
X33607714Y-87887757D01*
X33607714Y-87887757D02*
X33536286Y-88030614D01*
X33536286Y-88030614D02*
X33536286Y-88173471D01*
X33536286Y-88173471D02*
X34250571Y-88316328D01*
X32893429Y-87816328D02*
X32893429Y-88816328D01*
X32893429Y-87959185D02*
X32822000Y-87887757D01*
X32822000Y-87887757D02*
X32679143Y-87816328D01*
X32679143Y-87816328D02*
X32464857Y-87816328D01*
X32464857Y-87816328D02*
X32322000Y-87887757D01*
X32322000Y-87887757D02*
X32250572Y-88030614D01*
X32250572Y-88030614D02*
X32250572Y-88816328D01*
X31750571Y-87816328D02*
X31179143Y-87816328D01*
X31536286Y-87316328D02*
X31536286Y-88602042D01*
X31536286Y-88602042D02*
X31464857Y-88744900D01*
X31464857Y-88744900D02*
X31322000Y-88816328D01*
X31322000Y-88816328D02*
X31179143Y-88816328D01*
X30107714Y-88744900D02*
X30250571Y-88816328D01*
X30250571Y-88816328D02*
X30536286Y-88816328D01*
X30536286Y-88816328D02*
X30679143Y-88744900D01*
X30679143Y-88744900D02*
X30750571Y-88602042D01*
X30750571Y-88602042D02*
X30750571Y-88030614D01*
X30750571Y-88030614D02*
X30679143Y-87887757D01*
X30679143Y-87887757D02*
X30536286Y-87816328D01*
X30536286Y-87816328D02*
X30250571Y-87816328D01*
X30250571Y-87816328D02*
X30107714Y-87887757D01*
X30107714Y-87887757D02*
X30036286Y-88030614D01*
X30036286Y-88030614D02*
X30036286Y-88173471D01*
X30036286Y-88173471D02*
X30750571Y-88316328D01*
X29393429Y-88816328D02*
X29393429Y-87816328D01*
X29393429Y-88102042D02*
X29322000Y-87959185D01*
X29322000Y-87959185D02*
X29250572Y-87887757D01*
X29250572Y-87887757D02*
X29107714Y-87816328D01*
X29107714Y-87816328D02*
X28964857Y-87816328D01*
X28464858Y-88244900D02*
X27322001Y-88244900D01*
X27893429Y-88816328D02*
X27893429Y-87673471D01*
D11*
X51756257Y-52548136D02*
X51756257Y-53233850D01*
X51756257Y-52890993D02*
X52956257Y-52890993D01*
X52956257Y-52890993D02*
X52784828Y-53005279D01*
X52784828Y-53005279D02*
X52670542Y-53119564D01*
X52670542Y-53119564D02*
X52613400Y-53233850D01*
X52213400Y-52033850D02*
X52213400Y-51119565D01*
X52956257Y-49976708D02*
X52956257Y-50548136D01*
X52956257Y-50548136D02*
X52384828Y-50605279D01*
X52384828Y-50605279D02*
X52441971Y-50548136D01*
X52441971Y-50548136D02*
X52499114Y-50433851D01*
X52499114Y-50433851D02*
X52499114Y-50148136D01*
X52499114Y-50148136D02*
X52441971Y-50033851D01*
X52441971Y-50033851D02*
X52384828Y-49976708D01*
X52384828Y-49976708D02*
X52270542Y-49919565D01*
X52270542Y-49919565D02*
X51984828Y-49919565D01*
X51984828Y-49919565D02*
X51870542Y-49976708D01*
X51870542Y-49976708D02*
X51813400Y-50033851D01*
X51813400Y-50033851D02*
X51756257Y-50148136D01*
X51756257Y-50148136D02*
X51756257Y-50433851D01*
X51756257Y-50433851D02*
X51813400Y-50548136D01*
X51813400Y-50548136D02*
X51870542Y-50605279D01*
X52956257Y-49576708D02*
X51756257Y-49176708D01*
X51756257Y-49176708D02*
X52956257Y-48776708D01*
X51756257Y-48376708D02*
X52956257Y-48376708D01*
X52956257Y-48376708D02*
X52956257Y-48090994D01*
X52956257Y-48090994D02*
X52899114Y-47919565D01*
X52899114Y-47919565D02*
X52784828Y-47805280D01*
X52784828Y-47805280D02*
X52670542Y-47748137D01*
X52670542Y-47748137D02*
X52441971Y-47690994D01*
X52441971Y-47690994D02*
X52270542Y-47690994D01*
X52270542Y-47690994D02*
X52041971Y-47748137D01*
X52041971Y-47748137D02*
X51927685Y-47805280D01*
X51927685Y-47805280D02*
X51813400Y-47919565D01*
X51813400Y-47919565D02*
X51756257Y-48090994D01*
X51756257Y-48090994D02*
X51756257Y-48376708D01*
X51870542Y-46490994D02*
X51813400Y-46548137D01*
X51813400Y-46548137D02*
X51756257Y-46719565D01*
X51756257Y-46719565D02*
X51756257Y-46833851D01*
X51756257Y-46833851D02*
X51813400Y-47005280D01*
X51813400Y-47005280D02*
X51927685Y-47119565D01*
X51927685Y-47119565D02*
X52041971Y-47176708D01*
X52041971Y-47176708D02*
X52270542Y-47233851D01*
X52270542Y-47233851D02*
X52441971Y-47233851D01*
X52441971Y-47233851D02*
X52670542Y-47176708D01*
X52670542Y-47176708D02*
X52784828Y-47119565D01*
X52784828Y-47119565D02*
X52899114Y-47005280D01*
X52899114Y-47005280D02*
X52956257Y-46833851D01*
X52956257Y-46833851D02*
X52956257Y-46719565D01*
X52956257Y-46719565D02*
X52899114Y-46548137D01*
X52899114Y-46548137D02*
X52841971Y-46490994D01*
X50909971Y-53233850D02*
X50967114Y-53176707D01*
X50967114Y-53176707D02*
X51024257Y-53062422D01*
X51024257Y-53062422D02*
X51024257Y-52776707D01*
X51024257Y-52776707D02*
X50967114Y-52662422D01*
X50967114Y-52662422D02*
X50909971Y-52605279D01*
X50909971Y-52605279D02*
X50795685Y-52548136D01*
X50795685Y-52548136D02*
X50681400Y-52548136D01*
X50681400Y-52548136D02*
X50509971Y-52605279D01*
X50509971Y-52605279D02*
X49824257Y-53290993D01*
X49824257Y-53290993D02*
X49824257Y-52548136D01*
X50281400Y-52033850D02*
X50281400Y-51119565D01*
X50967114Y-49919565D02*
X51024257Y-50033851D01*
X51024257Y-50033851D02*
X51024257Y-50205279D01*
X51024257Y-50205279D02*
X50967114Y-50376708D01*
X50967114Y-50376708D02*
X50852828Y-50490993D01*
X50852828Y-50490993D02*
X50738542Y-50548136D01*
X50738542Y-50548136D02*
X50509971Y-50605279D01*
X50509971Y-50605279D02*
X50338542Y-50605279D01*
X50338542Y-50605279D02*
X50109971Y-50548136D01*
X50109971Y-50548136D02*
X49995685Y-50490993D01*
X49995685Y-50490993D02*
X49881400Y-50376708D01*
X49881400Y-50376708D02*
X49824257Y-50205279D01*
X49824257Y-50205279D02*
X49824257Y-50090993D01*
X49824257Y-50090993D02*
X49881400Y-49919565D01*
X49881400Y-49919565D02*
X49938542Y-49862422D01*
X49938542Y-49862422D02*
X50338542Y-49862422D01*
X50338542Y-49862422D02*
X50338542Y-50090993D01*
X49824257Y-49348136D02*
X51024257Y-49348136D01*
X51024257Y-49348136D02*
X51024257Y-48890993D01*
X51024257Y-48890993D02*
X50967114Y-48776708D01*
X50967114Y-48776708D02*
X50909971Y-48719565D01*
X50909971Y-48719565D02*
X50795685Y-48662422D01*
X50795685Y-48662422D02*
X50624257Y-48662422D01*
X50624257Y-48662422D02*
X50509971Y-48719565D01*
X50509971Y-48719565D02*
X50452828Y-48776708D01*
X50452828Y-48776708D02*
X50395685Y-48890993D01*
X50395685Y-48890993D02*
X50395685Y-49348136D01*
X49881400Y-48205279D02*
X49824257Y-48033851D01*
X49824257Y-48033851D02*
X49824257Y-47748136D01*
X49824257Y-47748136D02*
X49881400Y-47633851D01*
X49881400Y-47633851D02*
X49938542Y-47576708D01*
X49938542Y-47576708D02*
X50052828Y-47519565D01*
X50052828Y-47519565D02*
X50167114Y-47519565D01*
X50167114Y-47519565D02*
X50281400Y-47576708D01*
X50281400Y-47576708D02*
X50338542Y-47633851D01*
X50338542Y-47633851D02*
X50395685Y-47748136D01*
X50395685Y-47748136D02*
X50452828Y-47976708D01*
X50452828Y-47976708D02*
X50509971Y-48090993D01*
X50509971Y-48090993D02*
X50567114Y-48148136D01*
X50567114Y-48148136D02*
X50681400Y-48205279D01*
X50681400Y-48205279D02*
X50795685Y-48205279D01*
X50795685Y-48205279D02*
X50909971Y-48148136D01*
X50909971Y-48148136D02*
X50967114Y-48090993D01*
X50967114Y-48090993D02*
X51024257Y-47976708D01*
X51024257Y-47976708D02*
X51024257Y-47690993D01*
X51024257Y-47690993D02*
X50967114Y-47519565D01*
X49824257Y-46319565D02*
X50395685Y-46719565D01*
X49824257Y-47005279D02*
X51024257Y-47005279D01*
X51024257Y-47005279D02*
X51024257Y-46548136D01*
X51024257Y-46548136D02*
X50967114Y-46433851D01*
X50967114Y-46433851D02*
X50909971Y-46376708D01*
X50909971Y-46376708D02*
X50795685Y-46319565D01*
X50795685Y-46319565D02*
X50624257Y-46319565D01*
X50624257Y-46319565D02*
X50509971Y-46376708D01*
X50509971Y-46376708D02*
X50452828Y-46433851D01*
X50452828Y-46433851D02*
X50395685Y-46548136D01*
X50395685Y-46548136D02*
X50395685Y-47005279D01*
X51024257Y-45919565D02*
X49824257Y-45119565D01*
X51024257Y-45119565D02*
X49824257Y-45919565D01*
X51081400Y-43805279D02*
X49538542Y-44833851D01*
X50624257Y-42890994D02*
X49824257Y-42890994D01*
X50624257Y-43405279D02*
X49995685Y-43405279D01*
X49995685Y-43405279D02*
X49881400Y-43348136D01*
X49881400Y-43348136D02*
X49824257Y-43233851D01*
X49824257Y-43233851D02*
X49824257Y-43062422D01*
X49824257Y-43062422D02*
X49881400Y-42948136D01*
X49881400Y-42948136D02*
X49938542Y-42890994D01*
X49938542Y-41633851D02*
X49881400Y-41690994D01*
X49881400Y-41690994D02*
X49824257Y-41862422D01*
X49824257Y-41862422D02*
X49824257Y-41976708D01*
X49824257Y-41976708D02*
X49881400Y-42148137D01*
X49881400Y-42148137D02*
X49995685Y-42262422D01*
X49995685Y-42262422D02*
X50109971Y-42319565D01*
X50109971Y-42319565D02*
X50338542Y-42376708D01*
X50338542Y-42376708D02*
X50509971Y-42376708D01*
X50509971Y-42376708D02*
X50738542Y-42319565D01*
X50738542Y-42319565D02*
X50852828Y-42262422D01*
X50852828Y-42262422D02*
X50967114Y-42148137D01*
X50967114Y-42148137D02*
X51024257Y-41976708D01*
X51024257Y-41976708D02*
X51024257Y-41862422D01*
X51024257Y-41862422D02*
X50967114Y-41690994D01*
X50967114Y-41690994D02*
X50909971Y-41633851D01*
X51024257Y-41290994D02*
X51024257Y-40605280D01*
X49824257Y-40948137D02*
X51024257Y-40948137D01*
X51024257Y-40319565D02*
X49824257Y-39519565D01*
X51024257Y-39519565D02*
X49824257Y-40319565D01*
X49092257Y-53290993D02*
X49092257Y-52548136D01*
X49092257Y-52548136D02*
X48635114Y-52948136D01*
X48635114Y-52948136D02*
X48635114Y-52776707D01*
X48635114Y-52776707D02*
X48577971Y-52662422D01*
X48577971Y-52662422D02*
X48520828Y-52605279D01*
X48520828Y-52605279D02*
X48406542Y-52548136D01*
X48406542Y-52548136D02*
X48120828Y-52548136D01*
X48120828Y-52548136D02*
X48006542Y-52605279D01*
X48006542Y-52605279D02*
X47949400Y-52662422D01*
X47949400Y-52662422D02*
X47892257Y-52776707D01*
X47892257Y-52776707D02*
X47892257Y-53119564D01*
X47892257Y-53119564D02*
X47949400Y-53233850D01*
X47949400Y-53233850D02*
X48006542Y-53290993D01*
X48349400Y-52033850D02*
X48349400Y-51119565D01*
X49035114Y-49919565D02*
X49092257Y-50033851D01*
X49092257Y-50033851D02*
X49092257Y-50205279D01*
X49092257Y-50205279D02*
X49035114Y-50376708D01*
X49035114Y-50376708D02*
X48920828Y-50490993D01*
X48920828Y-50490993D02*
X48806542Y-50548136D01*
X48806542Y-50548136D02*
X48577971Y-50605279D01*
X48577971Y-50605279D02*
X48406542Y-50605279D01*
X48406542Y-50605279D02*
X48177971Y-50548136D01*
X48177971Y-50548136D02*
X48063685Y-50490993D01*
X48063685Y-50490993D02*
X47949400Y-50376708D01*
X47949400Y-50376708D02*
X47892257Y-50205279D01*
X47892257Y-50205279D02*
X47892257Y-50090993D01*
X47892257Y-50090993D02*
X47949400Y-49919565D01*
X47949400Y-49919565D02*
X48006542Y-49862422D01*
X48006542Y-49862422D02*
X48406542Y-49862422D01*
X48406542Y-49862422D02*
X48406542Y-50090993D01*
X47892257Y-49348136D02*
X49092257Y-49348136D01*
X49092257Y-49348136D02*
X49092257Y-48890993D01*
X49092257Y-48890993D02*
X49035114Y-48776708D01*
X49035114Y-48776708D02*
X48977971Y-48719565D01*
X48977971Y-48719565D02*
X48863685Y-48662422D01*
X48863685Y-48662422D02*
X48692257Y-48662422D01*
X48692257Y-48662422D02*
X48577971Y-48719565D01*
X48577971Y-48719565D02*
X48520828Y-48776708D01*
X48520828Y-48776708D02*
X48463685Y-48890993D01*
X48463685Y-48890993D02*
X48463685Y-49348136D01*
X47949400Y-48205279D02*
X47892257Y-48033851D01*
X47892257Y-48033851D02*
X47892257Y-47748136D01*
X47892257Y-47748136D02*
X47949400Y-47633851D01*
X47949400Y-47633851D02*
X48006542Y-47576708D01*
X48006542Y-47576708D02*
X48120828Y-47519565D01*
X48120828Y-47519565D02*
X48235114Y-47519565D01*
X48235114Y-47519565D02*
X48349400Y-47576708D01*
X48349400Y-47576708D02*
X48406542Y-47633851D01*
X48406542Y-47633851D02*
X48463685Y-47748136D01*
X48463685Y-47748136D02*
X48520828Y-47976708D01*
X48520828Y-47976708D02*
X48577971Y-48090993D01*
X48577971Y-48090993D02*
X48635114Y-48148136D01*
X48635114Y-48148136D02*
X48749400Y-48205279D01*
X48749400Y-48205279D02*
X48863685Y-48205279D01*
X48863685Y-48205279D02*
X48977971Y-48148136D01*
X48977971Y-48148136D02*
X49035114Y-48090993D01*
X49035114Y-48090993D02*
X49092257Y-47976708D01*
X49092257Y-47976708D02*
X49092257Y-47690993D01*
X49092257Y-47690993D02*
X49035114Y-47519565D01*
X49092257Y-47176708D02*
X49092257Y-46490994D01*
X47892257Y-46833851D02*
X49092257Y-46833851D01*
X49092257Y-46205279D02*
X47892257Y-45405279D01*
X49092257Y-45405279D02*
X47892257Y-46205279D01*
X49149400Y-44090993D02*
X47606542Y-45119565D01*
X48692257Y-43176708D02*
X47892257Y-43176708D01*
X48692257Y-43690993D02*
X48063685Y-43690993D01*
X48063685Y-43690993D02*
X47949400Y-43633850D01*
X47949400Y-43633850D02*
X47892257Y-43519565D01*
X47892257Y-43519565D02*
X47892257Y-43348136D01*
X47892257Y-43348136D02*
X47949400Y-43233850D01*
X47949400Y-43233850D02*
X48006542Y-43176708D01*
X48006542Y-41919565D02*
X47949400Y-41976708D01*
X47949400Y-41976708D02*
X47892257Y-42148136D01*
X47892257Y-42148136D02*
X47892257Y-42262422D01*
X47892257Y-42262422D02*
X47949400Y-42433851D01*
X47949400Y-42433851D02*
X48063685Y-42548136D01*
X48063685Y-42548136D02*
X48177971Y-42605279D01*
X48177971Y-42605279D02*
X48406542Y-42662422D01*
X48406542Y-42662422D02*
X48577971Y-42662422D01*
X48577971Y-42662422D02*
X48806542Y-42605279D01*
X48806542Y-42605279D02*
X48920828Y-42548136D01*
X48920828Y-42548136D02*
X49035114Y-42433851D01*
X49035114Y-42433851D02*
X49092257Y-42262422D01*
X49092257Y-42262422D02*
X49092257Y-42148136D01*
X49092257Y-42148136D02*
X49035114Y-41976708D01*
X49035114Y-41976708D02*
X48977971Y-41919565D01*
X47892257Y-40719565D02*
X48463685Y-41119565D01*
X47892257Y-41405279D02*
X49092257Y-41405279D01*
X49092257Y-41405279D02*
X49092257Y-40948136D01*
X49092257Y-40948136D02*
X49035114Y-40833851D01*
X49035114Y-40833851D02*
X48977971Y-40776708D01*
X48977971Y-40776708D02*
X48863685Y-40719565D01*
X48863685Y-40719565D02*
X48692257Y-40719565D01*
X48692257Y-40719565D02*
X48577971Y-40776708D01*
X48577971Y-40776708D02*
X48520828Y-40833851D01*
X48520828Y-40833851D02*
X48463685Y-40948136D01*
X48463685Y-40948136D02*
X48463685Y-41405279D01*
X49092257Y-40319565D02*
X47892257Y-39519565D01*
X49092257Y-39519565D02*
X47892257Y-40319565D01*
X46760257Y-52662422D02*
X45960257Y-52662422D01*
X47217400Y-52948136D02*
X46360257Y-53233850D01*
X46360257Y-53233850D02*
X46360257Y-52490993D01*
X46417400Y-52033850D02*
X46417400Y-51119565D01*
X47103114Y-49919565D02*
X47160257Y-50033851D01*
X47160257Y-50033851D02*
X47160257Y-50205279D01*
X47160257Y-50205279D02*
X47103114Y-50376708D01*
X47103114Y-50376708D02*
X46988828Y-50490993D01*
X46988828Y-50490993D02*
X46874542Y-50548136D01*
X46874542Y-50548136D02*
X46645971Y-50605279D01*
X46645971Y-50605279D02*
X46474542Y-50605279D01*
X46474542Y-50605279D02*
X46245971Y-50548136D01*
X46245971Y-50548136D02*
X46131685Y-50490993D01*
X46131685Y-50490993D02*
X46017400Y-50376708D01*
X46017400Y-50376708D02*
X45960257Y-50205279D01*
X45960257Y-50205279D02*
X45960257Y-50090993D01*
X45960257Y-50090993D02*
X46017400Y-49919565D01*
X46017400Y-49919565D02*
X46074542Y-49862422D01*
X46074542Y-49862422D02*
X46474542Y-49862422D01*
X46474542Y-49862422D02*
X46474542Y-50090993D01*
X45960257Y-49348136D02*
X47160257Y-49348136D01*
X47160257Y-49348136D02*
X45960257Y-48662422D01*
X45960257Y-48662422D02*
X47160257Y-48662422D01*
X45960257Y-48090993D02*
X47160257Y-48090993D01*
X47160257Y-48090993D02*
X47160257Y-47805279D01*
X47160257Y-47805279D02*
X47103114Y-47633850D01*
X47103114Y-47633850D02*
X46988828Y-47519565D01*
X46988828Y-47519565D02*
X46874542Y-47462422D01*
X46874542Y-47462422D02*
X46645971Y-47405279D01*
X46645971Y-47405279D02*
X46474542Y-47405279D01*
X46474542Y-47405279D02*
X46245971Y-47462422D01*
X46245971Y-47462422D02*
X46131685Y-47519565D01*
X46131685Y-47519565D02*
X46017400Y-47633850D01*
X46017400Y-47633850D02*
X45960257Y-47805279D01*
X45960257Y-47805279D02*
X45960257Y-48090993D01*
D10*
X31797000Y-30380471D02*
X31868428Y-30451900D01*
X31868428Y-30451900D02*
X32082714Y-30523328D01*
X32082714Y-30523328D02*
X32225571Y-30523328D01*
X32225571Y-30523328D02*
X32439857Y-30451900D01*
X32439857Y-30451900D02*
X32582714Y-30309042D01*
X32582714Y-30309042D02*
X32654143Y-30166185D01*
X32654143Y-30166185D02*
X32725571Y-29880471D01*
X32725571Y-29880471D02*
X32725571Y-29666185D01*
X32725571Y-29666185D02*
X32654143Y-29380471D01*
X32654143Y-29380471D02*
X32582714Y-29237614D01*
X32582714Y-29237614D02*
X32439857Y-29094757D01*
X32439857Y-29094757D02*
X32225571Y-29023328D01*
X32225571Y-29023328D02*
X32082714Y-29023328D01*
X32082714Y-29023328D02*
X31868428Y-29094757D01*
X31868428Y-29094757D02*
X31797000Y-29166185D01*
X30511286Y-29523328D02*
X30511286Y-30523328D01*
X31154143Y-29523328D02*
X31154143Y-30309042D01*
X31154143Y-30309042D02*
X31082714Y-30451900D01*
X31082714Y-30451900D02*
X30939857Y-30523328D01*
X30939857Y-30523328D02*
X30725571Y-30523328D01*
X30725571Y-30523328D02*
X30582714Y-30451900D01*
X30582714Y-30451900D02*
X30511286Y-30380471D01*
X29868428Y-30451900D02*
X29725571Y-30523328D01*
X29725571Y-30523328D02*
X29439857Y-30523328D01*
X29439857Y-30523328D02*
X29297000Y-30451900D01*
X29297000Y-30451900D02*
X29225571Y-30309042D01*
X29225571Y-30309042D02*
X29225571Y-30237614D01*
X29225571Y-30237614D02*
X29297000Y-30094757D01*
X29297000Y-30094757D02*
X29439857Y-30023328D01*
X29439857Y-30023328D02*
X29654143Y-30023328D01*
X29654143Y-30023328D02*
X29797000Y-29951900D01*
X29797000Y-29951900D02*
X29868428Y-29809042D01*
X29868428Y-29809042D02*
X29868428Y-29737614D01*
X29868428Y-29737614D02*
X29797000Y-29594757D01*
X29797000Y-29594757D02*
X29654143Y-29523328D01*
X29654143Y-29523328D02*
X29439857Y-29523328D01*
X29439857Y-29523328D02*
X29297000Y-29594757D01*
X28796999Y-29523328D02*
X28225571Y-29523328D01*
X28582714Y-29023328D02*
X28582714Y-30309042D01*
X28582714Y-30309042D02*
X28511285Y-30451900D01*
X28511285Y-30451900D02*
X28368428Y-30523328D01*
X28368428Y-30523328D02*
X28225571Y-30523328D01*
X27511285Y-30523328D02*
X27654142Y-30451900D01*
X27654142Y-30451900D02*
X27725571Y-30380471D01*
X27725571Y-30380471D02*
X27796999Y-30237614D01*
X27796999Y-30237614D02*
X27796999Y-29809042D01*
X27796999Y-29809042D02*
X27725571Y-29666185D01*
X27725571Y-29666185D02*
X27654142Y-29594757D01*
X27654142Y-29594757D02*
X27511285Y-29523328D01*
X27511285Y-29523328D02*
X27296999Y-29523328D01*
X27296999Y-29523328D02*
X27154142Y-29594757D01*
X27154142Y-29594757D02*
X27082714Y-29666185D01*
X27082714Y-29666185D02*
X27011285Y-29809042D01*
X27011285Y-29809042D02*
X27011285Y-30237614D01*
X27011285Y-30237614D02*
X27082714Y-30380471D01*
X27082714Y-30380471D02*
X27154142Y-30451900D01*
X27154142Y-30451900D02*
X27296999Y-30523328D01*
X27296999Y-30523328D02*
X27511285Y-30523328D01*
X26368428Y-30523328D02*
X26368428Y-29523328D01*
X26368428Y-29666185D02*
X26296999Y-29594757D01*
X26296999Y-29594757D02*
X26154142Y-29523328D01*
X26154142Y-29523328D02*
X25939856Y-29523328D01*
X25939856Y-29523328D02*
X25796999Y-29594757D01*
X25796999Y-29594757D02*
X25725571Y-29737614D01*
X25725571Y-29737614D02*
X25725571Y-30523328D01*
X25725571Y-29737614D02*
X25654142Y-29594757D01*
X25654142Y-29594757D02*
X25511285Y-29523328D01*
X25511285Y-29523328D02*
X25296999Y-29523328D01*
X25296999Y-29523328D02*
X25154142Y-29594757D01*
X25154142Y-29594757D02*
X25082713Y-29737614D01*
X25082713Y-29737614D02*
X25082713Y-30523328D01*
X23368428Y-29023328D02*
X23011285Y-30523328D01*
X23011285Y-30523328D02*
X22725571Y-29451900D01*
X22725571Y-29451900D02*
X22439856Y-30523328D01*
X22439856Y-30523328D02*
X22082714Y-29023328D01*
X21011285Y-29737614D02*
X21511285Y-29737614D01*
X21511285Y-30523328D02*
X21511285Y-29023328D01*
X21511285Y-29023328D02*
X20796999Y-29023328D01*
X67682856Y-30650328D02*
X68539999Y-30650328D01*
X68111428Y-30650328D02*
X68111428Y-29150328D01*
X68111428Y-29150328D02*
X68254285Y-29364614D01*
X68254285Y-29364614D02*
X68397142Y-29507471D01*
X68397142Y-29507471D02*
X68539999Y-29578900D01*
X65897143Y-30650328D02*
X65897143Y-29150328D01*
X65897143Y-29150328D02*
X65397143Y-30221757D01*
X65397143Y-30221757D02*
X64897143Y-29150328D01*
X64897143Y-29150328D02*
X64897143Y-30650328D01*
X63540000Y-30578900D02*
X63682857Y-30650328D01*
X63682857Y-30650328D02*
X63968571Y-30650328D01*
X63968571Y-30650328D02*
X64111428Y-30578900D01*
X64111428Y-30578900D02*
X64182857Y-30507471D01*
X64182857Y-30507471D02*
X64254285Y-30364614D01*
X64254285Y-30364614D02*
X64254285Y-29936042D01*
X64254285Y-29936042D02*
X64182857Y-29793185D01*
X64182857Y-29793185D02*
X64111428Y-29721757D01*
X64111428Y-29721757D02*
X63968571Y-29650328D01*
X63968571Y-29650328D02*
X63682857Y-29650328D01*
X63682857Y-29650328D02*
X63540000Y-29721757D01*
X92400141Y-30650328D02*
X93257284Y-30650328D01*
X92828713Y-30650328D02*
X92828713Y-29150328D01*
X92828713Y-29150328D02*
X92971570Y-29364614D01*
X92971570Y-29364614D02*
X93114427Y-29507471D01*
X93114427Y-29507471D02*
X93257284Y-29578900D01*
X91471570Y-29150328D02*
X91328713Y-29150328D01*
X91328713Y-29150328D02*
X91185856Y-29221757D01*
X91185856Y-29221757D02*
X91114428Y-29293185D01*
X91114428Y-29293185D02*
X91042999Y-29436042D01*
X91042999Y-29436042D02*
X90971570Y-29721757D01*
X90971570Y-29721757D02*
X90971570Y-30078900D01*
X90971570Y-30078900D02*
X91042999Y-30364614D01*
X91042999Y-30364614D02*
X91114428Y-30507471D01*
X91114428Y-30507471D02*
X91185856Y-30578900D01*
X91185856Y-30578900D02*
X91328713Y-30650328D01*
X91328713Y-30650328D02*
X91471570Y-30650328D01*
X91471570Y-30650328D02*
X91614428Y-30578900D01*
X91614428Y-30578900D02*
X91685856Y-30507471D01*
X91685856Y-30507471D02*
X91757285Y-30364614D01*
X91757285Y-30364614D02*
X91828713Y-30078900D01*
X91828713Y-30078900D02*
X91828713Y-29721757D01*
X91828713Y-29721757D02*
X91757285Y-29436042D01*
X91757285Y-29436042D02*
X91685856Y-29293185D01*
X91685856Y-29293185D02*
X91614428Y-29221757D01*
X91614428Y-29221757D02*
X91471570Y-29150328D01*
X89185857Y-30650328D02*
X89185857Y-29150328D01*
X89185857Y-29150328D02*
X88685857Y-30221757D01*
X88685857Y-30221757D02*
X88185857Y-29150328D01*
X88185857Y-29150328D02*
X88185857Y-30650328D01*
X86828714Y-30578900D02*
X86971571Y-30650328D01*
X86971571Y-30650328D02*
X87257285Y-30650328D01*
X87257285Y-30650328D02*
X87400142Y-30578900D01*
X87400142Y-30578900D02*
X87471571Y-30507471D01*
X87471571Y-30507471D02*
X87542999Y-30364614D01*
X87542999Y-30364614D02*
X87542999Y-29936042D01*
X87542999Y-29936042D02*
X87471571Y-29793185D01*
X87471571Y-29793185D02*
X87400142Y-29721757D01*
X87400142Y-29721757D02*
X87257285Y-29650328D01*
X87257285Y-29650328D02*
X86971571Y-29650328D01*
X86971571Y-29650328D02*
X86828714Y-29721757D01*
X53645284Y-37000328D02*
X54502427Y-37000328D01*
X54073856Y-37000328D02*
X54073856Y-35500328D01*
X54073856Y-35500328D02*
X54216713Y-35714614D01*
X54216713Y-35714614D02*
X54359570Y-35857471D01*
X54359570Y-35857471D02*
X54502427Y-35928900D01*
X52716713Y-35500328D02*
X52573856Y-35500328D01*
X52573856Y-35500328D02*
X52430999Y-35571757D01*
X52430999Y-35571757D02*
X52359571Y-35643185D01*
X52359571Y-35643185D02*
X52288142Y-35786042D01*
X52288142Y-35786042D02*
X52216713Y-36071757D01*
X52216713Y-36071757D02*
X52216713Y-36428900D01*
X52216713Y-36428900D02*
X52288142Y-36714614D01*
X52288142Y-36714614D02*
X52359571Y-36857471D01*
X52359571Y-36857471D02*
X52430999Y-36928900D01*
X52430999Y-36928900D02*
X52573856Y-37000328D01*
X52573856Y-37000328D02*
X52716713Y-37000328D01*
X52716713Y-37000328D02*
X52859571Y-36928900D01*
X52859571Y-36928900D02*
X52930999Y-36857471D01*
X52930999Y-36857471D02*
X53002428Y-36714614D01*
X53002428Y-36714614D02*
X53073856Y-36428900D01*
X53073856Y-36428900D02*
X53073856Y-36071757D01*
X53073856Y-36071757D02*
X53002428Y-35786042D01*
X53002428Y-35786042D02*
X52930999Y-35643185D01*
X52930999Y-35643185D02*
X52859571Y-35571757D01*
X52859571Y-35571757D02*
X52716713Y-35500328D01*
X50431000Y-37000328D02*
X50431000Y-35500328D01*
X50431000Y-35500328D02*
X49931000Y-36571757D01*
X49931000Y-36571757D02*
X49431000Y-35500328D01*
X49431000Y-35500328D02*
X49431000Y-37000328D01*
X47859571Y-36857471D02*
X47930999Y-36928900D01*
X47930999Y-36928900D02*
X48145285Y-37000328D01*
X48145285Y-37000328D02*
X48288142Y-37000328D01*
X48288142Y-37000328D02*
X48502428Y-36928900D01*
X48502428Y-36928900D02*
X48645285Y-36786042D01*
X48645285Y-36786042D02*
X48716714Y-36643185D01*
X48716714Y-36643185D02*
X48788142Y-36357471D01*
X48788142Y-36357471D02*
X48788142Y-36143185D01*
X48788142Y-36143185D02*
X48716714Y-35857471D01*
X48716714Y-35857471D02*
X48645285Y-35714614D01*
X48645285Y-35714614D02*
X48502428Y-35571757D01*
X48502428Y-35571757D02*
X48288142Y-35500328D01*
X48288142Y-35500328D02*
X48145285Y-35500328D01*
X48145285Y-35500328D02*
X47930999Y-35571757D01*
X47930999Y-35571757D02*
X47859571Y-35643185D01*
D12*
X90958419Y-54787943D02*
X89958419Y-54787943D01*
X89958419Y-54787943D02*
X90958419Y-55359371D01*
X90958419Y-55359371D02*
X89958419Y-55359371D01*
X89958419Y-55692705D02*
X89958419Y-56264133D01*
X90958419Y-55978419D02*
X89958419Y-55978419D01*
X90958419Y-57121276D02*
X90958419Y-56549848D01*
X90958419Y-56835562D02*
X89958419Y-56835562D01*
X89958419Y-56835562D02*
X90101276Y-56740324D01*
X90101276Y-56740324D02*
X90196514Y-56645086D01*
X90196514Y-56645086D02*
X90244133Y-56549848D01*
X73921857Y-94339580D02*
X73969476Y-94387200D01*
X73969476Y-94387200D02*
X74112333Y-94434819D01*
X74112333Y-94434819D02*
X74207571Y-94434819D01*
X74207571Y-94434819D02*
X74350428Y-94387200D01*
X74350428Y-94387200D02*
X74445666Y-94291961D01*
X74445666Y-94291961D02*
X74493285Y-94196723D01*
X74493285Y-94196723D02*
X74540904Y-94006247D01*
X74540904Y-94006247D02*
X74540904Y-93863390D01*
X74540904Y-93863390D02*
X74493285Y-93672914D01*
X74493285Y-93672914D02*
X74445666Y-93577676D01*
X74445666Y-93577676D02*
X74350428Y-93482438D01*
X74350428Y-93482438D02*
X74207571Y-93434819D01*
X74207571Y-93434819D02*
X74112333Y-93434819D01*
X74112333Y-93434819D02*
X73969476Y-93482438D01*
X73969476Y-93482438D02*
X73921857Y-93530057D01*
X73540904Y-93530057D02*
X73493285Y-93482438D01*
X73493285Y-93482438D02*
X73398047Y-93434819D01*
X73398047Y-93434819D02*
X73159952Y-93434819D01*
X73159952Y-93434819D02*
X73064714Y-93482438D01*
X73064714Y-93482438D02*
X73017095Y-93530057D01*
X73017095Y-93530057D02*
X72969476Y-93625295D01*
X72969476Y-93625295D02*
X72969476Y-93720533D01*
X72969476Y-93720533D02*
X73017095Y-93863390D01*
X73017095Y-93863390D02*
X73588523Y-94434819D01*
X73588523Y-94434819D02*
X72969476Y-94434819D01*
X72493285Y-94434819D02*
X72302809Y-94434819D01*
X72302809Y-94434819D02*
X72207571Y-94387200D01*
X72207571Y-94387200D02*
X72159952Y-94339580D01*
X72159952Y-94339580D02*
X72064714Y-94196723D01*
X72064714Y-94196723D02*
X72017095Y-94006247D01*
X72017095Y-94006247D02*
X72017095Y-93625295D01*
X72017095Y-93625295D02*
X72064714Y-93530057D01*
X72064714Y-93530057D02*
X72112333Y-93482438D01*
X72112333Y-93482438D02*
X72207571Y-93434819D01*
X72207571Y-93434819D02*
X72398047Y-93434819D01*
X72398047Y-93434819D02*
X72493285Y-93482438D01*
X72493285Y-93482438D02*
X72540904Y-93530057D01*
X72540904Y-93530057D02*
X72588523Y-93625295D01*
X72588523Y-93625295D02*
X72588523Y-93863390D01*
X72588523Y-93863390D02*
X72540904Y-93958628D01*
X72540904Y-93958628D02*
X72493285Y-94006247D01*
X72493285Y-94006247D02*
X72398047Y-94053866D01*
X72398047Y-94053866D02*
X72207571Y-94053866D01*
X72207571Y-94053866D02*
X72112333Y-94006247D01*
X72112333Y-94006247D02*
X72064714Y-93958628D01*
X72064714Y-93958628D02*
X72017095Y-93863390D01*
X82909580Y-93972142D02*
X82957200Y-93924523D01*
X82957200Y-93924523D02*
X83004819Y-93781666D01*
X83004819Y-93781666D02*
X83004819Y-93686428D01*
X83004819Y-93686428D02*
X82957200Y-93543571D01*
X82957200Y-93543571D02*
X82861961Y-93448333D01*
X82861961Y-93448333D02*
X82766723Y-93400714D01*
X82766723Y-93400714D02*
X82576247Y-93353095D01*
X82576247Y-93353095D02*
X82433390Y-93353095D01*
X82433390Y-93353095D02*
X82242914Y-93400714D01*
X82242914Y-93400714D02*
X82147676Y-93448333D01*
X82147676Y-93448333D02*
X82052438Y-93543571D01*
X82052438Y-93543571D02*
X82004819Y-93686428D01*
X82004819Y-93686428D02*
X82004819Y-93781666D01*
X82004819Y-93781666D02*
X82052438Y-93924523D01*
X82052438Y-93924523D02*
X82100057Y-93972142D01*
X83004819Y-94924523D02*
X83004819Y-94353095D01*
X83004819Y-94638809D02*
X82004819Y-94638809D01*
X82004819Y-94638809D02*
X82147676Y-94543571D01*
X82147676Y-94543571D02*
X82242914Y-94448333D01*
X82242914Y-94448333D02*
X82290533Y-94353095D01*
X82004819Y-95257857D02*
X82004819Y-95924523D01*
X82004819Y-95924523D02*
X83004819Y-95495952D01*
X73083580Y-80288642D02*
X73131200Y-80241023D01*
X73131200Y-80241023D02*
X73178819Y-80098166D01*
X73178819Y-80098166D02*
X73178819Y-80002928D01*
X73178819Y-80002928D02*
X73131200Y-79860071D01*
X73131200Y-79860071D02*
X73035961Y-79764833D01*
X73035961Y-79764833D02*
X72940723Y-79717214D01*
X72940723Y-79717214D02*
X72750247Y-79669595D01*
X72750247Y-79669595D02*
X72607390Y-79669595D01*
X72607390Y-79669595D02*
X72416914Y-79717214D01*
X72416914Y-79717214D02*
X72321676Y-79764833D01*
X72321676Y-79764833D02*
X72226438Y-79860071D01*
X72226438Y-79860071D02*
X72178819Y-80002928D01*
X72178819Y-80002928D02*
X72178819Y-80098166D01*
X72178819Y-80098166D02*
X72226438Y-80241023D01*
X72226438Y-80241023D02*
X72274057Y-80288642D01*
X73178819Y-81241023D02*
X73178819Y-80669595D01*
X73178819Y-80955309D02*
X72178819Y-80955309D01*
X72178819Y-80955309D02*
X72321676Y-80860071D01*
X72321676Y-80860071D02*
X72416914Y-80764833D01*
X72416914Y-80764833D02*
X72464533Y-80669595D01*
X73178819Y-82193404D02*
X73178819Y-81621976D01*
X73178819Y-81907690D02*
X72178819Y-81907690D01*
X72178819Y-81907690D02*
X72321676Y-81812452D01*
X72321676Y-81812452D02*
X72416914Y-81717214D01*
X72416914Y-81717214D02*
X72464533Y-81621976D01*
X72495580Y-78319333D02*
X72543200Y-78271714D01*
X72543200Y-78271714D02*
X72590819Y-78128857D01*
X72590819Y-78128857D02*
X72590819Y-78033619D01*
X72590819Y-78033619D02*
X72543200Y-77890762D01*
X72543200Y-77890762D02*
X72447961Y-77795524D01*
X72447961Y-77795524D02*
X72352723Y-77747905D01*
X72352723Y-77747905D02*
X72162247Y-77700286D01*
X72162247Y-77700286D02*
X72019390Y-77700286D01*
X72019390Y-77700286D02*
X71828914Y-77747905D01*
X71828914Y-77747905D02*
X71733676Y-77795524D01*
X71733676Y-77795524D02*
X71638438Y-77890762D01*
X71638438Y-77890762D02*
X71590819Y-78033619D01*
X71590819Y-78033619D02*
X71590819Y-78128857D01*
X71590819Y-78128857D02*
X71638438Y-78271714D01*
X71638438Y-78271714D02*
X71686057Y-78319333D01*
X71590819Y-79224095D02*
X71590819Y-78747905D01*
X71590819Y-78747905D02*
X72067009Y-78700286D01*
X72067009Y-78700286D02*
X72019390Y-78747905D01*
X72019390Y-78747905D02*
X71971771Y-78843143D01*
X71971771Y-78843143D02*
X71971771Y-79081238D01*
X71971771Y-79081238D02*
X72019390Y-79176476D01*
X72019390Y-79176476D02*
X72067009Y-79224095D01*
X72067009Y-79224095D02*
X72162247Y-79271714D01*
X72162247Y-79271714D02*
X72400342Y-79271714D01*
X72400342Y-79271714D02*
X72495580Y-79224095D01*
X72495580Y-79224095D02*
X72543200Y-79176476D01*
X72543200Y-79176476D02*
X72590819Y-79081238D01*
X72590819Y-79081238D02*
X72590819Y-78843143D01*
X72590819Y-78843143D02*
X72543200Y-78747905D01*
X72543200Y-78747905D02*
X72495580Y-78700286D01*
X72559819Y-84074095D02*
X73369342Y-84074095D01*
X73369342Y-84074095D02*
X73464580Y-84121714D01*
X73464580Y-84121714D02*
X73512200Y-84169333D01*
X73512200Y-84169333D02*
X73559819Y-84264571D01*
X73559819Y-84264571D02*
X73559819Y-84455047D01*
X73559819Y-84455047D02*
X73512200Y-84550285D01*
X73512200Y-84550285D02*
X73464580Y-84597904D01*
X73464580Y-84597904D02*
X73369342Y-84645523D01*
X73369342Y-84645523D02*
X72559819Y-84645523D01*
X72559819Y-85597904D02*
X72559819Y-85121714D01*
X72559819Y-85121714D02*
X73036009Y-85074095D01*
X73036009Y-85074095D02*
X72988390Y-85121714D01*
X72988390Y-85121714D02*
X72940771Y-85216952D01*
X72940771Y-85216952D02*
X72940771Y-85455047D01*
X72940771Y-85455047D02*
X72988390Y-85550285D01*
X72988390Y-85550285D02*
X73036009Y-85597904D01*
X73036009Y-85597904D02*
X73131247Y-85645523D01*
X73131247Y-85645523D02*
X73369342Y-85645523D01*
X73369342Y-85645523D02*
X73464580Y-85597904D01*
X73464580Y-85597904D02*
X73512200Y-85550285D01*
X73512200Y-85550285D02*
X73559819Y-85455047D01*
X73559819Y-85455047D02*
X73559819Y-85216952D01*
X73559819Y-85216952D02*
X73512200Y-85121714D01*
X73512200Y-85121714D02*
X73464580Y-85074095D01*
X70492857Y-98149580D02*
X70540476Y-98197200D01*
X70540476Y-98197200D02*
X70683333Y-98244819D01*
X70683333Y-98244819D02*
X70778571Y-98244819D01*
X70778571Y-98244819D02*
X70921428Y-98197200D01*
X70921428Y-98197200D02*
X71016666Y-98101961D01*
X71016666Y-98101961D02*
X71064285Y-98006723D01*
X71064285Y-98006723D02*
X71111904Y-97816247D01*
X71111904Y-97816247D02*
X71111904Y-97673390D01*
X71111904Y-97673390D02*
X71064285Y-97482914D01*
X71064285Y-97482914D02*
X71016666Y-97387676D01*
X71016666Y-97387676D02*
X70921428Y-97292438D01*
X70921428Y-97292438D02*
X70778571Y-97244819D01*
X70778571Y-97244819D02*
X70683333Y-97244819D01*
X70683333Y-97244819D02*
X70540476Y-97292438D01*
X70540476Y-97292438D02*
X70492857Y-97340057D01*
X69540476Y-98244819D02*
X70111904Y-98244819D01*
X69826190Y-98244819D02*
X69826190Y-97244819D01*
X69826190Y-97244819D02*
X69921428Y-97387676D01*
X69921428Y-97387676D02*
X70016666Y-97482914D01*
X70016666Y-97482914D02*
X70111904Y-97530533D01*
X68683333Y-97244819D02*
X68873809Y-97244819D01*
X68873809Y-97244819D02*
X68969047Y-97292438D01*
X68969047Y-97292438D02*
X69016666Y-97340057D01*
X69016666Y-97340057D02*
X69111904Y-97482914D01*
X69111904Y-97482914D02*
X69159523Y-97673390D01*
X69159523Y-97673390D02*
X69159523Y-98054342D01*
X69159523Y-98054342D02*
X69111904Y-98149580D01*
X69111904Y-98149580D02*
X69064285Y-98197200D01*
X69064285Y-98197200D02*
X68969047Y-98244819D01*
X68969047Y-98244819D02*
X68778571Y-98244819D01*
X68778571Y-98244819D02*
X68683333Y-98197200D01*
X68683333Y-98197200D02*
X68635714Y-98149580D01*
X68635714Y-98149580D02*
X68588095Y-98054342D01*
X68588095Y-98054342D02*
X68588095Y-97816247D01*
X68588095Y-97816247D02*
X68635714Y-97721009D01*
X68635714Y-97721009D02*
X68683333Y-97673390D01*
X68683333Y-97673390D02*
X68778571Y-97625771D01*
X68778571Y-97625771D02*
X68969047Y-97625771D01*
X68969047Y-97625771D02*
X69064285Y-97673390D01*
X69064285Y-97673390D02*
X69111904Y-97721009D01*
X69111904Y-97721009D02*
X69159523Y-97816247D01*
X69635666Y-66272580D02*
X69683285Y-66320200D01*
X69683285Y-66320200D02*
X69826142Y-66367819D01*
X69826142Y-66367819D02*
X69921380Y-66367819D01*
X69921380Y-66367819D02*
X70064237Y-66320200D01*
X70064237Y-66320200D02*
X70159475Y-66224961D01*
X70159475Y-66224961D02*
X70207094Y-66129723D01*
X70207094Y-66129723D02*
X70254713Y-65939247D01*
X70254713Y-65939247D02*
X70254713Y-65796390D01*
X70254713Y-65796390D02*
X70207094Y-65605914D01*
X70207094Y-65605914D02*
X70159475Y-65510676D01*
X70159475Y-65510676D02*
X70064237Y-65415438D01*
X70064237Y-65415438D02*
X69921380Y-65367819D01*
X69921380Y-65367819D02*
X69826142Y-65367819D01*
X69826142Y-65367819D02*
X69683285Y-65415438D01*
X69683285Y-65415438D02*
X69635666Y-65463057D01*
X68778523Y-65701152D02*
X68778523Y-66367819D01*
X69016618Y-65320200D02*
X69254713Y-66034485D01*
X69254713Y-66034485D02*
X68635666Y-66034485D01*
X69574580Y-102100142D02*
X69622200Y-102052523D01*
X69622200Y-102052523D02*
X69669819Y-101909666D01*
X69669819Y-101909666D02*
X69669819Y-101814428D01*
X69669819Y-101814428D02*
X69622200Y-101671571D01*
X69622200Y-101671571D02*
X69526961Y-101576333D01*
X69526961Y-101576333D02*
X69431723Y-101528714D01*
X69431723Y-101528714D02*
X69241247Y-101481095D01*
X69241247Y-101481095D02*
X69098390Y-101481095D01*
X69098390Y-101481095D02*
X68907914Y-101528714D01*
X68907914Y-101528714D02*
X68812676Y-101576333D01*
X68812676Y-101576333D02*
X68717438Y-101671571D01*
X68717438Y-101671571D02*
X68669819Y-101814428D01*
X68669819Y-101814428D02*
X68669819Y-101909666D01*
X68669819Y-101909666D02*
X68717438Y-102052523D01*
X68717438Y-102052523D02*
X68765057Y-102100142D01*
X68669819Y-102433476D02*
X68669819Y-103052523D01*
X68669819Y-103052523D02*
X69050771Y-102719190D01*
X69050771Y-102719190D02*
X69050771Y-102862047D01*
X69050771Y-102862047D02*
X69098390Y-102957285D01*
X69098390Y-102957285D02*
X69146009Y-103004904D01*
X69146009Y-103004904D02*
X69241247Y-103052523D01*
X69241247Y-103052523D02*
X69479342Y-103052523D01*
X69479342Y-103052523D02*
X69574580Y-103004904D01*
X69574580Y-103004904D02*
X69622200Y-102957285D01*
X69622200Y-102957285D02*
X69669819Y-102862047D01*
X69669819Y-102862047D02*
X69669819Y-102576333D01*
X69669819Y-102576333D02*
X69622200Y-102481095D01*
X69622200Y-102481095D02*
X69574580Y-102433476D01*
X69669819Y-104004904D02*
X69669819Y-103433476D01*
X69669819Y-103719190D02*
X68669819Y-103719190D01*
X68669819Y-103719190D02*
X68812676Y-103623952D01*
X68812676Y-103623952D02*
X68907914Y-103528714D01*
X68907914Y-103528714D02*
X68955533Y-103433476D01*
X71000857Y-88624580D02*
X71048476Y-88672200D01*
X71048476Y-88672200D02*
X71191333Y-88719819D01*
X71191333Y-88719819D02*
X71286571Y-88719819D01*
X71286571Y-88719819D02*
X71429428Y-88672200D01*
X71429428Y-88672200D02*
X71524666Y-88576961D01*
X71524666Y-88576961D02*
X71572285Y-88481723D01*
X71572285Y-88481723D02*
X71619904Y-88291247D01*
X71619904Y-88291247D02*
X71619904Y-88148390D01*
X71619904Y-88148390D02*
X71572285Y-87957914D01*
X71572285Y-87957914D02*
X71524666Y-87862676D01*
X71524666Y-87862676D02*
X71429428Y-87767438D01*
X71429428Y-87767438D02*
X71286571Y-87719819D01*
X71286571Y-87719819D02*
X71191333Y-87719819D01*
X71191333Y-87719819D02*
X71048476Y-87767438D01*
X71048476Y-87767438D02*
X71000857Y-87815057D01*
X70048476Y-88719819D02*
X70619904Y-88719819D01*
X70334190Y-88719819D02*
X70334190Y-87719819D01*
X70334190Y-87719819D02*
X70429428Y-87862676D01*
X70429428Y-87862676D02*
X70524666Y-87957914D01*
X70524666Y-87957914D02*
X70619904Y-88005533D01*
X69143714Y-87719819D02*
X69619904Y-87719819D01*
X69619904Y-87719819D02*
X69667523Y-88196009D01*
X69667523Y-88196009D02*
X69619904Y-88148390D01*
X69619904Y-88148390D02*
X69524666Y-88100771D01*
X69524666Y-88100771D02*
X69286571Y-88100771D01*
X69286571Y-88100771D02*
X69191333Y-88148390D01*
X69191333Y-88148390D02*
X69143714Y-88196009D01*
X69143714Y-88196009D02*
X69096095Y-88291247D01*
X69096095Y-88291247D02*
X69096095Y-88529342D01*
X69096095Y-88529342D02*
X69143714Y-88624580D01*
X69143714Y-88624580D02*
X69191333Y-88672200D01*
X69191333Y-88672200D02*
X69286571Y-88719819D01*
X69286571Y-88719819D02*
X69524666Y-88719819D01*
X69524666Y-88719819D02*
X69619904Y-88672200D01*
X69619904Y-88672200D02*
X69667523Y-88624580D01*
X73003580Y-75017333D02*
X73051200Y-74969714D01*
X73051200Y-74969714D02*
X73098819Y-74826857D01*
X73098819Y-74826857D02*
X73098819Y-74731619D01*
X73098819Y-74731619D02*
X73051200Y-74588762D01*
X73051200Y-74588762D02*
X72955961Y-74493524D01*
X72955961Y-74493524D02*
X72860723Y-74445905D01*
X72860723Y-74445905D02*
X72670247Y-74398286D01*
X72670247Y-74398286D02*
X72527390Y-74398286D01*
X72527390Y-74398286D02*
X72336914Y-74445905D01*
X72336914Y-74445905D02*
X72241676Y-74493524D01*
X72241676Y-74493524D02*
X72146438Y-74588762D01*
X72146438Y-74588762D02*
X72098819Y-74731619D01*
X72098819Y-74731619D02*
X72098819Y-74826857D01*
X72098819Y-74826857D02*
X72146438Y-74969714D01*
X72146438Y-74969714D02*
X72194057Y-75017333D01*
X72527390Y-75588762D02*
X72479771Y-75493524D01*
X72479771Y-75493524D02*
X72432152Y-75445905D01*
X72432152Y-75445905D02*
X72336914Y-75398286D01*
X72336914Y-75398286D02*
X72289295Y-75398286D01*
X72289295Y-75398286D02*
X72194057Y-75445905D01*
X72194057Y-75445905D02*
X72146438Y-75493524D01*
X72146438Y-75493524D02*
X72098819Y-75588762D01*
X72098819Y-75588762D02*
X72098819Y-75779238D01*
X72098819Y-75779238D02*
X72146438Y-75874476D01*
X72146438Y-75874476D02*
X72194057Y-75922095D01*
X72194057Y-75922095D02*
X72289295Y-75969714D01*
X72289295Y-75969714D02*
X72336914Y-75969714D01*
X72336914Y-75969714D02*
X72432152Y-75922095D01*
X72432152Y-75922095D02*
X72479771Y-75874476D01*
X72479771Y-75874476D02*
X72527390Y-75779238D01*
X72527390Y-75779238D02*
X72527390Y-75588762D01*
X72527390Y-75588762D02*
X72575009Y-75493524D01*
X72575009Y-75493524D02*
X72622628Y-75445905D01*
X72622628Y-75445905D02*
X72717866Y-75398286D01*
X72717866Y-75398286D02*
X72908342Y-75398286D01*
X72908342Y-75398286D02*
X73003580Y-75445905D01*
X73003580Y-75445905D02*
X73051200Y-75493524D01*
X73051200Y-75493524D02*
X73098819Y-75588762D01*
X73098819Y-75588762D02*
X73098819Y-75779238D01*
X73098819Y-75779238D02*
X73051200Y-75874476D01*
X73051200Y-75874476D02*
X73003580Y-75922095D01*
X73003580Y-75922095D02*
X72908342Y-75969714D01*
X72908342Y-75969714D02*
X72717866Y-75969714D01*
X72717866Y-75969714D02*
X72622628Y-75922095D01*
X72622628Y-75922095D02*
X72575009Y-75874476D01*
X72575009Y-75874476D02*
X72527390Y-75779238D01*
X101165819Y-69175333D02*
X101165819Y-68699143D01*
X101165819Y-68699143D02*
X100165819Y-68699143D01*
X101165819Y-70032476D02*
X101165819Y-69461048D01*
X101165819Y-69746762D02*
X100165819Y-69746762D01*
X100165819Y-69746762D02*
X100308676Y-69651524D01*
X100308676Y-69651524D02*
X100403914Y-69556286D01*
X100403914Y-69556286D02*
X100451533Y-69461048D01*
X94339580Y-94067333D02*
X94387200Y-94019714D01*
X94387200Y-94019714D02*
X94434819Y-93876857D01*
X94434819Y-93876857D02*
X94434819Y-93781619D01*
X94434819Y-93781619D02*
X94387200Y-93638762D01*
X94387200Y-93638762D02*
X94291961Y-93543524D01*
X94291961Y-93543524D02*
X94196723Y-93495905D01*
X94196723Y-93495905D02*
X94006247Y-93448286D01*
X94006247Y-93448286D02*
X93863390Y-93448286D01*
X93863390Y-93448286D02*
X93672914Y-93495905D01*
X93672914Y-93495905D02*
X93577676Y-93543524D01*
X93577676Y-93543524D02*
X93482438Y-93638762D01*
X93482438Y-93638762D02*
X93434819Y-93781619D01*
X93434819Y-93781619D02*
X93434819Y-93876857D01*
X93434819Y-93876857D02*
X93482438Y-94019714D01*
X93482438Y-94019714D02*
X93530057Y-94067333D01*
X93530057Y-94448286D02*
X93482438Y-94495905D01*
X93482438Y-94495905D02*
X93434819Y-94591143D01*
X93434819Y-94591143D02*
X93434819Y-94829238D01*
X93434819Y-94829238D02*
X93482438Y-94924476D01*
X93482438Y-94924476D02*
X93530057Y-94972095D01*
X93530057Y-94972095D02*
X93625295Y-95019714D01*
X93625295Y-95019714D02*
X93720533Y-95019714D01*
X93720533Y-95019714D02*
X93863390Y-94972095D01*
X93863390Y-94972095D02*
X94434819Y-94400667D01*
X94434819Y-94400667D02*
X94434819Y-95019714D01*
X71590819Y-69977095D02*
X72400342Y-69977095D01*
X72400342Y-69977095D02*
X72495580Y-70024714D01*
X72495580Y-70024714D02*
X72543200Y-70072333D01*
X72543200Y-70072333D02*
X72590819Y-70167571D01*
X72590819Y-70167571D02*
X72590819Y-70358047D01*
X72590819Y-70358047D02*
X72543200Y-70453285D01*
X72543200Y-70453285D02*
X72495580Y-70500904D01*
X72495580Y-70500904D02*
X72400342Y-70548523D01*
X72400342Y-70548523D02*
X71590819Y-70548523D01*
X72590819Y-71548523D02*
X72590819Y-70977095D01*
X72590819Y-71262809D02*
X71590819Y-71262809D01*
X71590819Y-71262809D02*
X71733676Y-71167571D01*
X71733676Y-71167571D02*
X71828914Y-71072333D01*
X71828914Y-71072333D02*
X71876533Y-70977095D01*
X74241819Y-89876333D02*
X73765628Y-89543000D01*
X74241819Y-89304905D02*
X73241819Y-89304905D01*
X73241819Y-89304905D02*
X73241819Y-89685857D01*
X73241819Y-89685857D02*
X73289438Y-89781095D01*
X73289438Y-89781095D02*
X73337057Y-89828714D01*
X73337057Y-89828714D02*
X73432295Y-89876333D01*
X73432295Y-89876333D02*
X73575152Y-89876333D01*
X73575152Y-89876333D02*
X73670390Y-89828714D01*
X73670390Y-89828714D02*
X73718009Y-89781095D01*
X73718009Y-89781095D02*
X73765628Y-89685857D01*
X73765628Y-89685857D02*
X73765628Y-89304905D01*
X73337057Y-90257286D02*
X73289438Y-90304905D01*
X73289438Y-90304905D02*
X73241819Y-90400143D01*
X73241819Y-90400143D02*
X73241819Y-90638238D01*
X73241819Y-90638238D02*
X73289438Y-90733476D01*
X73289438Y-90733476D02*
X73337057Y-90781095D01*
X73337057Y-90781095D02*
X73432295Y-90828714D01*
X73432295Y-90828714D02*
X73527533Y-90828714D01*
X73527533Y-90828714D02*
X73670390Y-90781095D01*
X73670390Y-90781095D02*
X74241819Y-90209667D01*
X74241819Y-90209667D02*
X74241819Y-90828714D01*
X91275819Y-97282095D02*
X92085342Y-97282095D01*
X92085342Y-97282095D02*
X92180580Y-97329714D01*
X92180580Y-97329714D02*
X92228200Y-97377333D01*
X92228200Y-97377333D02*
X92275819Y-97472571D01*
X92275819Y-97472571D02*
X92275819Y-97663047D01*
X92275819Y-97663047D02*
X92228200Y-97758285D01*
X92228200Y-97758285D02*
X92180580Y-97805904D01*
X92180580Y-97805904D02*
X92085342Y-97853523D01*
X92085342Y-97853523D02*
X91275819Y-97853523D01*
X92275819Y-98377333D02*
X92275819Y-98567809D01*
X92275819Y-98567809D02*
X92228200Y-98663047D01*
X92228200Y-98663047D02*
X92180580Y-98710666D01*
X92180580Y-98710666D02*
X92037723Y-98805904D01*
X92037723Y-98805904D02*
X91847247Y-98853523D01*
X91847247Y-98853523D02*
X91466295Y-98853523D01*
X91466295Y-98853523D02*
X91371057Y-98805904D01*
X91371057Y-98805904D02*
X91323438Y-98758285D01*
X91323438Y-98758285D02*
X91275819Y-98663047D01*
X91275819Y-98663047D02*
X91275819Y-98472571D01*
X91275819Y-98472571D02*
X91323438Y-98377333D01*
X91323438Y-98377333D02*
X91371057Y-98329714D01*
X91371057Y-98329714D02*
X91466295Y-98282095D01*
X91466295Y-98282095D02*
X91704390Y-98282095D01*
X91704390Y-98282095D02*
X91799628Y-98329714D01*
X91799628Y-98329714D02*
X91847247Y-98377333D01*
X91847247Y-98377333D02*
X91894866Y-98472571D01*
X91894866Y-98472571D02*
X91894866Y-98663047D01*
X91894866Y-98663047D02*
X91847247Y-98758285D01*
X91847247Y-98758285D02*
X91799628Y-98805904D01*
X91799628Y-98805904D02*
X91704390Y-98853523D01*
X100943580Y-64730333D02*
X100991200Y-64682714D01*
X100991200Y-64682714D02*
X101038819Y-64539857D01*
X101038819Y-64539857D02*
X101038819Y-64444619D01*
X101038819Y-64444619D02*
X100991200Y-64301762D01*
X100991200Y-64301762D02*
X100895961Y-64206524D01*
X100895961Y-64206524D02*
X100800723Y-64158905D01*
X100800723Y-64158905D02*
X100610247Y-64111286D01*
X100610247Y-64111286D02*
X100467390Y-64111286D01*
X100467390Y-64111286D02*
X100276914Y-64158905D01*
X100276914Y-64158905D02*
X100181676Y-64206524D01*
X100181676Y-64206524D02*
X100086438Y-64301762D01*
X100086438Y-64301762D02*
X100038819Y-64444619D01*
X100038819Y-64444619D02*
X100038819Y-64539857D01*
X100038819Y-64539857D02*
X100086438Y-64682714D01*
X100086438Y-64682714D02*
X100134057Y-64730333D01*
X100038819Y-65063667D02*
X100038819Y-65730333D01*
X100038819Y-65730333D02*
X101038819Y-65301762D01*
X92114666Y-91386819D02*
X92447999Y-90910628D01*
X92686094Y-91386819D02*
X92686094Y-90386819D01*
X92686094Y-90386819D02*
X92305142Y-90386819D01*
X92305142Y-90386819D02*
X92209904Y-90434438D01*
X92209904Y-90434438D02*
X92162285Y-90482057D01*
X92162285Y-90482057D02*
X92114666Y-90577295D01*
X92114666Y-90577295D02*
X92114666Y-90720152D01*
X92114666Y-90720152D02*
X92162285Y-90815390D01*
X92162285Y-90815390D02*
X92209904Y-90863009D01*
X92209904Y-90863009D02*
X92305142Y-90910628D01*
X92305142Y-90910628D02*
X92686094Y-90910628D01*
X91162285Y-91386819D02*
X91733713Y-91386819D01*
X91447999Y-91386819D02*
X91447999Y-90386819D01*
X91447999Y-90386819D02*
X91543237Y-90529676D01*
X91543237Y-90529676D02*
X91638475Y-90624914D01*
X91638475Y-90624914D02*
X91733713Y-90672533D01*
D13*
X91303600Y-54530800D02*
X91303600Y-57330800D01*
X93303600Y-54530800D02*
X91303600Y-54530800D01*
X91303600Y-57330800D02*
X93303600Y-57330800D01*
X93303600Y-57330800D02*
X93303600Y-54530800D01*
X78964000Y-104687000D02*
X78964000Y-103687000D01*
X79464000Y-104187000D02*
X78464000Y-104187000D01*
X73258437Y-103447000D02*
X74944000Y-103447000D01*
X73258437Y-103447000D02*
X72194000Y-102382563D01*
X79649563Y-103447000D02*
X77964000Y-103447000D01*
X79649563Y-103447000D02*
X80714000Y-102382563D01*
X72194000Y-102382563D02*
X72194000Y-94927000D01*
X80714000Y-102382563D02*
X80714000Y-94927000D01*
X72194000Y-94927000D02*
X74944000Y-94927000D01*
X80714000Y-94927000D02*
X77964000Y-94927000D01*
X81815000Y-98305252D02*
X81815000Y-97782748D01*
X83285000Y-98305252D02*
X83285000Y-97782748D01*
X70111252Y-81702500D02*
X69588748Y-81702500D01*
X70111252Y-80232500D02*
X69588748Y-80232500D01*
X69476252Y-79221000D02*
X68953748Y-79221000D01*
X69476252Y-77751000D02*
X68953748Y-77751000D01*
X70877000Y-86482000D02*
X69077000Y-86482000D01*
X69877000Y-83262000D02*
X70677000Y-83262000D01*
X69877000Y-83262000D02*
X69077000Y-83262000D01*
X71177000Y-83337000D02*
X70937000Y-83007000D01*
X71417000Y-83007000D01*
X71177000Y-83337000D01*
G36*
X71177000Y-83337000D02*
G01*
X70937000Y-83007000D01*
X71417000Y-83007000D01*
X71177000Y-83337000D01*
G37*
X71210000Y-93776748D02*
X71210000Y-95199252D01*
X68490000Y-93776748D02*
X68490000Y-95199252D01*
X69730252Y-68553000D02*
X69207748Y-68553000D01*
X69730252Y-67083000D02*
X69207748Y-67083000D01*
X67918000Y-102481748D02*
X67918000Y-103004252D01*
X66448000Y-102481748D02*
X66448000Y-103004252D01*
X67083000Y-89288252D02*
X67083000Y-88765748D01*
X68553000Y-89288252D02*
X68553000Y-88765748D01*
X69926252Y-76544000D02*
X68503748Y-76544000D01*
X69926252Y-73824000D02*
X68503748Y-73824000D01*
X101675000Y-69741622D02*
X101675000Y-68942378D01*
X102795000Y-69741622D02*
X102795000Y-68942378D01*
X104814000Y-88930000D02*
X103814000Y-88930000D01*
X104314000Y-88430000D02*
X104314000Y-89430000D01*
X103574000Y-94635563D02*
X103574000Y-92950000D01*
X103574000Y-94635563D02*
X102509563Y-95700000D01*
X103574000Y-88244437D02*
X103574000Y-89930000D01*
X103574000Y-88244437D02*
X102509563Y-87180000D01*
X102509563Y-95700000D02*
X95054000Y-95700000D01*
X102509563Y-87180000D02*
X95054000Y-87180000D01*
X95054000Y-95700000D02*
X95054000Y-92950000D01*
X95054000Y-87180000D02*
X95054000Y-89930000D01*
X69215000Y-69179000D02*
X68415000Y-69179000D01*
X69215000Y-69179000D02*
X70015000Y-69179000D01*
X69215000Y-72299000D02*
X68415000Y-72299000D01*
X69215000Y-72299000D02*
X70015000Y-72299000D01*
X68155000Y-72579000D02*
X67675000Y-72579000D01*
X67915000Y-72249000D01*
X68155000Y-72579000D01*
G36*
X68155000Y-72579000D02*
G01*
X67675000Y-72579000D01*
X67915000Y-72249000D01*
X68155000Y-72579000D01*
G37*
X71347064Y-90778000D02*
X70892936Y-90778000D01*
X71347064Y-89308000D02*
X70892936Y-89308000D01*
X90803000Y-94244000D02*
X85003000Y-94244000D01*
X85003000Y-94244000D02*
X84103000Y-95144000D01*
X84103000Y-95144000D02*
X84103000Y-101844000D01*
X90803000Y-101844000D02*
X90803000Y-94244000D01*
X84103000Y-101844000D02*
X90803000Y-101844000D01*
D11*
X85003000Y-95044000D02*
G75*
G03*
X84803000Y-95044000I-100000J0D01*
G01*
X84803000Y-95044000D02*
G75*
G03*
X85003000Y-95044000I100000J0D01*
G01*
D13*
X102970000Y-64635748D02*
X102970000Y-65158252D01*
X101500000Y-64635748D02*
X101500000Y-65158252D01*
X89127064Y-91667000D02*
X88672936Y-91667000D01*
X89127064Y-90197000D02*
X88672936Y-90197000D01*
%LPC*%
D14*
X92303600Y-55205800D03*
D15*
X92303600Y-56655800D03*
D16*
X63754000Y-79375000D03*
X63754000Y-61468000D03*
D17*
X90000000Y-24525600D03*
D18*
X87460000Y-21985600D03*
X87460000Y-27065600D03*
X92540000Y-21985600D03*
X92540000Y-27065600D03*
D19*
X51181000Y-28176000D03*
D20*
X46156000Y-23151000D03*
X46156000Y-33201000D03*
X56206000Y-23151000D03*
X56206000Y-33201000D03*
D21*
X76708000Y-85344000D03*
D22*
X76708000Y-75819000D03*
X76708000Y-66294000D03*
X95758000Y-85344000D03*
X95758000Y-66294000D03*
D16*
X103378000Y-57404000D03*
X81026000Y-57404000D03*
D23*
X25760600Y-64145400D03*
D24*
X23220600Y-64145400D03*
X25760600Y-61605400D03*
X23220600Y-61605400D03*
X25760600Y-59065400D03*
X23220600Y-59065400D03*
D25*
X34557000Y-25019000D03*
X35259944Y-23321944D03*
X35259944Y-26716056D03*
X36957000Y-22619000D03*
D26*
X36957000Y-25019000D03*
D25*
X36957000Y-27419000D03*
X38654056Y-23321944D03*
X38654056Y-26716056D03*
X39357000Y-25019000D03*
D27*
X35687000Y-91059000D03*
D28*
X35687000Y-97359000D03*
D29*
X40487000Y-93959000D03*
D25*
X97600000Y-100000000D03*
X98302944Y-98302944D03*
X98302944Y-101697056D03*
X100000000Y-97600000D03*
D26*
X100000000Y-100000000D03*
D25*
X100000000Y-102400000D03*
X101697056Y-98302944D03*
X101697056Y-101697056D03*
X102400000Y-100000000D03*
D16*
X100076000Y-54864000D03*
D25*
X22492000Y-99949000D03*
X23194944Y-98251944D03*
X23194944Y-101646056D03*
X24892000Y-97549000D03*
D26*
X24892000Y-99949000D03*
D25*
X24892000Y-102349000D03*
X26589056Y-98251944D03*
X26589056Y-101646056D03*
X27292000Y-99949000D03*
D23*
X53203000Y-55118000D03*
D24*
X50663000Y-55118000D03*
X48123000Y-55118000D03*
X45583000Y-55118000D03*
D16*
X66294000Y-57404000D03*
D17*
X66000000Y-24525600D03*
D18*
X63460000Y-21985600D03*
X63460000Y-27065600D03*
X68540000Y-21985600D03*
X68540000Y-27065600D03*
D17*
X78000000Y-24525600D03*
D18*
X75460000Y-21985600D03*
X75460000Y-27065600D03*
X80540000Y-21985600D03*
X80540000Y-27065600D03*
D16*
X69469000Y-54864000D03*
D17*
X26908000Y-24525600D03*
D18*
X24368000Y-21985600D03*
X24368000Y-27065600D03*
X29448000Y-21985600D03*
X29448000Y-27065600D03*
D25*
X97549000Y-25019000D03*
X98251944Y-23321944D03*
X98251944Y-26716056D03*
X99949000Y-22619000D03*
D26*
X99949000Y-25019000D03*
D25*
X99949000Y-27419000D03*
X101646056Y-23321944D03*
X101646056Y-26716056D03*
X102349000Y-25019000D03*
D23*
X23215600Y-68529200D03*
D24*
X25755600Y-68529200D03*
X23215600Y-71069200D03*
X25755600Y-71069200D03*
X23215600Y-73609200D03*
X25755600Y-73609200D03*
X23215600Y-76149200D03*
X25755600Y-76149200D03*
D16*
X66294000Y-92456000D03*
D23*
X39497000Y-43561000D03*
D24*
X39497000Y-46101000D03*
X39497000Y-48641000D03*
D30*
X76454000Y-102437000D03*
X76454000Y-95937000D03*
D31*
X82550000Y-99081500D03*
X82550000Y-97006500D03*
D32*
X70887500Y-80967500D03*
X68812500Y-80967500D03*
X70252500Y-78486000D03*
X68177500Y-78486000D03*
D33*
X71327000Y-83892000D03*
X71327000Y-84542000D03*
X71327000Y-85202000D03*
X71327000Y-85852000D03*
X68627000Y-85852000D03*
X68627000Y-85202000D03*
X68627000Y-84542000D03*
X68627000Y-83892000D03*
D34*
X69850000Y-92925500D03*
X69850000Y-96050500D03*
D32*
X70506500Y-67818000D03*
X68431500Y-67818000D03*
D35*
X67183000Y-101705500D03*
X67183000Y-103780500D03*
D31*
X67818000Y-90064500D03*
X67818000Y-87989500D03*
D36*
X70777500Y-75184000D03*
X67652500Y-75184000D03*
D37*
X102235000Y-70404500D03*
X102235000Y-68279500D03*
D38*
X102564000Y-91440000D03*
X96064000Y-91440000D03*
D39*
X68077500Y-71689000D03*
X68077500Y-70739000D03*
X68077500Y-69789000D03*
X70352500Y-69789000D03*
X70352500Y-70739000D03*
X70352500Y-71689000D03*
D40*
X72120000Y-90043000D03*
X70120000Y-90043000D03*
D41*
X85598000Y-95469000D03*
X86868000Y-95469000D03*
X88138000Y-95469000D03*
X89408000Y-95469000D03*
X89408000Y-100619000D03*
X88138000Y-100619000D03*
X86868000Y-100619000D03*
X85598000Y-100619000D03*
D35*
X102235000Y-63859500D03*
X102235000Y-65934500D03*
D40*
X89900000Y-90932000D03*
X87900000Y-90932000D03*
%LPD*%
M02*
