G04 #@! TF.GenerationSoftware,KiCad,Pcbnew,7.0.11*
G04 #@! TF.CreationDate,2024-03-19T21:31:16+01:00*
G04 #@! TF.ProjectId,GPSDO,47505344-4f2e-46b6-9963-61645f706362,rev?*
G04 #@! TF.SameCoordinates,Original*
G04 #@! TF.FileFunction,Soldermask,Bot*
G04 #@! TF.FilePolarity,Negative*
%FSLAX46Y46*%
G04 Gerber Fmt 4.6, Leading zero omitted, Abs format (unit mm)*
G04 Created by KiCad (PCBNEW 7.0.11) date 2024-03-19 21:31:16*
%MOMM*%
%LPD*%
G01*
G04 APERTURE LIST*
G04 Aperture macros list*
%AMRoundRect*
0 Rectangle with rounded corners*
0 $1 Rounding radius*
0 $2 $3 $4 $5 $6 $7 $8 $9 X,Y pos of 4 corners*
0 Add a 4 corners polygon primitive as box body*
4,1,4,$2,$3,$4,$5,$6,$7,$8,$9,$2,$3,0*
0 Add four circle primitives for the rounded corners*
1,1,$1+$1,$2,$3*
1,1,$1+$1,$4,$5*
1,1,$1+$1,$6,$7*
1,1,$1+$1,$8,$9*
0 Add four rect primitives between the rounded corners*
20,1,$1+$1,$2,$3,$4,$5,0*
20,1,$1+$1,$4,$5,$6,$7,0*
20,1,$1+$1,$6,$7,$8,$9,0*
20,1,$1+$1,$8,$9,$2,$3,0*%
%AMFreePoly0*
4,1,6,1.000000,0.000000,0.500000,-0.750000,-0.500000,-0.750000,-0.500000,0.750000,0.500000,0.750000,1.000000,0.000000,1.000000,0.000000,$1*%
%AMFreePoly1*
4,1,6,0.500000,-0.750000,-0.650000,-0.750000,-0.150000,0.000000,-0.650000,0.750000,0.500000,0.750000,0.500000,-0.750000,0.500000,-0.750000,$1*%
G04 Aperture macros list end*
%ADD10FreePoly0,270.000000*%
%ADD11FreePoly1,270.000000*%
%ADD12R,2.000000X2.000000*%
%ADD13RoundRect,0.200100X-0.949900X-0.949900X0.949900X-0.949900X0.949900X0.949900X-0.949900X0.949900X0*%
%ADD14C,2.500000*%
%ADD15R,3.500000X3.500000*%
%ADD16C,4.000000*%
%ADD17R,1.600000X1.600000*%
%ADD18C,1.600000*%
%ADD19R,1.700000X1.700000*%
%ADD20O,1.700000X1.700000*%
%ADD21C,0.800000*%
%ADD22C,6.400000*%
%ADD23R,4.600000X2.000000*%
%ADD24O,4.200000X2.000000*%
%ADD25O,2.000000X4.200000*%
%ADD26RoundRect,0.250000X1.000000X-1.500000X1.000000X1.500000X-1.000000X1.500000X-1.000000X-1.500000X0*%
%ADD27RoundRect,0.250000X0.475000X-0.337500X0.475000X0.337500X-0.475000X0.337500X-0.475000X-0.337500X0*%
%ADD28RoundRect,0.250000X0.337500X0.475000X-0.337500X0.475000X-0.337500X-0.475000X0.337500X-0.475000X0*%
%ADD29RoundRect,0.100000X0.680000X0.100000X-0.680000X0.100000X-0.680000X-0.100000X0.680000X-0.100000X0*%
%ADD30RoundRect,0.250000X-1.100000X0.412500X-1.100000X-0.412500X1.100000X-0.412500X1.100000X0.412500X0*%
%ADD31RoundRect,0.250000X-0.475000X0.337500X-0.475000X-0.337500X0.475000X-0.337500X0.475000X0.337500X0*%
%ADD32RoundRect,0.250000X0.412500X1.100000X-0.412500X1.100000X-0.412500X-1.100000X0.412500X-1.100000X0*%
%ADD33RoundRect,0.218750X0.381250X-0.218750X0.381250X0.218750X-0.381250X0.218750X-0.381250X-0.218750X0*%
%ADD34RoundRect,0.250000X1.500000X1.000000X-1.500000X1.000000X-1.500000X-1.000000X1.500000X-1.000000X0*%
%ADD35RoundRect,0.150000X-0.512500X-0.150000X0.512500X-0.150000X0.512500X0.150000X-0.512500X0.150000X0*%
%ADD36RoundRect,0.250000X0.350000X0.450000X-0.350000X0.450000X-0.350000X-0.450000X0.350000X-0.450000X0*%
%ADD37RoundRect,0.150000X-0.150000X0.725000X-0.150000X-0.725000X0.150000X-0.725000X0.150000X0.725000X0*%
G04 APERTURE END LIST*
D10*
X92303600Y-55205800D03*
D11*
X92303600Y-56655800D03*
D12*
X63754000Y-79375000D03*
X63754000Y-61468000D03*
D13*
X90000000Y-24525600D03*
D14*
X87460000Y-21985600D03*
X87460000Y-27065600D03*
X92540000Y-21985600D03*
X92540000Y-27065600D03*
D15*
X51181000Y-28176000D03*
D16*
X46156000Y-23151000D03*
X46156000Y-33201000D03*
X56206000Y-23151000D03*
X56206000Y-33201000D03*
D17*
X76708000Y-85344000D03*
D18*
X76708000Y-75819000D03*
X76708000Y-66294000D03*
X95758000Y-85344000D03*
X95758000Y-66294000D03*
D12*
X103378000Y-57404000D03*
X81026000Y-57404000D03*
D19*
X25760600Y-64145400D03*
D20*
X23220600Y-64145400D03*
X25760600Y-61605400D03*
X23220600Y-61605400D03*
X25760600Y-59065400D03*
X23220600Y-59065400D03*
D21*
X34557000Y-25019000D03*
X35259944Y-23321944D03*
X35259944Y-26716056D03*
X36957000Y-22619000D03*
D22*
X36957000Y-25019000D03*
D21*
X36957000Y-27419000D03*
X38654056Y-23321944D03*
X38654056Y-26716056D03*
X39357000Y-25019000D03*
D23*
X35687000Y-91059000D03*
D24*
X35687000Y-97359000D03*
D25*
X40487000Y-93959000D03*
D21*
X97600000Y-100000000D03*
X98302944Y-98302944D03*
X98302944Y-101697056D03*
X100000000Y-97600000D03*
D22*
X100000000Y-100000000D03*
D21*
X100000000Y-102400000D03*
X101697056Y-98302944D03*
X101697056Y-101697056D03*
X102400000Y-100000000D03*
D12*
X100076000Y-54864000D03*
D21*
X22492000Y-99949000D03*
X23194944Y-98251944D03*
X23194944Y-101646056D03*
X24892000Y-97549000D03*
D22*
X24892000Y-99949000D03*
D21*
X24892000Y-102349000D03*
X26589056Y-98251944D03*
X26589056Y-101646056D03*
X27292000Y-99949000D03*
D19*
X53203000Y-55118000D03*
D20*
X50663000Y-55118000D03*
X48123000Y-55118000D03*
X45583000Y-55118000D03*
D12*
X66294000Y-57404000D03*
D13*
X66000000Y-24525600D03*
D14*
X63460000Y-21985600D03*
X63460000Y-27065600D03*
X68540000Y-21985600D03*
X68540000Y-27065600D03*
D13*
X78000000Y-24525600D03*
D14*
X75460000Y-21985600D03*
X75460000Y-27065600D03*
X80540000Y-21985600D03*
X80540000Y-27065600D03*
D12*
X69469000Y-54864000D03*
D13*
X26908000Y-24525600D03*
D14*
X24368000Y-21985600D03*
X24368000Y-27065600D03*
X29448000Y-21985600D03*
X29448000Y-27065600D03*
D21*
X97549000Y-25019000D03*
X98251944Y-23321944D03*
X98251944Y-26716056D03*
X99949000Y-22619000D03*
D22*
X99949000Y-25019000D03*
D21*
X99949000Y-27419000D03*
X101646056Y-23321944D03*
X101646056Y-26716056D03*
X102349000Y-25019000D03*
D19*
X23215600Y-68529200D03*
D20*
X25755600Y-68529200D03*
X23215600Y-71069200D03*
X25755600Y-71069200D03*
X23215600Y-73609200D03*
X25755600Y-73609200D03*
X23215600Y-76149200D03*
X25755600Y-76149200D03*
D12*
X66294000Y-92456000D03*
D19*
X39497000Y-43561000D03*
D20*
X39497000Y-46101000D03*
X39497000Y-48641000D03*
D26*
X76454000Y-102437000D03*
X76454000Y-95937000D03*
D27*
X82550000Y-99081500D03*
X82550000Y-97006500D03*
D28*
X70887500Y-80967500D03*
X68812500Y-80967500D03*
X70252500Y-78486000D03*
X68177500Y-78486000D03*
D29*
X71327000Y-83892000D03*
X71327000Y-84542000D03*
X71327000Y-85202000D03*
X71327000Y-85852000D03*
X68627000Y-85852000D03*
X68627000Y-85202000D03*
X68627000Y-84542000D03*
X68627000Y-83892000D03*
D30*
X69850000Y-92925500D03*
X69850000Y-96050500D03*
D28*
X70506500Y-67818000D03*
X68431500Y-67818000D03*
D31*
X67183000Y-101705500D03*
X67183000Y-103780500D03*
D27*
X67818000Y-90064500D03*
X67818000Y-87989500D03*
D32*
X70777500Y-75184000D03*
X67652500Y-75184000D03*
D33*
X102235000Y-70404500D03*
X102235000Y-68279500D03*
D34*
X102564000Y-91440000D03*
X96064000Y-91440000D03*
D35*
X68077500Y-71689000D03*
X68077500Y-70739000D03*
X68077500Y-69789000D03*
X70352500Y-69789000D03*
X70352500Y-70739000D03*
X70352500Y-71689000D03*
D36*
X72120000Y-90043000D03*
X70120000Y-90043000D03*
D37*
X85598000Y-95469000D03*
X86868000Y-95469000D03*
X88138000Y-95469000D03*
X89408000Y-95469000D03*
X89408000Y-100619000D03*
X88138000Y-100619000D03*
X86868000Y-100619000D03*
X85598000Y-100619000D03*
D31*
X102235000Y-63859500D03*
X102235000Y-65934500D03*
D36*
X89900000Y-90932000D03*
X87900000Y-90932000D03*
M02*
