%TF.GenerationSoftware,KiCad,Pcbnew,7.0.11*%
%TF.CreationDate,2024-03-19T21:31:39+01:00*%
%TF.ProjectId,GPSDO,47505344-4f2e-46b6-9963-61645f706362,rev?*%
%TF.SameCoordinates,Original*%
%TF.FileFunction,Drillmap*%
%TF.FilePolarity,Positive*%
%FSLAX45Y45*%
G04 Gerber Fmt 4.5, Leading zero omitted, Abs format (unit mm)*
G04 Created by KiCad (PCBNEW 7.0.11) date 2024-03-19 21:31:39*
%MOMM*%
%LPD*%
G01*
G04 APERTURE LIST*
%ADD10C,0.100000*%
%ADD11C,0.200000*%
G04 APERTURE END LIST*
D10*
X2000000Y-2000000D02*
X10500000Y-2000000D01*
X10500000Y-10500000D01*
X2000000Y-10500000D01*
X2000000Y-2000000D01*
D11*
X2255777Y-10816484D02*
X2255777Y-10616484D01*
X2255777Y-10616484D02*
X2303396Y-10616484D01*
X2303396Y-10616484D02*
X2331967Y-10626008D01*
X2331967Y-10626008D02*
X2351015Y-10645055D01*
X2351015Y-10645055D02*
X2360539Y-10664103D01*
X2360539Y-10664103D02*
X2370063Y-10702198D01*
X2370063Y-10702198D02*
X2370063Y-10730770D01*
X2370063Y-10730770D02*
X2360539Y-10768865D01*
X2360539Y-10768865D02*
X2351015Y-10787912D01*
X2351015Y-10787912D02*
X2331967Y-10806960D01*
X2331967Y-10806960D02*
X2303396Y-10816484D01*
X2303396Y-10816484D02*
X2255777Y-10816484D01*
X2455777Y-10816484D02*
X2455777Y-10683150D01*
X2455777Y-10721246D02*
X2465301Y-10702198D01*
X2465301Y-10702198D02*
X2474824Y-10692674D01*
X2474824Y-10692674D02*
X2493872Y-10683150D01*
X2493872Y-10683150D02*
X2512920Y-10683150D01*
X2579586Y-10816484D02*
X2579586Y-10683150D01*
X2579586Y-10616484D02*
X2570063Y-10626008D01*
X2570063Y-10626008D02*
X2579586Y-10635531D01*
X2579586Y-10635531D02*
X2589110Y-10626008D01*
X2589110Y-10626008D02*
X2579586Y-10616484D01*
X2579586Y-10616484D02*
X2579586Y-10635531D01*
X2703396Y-10816484D02*
X2684348Y-10806960D01*
X2684348Y-10806960D02*
X2674824Y-10787912D01*
X2674824Y-10787912D02*
X2674824Y-10616484D01*
X2808158Y-10816484D02*
X2789110Y-10806960D01*
X2789110Y-10806960D02*
X2779586Y-10787912D01*
X2779586Y-10787912D02*
X2779586Y-10616484D01*
X3036729Y-10816484D02*
X3036729Y-10616484D01*
X3036729Y-10616484D02*
X3103396Y-10759341D01*
X3103396Y-10759341D02*
X3170062Y-10616484D01*
X3170062Y-10616484D02*
X3170062Y-10816484D01*
X3351015Y-10816484D02*
X3351015Y-10711722D01*
X3351015Y-10711722D02*
X3341491Y-10692674D01*
X3341491Y-10692674D02*
X3322443Y-10683150D01*
X3322443Y-10683150D02*
X3284348Y-10683150D01*
X3284348Y-10683150D02*
X3265301Y-10692674D01*
X3351015Y-10806960D02*
X3331967Y-10816484D01*
X3331967Y-10816484D02*
X3284348Y-10816484D01*
X3284348Y-10816484D02*
X3265301Y-10806960D01*
X3265301Y-10806960D02*
X3255777Y-10787912D01*
X3255777Y-10787912D02*
X3255777Y-10768865D01*
X3255777Y-10768865D02*
X3265301Y-10749817D01*
X3265301Y-10749817D02*
X3284348Y-10740293D01*
X3284348Y-10740293D02*
X3331967Y-10740293D01*
X3331967Y-10740293D02*
X3351015Y-10730770D01*
X3446253Y-10683150D02*
X3446253Y-10883150D01*
X3446253Y-10692674D02*
X3465301Y-10683150D01*
X3465301Y-10683150D02*
X3503396Y-10683150D01*
X3503396Y-10683150D02*
X3522443Y-10692674D01*
X3522443Y-10692674D02*
X3531967Y-10702198D01*
X3531967Y-10702198D02*
X3541491Y-10721246D01*
X3541491Y-10721246D02*
X3541491Y-10778389D01*
X3541491Y-10778389D02*
X3531967Y-10797436D01*
X3531967Y-10797436D02*
X3522443Y-10806960D01*
X3522443Y-10806960D02*
X3503396Y-10816484D01*
X3503396Y-10816484D02*
X3465301Y-10816484D01*
X3465301Y-10816484D02*
X3446253Y-10806960D01*
X3627205Y-10797436D02*
X3636729Y-10806960D01*
X3636729Y-10806960D02*
X3627205Y-10816484D01*
X3627205Y-10816484D02*
X3617682Y-10806960D01*
X3617682Y-10806960D02*
X3627205Y-10797436D01*
X3627205Y-10797436D02*
X3627205Y-10816484D01*
X3627205Y-10692674D02*
X3636729Y-10702198D01*
X3636729Y-10702198D02*
X3627205Y-10711722D01*
X3627205Y-10711722D02*
X3617682Y-10702198D01*
X3617682Y-10702198D02*
X3627205Y-10692674D01*
X3627205Y-10692674D02*
X3627205Y-10711722D01*
M02*
