G04 #@! TF.GenerationSoftware,KiCad,Pcbnew,7.0.11*
G04 #@! TF.CreationDate,2024-03-19T21:31:16+01:00*
G04 #@! TF.ProjectId,GPSDO,47505344-4f2e-46b6-9963-61645f706362,rev?*
G04 #@! TF.SameCoordinates,Original*
G04 #@! TF.FileFunction,Paste,Top*
G04 #@! TF.FilePolarity,Positive*
%FSLAX46Y46*%
G04 Gerber Fmt 4.6, Leading zero omitted, Abs format (unit mm)*
G04 Created by KiCad (PCBNEW 7.0.11) date 2024-03-19 21:31:16*
%MOMM*%
%LPD*%
G01*
G04 APERTURE LIST*
G04 Aperture macros list*
%AMRoundRect*
0 Rectangle with rounded corners*
0 $1 Rounding radius*
0 $2 $3 $4 $5 $6 $7 $8 $9 X,Y pos of 4 corners*
0 Add a 4 corners polygon primitive as box body*
4,1,4,$2,$3,$4,$5,$6,$7,$8,$9,$2,$3,0*
0 Add four circle primitives for the rounded corners*
1,1,$1+$1,$2,$3*
1,1,$1+$1,$4,$5*
1,1,$1+$1,$6,$7*
1,1,$1+$1,$8,$9*
0 Add four rect primitives between the rounded corners*
20,1,$1+$1,$2,$3,$4,$5,0*
20,1,$1+$1,$4,$5,$6,$7,0*
20,1,$1+$1,$6,$7,$8,$9,0*
20,1,$1+$1,$8,$9,$2,$3,0*%
G04 Aperture macros list end*
%ADD10RoundRect,0.250000X0.550000X-1.075000X0.550000X1.075000X-0.550000X1.075000X-0.550000X-1.075000X0*%
%ADD11RoundRect,0.250000X1.000000X-1.500000X1.000000X1.500000X-1.000000X1.500000X-1.000000X-1.500000X0*%
%ADD12R,0.400000X1.100000*%
%ADD13RoundRect,0.250000X0.350000X0.450000X-0.350000X0.450000X-0.350000X-0.450000X0.350000X-0.450000X0*%
%ADD14RoundRect,0.150000X-0.150000X0.512500X-0.150000X-0.512500X0.150000X-0.512500X0.150000X0.512500X0*%
%ADD15RoundRect,0.243750X-0.243750X-0.456250X0.243750X-0.456250X0.243750X0.456250X-0.243750X0.456250X0*%
%ADD16RoundRect,0.162500X-0.617500X-0.162500X0.617500X-0.162500X0.617500X0.162500X-0.617500X0.162500X0*%
%ADD17R,0.510000X0.700000*%
%ADD18RoundRect,0.250000X1.500000X1.000000X-1.500000X1.000000X-1.500000X-1.000000X1.500000X-1.000000X0*%
%ADD19RoundRect,0.250000X-0.350000X-0.450000X0.350000X-0.450000X0.350000X0.450000X-0.350000X0.450000X0*%
%ADD20RoundRect,0.090000X-0.170000X0.090000X-0.170000X-0.090000X0.170000X-0.090000X0.170000X0.090000X0*%
%ADD21RoundRect,0.062500X-0.062500X0.287500X-0.062500X-0.287500X0.062500X-0.287500X0.062500X0.287500X0*%
%ADD22RoundRect,0.375000X0.375000X-0.625000X0.375000X0.625000X-0.375000X0.625000X-0.375000X-0.625000X0*%
%ADD23RoundRect,0.500000X1.400000X-0.500000X1.400000X0.500000X-1.400000X0.500000X-1.400000X-0.500000X0*%
%ADD24RoundRect,0.250000X0.475000X-0.337500X0.475000X0.337500X-0.475000X0.337500X-0.475000X-0.337500X0*%
%ADD25RoundRect,0.250000X-1.412500X-0.550000X1.412500X-0.550000X1.412500X0.550000X-1.412500X0.550000X0*%
%ADD26RoundRect,0.250000X-0.450000X0.350000X-0.450000X-0.350000X0.450000X-0.350000X0.450000X0.350000X0*%
%ADD27RoundRect,0.250000X-0.337500X-0.475000X0.337500X-0.475000X0.337500X0.475000X-0.337500X0.475000X0*%
%ADD28RoundRect,0.250000X0.550000X-1.412500X0.550000X1.412500X-0.550000X1.412500X-0.550000X-1.412500X0*%
%ADD29RoundRect,0.243750X0.243750X0.456250X-0.243750X0.456250X-0.243750X-0.456250X0.243750X-0.456250X0*%
%ADD30RoundRect,0.375000X0.625000X0.375000X-0.625000X0.375000X-0.625000X-0.375000X0.625000X-0.375000X0*%
%ADD31RoundRect,0.500000X0.500000X1.400000X-0.500000X1.400000X-0.500000X-1.400000X0.500000X-1.400000X0*%
%ADD32RoundRect,0.250000X-1.000000X1.500000X-1.000000X-1.500000X1.000000X-1.500000X1.000000X1.500000X0*%
%ADD33RoundRect,0.250000X0.337500X0.475000X-0.337500X0.475000X-0.337500X-0.475000X0.337500X-0.475000X0*%
%ADD34RoundRect,0.100000X0.225000X0.100000X-0.225000X0.100000X-0.225000X-0.100000X0.225000X-0.100000X0*%
%ADD35R,0.700000X0.510000*%
%ADD36R,1.300000X1.550000*%
%ADD37RoundRect,0.250000X-0.475000X0.337500X-0.475000X-0.337500X0.475000X-0.337500X0.475000X0.337500X0*%
%ADD38RoundRect,0.100000X0.100000X-0.225000X0.100000X0.225000X-0.100000X0.225000X-0.100000X-0.225000X0*%
%ADD39R,1.000000X1.000000*%
%ADD40R,1.050000X2.200000*%
%ADD41RoundRect,0.150000X0.150000X-0.875000X0.150000X0.875000X-0.150000X0.875000X-0.150000X-0.875000X0*%
%ADD42RoundRect,0.150000X-0.825000X-0.150000X0.825000X-0.150000X0.825000X0.150000X-0.825000X0.150000X0*%
%ADD43RoundRect,0.150000X-0.150000X0.825000X-0.150000X-0.825000X0.150000X-0.825000X0.150000X0.825000X0*%
G04 APERTURE END LIST*
D10*
X70612000Y-35076000D03*
X70612000Y-31726000D03*
D11*
X46990000Y-90372000D03*
X46990000Y-83872000D03*
D12*
X51902000Y-60207000D03*
X51252000Y-60207000D03*
X50602000Y-60207000D03*
X49952000Y-60207000D03*
X49952000Y-64507000D03*
X50602000Y-64507000D03*
X51252000Y-64507000D03*
X51902000Y-64507000D03*
D13*
X62087000Y-82550000D03*
X60087000Y-82550000D03*
D14*
X45908000Y-71252500D03*
X44008000Y-71252500D03*
X44958000Y-73527500D03*
D15*
X29415500Y-45974000D03*
X31290500Y-45974000D03*
D16*
X33575000Y-33782000D03*
X33575000Y-34732000D03*
X33575000Y-35682000D03*
X36275000Y-35682000D03*
X36275000Y-33782000D03*
D17*
X60259000Y-58628000D03*
X59309000Y-58628000D03*
X58359000Y-58628000D03*
X58359000Y-60948000D03*
X59309000Y-60948000D03*
X60259000Y-60948000D03*
D18*
X50240000Y-100203000D03*
X43740000Y-100203000D03*
D19*
X47895000Y-70485000D03*
X49895000Y-70485000D03*
D20*
X74041000Y-50673000D03*
X73391000Y-50673000D03*
X74041000Y-51123000D03*
X73391000Y-51123000D03*
D21*
X74466000Y-49898000D03*
X73966000Y-49898000D03*
X73466000Y-49898000D03*
X72966000Y-49898000D03*
X72966000Y-51898000D03*
X73466000Y-51898000D03*
X73966000Y-51898000D03*
X74466000Y-51898000D03*
D22*
X21957000Y-92177000D03*
X24257000Y-92177000D03*
D23*
X24257000Y-85877000D03*
D22*
X26557000Y-92177000D03*
D24*
X74549000Y-35835500D03*
X74549000Y-33760500D03*
X92583000Y-33803500D03*
X92583000Y-31728500D03*
X80518000Y-33803500D03*
X80518000Y-31728500D03*
D19*
X79010000Y-43053000D03*
X81010000Y-43053000D03*
D25*
X90045500Y-50927000D03*
X95120500Y-50927000D03*
D26*
X41985000Y-71569000D03*
X41985000Y-73569000D03*
D27*
X73384500Y-53848000D03*
X75459500Y-53848000D03*
D28*
X59055000Y-53845500D03*
X59055000Y-48770500D03*
X24130000Y-43431500D03*
X24130000Y-38356500D03*
D29*
X57452500Y-82550000D03*
X55577500Y-82550000D03*
D30*
X60935000Y-91073000D03*
X60935000Y-88773000D03*
D31*
X54635000Y-88773000D03*
D30*
X60935000Y-86473000D03*
D24*
X36905000Y-73606500D03*
X36905000Y-71531500D03*
D32*
X58420000Y-95937000D03*
X58420000Y-102437000D03*
D33*
X81047500Y-49911000D03*
X78972500Y-49911000D03*
D27*
X45241300Y-78247000D03*
X47316300Y-78247000D03*
D26*
X26924000Y-31766000D03*
X26924000Y-33766000D03*
D32*
X35179000Y-80189000D03*
X35179000Y-86689000D03*
D33*
X41677500Y-33528000D03*
X39602500Y-33528000D03*
D24*
X63500000Y-33803500D03*
X63500000Y-31728500D03*
X90043000Y-33825000D03*
X90043000Y-31750000D03*
D13*
X31333000Y-43561000D03*
X29333000Y-43561000D03*
D24*
X39445000Y-73606500D03*
X39445000Y-71531500D03*
X44323000Y-49805500D03*
X44323000Y-47730500D03*
X77978000Y-33803500D03*
X77978000Y-31728500D03*
X54991000Y-74316500D03*
X54991000Y-72241500D03*
D29*
X24356300Y-79857600D03*
X22481300Y-79857600D03*
D13*
X28787600Y-79857600D03*
X26787600Y-79857600D03*
D34*
X49845000Y-76342000D03*
X49845000Y-75692000D03*
X49845000Y-75042000D03*
X47945000Y-75042000D03*
X47945000Y-76342000D03*
D33*
X59584500Y-41021000D03*
X57509500Y-41021000D03*
X56790500Y-64135000D03*
X54715500Y-64135000D03*
X49911000Y-73025000D03*
X47836000Y-73025000D03*
X51964500Y-67945000D03*
X49889500Y-67945000D03*
D35*
X59326000Y-73213000D03*
X59326000Y-72263000D03*
X59326000Y-71313000D03*
X57006000Y-71313000D03*
X57006000Y-72263000D03*
X57006000Y-73213000D03*
D27*
X97209700Y-46329600D03*
X99284700Y-46329600D03*
D36*
X46922000Y-49628000D03*
X46922000Y-42828000D03*
X51122000Y-49628000D03*
X51122000Y-42828000D03*
D33*
X59076500Y-43561000D03*
X57001500Y-43561000D03*
D37*
X24130000Y-47882900D03*
X24130000Y-49957900D03*
D38*
X41208000Y-77681000D03*
X41858000Y-77681000D03*
X42508000Y-77681000D03*
X42508000Y-75781000D03*
X41208000Y-75781000D03*
D13*
X67929000Y-41656000D03*
X65929000Y-41656000D03*
D26*
X44323000Y-42688000D03*
X44323000Y-44688000D03*
D27*
X53699500Y-58928000D03*
X55774500Y-58928000D03*
D39*
X58293000Y-76478000D03*
D40*
X59768000Y-77978000D03*
D39*
X58293000Y-79478000D03*
D40*
X56818000Y-77978000D03*
D24*
X66040000Y-33803500D03*
X66040000Y-31728500D03*
D15*
X29415500Y-50800000D03*
X31290500Y-50800000D03*
D41*
X31115000Y-67896000D03*
X32385000Y-67896000D03*
X33655000Y-67896000D03*
X34925000Y-67896000D03*
X36195000Y-67896000D03*
X37465000Y-67896000D03*
X38735000Y-67896000D03*
X40005000Y-67896000D03*
X41275000Y-67896000D03*
X42545000Y-67896000D03*
X43815000Y-67896000D03*
X45085000Y-67896000D03*
X46355000Y-67896000D03*
X47625000Y-67896000D03*
X47625000Y-58596000D03*
X46355000Y-58596000D03*
X45085000Y-58596000D03*
X43815000Y-58596000D03*
X42545000Y-58596000D03*
X41275000Y-58596000D03*
X40005000Y-58596000D03*
X38735000Y-58596000D03*
X37465000Y-58596000D03*
X36195000Y-58596000D03*
X34925000Y-58596000D03*
X33655000Y-58596000D03*
X32385000Y-58596000D03*
X31115000Y-58596000D03*
D42*
X71312000Y-37973000D03*
X71312000Y-39243000D03*
X71312000Y-40513000D03*
X71312000Y-41783000D03*
X71312000Y-43053000D03*
X71312000Y-44323000D03*
X71312000Y-45593000D03*
X71312000Y-46863000D03*
X76262000Y-46863000D03*
X76262000Y-45593000D03*
X76262000Y-44323000D03*
X76262000Y-43053000D03*
X76262000Y-41783000D03*
X76262000Y-40513000D03*
X76262000Y-39243000D03*
X76262000Y-37973000D03*
D13*
X31333000Y-48387000D03*
X29333000Y-48387000D03*
D43*
X97282000Y-38546000D03*
X96012000Y-38546000D03*
X94742000Y-38546000D03*
X93472000Y-38546000D03*
X92202000Y-38546000D03*
X90932000Y-38546000D03*
X89662000Y-38546000D03*
X88392000Y-38546000D03*
X88392000Y-43496000D03*
X89662000Y-43496000D03*
X90932000Y-43496000D03*
X92202000Y-43496000D03*
X93472000Y-43496000D03*
X94742000Y-43496000D03*
X96012000Y-43496000D03*
X97282000Y-43496000D03*
D27*
X36756500Y-76096000D03*
X38831500Y-76096000D03*
X39348500Y-55372000D03*
X41423500Y-55372000D03*
D24*
X29311600Y-87956300D03*
X29311600Y-85881300D03*
M02*
