%TF.GenerationSoftware,KiCad,Pcbnew,7.0.11*%
%TF.CreationDate,2024-03-19T21:31:39+01:00*%
%TF.ProjectId,GPSDO,47505344-4f2e-46b6-9963-61645f706362,rev?*%
%TF.SameCoordinates,Original*%
%TF.FileFunction,Drillmap*%
%TF.FilePolarity,Positive*%
%FSLAX45Y45*%
G04 Gerber Fmt 4.5, Leading zero omitted, Abs format (unit mm)*
G04 Created by KiCad (PCBNEW 7.0.11) date 2024-03-19 21:31:39*
%MOMM*%
%LPD*%
G01*
G04 APERTURE LIST*
%ADD10C,0.100000*%
%ADD11C,0.200000*%
%ADD12C,0.110000*%
%ADD13C,0.150000*%
%ADD14C,0.170000*%
%ADD15C,0.320000*%
G04 APERTURE END LIST*
D10*
X2000000Y-2000000D02*
X10500000Y-2000000D01*
X10500000Y-10500000D01*
X2000000Y-10500000D01*
X2000000Y-2000000D01*
D11*
D10*
X2174560Y-9017320D02*
X2214560Y-9057320D01*
X2214560Y-9017320D02*
X2174560Y-9057320D01*
X2174560Y-9144320D02*
X2214560Y-9184320D01*
X2214560Y-9144320D02*
X2174560Y-9184320D01*
X2174560Y-9251000D02*
X2214560Y-9291000D01*
X2214560Y-9251000D02*
X2174560Y-9291000D01*
X2393000Y-3723960D02*
X2433000Y-3763960D01*
X2433000Y-3723960D02*
X2393000Y-3763960D01*
X2393000Y-3911920D02*
X2433000Y-3951920D01*
X2433000Y-3911920D02*
X2393000Y-3951920D01*
X2393000Y-4221800D02*
X2433000Y-4261800D01*
X2433000Y-4221800D02*
X2393000Y-4261800D01*
X2393000Y-4333560D02*
X2433000Y-4373560D01*
X2433000Y-4333560D02*
X2393000Y-4373560D01*
X2393000Y-4445320D02*
X2433000Y-4485320D01*
X2433000Y-4445320D02*
X2393000Y-4485320D01*
X3218500Y-6584000D02*
X3258500Y-6624000D01*
X3258500Y-6584000D02*
X3218500Y-6624000D01*
X3472500Y-6584000D02*
X3512500Y-6624000D01*
X3512500Y-6584000D02*
X3472500Y-6624000D01*
X3497900Y-7879400D02*
X3537900Y-7919400D01*
X3537900Y-7879400D02*
X3497900Y-7919400D01*
X3497900Y-8654100D02*
X3537900Y-8694100D01*
X3537900Y-8654100D02*
X3497900Y-8694100D01*
X3500440Y-7996240D02*
X3540440Y-8036240D01*
X3540440Y-7996240D02*
X3500440Y-8036240D01*
X3500440Y-8113080D02*
X3540440Y-8153080D01*
X3540440Y-8113080D02*
X3500440Y-8153080D01*
X3500440Y-8539800D02*
X3540440Y-8579800D01*
X3540440Y-8539800D02*
X3500440Y-8579800D01*
X3500440Y-8778560D02*
X3540440Y-8818560D01*
X3540440Y-8778560D02*
X3500440Y-8818560D01*
X3670500Y-7133150D02*
X3710500Y-7173150D01*
X3710500Y-7133150D02*
X3670500Y-7173150D01*
X3873700Y-7808400D02*
X3913700Y-7848400D01*
X3913700Y-7808400D02*
X3873700Y-7848400D01*
X3980500Y-7473000D02*
X4020500Y-7513000D01*
X4020500Y-7473000D02*
X3980500Y-7513000D01*
X4364040Y-6584000D02*
X4404040Y-6624000D01*
X4404040Y-6584000D02*
X4364040Y-6624000D01*
X4679000Y-8245160D02*
X4719000Y-8285160D01*
X4719000Y-8245160D02*
X4679000Y-8285160D01*
X4679000Y-8362000D02*
X4719000Y-8402000D01*
X4719000Y-8362000D02*
X4679000Y-8402000D01*
X4679000Y-8478840D02*
X4719000Y-8518840D01*
X4719000Y-8478840D02*
X4679000Y-8518840D01*
X4711900Y-7803200D02*
X4751900Y-7843200D01*
X4751900Y-7803200D02*
X4711900Y-7843200D01*
X4780600Y-6152200D02*
X4820600Y-6192200D01*
X4820600Y-6152200D02*
X4780600Y-6192200D01*
X4831400Y-6418900D02*
X4871400Y-6458900D01*
X4871400Y-6418900D02*
X4831400Y-6458900D01*
X4971100Y-7282500D02*
X5011100Y-7322500D01*
X5011100Y-7282500D02*
X4971100Y-7322500D01*
X5136200Y-5745800D02*
X5176200Y-5785800D01*
X5176200Y-5745800D02*
X5136200Y-5785800D01*
X5339400Y-6558600D02*
X5379400Y-6598600D01*
X5379400Y-6558600D02*
X5339400Y-6598600D01*
X5453700Y-6393500D02*
X5493700Y-6433500D01*
X5493700Y-6393500D02*
X5453700Y-6433500D01*
X5479100Y-7219000D02*
X5519100Y-7259000D01*
X5519100Y-7219000D02*
X5479100Y-7259000D01*
X5822000Y-9642160D02*
X5862000Y-9682160D01*
X5862000Y-9642160D02*
X5822000Y-9682160D01*
X5822000Y-9759000D02*
X5862000Y-9799000D01*
X5862000Y-9759000D02*
X5822000Y-9799000D01*
X5822000Y-9886000D02*
X5862000Y-9926000D01*
X5862000Y-9886000D02*
X5822000Y-9926000D01*
X5882960Y-5268280D02*
X5922960Y-5308280D01*
X5922960Y-5268280D02*
X5882960Y-5308280D01*
X5882960Y-5377500D02*
X5922960Y-5417500D01*
X5922960Y-5377500D02*
X5882960Y-5417500D01*
X5882960Y-5481640D02*
X5922960Y-5521640D01*
X5922960Y-5481640D02*
X5882960Y-5521640D01*
X5885500Y-4856800D02*
X5925500Y-4896800D01*
X5925500Y-4856800D02*
X5885500Y-4896800D01*
X5898200Y-6393500D02*
X5938200Y-6433500D01*
X5938200Y-6393500D02*
X5898200Y-6433500D01*
X6063300Y-6660200D02*
X6103300Y-6700200D01*
X6103300Y-6660200D02*
X6063300Y-6700200D01*
X6063300Y-6838000D02*
X6103300Y-6878000D01*
X6103300Y-6838000D02*
X6063300Y-6878000D01*
X6063300Y-7003100D02*
X6103300Y-7043100D01*
X6103300Y-7003100D02*
X6063300Y-7043100D01*
X6545900Y-4729800D02*
X6585900Y-4769800D01*
X6585900Y-4729800D02*
X6545900Y-4769800D01*
X6571300Y-4145600D02*
X6611300Y-4185600D01*
X6611300Y-4145600D02*
X6571300Y-4185600D01*
X6595100Y-8235000D02*
X6635100Y-8275000D01*
X6635100Y-8235000D02*
X6595100Y-8275000D01*
X6703950Y-8501700D02*
X6743950Y-8541700D01*
X6743950Y-8501700D02*
X6703950Y-8541700D01*
X6838000Y-8641400D02*
X6878000Y-8681400D01*
X6878000Y-8641400D02*
X6838000Y-8681400D01*
X6893880Y-4663760D02*
X6933880Y-4703760D01*
X6933880Y-4663760D02*
X6893880Y-4703760D01*
X6939600Y-8235000D02*
X6979600Y-8275000D01*
X6979600Y-8235000D02*
X6939600Y-8275000D01*
X7028500Y-6761800D02*
X7068500Y-6801800D01*
X7068500Y-6761800D02*
X7028500Y-6801800D01*
X7041200Y-3155000D02*
X7081200Y-3195000D01*
X7081200Y-3155000D02*
X7041200Y-3195000D01*
X7041200Y-3497900D02*
X7081200Y-3537900D01*
X7081200Y-3497900D02*
X7041200Y-3537900D01*
X7079300Y-8082600D02*
X7119300Y-8122600D01*
X7119300Y-8082600D02*
X7079300Y-8122600D01*
X7346000Y-3777300D02*
X7386000Y-3817300D01*
X7386000Y-3777300D02*
X7346000Y-3817300D01*
X7371400Y-4501200D02*
X7411400Y-4541200D01*
X7411400Y-4501200D02*
X7371400Y-4541200D01*
X7460300Y-9085900D02*
X7500300Y-9125900D01*
X7500300Y-9085900D02*
X7460300Y-9125900D01*
X7460300Y-9174800D02*
X7500300Y-9214800D01*
X7500300Y-9174800D02*
X7460300Y-9214800D01*
X7462840Y-8997000D02*
X7502840Y-9037000D01*
X7502840Y-8997000D02*
X7462840Y-9037000D01*
X7612700Y-5110800D02*
X7652700Y-5150800D01*
X7652700Y-5110800D02*
X7612700Y-5150800D01*
X8082600Y-4285300D02*
X8122600Y-4325300D01*
X8122600Y-4285300D02*
X8082600Y-4325300D01*
X8504240Y-5110800D02*
X8544240Y-5150800D01*
X8544240Y-5110800D02*
X8504240Y-5150800D01*
X8692200Y-3835720D02*
X8732200Y-3875720D01*
X8732200Y-3835720D02*
X8692200Y-3875720D01*
X9327200Y-4130360D02*
X9367200Y-4170360D01*
X9367200Y-4130360D02*
X9327200Y-4170360D01*
X9327200Y-4577400D02*
X9367200Y-4617400D01*
X9367200Y-4577400D02*
X9327200Y-4617400D01*
X9454200Y-3663000D02*
X9494200Y-3703000D01*
X9494200Y-3663000D02*
X9454200Y-3703000D01*
X9492300Y-5072700D02*
X9532300Y-5112700D01*
X9532300Y-5072700D02*
X9492300Y-5112700D01*
X9565960Y-9205280D02*
X9605960Y-9245280D01*
X9605960Y-9205280D02*
X9565960Y-9245280D01*
X9581200Y-4028760D02*
X9621200Y-4068760D01*
X9621200Y-4028760D02*
X9581200Y-4068760D01*
X9626920Y-9134160D02*
X9666920Y-9174160D01*
X9666920Y-9134160D02*
X9626920Y-9174160D01*
X9687880Y-9063040D02*
X9727880Y-9103040D01*
X9727880Y-9063040D02*
X9687880Y-9103040D01*
X2274200Y-9994900D02*
G75*
G03*
X2224200Y-9994900I-25000J0D01*
G01*
X2224200Y-9994900D02*
G75*
G03*
X2274200Y-9994900I25000J0D01*
G01*
X2344494Y-9825194D02*
G75*
G03*
X2294494Y-9825194I-25000J0D01*
G01*
X2294494Y-9825194D02*
G75*
G03*
X2344494Y-9825194I25000J0D01*
G01*
X2344494Y-10164606D02*
G75*
G03*
X2294494Y-10164606I-25000J0D01*
G01*
X2294494Y-10164606D02*
G75*
G03*
X2344494Y-10164606I25000J0D01*
G01*
X2514200Y-9754900D02*
G75*
G03*
X2464200Y-9754900I-25000J0D01*
G01*
X2464200Y-9754900D02*
G75*
G03*
X2514200Y-9754900I25000J0D01*
G01*
X2514200Y-10234900D02*
G75*
G03*
X2464200Y-10234900I-25000J0D01*
G01*
X2464200Y-10234900D02*
G75*
G03*
X2514200Y-10234900I25000J0D01*
G01*
X2683906Y-9825194D02*
G75*
G03*
X2633906Y-9825194I-25000J0D01*
G01*
X2633906Y-9825194D02*
G75*
G03*
X2683906Y-9825194I25000J0D01*
G01*
X2683906Y-10164606D02*
G75*
G03*
X2633906Y-10164606I-25000J0D01*
G01*
X2633906Y-10164606D02*
G75*
G03*
X2683906Y-10164606I25000J0D01*
G01*
X2754200Y-9994900D02*
G75*
G03*
X2704200Y-9994900I-25000J0D01*
G01*
X2704200Y-9994900D02*
G75*
G03*
X2754200Y-9994900I25000J0D01*
G01*
X3480700Y-2501900D02*
G75*
G03*
X3430700Y-2501900I-25000J0D01*
G01*
X3430700Y-2501900D02*
G75*
G03*
X3480700Y-2501900I25000J0D01*
G01*
X3550994Y-2332194D02*
G75*
G03*
X3500994Y-2332194I-25000J0D01*
G01*
X3500994Y-2332194D02*
G75*
G03*
X3550994Y-2332194I25000J0D01*
G01*
X3550994Y-2671606D02*
G75*
G03*
X3500994Y-2671606I-25000J0D01*
G01*
X3500994Y-2671606D02*
G75*
G03*
X3550994Y-2671606I25000J0D01*
G01*
X3720700Y-2261900D02*
G75*
G03*
X3670700Y-2261900I-25000J0D01*
G01*
X3670700Y-2261900D02*
G75*
G03*
X3720700Y-2261900I25000J0D01*
G01*
X3720700Y-2741900D02*
G75*
G03*
X3670700Y-2741900I-25000J0D01*
G01*
X3670700Y-2741900D02*
G75*
G03*
X3720700Y-2741900I25000J0D01*
G01*
X3890406Y-2332194D02*
G75*
G03*
X3840406Y-2332194I-25000J0D01*
G01*
X3840406Y-2332194D02*
G75*
G03*
X3890406Y-2332194I25000J0D01*
G01*
X3890406Y-2671606D02*
G75*
G03*
X3840406Y-2671606I-25000J0D01*
G01*
X3840406Y-2671606D02*
G75*
G03*
X3890406Y-2671606I25000J0D01*
G01*
X3960700Y-2501900D02*
G75*
G03*
X3910700Y-2501900I-25000J0D01*
G01*
X3910700Y-2501900D02*
G75*
G03*
X3960700Y-2501900I25000J0D01*
G01*
X9779900Y-2501900D02*
G75*
G03*
X9729900Y-2501900I-25000J0D01*
G01*
X9729900Y-2501900D02*
G75*
G03*
X9779900Y-2501900I25000J0D01*
G01*
X9785000Y-10000000D02*
G75*
G03*
X9735000Y-10000000I-25000J0D01*
G01*
X9735000Y-10000000D02*
G75*
G03*
X9785000Y-10000000I25000J0D01*
G01*
X9850194Y-2332194D02*
G75*
G03*
X9800194Y-2332194I-25000J0D01*
G01*
X9800194Y-2332194D02*
G75*
G03*
X9850194Y-2332194I25000J0D01*
G01*
X9850194Y-2671606D02*
G75*
G03*
X9800194Y-2671606I-25000J0D01*
G01*
X9800194Y-2671606D02*
G75*
G03*
X9850194Y-2671606I25000J0D01*
G01*
X9855294Y-9830294D02*
G75*
G03*
X9805294Y-9830294I-25000J0D01*
G01*
X9805294Y-9830294D02*
G75*
G03*
X9855294Y-9830294I25000J0D01*
G01*
X9855294Y-10169706D02*
G75*
G03*
X9805294Y-10169706I-25000J0D01*
G01*
X9805294Y-10169706D02*
G75*
G03*
X9855294Y-10169706I25000J0D01*
G01*
X10019900Y-2261900D02*
G75*
G03*
X9969900Y-2261900I-25000J0D01*
G01*
X9969900Y-2261900D02*
G75*
G03*
X10019900Y-2261900I25000J0D01*
G01*
X10019900Y-2741900D02*
G75*
G03*
X9969900Y-2741900I-25000J0D01*
G01*
X9969900Y-2741900D02*
G75*
G03*
X10019900Y-2741900I25000J0D01*
G01*
X10025000Y-9760000D02*
G75*
G03*
X9975000Y-9760000I-25000J0D01*
G01*
X9975000Y-9760000D02*
G75*
G03*
X10025000Y-9760000I25000J0D01*
G01*
X10025000Y-10240000D02*
G75*
G03*
X9975000Y-10240000I-25000J0D01*
G01*
X9975000Y-10240000D02*
G75*
G03*
X10025000Y-10240000I25000J0D01*
G01*
X10189606Y-2332194D02*
G75*
G03*
X10139606Y-2332194I-25000J0D01*
G01*
X10139606Y-2332194D02*
G75*
G03*
X10189606Y-2332194I25000J0D01*
G01*
X10189606Y-2671606D02*
G75*
G03*
X10139606Y-2671606I-25000J0D01*
G01*
X10139606Y-2671606D02*
G75*
G03*
X10189606Y-2671606I25000J0D01*
G01*
X10194706Y-9830294D02*
G75*
G03*
X10144706Y-9830294I-25000J0D01*
G01*
X10144706Y-9830294D02*
G75*
G03*
X10194706Y-9830294I25000J0D01*
G01*
X10194706Y-10169706D02*
G75*
G03*
X10144706Y-10169706I-25000J0D01*
G01*
X10144706Y-10169706D02*
G75*
G03*
X10194706Y-10169706I25000J0D01*
G01*
X10259900Y-2501900D02*
G75*
G03*
X10209900Y-2501900I-25000J0D01*
G01*
X10209900Y-2501900D02*
G75*
G03*
X10259900Y-2501900I25000J0D01*
G01*
X10265000Y-10000000D02*
G75*
G03*
X10215000Y-10000000I-25000J0D01*
G01*
X10215000Y-10000000D02*
G75*
G03*
X10265000Y-10000000I25000J0D01*
G01*
X7670800Y-6589400D02*
X7670800Y-6669400D01*
X7630800Y-6629400D02*
X7710800Y-6629400D01*
X7670800Y-7541900D02*
X7670800Y-7621900D01*
X7630800Y-7581900D02*
X7710800Y-7581900D01*
X7670800Y-8494400D02*
X7670800Y-8574400D01*
X7630800Y-8534400D02*
X7710800Y-8534400D01*
X9575800Y-6589400D02*
X9575800Y-6669400D01*
X9535800Y-6629400D02*
X9615800Y-6629400D01*
X9575800Y-8494400D02*
X9575800Y-8574400D01*
X9535800Y-8534400D02*
X9615800Y-8534400D01*
X2356916Y-6888276D02*
X2356916Y-6817564D01*
X2286204Y-6817564D01*
X2286204Y-6888276D01*
X2356916Y-6888276D01*
X2356916Y-7142276D02*
X2356916Y-7071564D01*
X2286204Y-7071564D01*
X2286204Y-7142276D01*
X2356916Y-7142276D01*
X2356916Y-7396276D02*
X2356916Y-7325564D01*
X2286204Y-7325564D01*
X2286204Y-7396276D01*
X2356916Y-7396276D01*
X2356916Y-7650276D02*
X2356916Y-7579564D01*
X2286204Y-7579564D01*
X2286204Y-7650276D01*
X2356916Y-7650276D01*
X2357416Y-5941896D02*
X2357416Y-5871184D01*
X2286704Y-5871184D01*
X2286704Y-5941896D01*
X2357416Y-5941896D01*
X2357416Y-6195896D02*
X2357416Y-6125184D01*
X2286704Y-6125184D01*
X2286704Y-6195896D01*
X2357416Y-6195896D01*
X2357416Y-6449896D02*
X2357416Y-6379184D01*
X2286704Y-6379184D01*
X2286704Y-6449896D01*
X2357416Y-6449896D01*
X2610916Y-6888276D02*
X2610916Y-6817564D01*
X2540204Y-6817564D01*
X2540204Y-6888276D01*
X2610916Y-6888276D01*
X2610916Y-7142276D02*
X2610916Y-7071564D01*
X2540204Y-7071564D01*
X2540204Y-7142276D01*
X2610916Y-7142276D01*
X2610916Y-7396276D02*
X2610916Y-7325564D01*
X2540204Y-7325564D01*
X2540204Y-7396276D01*
X2610916Y-7396276D01*
X2610916Y-7650276D02*
X2610916Y-7579564D01*
X2540204Y-7579564D01*
X2540204Y-7650276D01*
X2610916Y-7650276D01*
X2611416Y-5941896D02*
X2611416Y-5871184D01*
X2540704Y-5871184D01*
X2540704Y-5941896D01*
X2611416Y-5941896D01*
X2611416Y-6195896D02*
X2611416Y-6125184D01*
X2540704Y-6125184D01*
X2540704Y-6195896D01*
X2611416Y-6195896D01*
X2611416Y-6449896D02*
X2611416Y-6379184D01*
X2540704Y-6379184D01*
X2540704Y-6449896D01*
X2611416Y-6449896D01*
X3604056Y-9141256D02*
X3604056Y-9070544D01*
X3533344Y-9070544D01*
X3533344Y-9141256D01*
X3604056Y-9141256D01*
X3438700Y-9155900D02*
X3698700Y-9155900D01*
X3698700Y-9155900D02*
G75*
G03*
X3698700Y-9055900I0J50000D01*
G01*
X3698700Y-9055900D02*
X3438700Y-9055900D01*
X3438700Y-9055900D02*
G75*
G03*
X3438700Y-9155900I0J-50000D01*
G01*
X3604056Y-9771256D02*
X3604056Y-9700544D01*
X3533344Y-9700544D01*
X3533344Y-9771256D01*
X3604056Y-9771256D01*
X3458700Y-9785900D02*
X3678700Y-9785900D01*
X3678700Y-9785900D02*
G75*
G03*
X3678700Y-9685900I0J50000D01*
G01*
X3678700Y-9685900D02*
X3458700Y-9685900D01*
X3458700Y-9685900D02*
G75*
G03*
X3458700Y-9785900I0J-50000D01*
G01*
X3985056Y-4391456D02*
X3985056Y-4320744D01*
X3914344Y-4320744D01*
X3914344Y-4391456D01*
X3985056Y-4391456D01*
X3985056Y-4645456D02*
X3985056Y-4574744D01*
X3914344Y-4574744D01*
X3914344Y-4645456D01*
X3985056Y-4645456D01*
X3985056Y-4899456D02*
X3985056Y-4828744D01*
X3914344Y-4828744D01*
X3914344Y-4899456D01*
X3985056Y-4899456D01*
X4084056Y-9431256D02*
X4084056Y-9360544D01*
X4013344Y-9360544D01*
X4013344Y-9431256D01*
X4084056Y-9431256D01*
X3998700Y-9285900D02*
X3998700Y-9505900D01*
X3998700Y-9505900D02*
G75*
G03*
X4098700Y-9505900I50000J0D01*
G01*
X4098700Y-9505900D02*
X4098700Y-9285900D01*
X4098700Y-9285900D02*
G75*
G03*
X3998700Y-9285900I-50000J0D01*
G01*
X4593656Y-5547156D02*
X4593656Y-5476444D01*
X4522944Y-5476444D01*
X4522944Y-5547156D01*
X4593656Y-5547156D01*
X4847656Y-5547156D02*
X4847656Y-5476444D01*
X4776944Y-5476444D01*
X4776944Y-5547156D01*
X4847656Y-5547156D01*
X5101656Y-5547156D02*
X5101656Y-5476444D01*
X5030944Y-5476444D01*
X5030944Y-5547156D01*
X5101656Y-5547156D01*
X5355656Y-5547156D02*
X5355656Y-5476444D01*
X5284944Y-5476444D01*
X5284944Y-5547156D01*
X5355656Y-5547156D01*
X6410756Y-6182156D02*
X6410756Y-6111444D01*
X6340044Y-6111444D01*
X6340044Y-6182156D01*
X6410756Y-6182156D01*
X6410756Y-7972856D02*
X6410756Y-7902144D01*
X6340044Y-7902144D01*
X6340044Y-7972856D01*
X6410756Y-7972856D01*
X6664756Y-5775756D02*
X6664756Y-5705044D01*
X6594044Y-5705044D01*
X6594044Y-5775756D01*
X6664756Y-5775756D01*
X6664756Y-9280956D02*
X6664756Y-9210244D01*
X6594044Y-9210244D01*
X6594044Y-9280956D01*
X6664756Y-9280956D01*
X6982256Y-5521756D02*
X6982256Y-5451044D01*
X6911544Y-5451044D01*
X6911544Y-5521756D01*
X6982256Y-5521756D01*
X8137956Y-5775756D02*
X8137956Y-5705044D01*
X8067244Y-5705044D01*
X8067244Y-5775756D01*
X8137956Y-5775756D01*
X10042956Y-5521756D02*
X10042956Y-5451044D01*
X9972244Y-5451044D01*
X9972244Y-5521756D01*
X10042956Y-5521756D01*
X10373156Y-5775756D02*
X10373156Y-5705044D01*
X10302444Y-5705044D01*
X10302444Y-5775756D01*
X10373156Y-5775756D01*
D12*
X5118100Y-2872600D02*
X5173100Y-2817600D01*
X5118100Y-2762600D01*
X5063100Y-2817600D01*
X5118100Y-2872600D01*
D13*
X2615800Y-2377560D02*
X2765800Y-2527560D01*
X2765800Y-2377560D02*
X2615800Y-2527560D01*
X2765800Y-2452560D02*
G75*
G03*
X2615800Y-2452560I-75000J0D01*
G01*
X2615800Y-2452560D02*
G75*
G03*
X2765800Y-2452560I75000J0D01*
G01*
X4540600Y-2240100D02*
X4690600Y-2390100D01*
X4690600Y-2240100D02*
X4540600Y-2390100D01*
X4690600Y-2315100D02*
G75*
G03*
X4540600Y-2315100I-75000J0D01*
G01*
X4540600Y-2315100D02*
G75*
G03*
X4690600Y-2315100I75000J0D01*
G01*
X4540600Y-3245100D02*
X4690600Y-3395100D01*
X4690600Y-3245100D02*
X4540600Y-3395100D01*
X4690600Y-3320100D02*
G75*
G03*
X4540600Y-3320100I-75000J0D01*
G01*
X4540600Y-3320100D02*
G75*
G03*
X4690600Y-3320100I75000J0D01*
G01*
X5545600Y-2240100D02*
X5695600Y-2390100D01*
X5695600Y-2240100D02*
X5545600Y-2390100D01*
X5695600Y-2315100D02*
G75*
G03*
X5545600Y-2315100I-75000J0D01*
G01*
X5545600Y-2315100D02*
G75*
G03*
X5695600Y-2315100I75000J0D01*
G01*
X5545600Y-3245100D02*
X5695600Y-3395100D01*
X5695600Y-3245100D02*
X5545600Y-3395100D01*
X5695600Y-3320100D02*
G75*
G03*
X5545600Y-3320100I-75000J0D01*
G01*
X5545600Y-3320100D02*
G75*
G03*
X5695600Y-3320100I75000J0D01*
G01*
X6525000Y-2377560D02*
X6675000Y-2527560D01*
X6675000Y-2377560D02*
X6525000Y-2527560D01*
X6675000Y-2452560D02*
G75*
G03*
X6525000Y-2452560I-75000J0D01*
G01*
X6525000Y-2452560D02*
G75*
G03*
X6675000Y-2452560I75000J0D01*
G01*
X7725000Y-2377560D02*
X7875000Y-2527560D01*
X7875000Y-2377560D02*
X7725000Y-2527560D01*
X7875000Y-2452560D02*
G75*
G03*
X7725000Y-2452560I-75000J0D01*
G01*
X7725000Y-2452560D02*
G75*
G03*
X7875000Y-2452560I75000J0D01*
G01*
X8925000Y-2377560D02*
X9075000Y-2527560D01*
X9075000Y-2377560D02*
X8925000Y-2527560D01*
X9075000Y-2452560D02*
G75*
G03*
X8925000Y-2452560I-75000J0D01*
G01*
X8925000Y-2452560D02*
G75*
G03*
X9075000Y-2452560I75000J0D01*
G01*
D14*
X2351800Y-2113560D02*
X2521800Y-2283560D01*
X2521800Y-2113560D02*
X2351800Y-2283560D01*
X2436800Y-2113560D02*
X2436800Y-2283560D01*
X2351800Y-2198560D02*
X2521800Y-2198560D01*
X2351800Y-2621560D02*
X2521800Y-2791560D01*
X2521800Y-2621560D02*
X2351800Y-2791560D01*
X2436800Y-2621560D02*
X2436800Y-2791560D01*
X2351800Y-2706560D02*
X2521800Y-2706560D01*
X2859800Y-2113560D02*
X3029800Y-2283560D01*
X3029800Y-2113560D02*
X2859800Y-2283560D01*
X2944800Y-2113560D02*
X2944800Y-2283560D01*
X2859800Y-2198560D02*
X3029800Y-2198560D01*
X2859800Y-2621560D02*
X3029800Y-2791560D01*
X3029800Y-2621560D02*
X2859800Y-2791560D01*
X2944800Y-2621560D02*
X2944800Y-2791560D01*
X2859800Y-2706560D02*
X3029800Y-2706560D01*
X6261000Y-2113560D02*
X6431000Y-2283560D01*
X6431000Y-2113560D02*
X6261000Y-2283560D01*
X6346000Y-2113560D02*
X6346000Y-2283560D01*
X6261000Y-2198560D02*
X6431000Y-2198560D01*
X6261000Y-2621560D02*
X6431000Y-2791560D01*
X6431000Y-2621560D02*
X6261000Y-2791560D01*
X6346000Y-2621560D02*
X6346000Y-2791560D01*
X6261000Y-2706560D02*
X6431000Y-2706560D01*
X6769000Y-2113560D02*
X6939000Y-2283560D01*
X6939000Y-2113560D02*
X6769000Y-2283560D01*
X6854000Y-2113560D02*
X6854000Y-2283560D01*
X6769000Y-2198560D02*
X6939000Y-2198560D01*
X6769000Y-2621560D02*
X6939000Y-2791560D01*
X6939000Y-2621560D02*
X6769000Y-2791560D01*
X6854000Y-2621560D02*
X6854000Y-2791560D01*
X6769000Y-2706560D02*
X6939000Y-2706560D01*
X7461000Y-2113560D02*
X7631000Y-2283560D01*
X7631000Y-2113560D02*
X7461000Y-2283560D01*
X7546000Y-2113560D02*
X7546000Y-2283560D01*
X7461000Y-2198560D02*
X7631000Y-2198560D01*
X7461000Y-2621560D02*
X7631000Y-2791560D01*
X7631000Y-2621560D02*
X7461000Y-2791560D01*
X7546000Y-2621560D02*
X7546000Y-2791560D01*
X7461000Y-2706560D02*
X7631000Y-2706560D01*
X7969000Y-2113560D02*
X8139000Y-2283560D01*
X8139000Y-2113560D02*
X7969000Y-2283560D01*
X8054000Y-2113560D02*
X8054000Y-2283560D01*
X7969000Y-2198560D02*
X8139000Y-2198560D01*
X7969000Y-2621560D02*
X8139000Y-2791560D01*
X8139000Y-2621560D02*
X7969000Y-2791560D01*
X8054000Y-2621560D02*
X8054000Y-2791560D01*
X7969000Y-2706560D02*
X8139000Y-2706560D01*
X8661000Y-2113560D02*
X8831000Y-2283560D01*
X8831000Y-2113560D02*
X8661000Y-2283560D01*
X8746000Y-2113560D02*
X8746000Y-2283560D01*
X8661000Y-2198560D02*
X8831000Y-2198560D01*
X8661000Y-2621560D02*
X8831000Y-2791560D01*
X8831000Y-2621560D02*
X8661000Y-2791560D01*
X8746000Y-2621560D02*
X8746000Y-2791560D01*
X8661000Y-2706560D02*
X8831000Y-2706560D01*
X9169000Y-2113560D02*
X9339000Y-2283560D01*
X9339000Y-2113560D02*
X9169000Y-2283560D01*
X9254000Y-2113560D02*
X9254000Y-2283560D01*
X9169000Y-2198560D02*
X9339000Y-2198560D01*
X9169000Y-2621560D02*
X9339000Y-2791560D01*
X9339000Y-2621560D02*
X9169000Y-2791560D01*
X9254000Y-2621560D02*
X9254000Y-2791560D01*
X9169000Y-2706560D02*
X9339000Y-2706560D01*
D15*
X2329200Y-9834900D02*
X2649200Y-10154900D01*
X2649200Y-9834900D02*
X2329200Y-10154900D01*
X2602338Y-10108038D02*
X2602338Y-9881762D01*
X2376062Y-9881762D01*
X2376062Y-10108038D01*
X2602338Y-10108038D01*
X3535700Y-2341900D02*
X3855700Y-2661900D01*
X3855700Y-2341900D02*
X3535700Y-2661900D01*
X3808838Y-2615038D02*
X3808838Y-2388762D01*
X3582562Y-2388762D01*
X3582562Y-2615038D01*
X3808838Y-2615038D01*
X9834900Y-2341900D02*
X10154900Y-2661900D01*
X10154900Y-2341900D02*
X9834900Y-2661900D01*
X10108038Y-2615038D02*
X10108038Y-2388762D01*
X9881762Y-2388762D01*
X9881762Y-2615038D01*
X10108038Y-2615038D01*
X9840000Y-9840000D02*
X10160000Y-10160000D01*
X10160000Y-9840000D02*
X9840000Y-10160000D01*
X10113138Y-10113138D02*
X10113138Y-9886862D01*
X9886862Y-9886862D01*
X9886862Y-10113138D01*
X10113138Y-10113138D01*
D11*
X2255777Y-10816484D02*
X2255777Y-10616484D01*
X2255777Y-10616484D02*
X2303396Y-10616484D01*
X2303396Y-10616484D02*
X2331967Y-10626008D01*
X2331967Y-10626008D02*
X2351015Y-10645055D01*
X2351015Y-10645055D02*
X2360539Y-10664103D01*
X2360539Y-10664103D02*
X2370063Y-10702198D01*
X2370063Y-10702198D02*
X2370063Y-10730770D01*
X2370063Y-10730770D02*
X2360539Y-10768865D01*
X2360539Y-10768865D02*
X2351015Y-10787912D01*
X2351015Y-10787912D02*
X2331967Y-10806960D01*
X2331967Y-10806960D02*
X2303396Y-10816484D01*
X2303396Y-10816484D02*
X2255777Y-10816484D01*
X2455777Y-10816484D02*
X2455777Y-10683150D01*
X2455777Y-10721246D02*
X2465301Y-10702198D01*
X2465301Y-10702198D02*
X2474824Y-10692674D01*
X2474824Y-10692674D02*
X2493872Y-10683150D01*
X2493872Y-10683150D02*
X2512920Y-10683150D01*
X2579586Y-10816484D02*
X2579586Y-10683150D01*
X2579586Y-10616484D02*
X2570063Y-10626008D01*
X2570063Y-10626008D02*
X2579586Y-10635531D01*
X2579586Y-10635531D02*
X2589110Y-10626008D01*
X2589110Y-10626008D02*
X2579586Y-10616484D01*
X2579586Y-10616484D02*
X2579586Y-10635531D01*
X2703396Y-10816484D02*
X2684348Y-10806960D01*
X2684348Y-10806960D02*
X2674824Y-10787912D01*
X2674824Y-10787912D02*
X2674824Y-10616484D01*
X2808158Y-10816484D02*
X2789110Y-10806960D01*
X2789110Y-10806960D02*
X2779586Y-10787912D01*
X2779586Y-10787912D02*
X2779586Y-10616484D01*
X3036729Y-10816484D02*
X3036729Y-10616484D01*
X3036729Y-10616484D02*
X3103396Y-10759341D01*
X3103396Y-10759341D02*
X3170062Y-10616484D01*
X3170062Y-10616484D02*
X3170062Y-10816484D01*
X3351015Y-10816484D02*
X3351015Y-10711722D01*
X3351015Y-10711722D02*
X3341491Y-10692674D01*
X3341491Y-10692674D02*
X3322443Y-10683150D01*
X3322443Y-10683150D02*
X3284348Y-10683150D01*
X3284348Y-10683150D02*
X3265301Y-10692674D01*
X3351015Y-10806960D02*
X3331967Y-10816484D01*
X3331967Y-10816484D02*
X3284348Y-10816484D01*
X3284348Y-10816484D02*
X3265301Y-10806960D01*
X3265301Y-10806960D02*
X3255777Y-10787912D01*
X3255777Y-10787912D02*
X3255777Y-10768865D01*
X3255777Y-10768865D02*
X3265301Y-10749817D01*
X3265301Y-10749817D02*
X3284348Y-10740293D01*
X3284348Y-10740293D02*
X3331967Y-10740293D01*
X3331967Y-10740293D02*
X3351015Y-10730770D01*
X3446253Y-10683150D02*
X3446253Y-10883150D01*
X3446253Y-10692674D02*
X3465301Y-10683150D01*
X3465301Y-10683150D02*
X3503396Y-10683150D01*
X3503396Y-10683150D02*
X3522443Y-10692674D01*
X3522443Y-10692674D02*
X3531967Y-10702198D01*
X3531967Y-10702198D02*
X3541491Y-10721246D01*
X3541491Y-10721246D02*
X3541491Y-10778389D01*
X3541491Y-10778389D02*
X3531967Y-10797436D01*
X3531967Y-10797436D02*
X3522443Y-10806960D01*
X3522443Y-10806960D02*
X3503396Y-10816484D01*
X3503396Y-10816484D02*
X3465301Y-10816484D01*
X3465301Y-10816484D02*
X3446253Y-10806960D01*
X3627205Y-10797436D02*
X3636729Y-10806960D01*
X3636729Y-10806960D02*
X3627205Y-10816484D01*
X3627205Y-10816484D02*
X3617682Y-10806960D01*
X3617682Y-10806960D02*
X3627205Y-10797436D01*
X3627205Y-10797436D02*
X3627205Y-10816484D01*
X3627205Y-10692674D02*
X3636729Y-10702198D01*
X3636729Y-10702198D02*
X3627205Y-10711722D01*
X3627205Y-10711722D02*
X3617682Y-10702198D01*
X3617682Y-10702198D02*
X3627205Y-10692674D01*
X3627205Y-10692674D02*
X3627205Y-10711722D01*
D10*
X1955000Y-11125000D02*
X1995000Y-11165000D01*
X1995000Y-11125000D02*
X1955000Y-11165000D01*
D11*
X2293872Y-11036484D02*
X2312920Y-11036484D01*
X2312920Y-11036484D02*
X2331967Y-11046008D01*
X2331967Y-11046008D02*
X2341491Y-11055531D01*
X2341491Y-11055531D02*
X2351015Y-11074579D01*
X2351015Y-11074579D02*
X2360539Y-11112674D01*
X2360539Y-11112674D02*
X2360539Y-11160293D01*
X2360539Y-11160293D02*
X2351015Y-11198388D01*
X2351015Y-11198388D02*
X2341491Y-11217436D01*
X2341491Y-11217436D02*
X2331967Y-11226960D01*
X2331967Y-11226960D02*
X2312920Y-11236484D01*
X2312920Y-11236484D02*
X2293872Y-11236484D01*
X2293872Y-11236484D02*
X2274824Y-11226960D01*
X2274824Y-11226960D02*
X2265301Y-11217436D01*
X2265301Y-11217436D02*
X2255777Y-11198388D01*
X2255777Y-11198388D02*
X2246253Y-11160293D01*
X2246253Y-11160293D02*
X2246253Y-11112674D01*
X2246253Y-11112674D02*
X2255777Y-11074579D01*
X2255777Y-11074579D02*
X2265301Y-11055531D01*
X2265301Y-11055531D02*
X2274824Y-11046008D01*
X2274824Y-11046008D02*
X2293872Y-11036484D01*
X2446253Y-11217436D02*
X2455777Y-11226960D01*
X2455777Y-11226960D02*
X2446253Y-11236484D01*
X2446253Y-11236484D02*
X2436729Y-11226960D01*
X2436729Y-11226960D02*
X2446253Y-11217436D01*
X2446253Y-11217436D02*
X2446253Y-11236484D01*
X2627205Y-11103150D02*
X2627205Y-11236484D01*
X2579586Y-11026960D02*
X2531967Y-11169817D01*
X2531967Y-11169817D02*
X2655777Y-11169817D01*
X2770063Y-11036484D02*
X2789110Y-11036484D01*
X2789110Y-11036484D02*
X2808158Y-11046008D01*
X2808158Y-11046008D02*
X2817682Y-11055531D01*
X2817682Y-11055531D02*
X2827205Y-11074579D01*
X2827205Y-11074579D02*
X2836729Y-11112674D01*
X2836729Y-11112674D02*
X2836729Y-11160293D01*
X2836729Y-11160293D02*
X2827205Y-11198388D01*
X2827205Y-11198388D02*
X2817682Y-11217436D01*
X2817682Y-11217436D02*
X2808158Y-11226960D01*
X2808158Y-11226960D02*
X2789110Y-11236484D01*
X2789110Y-11236484D02*
X2770063Y-11236484D01*
X2770063Y-11236484D02*
X2751015Y-11226960D01*
X2751015Y-11226960D02*
X2741491Y-11217436D01*
X2741491Y-11217436D02*
X2731967Y-11198388D01*
X2731967Y-11198388D02*
X2722444Y-11160293D01*
X2722444Y-11160293D02*
X2722444Y-11112674D01*
X2722444Y-11112674D02*
X2731967Y-11074579D01*
X2731967Y-11074579D02*
X2741491Y-11055531D01*
X2741491Y-11055531D02*
X2751015Y-11046008D01*
X2751015Y-11046008D02*
X2770063Y-11036484D01*
X2960539Y-11036484D02*
X2979586Y-11036484D01*
X2979586Y-11036484D02*
X2998634Y-11046008D01*
X2998634Y-11046008D02*
X3008158Y-11055531D01*
X3008158Y-11055531D02*
X3017682Y-11074579D01*
X3017682Y-11074579D02*
X3027205Y-11112674D01*
X3027205Y-11112674D02*
X3027205Y-11160293D01*
X3027205Y-11160293D02*
X3017682Y-11198388D01*
X3017682Y-11198388D02*
X3008158Y-11217436D01*
X3008158Y-11217436D02*
X2998634Y-11226960D01*
X2998634Y-11226960D02*
X2979586Y-11236484D01*
X2979586Y-11236484D02*
X2960539Y-11236484D01*
X2960539Y-11236484D02*
X2941491Y-11226960D01*
X2941491Y-11226960D02*
X2931967Y-11217436D01*
X2931967Y-11217436D02*
X2922443Y-11198388D01*
X2922443Y-11198388D02*
X2912920Y-11160293D01*
X2912920Y-11160293D02*
X2912920Y-11112674D01*
X2912920Y-11112674D02*
X2922443Y-11074579D01*
X2922443Y-11074579D02*
X2931967Y-11055531D01*
X2931967Y-11055531D02*
X2941491Y-11046008D01*
X2941491Y-11046008D02*
X2960539Y-11036484D01*
X3112920Y-11236484D02*
X3112920Y-11103150D01*
X3112920Y-11122198D02*
X3122443Y-11112674D01*
X3122443Y-11112674D02*
X3141491Y-11103150D01*
X3141491Y-11103150D02*
X3170063Y-11103150D01*
X3170063Y-11103150D02*
X3189110Y-11112674D01*
X3189110Y-11112674D02*
X3198634Y-11131722D01*
X3198634Y-11131722D02*
X3198634Y-11236484D01*
X3198634Y-11131722D02*
X3208158Y-11112674D01*
X3208158Y-11112674D02*
X3227205Y-11103150D01*
X3227205Y-11103150D02*
X3255777Y-11103150D01*
X3255777Y-11103150D02*
X3274824Y-11112674D01*
X3274824Y-11112674D02*
X3284348Y-11131722D01*
X3284348Y-11131722D02*
X3284348Y-11236484D01*
X3379586Y-11236484D02*
X3379586Y-11103150D01*
X3379586Y-11122198D02*
X3389110Y-11112674D01*
X3389110Y-11112674D02*
X3408158Y-11103150D01*
X3408158Y-11103150D02*
X3436729Y-11103150D01*
X3436729Y-11103150D02*
X3455777Y-11112674D01*
X3455777Y-11112674D02*
X3465301Y-11131722D01*
X3465301Y-11131722D02*
X3465301Y-11236484D01*
X3465301Y-11131722D02*
X3474824Y-11112674D01*
X3474824Y-11112674D02*
X3493872Y-11103150D01*
X3493872Y-11103150D02*
X3522443Y-11103150D01*
X3522443Y-11103150D02*
X3541491Y-11112674D01*
X3541491Y-11112674D02*
X3551015Y-11131722D01*
X3551015Y-11131722D02*
X3551015Y-11236484D01*
X3941491Y-11026960D02*
X3770063Y-11284103D01*
X4198634Y-11036484D02*
X4217682Y-11036484D01*
X4217682Y-11036484D02*
X4236729Y-11046008D01*
X4236729Y-11046008D02*
X4246253Y-11055531D01*
X4246253Y-11055531D02*
X4255777Y-11074579D01*
X4255777Y-11074579D02*
X4265301Y-11112674D01*
X4265301Y-11112674D02*
X4265301Y-11160293D01*
X4265301Y-11160293D02*
X4255777Y-11198388D01*
X4255777Y-11198388D02*
X4246253Y-11217436D01*
X4246253Y-11217436D02*
X4236729Y-11226960D01*
X4236729Y-11226960D02*
X4217682Y-11236484D01*
X4217682Y-11236484D02*
X4198634Y-11236484D01*
X4198634Y-11236484D02*
X4179586Y-11226960D01*
X4179586Y-11226960D02*
X4170063Y-11217436D01*
X4170063Y-11217436D02*
X4160539Y-11198388D01*
X4160539Y-11198388D02*
X4151015Y-11160293D01*
X4151015Y-11160293D02*
X4151015Y-11112674D01*
X4151015Y-11112674D02*
X4160539Y-11074579D01*
X4160539Y-11074579D02*
X4170063Y-11055531D01*
X4170063Y-11055531D02*
X4179586Y-11046008D01*
X4179586Y-11046008D02*
X4198634Y-11036484D01*
X4351015Y-11217436D02*
X4360539Y-11226960D01*
X4360539Y-11226960D02*
X4351015Y-11236484D01*
X4351015Y-11236484D02*
X4341491Y-11226960D01*
X4341491Y-11226960D02*
X4351015Y-11217436D01*
X4351015Y-11217436D02*
X4351015Y-11236484D01*
X4484348Y-11036484D02*
X4503396Y-11036484D01*
X4503396Y-11036484D02*
X4522444Y-11046008D01*
X4522444Y-11046008D02*
X4531968Y-11055531D01*
X4531968Y-11055531D02*
X4541491Y-11074579D01*
X4541491Y-11074579D02*
X4551015Y-11112674D01*
X4551015Y-11112674D02*
X4551015Y-11160293D01*
X4551015Y-11160293D02*
X4541491Y-11198388D01*
X4541491Y-11198388D02*
X4531968Y-11217436D01*
X4531968Y-11217436D02*
X4522444Y-11226960D01*
X4522444Y-11226960D02*
X4503396Y-11236484D01*
X4503396Y-11236484D02*
X4484348Y-11236484D01*
X4484348Y-11236484D02*
X4465301Y-11226960D01*
X4465301Y-11226960D02*
X4455777Y-11217436D01*
X4455777Y-11217436D02*
X4446253Y-11198388D01*
X4446253Y-11198388D02*
X4436729Y-11160293D01*
X4436729Y-11160293D02*
X4436729Y-11112674D01*
X4436729Y-11112674D02*
X4446253Y-11074579D01*
X4446253Y-11074579D02*
X4455777Y-11055531D01*
X4455777Y-11055531D02*
X4465301Y-11046008D01*
X4465301Y-11046008D02*
X4484348Y-11036484D01*
X4741491Y-11236484D02*
X4627206Y-11236484D01*
X4684348Y-11236484D02*
X4684348Y-11036484D01*
X4684348Y-11036484D02*
X4665301Y-11065055D01*
X4665301Y-11065055D02*
X4646253Y-11084103D01*
X4646253Y-11084103D02*
X4627206Y-11093627D01*
X4922444Y-11036484D02*
X4827206Y-11036484D01*
X4827206Y-11036484D02*
X4817682Y-11131722D01*
X4817682Y-11131722D02*
X4827206Y-11122198D01*
X4827206Y-11122198D02*
X4846253Y-11112674D01*
X4846253Y-11112674D02*
X4893872Y-11112674D01*
X4893872Y-11112674D02*
X4912920Y-11122198D01*
X4912920Y-11122198D02*
X4922444Y-11131722D01*
X4922444Y-11131722D02*
X4931968Y-11150770D01*
X4931968Y-11150770D02*
X4931968Y-11198388D01*
X4931968Y-11198388D02*
X4922444Y-11217436D01*
X4922444Y-11217436D02*
X4912920Y-11226960D01*
X4912920Y-11226960D02*
X4893872Y-11236484D01*
X4893872Y-11236484D02*
X4846253Y-11236484D01*
X4846253Y-11236484D02*
X4827206Y-11226960D01*
X4827206Y-11226960D02*
X4817682Y-11217436D01*
X4998634Y-11036484D02*
X5131968Y-11036484D01*
X5131968Y-11036484D02*
X5046253Y-11236484D01*
X5198634Y-11036484D02*
X5198634Y-11074579D01*
X5274825Y-11036484D02*
X5274825Y-11074579D01*
X5570063Y-11312674D02*
X5560539Y-11303150D01*
X5560539Y-11303150D02*
X5541491Y-11274579D01*
X5541491Y-11274579D02*
X5531968Y-11255531D01*
X5531968Y-11255531D02*
X5522444Y-11226960D01*
X5522444Y-11226960D02*
X5512920Y-11179341D01*
X5512920Y-11179341D02*
X5512920Y-11141246D01*
X5512920Y-11141246D02*
X5522444Y-11093627D01*
X5522444Y-11093627D02*
X5531968Y-11065055D01*
X5531968Y-11065055D02*
X5541491Y-11046008D01*
X5541491Y-11046008D02*
X5560539Y-11017436D01*
X5560539Y-11017436D02*
X5570063Y-11007912D01*
X5627206Y-11036484D02*
X5760539Y-11036484D01*
X5760539Y-11036484D02*
X5674825Y-11236484D01*
X5874825Y-11036484D02*
X5893872Y-11036484D01*
X5893872Y-11036484D02*
X5912920Y-11046008D01*
X5912920Y-11046008D02*
X5922444Y-11055531D01*
X5922444Y-11055531D02*
X5931968Y-11074579D01*
X5931968Y-11074579D02*
X5941491Y-11112674D01*
X5941491Y-11112674D02*
X5941491Y-11160293D01*
X5941491Y-11160293D02*
X5931968Y-11198388D01*
X5931968Y-11198388D02*
X5922444Y-11217436D01*
X5922444Y-11217436D02*
X5912920Y-11226960D01*
X5912920Y-11226960D02*
X5893872Y-11236484D01*
X5893872Y-11236484D02*
X5874825Y-11236484D01*
X5874825Y-11236484D02*
X5855777Y-11226960D01*
X5855777Y-11226960D02*
X5846253Y-11217436D01*
X5846253Y-11217436D02*
X5836729Y-11198388D01*
X5836729Y-11198388D02*
X5827206Y-11160293D01*
X5827206Y-11160293D02*
X5827206Y-11112674D01*
X5827206Y-11112674D02*
X5836729Y-11074579D01*
X5836729Y-11074579D02*
X5846253Y-11055531D01*
X5846253Y-11055531D02*
X5855777Y-11046008D01*
X5855777Y-11046008D02*
X5874825Y-11036484D01*
X6179587Y-11236484D02*
X6179587Y-11036484D01*
X6265301Y-11236484D02*
X6265301Y-11131722D01*
X6265301Y-11131722D02*
X6255777Y-11112674D01*
X6255777Y-11112674D02*
X6236730Y-11103150D01*
X6236730Y-11103150D02*
X6208158Y-11103150D01*
X6208158Y-11103150D02*
X6189110Y-11112674D01*
X6189110Y-11112674D02*
X6179587Y-11122198D01*
X6389110Y-11236484D02*
X6370063Y-11226960D01*
X6370063Y-11226960D02*
X6360539Y-11217436D01*
X6360539Y-11217436D02*
X6351015Y-11198388D01*
X6351015Y-11198388D02*
X6351015Y-11141246D01*
X6351015Y-11141246D02*
X6360539Y-11122198D01*
X6360539Y-11122198D02*
X6370063Y-11112674D01*
X6370063Y-11112674D02*
X6389110Y-11103150D01*
X6389110Y-11103150D02*
X6417682Y-11103150D01*
X6417682Y-11103150D02*
X6436730Y-11112674D01*
X6436730Y-11112674D02*
X6446253Y-11122198D01*
X6446253Y-11122198D02*
X6455777Y-11141246D01*
X6455777Y-11141246D02*
X6455777Y-11198388D01*
X6455777Y-11198388D02*
X6446253Y-11217436D01*
X6446253Y-11217436D02*
X6436730Y-11226960D01*
X6436730Y-11226960D02*
X6417682Y-11236484D01*
X6417682Y-11236484D02*
X6389110Y-11236484D01*
X6570063Y-11236484D02*
X6551015Y-11226960D01*
X6551015Y-11226960D02*
X6541491Y-11207912D01*
X6541491Y-11207912D02*
X6541491Y-11036484D01*
X6722444Y-11226960D02*
X6703396Y-11236484D01*
X6703396Y-11236484D02*
X6665301Y-11236484D01*
X6665301Y-11236484D02*
X6646253Y-11226960D01*
X6646253Y-11226960D02*
X6636730Y-11207912D01*
X6636730Y-11207912D02*
X6636730Y-11131722D01*
X6636730Y-11131722D02*
X6646253Y-11112674D01*
X6646253Y-11112674D02*
X6665301Y-11103150D01*
X6665301Y-11103150D02*
X6703396Y-11103150D01*
X6703396Y-11103150D02*
X6722444Y-11112674D01*
X6722444Y-11112674D02*
X6731968Y-11131722D01*
X6731968Y-11131722D02*
X6731968Y-11150770D01*
X6731968Y-11150770D02*
X6636730Y-11169817D01*
X6808158Y-11226960D02*
X6827206Y-11236484D01*
X6827206Y-11236484D02*
X6865301Y-11236484D01*
X6865301Y-11236484D02*
X6884349Y-11226960D01*
X6884349Y-11226960D02*
X6893872Y-11207912D01*
X6893872Y-11207912D02*
X6893872Y-11198388D01*
X6893872Y-11198388D02*
X6884349Y-11179341D01*
X6884349Y-11179341D02*
X6865301Y-11169817D01*
X6865301Y-11169817D02*
X6836730Y-11169817D01*
X6836730Y-11169817D02*
X6817682Y-11160293D01*
X6817682Y-11160293D02*
X6808158Y-11141246D01*
X6808158Y-11141246D02*
X6808158Y-11131722D01*
X6808158Y-11131722D02*
X6817682Y-11112674D01*
X6817682Y-11112674D02*
X6836730Y-11103150D01*
X6836730Y-11103150D02*
X6865301Y-11103150D01*
X6865301Y-11103150D02*
X6884349Y-11112674D01*
X6960539Y-11312674D02*
X6970063Y-11303150D01*
X6970063Y-11303150D02*
X6989111Y-11274579D01*
X6989111Y-11274579D02*
X6998634Y-11255531D01*
X6998634Y-11255531D02*
X7008158Y-11226960D01*
X7008158Y-11226960D02*
X7017682Y-11179341D01*
X7017682Y-11179341D02*
X7017682Y-11141246D01*
X7017682Y-11141246D02*
X7008158Y-11093627D01*
X7008158Y-11093627D02*
X6998634Y-11065055D01*
X6998634Y-11065055D02*
X6989111Y-11046008D01*
X6989111Y-11046008D02*
X6970063Y-11017436D01*
X6970063Y-11017436D02*
X6960539Y-11007912D01*
D10*
X1995000Y-11409000D02*
G75*
G03*
X1945000Y-11409000I-25000J0D01*
G01*
X1945000Y-11409000D02*
G75*
G03*
X1995000Y-11409000I25000J0D01*
G01*
D11*
X2293872Y-11300484D02*
X2312920Y-11300484D01*
X2312920Y-11300484D02*
X2331967Y-11310008D01*
X2331967Y-11310008D02*
X2341491Y-11319531D01*
X2341491Y-11319531D02*
X2351015Y-11338579D01*
X2351015Y-11338579D02*
X2360539Y-11376674D01*
X2360539Y-11376674D02*
X2360539Y-11424293D01*
X2360539Y-11424293D02*
X2351015Y-11462388D01*
X2351015Y-11462388D02*
X2341491Y-11481436D01*
X2341491Y-11481436D02*
X2331967Y-11490960D01*
X2331967Y-11490960D02*
X2312920Y-11500484D01*
X2312920Y-11500484D02*
X2293872Y-11500484D01*
X2293872Y-11500484D02*
X2274824Y-11490960D01*
X2274824Y-11490960D02*
X2265301Y-11481436D01*
X2265301Y-11481436D02*
X2255777Y-11462388D01*
X2255777Y-11462388D02*
X2246253Y-11424293D01*
X2246253Y-11424293D02*
X2246253Y-11376674D01*
X2246253Y-11376674D02*
X2255777Y-11338579D01*
X2255777Y-11338579D02*
X2265301Y-11319531D01*
X2265301Y-11319531D02*
X2274824Y-11310008D01*
X2274824Y-11310008D02*
X2293872Y-11300484D01*
X2446253Y-11481436D02*
X2455777Y-11490960D01*
X2455777Y-11490960D02*
X2446253Y-11500484D01*
X2446253Y-11500484D02*
X2436729Y-11490960D01*
X2436729Y-11490960D02*
X2446253Y-11481436D01*
X2446253Y-11481436D02*
X2446253Y-11500484D01*
X2636729Y-11300484D02*
X2541491Y-11300484D01*
X2541491Y-11300484D02*
X2531967Y-11395722D01*
X2531967Y-11395722D02*
X2541491Y-11386198D01*
X2541491Y-11386198D02*
X2560539Y-11376674D01*
X2560539Y-11376674D02*
X2608158Y-11376674D01*
X2608158Y-11376674D02*
X2627205Y-11386198D01*
X2627205Y-11386198D02*
X2636729Y-11395722D01*
X2636729Y-11395722D02*
X2646253Y-11414769D01*
X2646253Y-11414769D02*
X2646253Y-11462388D01*
X2646253Y-11462388D02*
X2636729Y-11481436D01*
X2636729Y-11481436D02*
X2627205Y-11490960D01*
X2627205Y-11490960D02*
X2608158Y-11500484D01*
X2608158Y-11500484D02*
X2560539Y-11500484D01*
X2560539Y-11500484D02*
X2541491Y-11490960D01*
X2541491Y-11490960D02*
X2531967Y-11481436D01*
X2770063Y-11300484D02*
X2789110Y-11300484D01*
X2789110Y-11300484D02*
X2808158Y-11310008D01*
X2808158Y-11310008D02*
X2817682Y-11319531D01*
X2817682Y-11319531D02*
X2827205Y-11338579D01*
X2827205Y-11338579D02*
X2836729Y-11376674D01*
X2836729Y-11376674D02*
X2836729Y-11424293D01*
X2836729Y-11424293D02*
X2827205Y-11462388D01*
X2827205Y-11462388D02*
X2817682Y-11481436D01*
X2817682Y-11481436D02*
X2808158Y-11490960D01*
X2808158Y-11490960D02*
X2789110Y-11500484D01*
X2789110Y-11500484D02*
X2770063Y-11500484D01*
X2770063Y-11500484D02*
X2751015Y-11490960D01*
X2751015Y-11490960D02*
X2741491Y-11481436D01*
X2741491Y-11481436D02*
X2731967Y-11462388D01*
X2731967Y-11462388D02*
X2722444Y-11424293D01*
X2722444Y-11424293D02*
X2722444Y-11376674D01*
X2722444Y-11376674D02*
X2731967Y-11338579D01*
X2731967Y-11338579D02*
X2741491Y-11319531D01*
X2741491Y-11319531D02*
X2751015Y-11310008D01*
X2751015Y-11310008D02*
X2770063Y-11300484D01*
X2960539Y-11300484D02*
X2979586Y-11300484D01*
X2979586Y-11300484D02*
X2998634Y-11310008D01*
X2998634Y-11310008D02*
X3008158Y-11319531D01*
X3008158Y-11319531D02*
X3017682Y-11338579D01*
X3017682Y-11338579D02*
X3027205Y-11376674D01*
X3027205Y-11376674D02*
X3027205Y-11424293D01*
X3027205Y-11424293D02*
X3017682Y-11462388D01*
X3017682Y-11462388D02*
X3008158Y-11481436D01*
X3008158Y-11481436D02*
X2998634Y-11490960D01*
X2998634Y-11490960D02*
X2979586Y-11500484D01*
X2979586Y-11500484D02*
X2960539Y-11500484D01*
X2960539Y-11500484D02*
X2941491Y-11490960D01*
X2941491Y-11490960D02*
X2931967Y-11481436D01*
X2931967Y-11481436D02*
X2922443Y-11462388D01*
X2922443Y-11462388D02*
X2912920Y-11424293D01*
X2912920Y-11424293D02*
X2912920Y-11376674D01*
X2912920Y-11376674D02*
X2922443Y-11338579D01*
X2922443Y-11338579D02*
X2931967Y-11319531D01*
X2931967Y-11319531D02*
X2941491Y-11310008D01*
X2941491Y-11310008D02*
X2960539Y-11300484D01*
X3112920Y-11500484D02*
X3112920Y-11367150D01*
X3112920Y-11386198D02*
X3122443Y-11376674D01*
X3122443Y-11376674D02*
X3141491Y-11367150D01*
X3141491Y-11367150D02*
X3170063Y-11367150D01*
X3170063Y-11367150D02*
X3189110Y-11376674D01*
X3189110Y-11376674D02*
X3198634Y-11395722D01*
X3198634Y-11395722D02*
X3198634Y-11500484D01*
X3198634Y-11395722D02*
X3208158Y-11376674D01*
X3208158Y-11376674D02*
X3227205Y-11367150D01*
X3227205Y-11367150D02*
X3255777Y-11367150D01*
X3255777Y-11367150D02*
X3274824Y-11376674D01*
X3274824Y-11376674D02*
X3284348Y-11395722D01*
X3284348Y-11395722D02*
X3284348Y-11500484D01*
X3379586Y-11500484D02*
X3379586Y-11367150D01*
X3379586Y-11386198D02*
X3389110Y-11376674D01*
X3389110Y-11376674D02*
X3408158Y-11367150D01*
X3408158Y-11367150D02*
X3436729Y-11367150D01*
X3436729Y-11367150D02*
X3455777Y-11376674D01*
X3455777Y-11376674D02*
X3465301Y-11395722D01*
X3465301Y-11395722D02*
X3465301Y-11500484D01*
X3465301Y-11395722D02*
X3474824Y-11376674D01*
X3474824Y-11376674D02*
X3493872Y-11367150D01*
X3493872Y-11367150D02*
X3522443Y-11367150D01*
X3522443Y-11367150D02*
X3541491Y-11376674D01*
X3541491Y-11376674D02*
X3551015Y-11395722D01*
X3551015Y-11395722D02*
X3551015Y-11500484D01*
X3941491Y-11290960D02*
X3770063Y-11548103D01*
X4198634Y-11300484D02*
X4217682Y-11300484D01*
X4217682Y-11300484D02*
X4236729Y-11310008D01*
X4236729Y-11310008D02*
X4246253Y-11319531D01*
X4246253Y-11319531D02*
X4255777Y-11338579D01*
X4255777Y-11338579D02*
X4265301Y-11376674D01*
X4265301Y-11376674D02*
X4265301Y-11424293D01*
X4265301Y-11424293D02*
X4255777Y-11462388D01*
X4255777Y-11462388D02*
X4246253Y-11481436D01*
X4246253Y-11481436D02*
X4236729Y-11490960D01*
X4236729Y-11490960D02*
X4217682Y-11500484D01*
X4217682Y-11500484D02*
X4198634Y-11500484D01*
X4198634Y-11500484D02*
X4179586Y-11490960D01*
X4179586Y-11490960D02*
X4170063Y-11481436D01*
X4170063Y-11481436D02*
X4160539Y-11462388D01*
X4160539Y-11462388D02*
X4151015Y-11424293D01*
X4151015Y-11424293D02*
X4151015Y-11376674D01*
X4151015Y-11376674D02*
X4160539Y-11338579D01*
X4160539Y-11338579D02*
X4170063Y-11319531D01*
X4170063Y-11319531D02*
X4179586Y-11310008D01*
X4179586Y-11310008D02*
X4198634Y-11300484D01*
X4351015Y-11481436D02*
X4360539Y-11490960D01*
X4360539Y-11490960D02*
X4351015Y-11500484D01*
X4351015Y-11500484D02*
X4341491Y-11490960D01*
X4341491Y-11490960D02*
X4351015Y-11481436D01*
X4351015Y-11481436D02*
X4351015Y-11500484D01*
X4484348Y-11300484D02*
X4503396Y-11300484D01*
X4503396Y-11300484D02*
X4522444Y-11310008D01*
X4522444Y-11310008D02*
X4531968Y-11319531D01*
X4531968Y-11319531D02*
X4541491Y-11338579D01*
X4541491Y-11338579D02*
X4551015Y-11376674D01*
X4551015Y-11376674D02*
X4551015Y-11424293D01*
X4551015Y-11424293D02*
X4541491Y-11462388D01*
X4541491Y-11462388D02*
X4531968Y-11481436D01*
X4531968Y-11481436D02*
X4522444Y-11490960D01*
X4522444Y-11490960D02*
X4503396Y-11500484D01*
X4503396Y-11500484D02*
X4484348Y-11500484D01*
X4484348Y-11500484D02*
X4465301Y-11490960D01*
X4465301Y-11490960D02*
X4455777Y-11481436D01*
X4455777Y-11481436D02*
X4446253Y-11462388D01*
X4446253Y-11462388D02*
X4436729Y-11424293D01*
X4436729Y-11424293D02*
X4436729Y-11376674D01*
X4436729Y-11376674D02*
X4446253Y-11338579D01*
X4446253Y-11338579D02*
X4455777Y-11319531D01*
X4455777Y-11319531D02*
X4465301Y-11310008D01*
X4465301Y-11310008D02*
X4484348Y-11300484D01*
X4741491Y-11500484D02*
X4627206Y-11500484D01*
X4684348Y-11500484D02*
X4684348Y-11300484D01*
X4684348Y-11300484D02*
X4665301Y-11329055D01*
X4665301Y-11329055D02*
X4646253Y-11348103D01*
X4646253Y-11348103D02*
X4627206Y-11357627D01*
X4836729Y-11500484D02*
X4874825Y-11500484D01*
X4874825Y-11500484D02*
X4893872Y-11490960D01*
X4893872Y-11490960D02*
X4903396Y-11481436D01*
X4903396Y-11481436D02*
X4922444Y-11452865D01*
X4922444Y-11452865D02*
X4931968Y-11414769D01*
X4931968Y-11414769D02*
X4931968Y-11338579D01*
X4931968Y-11338579D02*
X4922444Y-11319531D01*
X4922444Y-11319531D02*
X4912920Y-11310008D01*
X4912920Y-11310008D02*
X4893872Y-11300484D01*
X4893872Y-11300484D02*
X4855777Y-11300484D01*
X4855777Y-11300484D02*
X4836729Y-11310008D01*
X4836729Y-11310008D02*
X4827206Y-11319531D01*
X4827206Y-11319531D02*
X4817682Y-11338579D01*
X4817682Y-11338579D02*
X4817682Y-11386198D01*
X4817682Y-11386198D02*
X4827206Y-11405246D01*
X4827206Y-11405246D02*
X4836729Y-11414769D01*
X4836729Y-11414769D02*
X4855777Y-11424293D01*
X4855777Y-11424293D02*
X4893872Y-11424293D01*
X4893872Y-11424293D02*
X4912920Y-11414769D01*
X4912920Y-11414769D02*
X4922444Y-11405246D01*
X4922444Y-11405246D02*
X4931968Y-11386198D01*
X4998634Y-11300484D02*
X5131968Y-11300484D01*
X5131968Y-11300484D02*
X5046253Y-11500484D01*
X5198634Y-11300484D02*
X5198634Y-11338579D01*
X5274825Y-11300484D02*
X5274825Y-11338579D01*
X5570063Y-11576674D02*
X5560539Y-11567150D01*
X5560539Y-11567150D02*
X5541491Y-11538579D01*
X5541491Y-11538579D02*
X5531968Y-11519531D01*
X5531968Y-11519531D02*
X5522444Y-11490960D01*
X5522444Y-11490960D02*
X5512920Y-11443341D01*
X5512920Y-11443341D02*
X5512920Y-11405246D01*
X5512920Y-11405246D02*
X5522444Y-11357627D01*
X5522444Y-11357627D02*
X5531968Y-11329055D01*
X5531968Y-11329055D02*
X5541491Y-11310008D01*
X5541491Y-11310008D02*
X5560539Y-11281436D01*
X5560539Y-11281436D02*
X5570063Y-11271912D01*
X5627206Y-11300484D02*
X5751015Y-11300484D01*
X5751015Y-11300484D02*
X5684348Y-11376674D01*
X5684348Y-11376674D02*
X5712920Y-11376674D01*
X5712920Y-11376674D02*
X5731968Y-11386198D01*
X5731968Y-11386198D02*
X5741491Y-11395722D01*
X5741491Y-11395722D02*
X5751015Y-11414769D01*
X5751015Y-11414769D02*
X5751015Y-11462388D01*
X5751015Y-11462388D02*
X5741491Y-11481436D01*
X5741491Y-11481436D02*
X5731968Y-11490960D01*
X5731968Y-11490960D02*
X5712920Y-11500484D01*
X5712920Y-11500484D02*
X5655777Y-11500484D01*
X5655777Y-11500484D02*
X5636729Y-11490960D01*
X5636729Y-11490960D02*
X5627206Y-11481436D01*
X5827206Y-11319531D02*
X5836729Y-11310008D01*
X5836729Y-11310008D02*
X5855777Y-11300484D01*
X5855777Y-11300484D02*
X5903396Y-11300484D01*
X5903396Y-11300484D02*
X5922444Y-11310008D01*
X5922444Y-11310008D02*
X5931968Y-11319531D01*
X5931968Y-11319531D02*
X5941491Y-11338579D01*
X5941491Y-11338579D02*
X5941491Y-11357627D01*
X5941491Y-11357627D02*
X5931968Y-11386198D01*
X5931968Y-11386198D02*
X5817682Y-11500484D01*
X5817682Y-11500484D02*
X5941491Y-11500484D01*
X6179587Y-11500484D02*
X6179587Y-11300484D01*
X6265301Y-11500484D02*
X6265301Y-11395722D01*
X6265301Y-11395722D02*
X6255777Y-11376674D01*
X6255777Y-11376674D02*
X6236730Y-11367150D01*
X6236730Y-11367150D02*
X6208158Y-11367150D01*
X6208158Y-11367150D02*
X6189110Y-11376674D01*
X6189110Y-11376674D02*
X6179587Y-11386198D01*
X6389110Y-11500484D02*
X6370063Y-11490960D01*
X6370063Y-11490960D02*
X6360539Y-11481436D01*
X6360539Y-11481436D02*
X6351015Y-11462388D01*
X6351015Y-11462388D02*
X6351015Y-11405246D01*
X6351015Y-11405246D02*
X6360539Y-11386198D01*
X6360539Y-11386198D02*
X6370063Y-11376674D01*
X6370063Y-11376674D02*
X6389110Y-11367150D01*
X6389110Y-11367150D02*
X6417682Y-11367150D01*
X6417682Y-11367150D02*
X6436730Y-11376674D01*
X6436730Y-11376674D02*
X6446253Y-11386198D01*
X6446253Y-11386198D02*
X6455777Y-11405246D01*
X6455777Y-11405246D02*
X6455777Y-11462388D01*
X6455777Y-11462388D02*
X6446253Y-11481436D01*
X6446253Y-11481436D02*
X6436730Y-11490960D01*
X6436730Y-11490960D02*
X6417682Y-11500484D01*
X6417682Y-11500484D02*
X6389110Y-11500484D01*
X6570063Y-11500484D02*
X6551015Y-11490960D01*
X6551015Y-11490960D02*
X6541491Y-11471912D01*
X6541491Y-11471912D02*
X6541491Y-11300484D01*
X6722444Y-11490960D02*
X6703396Y-11500484D01*
X6703396Y-11500484D02*
X6665301Y-11500484D01*
X6665301Y-11500484D02*
X6646253Y-11490960D01*
X6646253Y-11490960D02*
X6636730Y-11471912D01*
X6636730Y-11471912D02*
X6636730Y-11395722D01*
X6636730Y-11395722D02*
X6646253Y-11376674D01*
X6646253Y-11376674D02*
X6665301Y-11367150D01*
X6665301Y-11367150D02*
X6703396Y-11367150D01*
X6703396Y-11367150D02*
X6722444Y-11376674D01*
X6722444Y-11376674D02*
X6731968Y-11395722D01*
X6731968Y-11395722D02*
X6731968Y-11414769D01*
X6731968Y-11414769D02*
X6636730Y-11433817D01*
X6808158Y-11490960D02*
X6827206Y-11500484D01*
X6827206Y-11500484D02*
X6865301Y-11500484D01*
X6865301Y-11500484D02*
X6884349Y-11490960D01*
X6884349Y-11490960D02*
X6893872Y-11471912D01*
X6893872Y-11471912D02*
X6893872Y-11462388D01*
X6893872Y-11462388D02*
X6884349Y-11443341D01*
X6884349Y-11443341D02*
X6865301Y-11433817D01*
X6865301Y-11433817D02*
X6836730Y-11433817D01*
X6836730Y-11433817D02*
X6817682Y-11424293D01*
X6817682Y-11424293D02*
X6808158Y-11405246D01*
X6808158Y-11405246D02*
X6808158Y-11395722D01*
X6808158Y-11395722D02*
X6817682Y-11376674D01*
X6817682Y-11376674D02*
X6836730Y-11367150D01*
X6836730Y-11367150D02*
X6865301Y-11367150D01*
X6865301Y-11367150D02*
X6884349Y-11376674D01*
X6960539Y-11576674D02*
X6970063Y-11567150D01*
X6970063Y-11567150D02*
X6989111Y-11538579D01*
X6989111Y-11538579D02*
X6998634Y-11519531D01*
X6998634Y-11519531D02*
X7008158Y-11490960D01*
X7008158Y-11490960D02*
X7017682Y-11443341D01*
X7017682Y-11443341D02*
X7017682Y-11405246D01*
X7017682Y-11405246D02*
X7008158Y-11357627D01*
X7008158Y-11357627D02*
X6998634Y-11329055D01*
X6998634Y-11329055D02*
X6989111Y-11310008D01*
X6989111Y-11310008D02*
X6970063Y-11281436D01*
X6970063Y-11281436D02*
X6960539Y-11271912D01*
D10*
X1955000Y-11633000D02*
X1955000Y-11713000D01*
X1915000Y-11673000D02*
X1995000Y-11673000D01*
D11*
X2293872Y-11564484D02*
X2312920Y-11564484D01*
X2312920Y-11564484D02*
X2331967Y-11574008D01*
X2331967Y-11574008D02*
X2341491Y-11583531D01*
X2341491Y-11583531D02*
X2351015Y-11602579D01*
X2351015Y-11602579D02*
X2360539Y-11640674D01*
X2360539Y-11640674D02*
X2360539Y-11688293D01*
X2360539Y-11688293D02*
X2351015Y-11726388D01*
X2351015Y-11726388D02*
X2341491Y-11745436D01*
X2341491Y-11745436D02*
X2331967Y-11754960D01*
X2331967Y-11754960D02*
X2312920Y-11764484D01*
X2312920Y-11764484D02*
X2293872Y-11764484D01*
X2293872Y-11764484D02*
X2274824Y-11754960D01*
X2274824Y-11754960D02*
X2265301Y-11745436D01*
X2265301Y-11745436D02*
X2255777Y-11726388D01*
X2255777Y-11726388D02*
X2246253Y-11688293D01*
X2246253Y-11688293D02*
X2246253Y-11640674D01*
X2246253Y-11640674D02*
X2255777Y-11602579D01*
X2255777Y-11602579D02*
X2265301Y-11583531D01*
X2265301Y-11583531D02*
X2274824Y-11574008D01*
X2274824Y-11574008D02*
X2293872Y-11564484D01*
X2446253Y-11745436D02*
X2455777Y-11754960D01*
X2455777Y-11754960D02*
X2446253Y-11764484D01*
X2446253Y-11764484D02*
X2436729Y-11754960D01*
X2436729Y-11754960D02*
X2446253Y-11745436D01*
X2446253Y-11745436D02*
X2446253Y-11764484D01*
X2570063Y-11650198D02*
X2551015Y-11640674D01*
X2551015Y-11640674D02*
X2541491Y-11631150D01*
X2541491Y-11631150D02*
X2531967Y-11612103D01*
X2531967Y-11612103D02*
X2531967Y-11602579D01*
X2531967Y-11602579D02*
X2541491Y-11583531D01*
X2541491Y-11583531D02*
X2551015Y-11574008D01*
X2551015Y-11574008D02*
X2570063Y-11564484D01*
X2570063Y-11564484D02*
X2608158Y-11564484D01*
X2608158Y-11564484D02*
X2627205Y-11574008D01*
X2627205Y-11574008D02*
X2636729Y-11583531D01*
X2636729Y-11583531D02*
X2646253Y-11602579D01*
X2646253Y-11602579D02*
X2646253Y-11612103D01*
X2646253Y-11612103D02*
X2636729Y-11631150D01*
X2636729Y-11631150D02*
X2627205Y-11640674D01*
X2627205Y-11640674D02*
X2608158Y-11650198D01*
X2608158Y-11650198D02*
X2570063Y-11650198D01*
X2570063Y-11650198D02*
X2551015Y-11659722D01*
X2551015Y-11659722D02*
X2541491Y-11669246D01*
X2541491Y-11669246D02*
X2531967Y-11688293D01*
X2531967Y-11688293D02*
X2531967Y-11726388D01*
X2531967Y-11726388D02*
X2541491Y-11745436D01*
X2541491Y-11745436D02*
X2551015Y-11754960D01*
X2551015Y-11754960D02*
X2570063Y-11764484D01*
X2570063Y-11764484D02*
X2608158Y-11764484D01*
X2608158Y-11764484D02*
X2627205Y-11754960D01*
X2627205Y-11754960D02*
X2636729Y-11745436D01*
X2636729Y-11745436D02*
X2646253Y-11726388D01*
X2646253Y-11726388D02*
X2646253Y-11688293D01*
X2646253Y-11688293D02*
X2636729Y-11669246D01*
X2636729Y-11669246D02*
X2627205Y-11659722D01*
X2627205Y-11659722D02*
X2608158Y-11650198D01*
X2770063Y-11564484D02*
X2789110Y-11564484D01*
X2789110Y-11564484D02*
X2808158Y-11574008D01*
X2808158Y-11574008D02*
X2817682Y-11583531D01*
X2817682Y-11583531D02*
X2827205Y-11602579D01*
X2827205Y-11602579D02*
X2836729Y-11640674D01*
X2836729Y-11640674D02*
X2836729Y-11688293D01*
X2836729Y-11688293D02*
X2827205Y-11726388D01*
X2827205Y-11726388D02*
X2817682Y-11745436D01*
X2817682Y-11745436D02*
X2808158Y-11754960D01*
X2808158Y-11754960D02*
X2789110Y-11764484D01*
X2789110Y-11764484D02*
X2770063Y-11764484D01*
X2770063Y-11764484D02*
X2751015Y-11754960D01*
X2751015Y-11754960D02*
X2741491Y-11745436D01*
X2741491Y-11745436D02*
X2731967Y-11726388D01*
X2731967Y-11726388D02*
X2722444Y-11688293D01*
X2722444Y-11688293D02*
X2722444Y-11640674D01*
X2722444Y-11640674D02*
X2731967Y-11602579D01*
X2731967Y-11602579D02*
X2741491Y-11583531D01*
X2741491Y-11583531D02*
X2751015Y-11574008D01*
X2751015Y-11574008D02*
X2770063Y-11564484D01*
X2960539Y-11564484D02*
X2979586Y-11564484D01*
X2979586Y-11564484D02*
X2998634Y-11574008D01*
X2998634Y-11574008D02*
X3008158Y-11583531D01*
X3008158Y-11583531D02*
X3017682Y-11602579D01*
X3017682Y-11602579D02*
X3027205Y-11640674D01*
X3027205Y-11640674D02*
X3027205Y-11688293D01*
X3027205Y-11688293D02*
X3017682Y-11726388D01*
X3017682Y-11726388D02*
X3008158Y-11745436D01*
X3008158Y-11745436D02*
X2998634Y-11754960D01*
X2998634Y-11754960D02*
X2979586Y-11764484D01*
X2979586Y-11764484D02*
X2960539Y-11764484D01*
X2960539Y-11764484D02*
X2941491Y-11754960D01*
X2941491Y-11754960D02*
X2931967Y-11745436D01*
X2931967Y-11745436D02*
X2922443Y-11726388D01*
X2922443Y-11726388D02*
X2912920Y-11688293D01*
X2912920Y-11688293D02*
X2912920Y-11640674D01*
X2912920Y-11640674D02*
X2922443Y-11602579D01*
X2922443Y-11602579D02*
X2931967Y-11583531D01*
X2931967Y-11583531D02*
X2941491Y-11574008D01*
X2941491Y-11574008D02*
X2960539Y-11564484D01*
X3112920Y-11764484D02*
X3112920Y-11631150D01*
X3112920Y-11650198D02*
X3122443Y-11640674D01*
X3122443Y-11640674D02*
X3141491Y-11631150D01*
X3141491Y-11631150D02*
X3170063Y-11631150D01*
X3170063Y-11631150D02*
X3189110Y-11640674D01*
X3189110Y-11640674D02*
X3198634Y-11659722D01*
X3198634Y-11659722D02*
X3198634Y-11764484D01*
X3198634Y-11659722D02*
X3208158Y-11640674D01*
X3208158Y-11640674D02*
X3227205Y-11631150D01*
X3227205Y-11631150D02*
X3255777Y-11631150D01*
X3255777Y-11631150D02*
X3274824Y-11640674D01*
X3274824Y-11640674D02*
X3284348Y-11659722D01*
X3284348Y-11659722D02*
X3284348Y-11764484D01*
X3379586Y-11764484D02*
X3379586Y-11631150D01*
X3379586Y-11650198D02*
X3389110Y-11640674D01*
X3389110Y-11640674D02*
X3408158Y-11631150D01*
X3408158Y-11631150D02*
X3436729Y-11631150D01*
X3436729Y-11631150D02*
X3455777Y-11640674D01*
X3455777Y-11640674D02*
X3465301Y-11659722D01*
X3465301Y-11659722D02*
X3465301Y-11764484D01*
X3465301Y-11659722D02*
X3474824Y-11640674D01*
X3474824Y-11640674D02*
X3493872Y-11631150D01*
X3493872Y-11631150D02*
X3522443Y-11631150D01*
X3522443Y-11631150D02*
X3541491Y-11640674D01*
X3541491Y-11640674D02*
X3551015Y-11659722D01*
X3551015Y-11659722D02*
X3551015Y-11764484D01*
X3941491Y-11554960D02*
X3770063Y-11812103D01*
X4198634Y-11564484D02*
X4217682Y-11564484D01*
X4217682Y-11564484D02*
X4236729Y-11574008D01*
X4236729Y-11574008D02*
X4246253Y-11583531D01*
X4246253Y-11583531D02*
X4255777Y-11602579D01*
X4255777Y-11602579D02*
X4265301Y-11640674D01*
X4265301Y-11640674D02*
X4265301Y-11688293D01*
X4265301Y-11688293D02*
X4255777Y-11726388D01*
X4255777Y-11726388D02*
X4246253Y-11745436D01*
X4246253Y-11745436D02*
X4236729Y-11754960D01*
X4236729Y-11754960D02*
X4217682Y-11764484D01*
X4217682Y-11764484D02*
X4198634Y-11764484D01*
X4198634Y-11764484D02*
X4179586Y-11754960D01*
X4179586Y-11754960D02*
X4170063Y-11745436D01*
X4170063Y-11745436D02*
X4160539Y-11726388D01*
X4160539Y-11726388D02*
X4151015Y-11688293D01*
X4151015Y-11688293D02*
X4151015Y-11640674D01*
X4151015Y-11640674D02*
X4160539Y-11602579D01*
X4160539Y-11602579D02*
X4170063Y-11583531D01*
X4170063Y-11583531D02*
X4179586Y-11574008D01*
X4179586Y-11574008D02*
X4198634Y-11564484D01*
X4351015Y-11745436D02*
X4360539Y-11754960D01*
X4360539Y-11754960D02*
X4351015Y-11764484D01*
X4351015Y-11764484D02*
X4341491Y-11754960D01*
X4341491Y-11754960D02*
X4351015Y-11745436D01*
X4351015Y-11745436D02*
X4351015Y-11764484D01*
X4484348Y-11564484D02*
X4503396Y-11564484D01*
X4503396Y-11564484D02*
X4522444Y-11574008D01*
X4522444Y-11574008D02*
X4531968Y-11583531D01*
X4531968Y-11583531D02*
X4541491Y-11602579D01*
X4541491Y-11602579D02*
X4551015Y-11640674D01*
X4551015Y-11640674D02*
X4551015Y-11688293D01*
X4551015Y-11688293D02*
X4541491Y-11726388D01*
X4541491Y-11726388D02*
X4531968Y-11745436D01*
X4531968Y-11745436D02*
X4522444Y-11754960D01*
X4522444Y-11754960D02*
X4503396Y-11764484D01*
X4503396Y-11764484D02*
X4484348Y-11764484D01*
X4484348Y-11764484D02*
X4465301Y-11754960D01*
X4465301Y-11754960D02*
X4455777Y-11745436D01*
X4455777Y-11745436D02*
X4446253Y-11726388D01*
X4446253Y-11726388D02*
X4436729Y-11688293D01*
X4436729Y-11688293D02*
X4436729Y-11640674D01*
X4436729Y-11640674D02*
X4446253Y-11602579D01*
X4446253Y-11602579D02*
X4455777Y-11583531D01*
X4455777Y-11583531D02*
X4465301Y-11574008D01*
X4465301Y-11574008D02*
X4484348Y-11564484D01*
X4617682Y-11564484D02*
X4741491Y-11564484D01*
X4741491Y-11564484D02*
X4674825Y-11640674D01*
X4674825Y-11640674D02*
X4703396Y-11640674D01*
X4703396Y-11640674D02*
X4722444Y-11650198D01*
X4722444Y-11650198D02*
X4731968Y-11659722D01*
X4731968Y-11659722D02*
X4741491Y-11678769D01*
X4741491Y-11678769D02*
X4741491Y-11726388D01*
X4741491Y-11726388D02*
X4731968Y-11745436D01*
X4731968Y-11745436D02*
X4722444Y-11754960D01*
X4722444Y-11754960D02*
X4703396Y-11764484D01*
X4703396Y-11764484D02*
X4646253Y-11764484D01*
X4646253Y-11764484D02*
X4627206Y-11754960D01*
X4627206Y-11754960D02*
X4617682Y-11745436D01*
X4931968Y-11764484D02*
X4817682Y-11764484D01*
X4874825Y-11764484D02*
X4874825Y-11564484D01*
X4874825Y-11564484D02*
X4855777Y-11593055D01*
X4855777Y-11593055D02*
X4836729Y-11612103D01*
X4836729Y-11612103D02*
X4817682Y-11621627D01*
X5112920Y-11564484D02*
X5017682Y-11564484D01*
X5017682Y-11564484D02*
X5008158Y-11659722D01*
X5008158Y-11659722D02*
X5017682Y-11650198D01*
X5017682Y-11650198D02*
X5036729Y-11640674D01*
X5036729Y-11640674D02*
X5084349Y-11640674D01*
X5084349Y-11640674D02*
X5103396Y-11650198D01*
X5103396Y-11650198D02*
X5112920Y-11659722D01*
X5112920Y-11659722D02*
X5122444Y-11678769D01*
X5122444Y-11678769D02*
X5122444Y-11726388D01*
X5122444Y-11726388D02*
X5112920Y-11745436D01*
X5112920Y-11745436D02*
X5103396Y-11754960D01*
X5103396Y-11754960D02*
X5084349Y-11764484D01*
X5084349Y-11764484D02*
X5036729Y-11764484D01*
X5036729Y-11764484D02*
X5017682Y-11754960D01*
X5017682Y-11754960D02*
X5008158Y-11745436D01*
X5198634Y-11564484D02*
X5198634Y-11602579D01*
X5274825Y-11564484D02*
X5274825Y-11602579D01*
X5570063Y-11840674D02*
X5560539Y-11831150D01*
X5560539Y-11831150D02*
X5541491Y-11802579D01*
X5541491Y-11802579D02*
X5531968Y-11783531D01*
X5531968Y-11783531D02*
X5522444Y-11754960D01*
X5522444Y-11754960D02*
X5512920Y-11707341D01*
X5512920Y-11707341D02*
X5512920Y-11669246D01*
X5512920Y-11669246D02*
X5522444Y-11621627D01*
X5522444Y-11621627D02*
X5531968Y-11593055D01*
X5531968Y-11593055D02*
X5541491Y-11574008D01*
X5541491Y-11574008D02*
X5560539Y-11545436D01*
X5560539Y-11545436D02*
X5570063Y-11535912D01*
X5741491Y-11564484D02*
X5646253Y-11564484D01*
X5646253Y-11564484D02*
X5636729Y-11659722D01*
X5636729Y-11659722D02*
X5646253Y-11650198D01*
X5646253Y-11650198D02*
X5665301Y-11640674D01*
X5665301Y-11640674D02*
X5712920Y-11640674D01*
X5712920Y-11640674D02*
X5731968Y-11650198D01*
X5731968Y-11650198D02*
X5741491Y-11659722D01*
X5741491Y-11659722D02*
X5751015Y-11678769D01*
X5751015Y-11678769D02*
X5751015Y-11726388D01*
X5751015Y-11726388D02*
X5741491Y-11745436D01*
X5741491Y-11745436D02*
X5731968Y-11754960D01*
X5731968Y-11754960D02*
X5712920Y-11764484D01*
X5712920Y-11764484D02*
X5665301Y-11764484D01*
X5665301Y-11764484D02*
X5646253Y-11754960D01*
X5646253Y-11754960D02*
X5636729Y-11745436D01*
X5989110Y-11764484D02*
X5989110Y-11564484D01*
X6074825Y-11764484D02*
X6074825Y-11659722D01*
X6074825Y-11659722D02*
X6065301Y-11640674D01*
X6065301Y-11640674D02*
X6046253Y-11631150D01*
X6046253Y-11631150D02*
X6017682Y-11631150D01*
X6017682Y-11631150D02*
X5998634Y-11640674D01*
X5998634Y-11640674D02*
X5989110Y-11650198D01*
X6198634Y-11764484D02*
X6179587Y-11754960D01*
X6179587Y-11754960D02*
X6170063Y-11745436D01*
X6170063Y-11745436D02*
X6160539Y-11726388D01*
X6160539Y-11726388D02*
X6160539Y-11669246D01*
X6160539Y-11669246D02*
X6170063Y-11650198D01*
X6170063Y-11650198D02*
X6179587Y-11640674D01*
X6179587Y-11640674D02*
X6198634Y-11631150D01*
X6198634Y-11631150D02*
X6227206Y-11631150D01*
X6227206Y-11631150D02*
X6246253Y-11640674D01*
X6246253Y-11640674D02*
X6255777Y-11650198D01*
X6255777Y-11650198D02*
X6265301Y-11669246D01*
X6265301Y-11669246D02*
X6265301Y-11726388D01*
X6265301Y-11726388D02*
X6255777Y-11745436D01*
X6255777Y-11745436D02*
X6246253Y-11754960D01*
X6246253Y-11754960D02*
X6227206Y-11764484D01*
X6227206Y-11764484D02*
X6198634Y-11764484D01*
X6379587Y-11764484D02*
X6360539Y-11754960D01*
X6360539Y-11754960D02*
X6351015Y-11735912D01*
X6351015Y-11735912D02*
X6351015Y-11564484D01*
X6531968Y-11754960D02*
X6512920Y-11764484D01*
X6512920Y-11764484D02*
X6474825Y-11764484D01*
X6474825Y-11764484D02*
X6455777Y-11754960D01*
X6455777Y-11754960D02*
X6446253Y-11735912D01*
X6446253Y-11735912D02*
X6446253Y-11659722D01*
X6446253Y-11659722D02*
X6455777Y-11640674D01*
X6455777Y-11640674D02*
X6474825Y-11631150D01*
X6474825Y-11631150D02*
X6512920Y-11631150D01*
X6512920Y-11631150D02*
X6531968Y-11640674D01*
X6531968Y-11640674D02*
X6541491Y-11659722D01*
X6541491Y-11659722D02*
X6541491Y-11678769D01*
X6541491Y-11678769D02*
X6446253Y-11697817D01*
X6617682Y-11754960D02*
X6636730Y-11764484D01*
X6636730Y-11764484D02*
X6674825Y-11764484D01*
X6674825Y-11764484D02*
X6693872Y-11754960D01*
X6693872Y-11754960D02*
X6703396Y-11735912D01*
X6703396Y-11735912D02*
X6703396Y-11726388D01*
X6703396Y-11726388D02*
X6693872Y-11707341D01*
X6693872Y-11707341D02*
X6674825Y-11697817D01*
X6674825Y-11697817D02*
X6646253Y-11697817D01*
X6646253Y-11697817D02*
X6627206Y-11688293D01*
X6627206Y-11688293D02*
X6617682Y-11669246D01*
X6617682Y-11669246D02*
X6617682Y-11659722D01*
X6617682Y-11659722D02*
X6627206Y-11640674D01*
X6627206Y-11640674D02*
X6646253Y-11631150D01*
X6646253Y-11631150D02*
X6674825Y-11631150D01*
X6674825Y-11631150D02*
X6693872Y-11640674D01*
X6770063Y-11840674D02*
X6779587Y-11831150D01*
X6779587Y-11831150D02*
X6798634Y-11802579D01*
X6798634Y-11802579D02*
X6808158Y-11783531D01*
X6808158Y-11783531D02*
X6817682Y-11754960D01*
X6817682Y-11754960D02*
X6827206Y-11707341D01*
X6827206Y-11707341D02*
X6827206Y-11669246D01*
X6827206Y-11669246D02*
X6817682Y-11621627D01*
X6817682Y-11621627D02*
X6808158Y-11593055D01*
X6808158Y-11593055D02*
X6798634Y-11574008D01*
X6798634Y-11574008D02*
X6779587Y-11545436D01*
X6779587Y-11545436D02*
X6770063Y-11535912D01*
D10*
X1980356Y-11972356D02*
X1980356Y-11901644D01*
X1909644Y-11901644D01*
X1909644Y-11972356D01*
X1980356Y-11972356D01*
D11*
X2360539Y-12028484D02*
X2246253Y-12028484D01*
X2303396Y-12028484D02*
X2303396Y-11828484D01*
X2303396Y-11828484D02*
X2284348Y-11857055D01*
X2284348Y-11857055D02*
X2265301Y-11876103D01*
X2265301Y-11876103D02*
X2246253Y-11885627D01*
X2446253Y-12009436D02*
X2455777Y-12018960D01*
X2455777Y-12018960D02*
X2446253Y-12028484D01*
X2446253Y-12028484D02*
X2436729Y-12018960D01*
X2436729Y-12018960D02*
X2446253Y-12009436D01*
X2446253Y-12009436D02*
X2446253Y-12028484D01*
X2579586Y-11828484D02*
X2598634Y-11828484D01*
X2598634Y-11828484D02*
X2617682Y-11838008D01*
X2617682Y-11838008D02*
X2627205Y-11847531D01*
X2627205Y-11847531D02*
X2636729Y-11866579D01*
X2636729Y-11866579D02*
X2646253Y-11904674D01*
X2646253Y-11904674D02*
X2646253Y-11952293D01*
X2646253Y-11952293D02*
X2636729Y-11990388D01*
X2636729Y-11990388D02*
X2627205Y-12009436D01*
X2627205Y-12009436D02*
X2617682Y-12018960D01*
X2617682Y-12018960D02*
X2598634Y-12028484D01*
X2598634Y-12028484D02*
X2579586Y-12028484D01*
X2579586Y-12028484D02*
X2560539Y-12018960D01*
X2560539Y-12018960D02*
X2551015Y-12009436D01*
X2551015Y-12009436D02*
X2541491Y-11990388D01*
X2541491Y-11990388D02*
X2531967Y-11952293D01*
X2531967Y-11952293D02*
X2531967Y-11904674D01*
X2531967Y-11904674D02*
X2541491Y-11866579D01*
X2541491Y-11866579D02*
X2551015Y-11847531D01*
X2551015Y-11847531D02*
X2560539Y-11838008D01*
X2560539Y-11838008D02*
X2579586Y-11828484D01*
X2770063Y-11828484D02*
X2789110Y-11828484D01*
X2789110Y-11828484D02*
X2808158Y-11838008D01*
X2808158Y-11838008D02*
X2817682Y-11847531D01*
X2817682Y-11847531D02*
X2827205Y-11866579D01*
X2827205Y-11866579D02*
X2836729Y-11904674D01*
X2836729Y-11904674D02*
X2836729Y-11952293D01*
X2836729Y-11952293D02*
X2827205Y-11990388D01*
X2827205Y-11990388D02*
X2817682Y-12009436D01*
X2817682Y-12009436D02*
X2808158Y-12018960D01*
X2808158Y-12018960D02*
X2789110Y-12028484D01*
X2789110Y-12028484D02*
X2770063Y-12028484D01*
X2770063Y-12028484D02*
X2751015Y-12018960D01*
X2751015Y-12018960D02*
X2741491Y-12009436D01*
X2741491Y-12009436D02*
X2731967Y-11990388D01*
X2731967Y-11990388D02*
X2722444Y-11952293D01*
X2722444Y-11952293D02*
X2722444Y-11904674D01*
X2722444Y-11904674D02*
X2731967Y-11866579D01*
X2731967Y-11866579D02*
X2741491Y-11847531D01*
X2741491Y-11847531D02*
X2751015Y-11838008D01*
X2751015Y-11838008D02*
X2770063Y-11828484D01*
X2960539Y-11828484D02*
X2979586Y-11828484D01*
X2979586Y-11828484D02*
X2998634Y-11838008D01*
X2998634Y-11838008D02*
X3008158Y-11847531D01*
X3008158Y-11847531D02*
X3017682Y-11866579D01*
X3017682Y-11866579D02*
X3027205Y-11904674D01*
X3027205Y-11904674D02*
X3027205Y-11952293D01*
X3027205Y-11952293D02*
X3017682Y-11990388D01*
X3017682Y-11990388D02*
X3008158Y-12009436D01*
X3008158Y-12009436D02*
X2998634Y-12018960D01*
X2998634Y-12018960D02*
X2979586Y-12028484D01*
X2979586Y-12028484D02*
X2960539Y-12028484D01*
X2960539Y-12028484D02*
X2941491Y-12018960D01*
X2941491Y-12018960D02*
X2931967Y-12009436D01*
X2931967Y-12009436D02*
X2922443Y-11990388D01*
X2922443Y-11990388D02*
X2912920Y-11952293D01*
X2912920Y-11952293D02*
X2912920Y-11904674D01*
X2912920Y-11904674D02*
X2922443Y-11866579D01*
X2922443Y-11866579D02*
X2931967Y-11847531D01*
X2931967Y-11847531D02*
X2941491Y-11838008D01*
X2941491Y-11838008D02*
X2960539Y-11828484D01*
X3112920Y-12028484D02*
X3112920Y-11895150D01*
X3112920Y-11914198D02*
X3122443Y-11904674D01*
X3122443Y-11904674D02*
X3141491Y-11895150D01*
X3141491Y-11895150D02*
X3170063Y-11895150D01*
X3170063Y-11895150D02*
X3189110Y-11904674D01*
X3189110Y-11904674D02*
X3198634Y-11923722D01*
X3198634Y-11923722D02*
X3198634Y-12028484D01*
X3198634Y-11923722D02*
X3208158Y-11904674D01*
X3208158Y-11904674D02*
X3227205Y-11895150D01*
X3227205Y-11895150D02*
X3255777Y-11895150D01*
X3255777Y-11895150D02*
X3274824Y-11904674D01*
X3274824Y-11904674D02*
X3284348Y-11923722D01*
X3284348Y-11923722D02*
X3284348Y-12028484D01*
X3379586Y-12028484D02*
X3379586Y-11895150D01*
X3379586Y-11914198D02*
X3389110Y-11904674D01*
X3389110Y-11904674D02*
X3408158Y-11895150D01*
X3408158Y-11895150D02*
X3436729Y-11895150D01*
X3436729Y-11895150D02*
X3455777Y-11904674D01*
X3455777Y-11904674D02*
X3465301Y-11923722D01*
X3465301Y-11923722D02*
X3465301Y-12028484D01*
X3465301Y-11923722D02*
X3474824Y-11904674D01*
X3474824Y-11904674D02*
X3493872Y-11895150D01*
X3493872Y-11895150D02*
X3522443Y-11895150D01*
X3522443Y-11895150D02*
X3541491Y-11904674D01*
X3541491Y-11904674D02*
X3551015Y-11923722D01*
X3551015Y-11923722D02*
X3551015Y-12028484D01*
X3941491Y-11818960D02*
X3770063Y-12076103D01*
X4198634Y-11828484D02*
X4217682Y-11828484D01*
X4217682Y-11828484D02*
X4236729Y-11838008D01*
X4236729Y-11838008D02*
X4246253Y-11847531D01*
X4246253Y-11847531D02*
X4255777Y-11866579D01*
X4255777Y-11866579D02*
X4265301Y-11904674D01*
X4265301Y-11904674D02*
X4265301Y-11952293D01*
X4265301Y-11952293D02*
X4255777Y-11990388D01*
X4255777Y-11990388D02*
X4246253Y-12009436D01*
X4246253Y-12009436D02*
X4236729Y-12018960D01*
X4236729Y-12018960D02*
X4217682Y-12028484D01*
X4217682Y-12028484D02*
X4198634Y-12028484D01*
X4198634Y-12028484D02*
X4179586Y-12018960D01*
X4179586Y-12018960D02*
X4170063Y-12009436D01*
X4170063Y-12009436D02*
X4160539Y-11990388D01*
X4160539Y-11990388D02*
X4151015Y-11952293D01*
X4151015Y-11952293D02*
X4151015Y-11904674D01*
X4151015Y-11904674D02*
X4160539Y-11866579D01*
X4160539Y-11866579D02*
X4170063Y-11847531D01*
X4170063Y-11847531D02*
X4179586Y-11838008D01*
X4179586Y-11838008D02*
X4198634Y-11828484D01*
X4351015Y-12009436D02*
X4360539Y-12018960D01*
X4360539Y-12018960D02*
X4351015Y-12028484D01*
X4351015Y-12028484D02*
X4341491Y-12018960D01*
X4341491Y-12018960D02*
X4351015Y-12009436D01*
X4351015Y-12009436D02*
X4351015Y-12028484D01*
X4484348Y-11828484D02*
X4503396Y-11828484D01*
X4503396Y-11828484D02*
X4522444Y-11838008D01*
X4522444Y-11838008D02*
X4531968Y-11847531D01*
X4531968Y-11847531D02*
X4541491Y-11866579D01*
X4541491Y-11866579D02*
X4551015Y-11904674D01*
X4551015Y-11904674D02*
X4551015Y-11952293D01*
X4551015Y-11952293D02*
X4541491Y-11990388D01*
X4541491Y-11990388D02*
X4531968Y-12009436D01*
X4531968Y-12009436D02*
X4522444Y-12018960D01*
X4522444Y-12018960D02*
X4503396Y-12028484D01*
X4503396Y-12028484D02*
X4484348Y-12028484D01*
X4484348Y-12028484D02*
X4465301Y-12018960D01*
X4465301Y-12018960D02*
X4455777Y-12009436D01*
X4455777Y-12009436D02*
X4446253Y-11990388D01*
X4446253Y-11990388D02*
X4436729Y-11952293D01*
X4436729Y-11952293D02*
X4436729Y-11904674D01*
X4436729Y-11904674D02*
X4446253Y-11866579D01*
X4446253Y-11866579D02*
X4455777Y-11847531D01*
X4455777Y-11847531D02*
X4465301Y-11838008D01*
X4465301Y-11838008D02*
X4484348Y-11828484D01*
X4617682Y-11828484D02*
X4741491Y-11828484D01*
X4741491Y-11828484D02*
X4674825Y-11904674D01*
X4674825Y-11904674D02*
X4703396Y-11904674D01*
X4703396Y-11904674D02*
X4722444Y-11914198D01*
X4722444Y-11914198D02*
X4731968Y-11923722D01*
X4731968Y-11923722D02*
X4741491Y-11942769D01*
X4741491Y-11942769D02*
X4741491Y-11990388D01*
X4741491Y-11990388D02*
X4731968Y-12009436D01*
X4731968Y-12009436D02*
X4722444Y-12018960D01*
X4722444Y-12018960D02*
X4703396Y-12028484D01*
X4703396Y-12028484D02*
X4646253Y-12028484D01*
X4646253Y-12028484D02*
X4627206Y-12018960D01*
X4627206Y-12018960D02*
X4617682Y-12009436D01*
X4836729Y-12028484D02*
X4874825Y-12028484D01*
X4874825Y-12028484D02*
X4893872Y-12018960D01*
X4893872Y-12018960D02*
X4903396Y-12009436D01*
X4903396Y-12009436D02*
X4922444Y-11980865D01*
X4922444Y-11980865D02*
X4931968Y-11942769D01*
X4931968Y-11942769D02*
X4931968Y-11866579D01*
X4931968Y-11866579D02*
X4922444Y-11847531D01*
X4922444Y-11847531D02*
X4912920Y-11838008D01*
X4912920Y-11838008D02*
X4893872Y-11828484D01*
X4893872Y-11828484D02*
X4855777Y-11828484D01*
X4855777Y-11828484D02*
X4836729Y-11838008D01*
X4836729Y-11838008D02*
X4827206Y-11847531D01*
X4827206Y-11847531D02*
X4817682Y-11866579D01*
X4817682Y-11866579D02*
X4817682Y-11914198D01*
X4817682Y-11914198D02*
X4827206Y-11933246D01*
X4827206Y-11933246D02*
X4836729Y-11942769D01*
X4836729Y-11942769D02*
X4855777Y-11952293D01*
X4855777Y-11952293D02*
X4893872Y-11952293D01*
X4893872Y-11952293D02*
X4912920Y-11942769D01*
X4912920Y-11942769D02*
X4922444Y-11933246D01*
X4922444Y-11933246D02*
X4931968Y-11914198D01*
X5103396Y-11895150D02*
X5103396Y-12028484D01*
X5055777Y-11818960D02*
X5008158Y-11961817D01*
X5008158Y-11961817D02*
X5131968Y-11961817D01*
X5198634Y-11828484D02*
X5198634Y-11866579D01*
X5274825Y-11828484D02*
X5274825Y-11866579D01*
X5570063Y-12104674D02*
X5560539Y-12095150D01*
X5560539Y-12095150D02*
X5541491Y-12066579D01*
X5541491Y-12066579D02*
X5531968Y-12047531D01*
X5531968Y-12047531D02*
X5522444Y-12018960D01*
X5522444Y-12018960D02*
X5512920Y-11971341D01*
X5512920Y-11971341D02*
X5512920Y-11933246D01*
X5512920Y-11933246D02*
X5522444Y-11885627D01*
X5522444Y-11885627D02*
X5531968Y-11857055D01*
X5531968Y-11857055D02*
X5541491Y-11838008D01*
X5541491Y-11838008D02*
X5560539Y-11809436D01*
X5560539Y-11809436D02*
X5570063Y-11799912D01*
X5636729Y-11847531D02*
X5646253Y-11838008D01*
X5646253Y-11838008D02*
X5665301Y-11828484D01*
X5665301Y-11828484D02*
X5712920Y-11828484D01*
X5712920Y-11828484D02*
X5731968Y-11838008D01*
X5731968Y-11838008D02*
X5741491Y-11847531D01*
X5741491Y-11847531D02*
X5751015Y-11866579D01*
X5751015Y-11866579D02*
X5751015Y-11885627D01*
X5751015Y-11885627D02*
X5741491Y-11914198D01*
X5741491Y-11914198D02*
X5627206Y-12028484D01*
X5627206Y-12028484D02*
X5751015Y-12028484D01*
X5846253Y-12028484D02*
X5884348Y-12028484D01*
X5884348Y-12028484D02*
X5903396Y-12018960D01*
X5903396Y-12018960D02*
X5912920Y-12009436D01*
X5912920Y-12009436D02*
X5931968Y-11980865D01*
X5931968Y-11980865D02*
X5941491Y-11942769D01*
X5941491Y-11942769D02*
X5941491Y-11866579D01*
X5941491Y-11866579D02*
X5931968Y-11847531D01*
X5931968Y-11847531D02*
X5922444Y-11838008D01*
X5922444Y-11838008D02*
X5903396Y-11828484D01*
X5903396Y-11828484D02*
X5865301Y-11828484D01*
X5865301Y-11828484D02*
X5846253Y-11838008D01*
X5846253Y-11838008D02*
X5836729Y-11847531D01*
X5836729Y-11847531D02*
X5827206Y-11866579D01*
X5827206Y-11866579D02*
X5827206Y-11914198D01*
X5827206Y-11914198D02*
X5836729Y-11933246D01*
X5836729Y-11933246D02*
X5846253Y-11942769D01*
X5846253Y-11942769D02*
X5865301Y-11952293D01*
X5865301Y-11952293D02*
X5903396Y-11952293D01*
X5903396Y-11952293D02*
X5922444Y-11942769D01*
X5922444Y-11942769D02*
X5931968Y-11933246D01*
X5931968Y-11933246D02*
X5941491Y-11914198D01*
X6179587Y-12028484D02*
X6179587Y-11828484D01*
X6265301Y-12028484D02*
X6265301Y-11923722D01*
X6265301Y-11923722D02*
X6255777Y-11904674D01*
X6255777Y-11904674D02*
X6236730Y-11895150D01*
X6236730Y-11895150D02*
X6208158Y-11895150D01*
X6208158Y-11895150D02*
X6189110Y-11904674D01*
X6189110Y-11904674D02*
X6179587Y-11914198D01*
X6389110Y-12028484D02*
X6370063Y-12018960D01*
X6370063Y-12018960D02*
X6360539Y-12009436D01*
X6360539Y-12009436D02*
X6351015Y-11990388D01*
X6351015Y-11990388D02*
X6351015Y-11933246D01*
X6351015Y-11933246D02*
X6360539Y-11914198D01*
X6360539Y-11914198D02*
X6370063Y-11904674D01*
X6370063Y-11904674D02*
X6389110Y-11895150D01*
X6389110Y-11895150D02*
X6417682Y-11895150D01*
X6417682Y-11895150D02*
X6436730Y-11904674D01*
X6436730Y-11904674D02*
X6446253Y-11914198D01*
X6446253Y-11914198D02*
X6455777Y-11933246D01*
X6455777Y-11933246D02*
X6455777Y-11990388D01*
X6455777Y-11990388D02*
X6446253Y-12009436D01*
X6446253Y-12009436D02*
X6436730Y-12018960D01*
X6436730Y-12018960D02*
X6417682Y-12028484D01*
X6417682Y-12028484D02*
X6389110Y-12028484D01*
X6570063Y-12028484D02*
X6551015Y-12018960D01*
X6551015Y-12018960D02*
X6541491Y-11999912D01*
X6541491Y-11999912D02*
X6541491Y-11828484D01*
X6722444Y-12018960D02*
X6703396Y-12028484D01*
X6703396Y-12028484D02*
X6665301Y-12028484D01*
X6665301Y-12028484D02*
X6646253Y-12018960D01*
X6646253Y-12018960D02*
X6636730Y-11999912D01*
X6636730Y-11999912D02*
X6636730Y-11923722D01*
X6636730Y-11923722D02*
X6646253Y-11904674D01*
X6646253Y-11904674D02*
X6665301Y-11895150D01*
X6665301Y-11895150D02*
X6703396Y-11895150D01*
X6703396Y-11895150D02*
X6722444Y-11904674D01*
X6722444Y-11904674D02*
X6731968Y-11923722D01*
X6731968Y-11923722D02*
X6731968Y-11942769D01*
X6731968Y-11942769D02*
X6636730Y-11961817D01*
X6808158Y-12018960D02*
X6827206Y-12028484D01*
X6827206Y-12028484D02*
X6865301Y-12028484D01*
X6865301Y-12028484D02*
X6884349Y-12018960D01*
X6884349Y-12018960D02*
X6893872Y-11999912D01*
X6893872Y-11999912D02*
X6893872Y-11990388D01*
X6893872Y-11990388D02*
X6884349Y-11971341D01*
X6884349Y-11971341D02*
X6865301Y-11961817D01*
X6865301Y-11961817D02*
X6836730Y-11961817D01*
X6836730Y-11961817D02*
X6817682Y-11952293D01*
X6817682Y-11952293D02*
X6808158Y-11933246D01*
X6808158Y-11933246D02*
X6808158Y-11923722D01*
X6808158Y-11923722D02*
X6817682Y-11904674D01*
X6817682Y-11904674D02*
X6836730Y-11895150D01*
X6836730Y-11895150D02*
X6865301Y-11895150D01*
X6865301Y-11895150D02*
X6884349Y-11904674D01*
X7131968Y-11952293D02*
X7284349Y-11952293D01*
X7208158Y-12028484D02*
X7208158Y-11876103D01*
X7512920Y-11828484D02*
X7636730Y-11828484D01*
X7636730Y-11828484D02*
X7570063Y-11904674D01*
X7570063Y-11904674D02*
X7598634Y-11904674D01*
X7598634Y-11904674D02*
X7617682Y-11914198D01*
X7617682Y-11914198D02*
X7627206Y-11923722D01*
X7627206Y-11923722D02*
X7636730Y-11942769D01*
X7636730Y-11942769D02*
X7636730Y-11990388D01*
X7636730Y-11990388D02*
X7627206Y-12009436D01*
X7627206Y-12009436D02*
X7617682Y-12018960D01*
X7617682Y-12018960D02*
X7598634Y-12028484D01*
X7598634Y-12028484D02*
X7541492Y-12028484D01*
X7541492Y-12028484D02*
X7522444Y-12018960D01*
X7522444Y-12018960D02*
X7512920Y-12009436D01*
X7865301Y-12018960D02*
X7884349Y-12028484D01*
X7884349Y-12028484D02*
X7922444Y-12028484D01*
X7922444Y-12028484D02*
X7941492Y-12018960D01*
X7941492Y-12018960D02*
X7951015Y-11999912D01*
X7951015Y-11999912D02*
X7951015Y-11990388D01*
X7951015Y-11990388D02*
X7941492Y-11971341D01*
X7941492Y-11971341D02*
X7922444Y-11961817D01*
X7922444Y-11961817D02*
X7893873Y-11961817D01*
X7893873Y-11961817D02*
X7874825Y-11952293D01*
X7874825Y-11952293D02*
X7865301Y-11933246D01*
X7865301Y-11933246D02*
X7865301Y-11923722D01*
X7865301Y-11923722D02*
X7874825Y-11904674D01*
X7874825Y-11904674D02*
X7893873Y-11895150D01*
X7893873Y-11895150D02*
X7922444Y-11895150D01*
X7922444Y-11895150D02*
X7941492Y-11904674D01*
X8065301Y-12028484D02*
X8046254Y-12018960D01*
X8046254Y-12018960D02*
X8036730Y-11999912D01*
X8036730Y-11999912D02*
X8036730Y-11828484D01*
X8170063Y-12028484D02*
X8151015Y-12018960D01*
X8151015Y-12018960D02*
X8141492Y-12009436D01*
X8141492Y-12009436D02*
X8131968Y-11990388D01*
X8131968Y-11990388D02*
X8131968Y-11933246D01*
X8131968Y-11933246D02*
X8141492Y-11914198D01*
X8141492Y-11914198D02*
X8151015Y-11904674D01*
X8151015Y-11904674D02*
X8170063Y-11895150D01*
X8170063Y-11895150D02*
X8198635Y-11895150D01*
X8198635Y-11895150D02*
X8217682Y-11904674D01*
X8217682Y-11904674D02*
X8227206Y-11914198D01*
X8227206Y-11914198D02*
X8236730Y-11933246D01*
X8236730Y-11933246D02*
X8236730Y-11990388D01*
X8236730Y-11990388D02*
X8227206Y-12009436D01*
X8227206Y-12009436D02*
X8217682Y-12018960D01*
X8217682Y-12018960D02*
X8198635Y-12028484D01*
X8198635Y-12028484D02*
X8170063Y-12028484D01*
X8293873Y-11895150D02*
X8370063Y-11895150D01*
X8322444Y-11828484D02*
X8322444Y-11999912D01*
X8322444Y-11999912D02*
X8331968Y-12018960D01*
X8331968Y-12018960D02*
X8351015Y-12028484D01*
X8351015Y-12028484D02*
X8370063Y-12028484D01*
X8427206Y-12018960D02*
X8446254Y-12028484D01*
X8446254Y-12028484D02*
X8484349Y-12028484D01*
X8484349Y-12028484D02*
X8503397Y-12018960D01*
X8503397Y-12018960D02*
X8512920Y-11999912D01*
X8512920Y-11999912D02*
X8512920Y-11990388D01*
X8512920Y-11990388D02*
X8503397Y-11971341D01*
X8503397Y-11971341D02*
X8484349Y-11961817D01*
X8484349Y-11961817D02*
X8455777Y-11961817D01*
X8455777Y-11961817D02*
X8436730Y-11952293D01*
X8436730Y-11952293D02*
X8427206Y-11933246D01*
X8427206Y-11933246D02*
X8427206Y-11923722D01*
X8427206Y-11923722D02*
X8436730Y-11904674D01*
X8436730Y-11904674D02*
X8455777Y-11895150D01*
X8455777Y-11895150D02*
X8484349Y-11895150D01*
X8484349Y-11895150D02*
X8503397Y-11904674D01*
X8579587Y-12104674D02*
X8589111Y-12095150D01*
X8589111Y-12095150D02*
X8608158Y-12066579D01*
X8608158Y-12066579D02*
X8617682Y-12047531D01*
X8617682Y-12047531D02*
X8627206Y-12018960D01*
X8627206Y-12018960D02*
X8636730Y-11971341D01*
X8636730Y-11971341D02*
X8636730Y-11933246D01*
X8636730Y-11933246D02*
X8627206Y-11885627D01*
X8627206Y-11885627D02*
X8617682Y-11857055D01*
X8617682Y-11857055D02*
X8608158Y-11838008D01*
X8608158Y-11838008D02*
X8589111Y-11809436D01*
X8589111Y-11809436D02*
X8579587Y-11799912D01*
D12*
X1940000Y-12256000D02*
X1995000Y-12201000D01*
X1940000Y-12146000D01*
X1885000Y-12201000D01*
X1940000Y-12256000D01*
D11*
X2360539Y-12292484D02*
X2246253Y-12292484D01*
X2303396Y-12292484D02*
X2303396Y-12092484D01*
X2303396Y-12092484D02*
X2284348Y-12121055D01*
X2284348Y-12121055D02*
X2265301Y-12140103D01*
X2265301Y-12140103D02*
X2246253Y-12149627D01*
X2446253Y-12273436D02*
X2455777Y-12282960D01*
X2455777Y-12282960D02*
X2446253Y-12292484D01*
X2446253Y-12292484D02*
X2436729Y-12282960D01*
X2436729Y-12282960D02*
X2446253Y-12273436D01*
X2446253Y-12273436D02*
X2446253Y-12292484D01*
X2646253Y-12292484D02*
X2531967Y-12292484D01*
X2589110Y-12292484D02*
X2589110Y-12092484D01*
X2589110Y-12092484D02*
X2570063Y-12121055D01*
X2570063Y-12121055D02*
X2551015Y-12140103D01*
X2551015Y-12140103D02*
X2531967Y-12149627D01*
X2770063Y-12092484D02*
X2789110Y-12092484D01*
X2789110Y-12092484D02*
X2808158Y-12102008D01*
X2808158Y-12102008D02*
X2817682Y-12111531D01*
X2817682Y-12111531D02*
X2827205Y-12130579D01*
X2827205Y-12130579D02*
X2836729Y-12168674D01*
X2836729Y-12168674D02*
X2836729Y-12216293D01*
X2836729Y-12216293D02*
X2827205Y-12254388D01*
X2827205Y-12254388D02*
X2817682Y-12273436D01*
X2817682Y-12273436D02*
X2808158Y-12282960D01*
X2808158Y-12282960D02*
X2789110Y-12292484D01*
X2789110Y-12292484D02*
X2770063Y-12292484D01*
X2770063Y-12292484D02*
X2751015Y-12282960D01*
X2751015Y-12282960D02*
X2741491Y-12273436D01*
X2741491Y-12273436D02*
X2731967Y-12254388D01*
X2731967Y-12254388D02*
X2722444Y-12216293D01*
X2722444Y-12216293D02*
X2722444Y-12168674D01*
X2722444Y-12168674D02*
X2731967Y-12130579D01*
X2731967Y-12130579D02*
X2741491Y-12111531D01*
X2741491Y-12111531D02*
X2751015Y-12102008D01*
X2751015Y-12102008D02*
X2770063Y-12092484D01*
X2960539Y-12092484D02*
X2979586Y-12092484D01*
X2979586Y-12092484D02*
X2998634Y-12102008D01*
X2998634Y-12102008D02*
X3008158Y-12111531D01*
X3008158Y-12111531D02*
X3017682Y-12130579D01*
X3017682Y-12130579D02*
X3027205Y-12168674D01*
X3027205Y-12168674D02*
X3027205Y-12216293D01*
X3027205Y-12216293D02*
X3017682Y-12254388D01*
X3017682Y-12254388D02*
X3008158Y-12273436D01*
X3008158Y-12273436D02*
X2998634Y-12282960D01*
X2998634Y-12282960D02*
X2979586Y-12292484D01*
X2979586Y-12292484D02*
X2960539Y-12292484D01*
X2960539Y-12292484D02*
X2941491Y-12282960D01*
X2941491Y-12282960D02*
X2931967Y-12273436D01*
X2931967Y-12273436D02*
X2922443Y-12254388D01*
X2922443Y-12254388D02*
X2912920Y-12216293D01*
X2912920Y-12216293D02*
X2912920Y-12168674D01*
X2912920Y-12168674D02*
X2922443Y-12130579D01*
X2922443Y-12130579D02*
X2931967Y-12111531D01*
X2931967Y-12111531D02*
X2941491Y-12102008D01*
X2941491Y-12102008D02*
X2960539Y-12092484D01*
X3112920Y-12292484D02*
X3112920Y-12159150D01*
X3112920Y-12178198D02*
X3122443Y-12168674D01*
X3122443Y-12168674D02*
X3141491Y-12159150D01*
X3141491Y-12159150D02*
X3170063Y-12159150D01*
X3170063Y-12159150D02*
X3189110Y-12168674D01*
X3189110Y-12168674D02*
X3198634Y-12187722D01*
X3198634Y-12187722D02*
X3198634Y-12292484D01*
X3198634Y-12187722D02*
X3208158Y-12168674D01*
X3208158Y-12168674D02*
X3227205Y-12159150D01*
X3227205Y-12159150D02*
X3255777Y-12159150D01*
X3255777Y-12159150D02*
X3274824Y-12168674D01*
X3274824Y-12168674D02*
X3284348Y-12187722D01*
X3284348Y-12187722D02*
X3284348Y-12292484D01*
X3379586Y-12292484D02*
X3379586Y-12159150D01*
X3379586Y-12178198D02*
X3389110Y-12168674D01*
X3389110Y-12168674D02*
X3408158Y-12159150D01*
X3408158Y-12159150D02*
X3436729Y-12159150D01*
X3436729Y-12159150D02*
X3455777Y-12168674D01*
X3455777Y-12168674D02*
X3465301Y-12187722D01*
X3465301Y-12187722D02*
X3465301Y-12292484D01*
X3465301Y-12187722D02*
X3474824Y-12168674D01*
X3474824Y-12168674D02*
X3493872Y-12159150D01*
X3493872Y-12159150D02*
X3522443Y-12159150D01*
X3522443Y-12159150D02*
X3541491Y-12168674D01*
X3541491Y-12168674D02*
X3551015Y-12187722D01*
X3551015Y-12187722D02*
X3551015Y-12292484D01*
X3941491Y-12082960D02*
X3770063Y-12340103D01*
X4198634Y-12092484D02*
X4217682Y-12092484D01*
X4217682Y-12092484D02*
X4236729Y-12102008D01*
X4236729Y-12102008D02*
X4246253Y-12111531D01*
X4246253Y-12111531D02*
X4255777Y-12130579D01*
X4255777Y-12130579D02*
X4265301Y-12168674D01*
X4265301Y-12168674D02*
X4265301Y-12216293D01*
X4265301Y-12216293D02*
X4255777Y-12254388D01*
X4255777Y-12254388D02*
X4246253Y-12273436D01*
X4246253Y-12273436D02*
X4236729Y-12282960D01*
X4236729Y-12282960D02*
X4217682Y-12292484D01*
X4217682Y-12292484D02*
X4198634Y-12292484D01*
X4198634Y-12292484D02*
X4179586Y-12282960D01*
X4179586Y-12282960D02*
X4170063Y-12273436D01*
X4170063Y-12273436D02*
X4160539Y-12254388D01*
X4160539Y-12254388D02*
X4151015Y-12216293D01*
X4151015Y-12216293D02*
X4151015Y-12168674D01*
X4151015Y-12168674D02*
X4160539Y-12130579D01*
X4160539Y-12130579D02*
X4170063Y-12111531D01*
X4170063Y-12111531D02*
X4179586Y-12102008D01*
X4179586Y-12102008D02*
X4198634Y-12092484D01*
X4351015Y-12273436D02*
X4360539Y-12282960D01*
X4360539Y-12282960D02*
X4351015Y-12292484D01*
X4351015Y-12292484D02*
X4341491Y-12282960D01*
X4341491Y-12282960D02*
X4351015Y-12273436D01*
X4351015Y-12273436D02*
X4351015Y-12292484D01*
X4484348Y-12092484D02*
X4503396Y-12092484D01*
X4503396Y-12092484D02*
X4522444Y-12102008D01*
X4522444Y-12102008D02*
X4531968Y-12111531D01*
X4531968Y-12111531D02*
X4541491Y-12130579D01*
X4541491Y-12130579D02*
X4551015Y-12168674D01*
X4551015Y-12168674D02*
X4551015Y-12216293D01*
X4551015Y-12216293D02*
X4541491Y-12254388D01*
X4541491Y-12254388D02*
X4531968Y-12273436D01*
X4531968Y-12273436D02*
X4522444Y-12282960D01*
X4522444Y-12282960D02*
X4503396Y-12292484D01*
X4503396Y-12292484D02*
X4484348Y-12292484D01*
X4484348Y-12292484D02*
X4465301Y-12282960D01*
X4465301Y-12282960D02*
X4455777Y-12273436D01*
X4455777Y-12273436D02*
X4446253Y-12254388D01*
X4446253Y-12254388D02*
X4436729Y-12216293D01*
X4436729Y-12216293D02*
X4436729Y-12168674D01*
X4436729Y-12168674D02*
X4446253Y-12130579D01*
X4446253Y-12130579D02*
X4455777Y-12111531D01*
X4455777Y-12111531D02*
X4465301Y-12102008D01*
X4465301Y-12102008D02*
X4484348Y-12092484D01*
X4722444Y-12159150D02*
X4722444Y-12292484D01*
X4674825Y-12082960D02*
X4627206Y-12225817D01*
X4627206Y-12225817D02*
X4751015Y-12225817D01*
X4808158Y-12092484D02*
X4931968Y-12092484D01*
X4931968Y-12092484D02*
X4865301Y-12168674D01*
X4865301Y-12168674D02*
X4893872Y-12168674D01*
X4893872Y-12168674D02*
X4912920Y-12178198D01*
X4912920Y-12178198D02*
X4922444Y-12187722D01*
X4922444Y-12187722D02*
X4931968Y-12206769D01*
X4931968Y-12206769D02*
X4931968Y-12254388D01*
X4931968Y-12254388D02*
X4922444Y-12273436D01*
X4922444Y-12273436D02*
X4912920Y-12282960D01*
X4912920Y-12282960D02*
X4893872Y-12292484D01*
X4893872Y-12292484D02*
X4836729Y-12292484D01*
X4836729Y-12292484D02*
X4817682Y-12282960D01*
X4817682Y-12282960D02*
X4808158Y-12273436D01*
X4998634Y-12092484D02*
X5122444Y-12092484D01*
X5122444Y-12092484D02*
X5055777Y-12168674D01*
X5055777Y-12168674D02*
X5084349Y-12168674D01*
X5084349Y-12168674D02*
X5103396Y-12178198D01*
X5103396Y-12178198D02*
X5112920Y-12187722D01*
X5112920Y-12187722D02*
X5122444Y-12206769D01*
X5122444Y-12206769D02*
X5122444Y-12254388D01*
X5122444Y-12254388D02*
X5112920Y-12273436D01*
X5112920Y-12273436D02*
X5103396Y-12282960D01*
X5103396Y-12282960D02*
X5084349Y-12292484D01*
X5084349Y-12292484D02*
X5027206Y-12292484D01*
X5027206Y-12292484D02*
X5008158Y-12282960D01*
X5008158Y-12282960D02*
X4998634Y-12273436D01*
X5198634Y-12092484D02*
X5198634Y-12130579D01*
X5274825Y-12092484D02*
X5274825Y-12130579D01*
X5570063Y-12368674D02*
X5560539Y-12359150D01*
X5560539Y-12359150D02*
X5541491Y-12330579D01*
X5541491Y-12330579D02*
X5531968Y-12311531D01*
X5531968Y-12311531D02*
X5522444Y-12282960D01*
X5522444Y-12282960D02*
X5512920Y-12235341D01*
X5512920Y-12235341D02*
X5512920Y-12197246D01*
X5512920Y-12197246D02*
X5522444Y-12149627D01*
X5522444Y-12149627D02*
X5531968Y-12121055D01*
X5531968Y-12121055D02*
X5541491Y-12102008D01*
X5541491Y-12102008D02*
X5560539Y-12073436D01*
X5560539Y-12073436D02*
X5570063Y-12063912D01*
X5751015Y-12292484D02*
X5636729Y-12292484D01*
X5693872Y-12292484D02*
X5693872Y-12092484D01*
X5693872Y-12092484D02*
X5674825Y-12121055D01*
X5674825Y-12121055D02*
X5655777Y-12140103D01*
X5655777Y-12140103D02*
X5636729Y-12149627D01*
X5989110Y-12292484D02*
X5989110Y-12092484D01*
X6074825Y-12292484D02*
X6074825Y-12187722D01*
X6074825Y-12187722D02*
X6065301Y-12168674D01*
X6065301Y-12168674D02*
X6046253Y-12159150D01*
X6046253Y-12159150D02*
X6017682Y-12159150D01*
X6017682Y-12159150D02*
X5998634Y-12168674D01*
X5998634Y-12168674D02*
X5989110Y-12178198D01*
X6198634Y-12292484D02*
X6179587Y-12282960D01*
X6179587Y-12282960D02*
X6170063Y-12273436D01*
X6170063Y-12273436D02*
X6160539Y-12254388D01*
X6160539Y-12254388D02*
X6160539Y-12197246D01*
X6160539Y-12197246D02*
X6170063Y-12178198D01*
X6170063Y-12178198D02*
X6179587Y-12168674D01*
X6179587Y-12168674D02*
X6198634Y-12159150D01*
X6198634Y-12159150D02*
X6227206Y-12159150D01*
X6227206Y-12159150D02*
X6246253Y-12168674D01*
X6246253Y-12168674D02*
X6255777Y-12178198D01*
X6255777Y-12178198D02*
X6265301Y-12197246D01*
X6265301Y-12197246D02*
X6265301Y-12254388D01*
X6265301Y-12254388D02*
X6255777Y-12273436D01*
X6255777Y-12273436D02*
X6246253Y-12282960D01*
X6246253Y-12282960D02*
X6227206Y-12292484D01*
X6227206Y-12292484D02*
X6198634Y-12292484D01*
X6379587Y-12292484D02*
X6360539Y-12282960D01*
X6360539Y-12282960D02*
X6351015Y-12263912D01*
X6351015Y-12263912D02*
X6351015Y-12092484D01*
X6531968Y-12282960D02*
X6512920Y-12292484D01*
X6512920Y-12292484D02*
X6474825Y-12292484D01*
X6474825Y-12292484D02*
X6455777Y-12282960D01*
X6455777Y-12282960D02*
X6446253Y-12263912D01*
X6446253Y-12263912D02*
X6446253Y-12187722D01*
X6446253Y-12187722D02*
X6455777Y-12168674D01*
X6455777Y-12168674D02*
X6474825Y-12159150D01*
X6474825Y-12159150D02*
X6512920Y-12159150D01*
X6512920Y-12159150D02*
X6531968Y-12168674D01*
X6531968Y-12168674D02*
X6541491Y-12187722D01*
X6541491Y-12187722D02*
X6541491Y-12206769D01*
X6541491Y-12206769D02*
X6446253Y-12225817D01*
X6608158Y-12368674D02*
X6617682Y-12359150D01*
X6617682Y-12359150D02*
X6636730Y-12330579D01*
X6636730Y-12330579D02*
X6646253Y-12311531D01*
X6646253Y-12311531D02*
X6655777Y-12282960D01*
X6655777Y-12282960D02*
X6665301Y-12235341D01*
X6665301Y-12235341D02*
X6665301Y-12197246D01*
X6665301Y-12197246D02*
X6655777Y-12149627D01*
X6655777Y-12149627D02*
X6646253Y-12121055D01*
X6646253Y-12121055D02*
X6636730Y-12102008D01*
X6636730Y-12102008D02*
X6617682Y-12073436D01*
X6617682Y-12073436D02*
X6608158Y-12063912D01*
D13*
X1845000Y-12390000D02*
X1995000Y-12540000D01*
X1995000Y-12390000D02*
X1845000Y-12540000D01*
X1995000Y-12465000D02*
G75*
G03*
X1845000Y-12465000I-75000J0D01*
G01*
X1845000Y-12465000D02*
G75*
G03*
X1995000Y-12465000I75000J0D01*
G01*
D11*
X2360539Y-12556484D02*
X2246253Y-12556484D01*
X2303396Y-12556484D02*
X2303396Y-12356484D01*
X2303396Y-12356484D02*
X2284348Y-12385055D01*
X2284348Y-12385055D02*
X2265301Y-12404103D01*
X2265301Y-12404103D02*
X2246253Y-12413627D01*
X2446253Y-12537436D02*
X2455777Y-12546960D01*
X2455777Y-12546960D02*
X2446253Y-12556484D01*
X2446253Y-12556484D02*
X2436729Y-12546960D01*
X2436729Y-12546960D02*
X2446253Y-12537436D01*
X2446253Y-12537436D02*
X2446253Y-12556484D01*
X2636729Y-12356484D02*
X2541491Y-12356484D01*
X2541491Y-12356484D02*
X2531967Y-12451722D01*
X2531967Y-12451722D02*
X2541491Y-12442198D01*
X2541491Y-12442198D02*
X2560539Y-12432674D01*
X2560539Y-12432674D02*
X2608158Y-12432674D01*
X2608158Y-12432674D02*
X2627205Y-12442198D01*
X2627205Y-12442198D02*
X2636729Y-12451722D01*
X2636729Y-12451722D02*
X2646253Y-12470769D01*
X2646253Y-12470769D02*
X2646253Y-12518388D01*
X2646253Y-12518388D02*
X2636729Y-12537436D01*
X2636729Y-12537436D02*
X2627205Y-12546960D01*
X2627205Y-12546960D02*
X2608158Y-12556484D01*
X2608158Y-12556484D02*
X2560539Y-12556484D01*
X2560539Y-12556484D02*
X2541491Y-12546960D01*
X2541491Y-12546960D02*
X2531967Y-12537436D01*
X2770063Y-12356484D02*
X2789110Y-12356484D01*
X2789110Y-12356484D02*
X2808158Y-12366008D01*
X2808158Y-12366008D02*
X2817682Y-12375531D01*
X2817682Y-12375531D02*
X2827205Y-12394579D01*
X2827205Y-12394579D02*
X2836729Y-12432674D01*
X2836729Y-12432674D02*
X2836729Y-12480293D01*
X2836729Y-12480293D02*
X2827205Y-12518388D01*
X2827205Y-12518388D02*
X2817682Y-12537436D01*
X2817682Y-12537436D02*
X2808158Y-12546960D01*
X2808158Y-12546960D02*
X2789110Y-12556484D01*
X2789110Y-12556484D02*
X2770063Y-12556484D01*
X2770063Y-12556484D02*
X2751015Y-12546960D01*
X2751015Y-12546960D02*
X2741491Y-12537436D01*
X2741491Y-12537436D02*
X2731967Y-12518388D01*
X2731967Y-12518388D02*
X2722444Y-12480293D01*
X2722444Y-12480293D02*
X2722444Y-12432674D01*
X2722444Y-12432674D02*
X2731967Y-12394579D01*
X2731967Y-12394579D02*
X2741491Y-12375531D01*
X2741491Y-12375531D02*
X2751015Y-12366008D01*
X2751015Y-12366008D02*
X2770063Y-12356484D01*
X2960539Y-12356484D02*
X2979586Y-12356484D01*
X2979586Y-12356484D02*
X2998634Y-12366008D01*
X2998634Y-12366008D02*
X3008158Y-12375531D01*
X3008158Y-12375531D02*
X3017682Y-12394579D01*
X3017682Y-12394579D02*
X3027205Y-12432674D01*
X3027205Y-12432674D02*
X3027205Y-12480293D01*
X3027205Y-12480293D02*
X3017682Y-12518388D01*
X3017682Y-12518388D02*
X3008158Y-12537436D01*
X3008158Y-12537436D02*
X2998634Y-12546960D01*
X2998634Y-12546960D02*
X2979586Y-12556484D01*
X2979586Y-12556484D02*
X2960539Y-12556484D01*
X2960539Y-12556484D02*
X2941491Y-12546960D01*
X2941491Y-12546960D02*
X2931967Y-12537436D01*
X2931967Y-12537436D02*
X2922443Y-12518388D01*
X2922443Y-12518388D02*
X2912920Y-12480293D01*
X2912920Y-12480293D02*
X2912920Y-12432674D01*
X2912920Y-12432674D02*
X2922443Y-12394579D01*
X2922443Y-12394579D02*
X2931967Y-12375531D01*
X2931967Y-12375531D02*
X2941491Y-12366008D01*
X2941491Y-12366008D02*
X2960539Y-12356484D01*
X3112920Y-12556484D02*
X3112920Y-12423150D01*
X3112920Y-12442198D02*
X3122443Y-12432674D01*
X3122443Y-12432674D02*
X3141491Y-12423150D01*
X3141491Y-12423150D02*
X3170063Y-12423150D01*
X3170063Y-12423150D02*
X3189110Y-12432674D01*
X3189110Y-12432674D02*
X3198634Y-12451722D01*
X3198634Y-12451722D02*
X3198634Y-12556484D01*
X3198634Y-12451722D02*
X3208158Y-12432674D01*
X3208158Y-12432674D02*
X3227205Y-12423150D01*
X3227205Y-12423150D02*
X3255777Y-12423150D01*
X3255777Y-12423150D02*
X3274824Y-12432674D01*
X3274824Y-12432674D02*
X3284348Y-12451722D01*
X3284348Y-12451722D02*
X3284348Y-12556484D01*
X3379586Y-12556484D02*
X3379586Y-12423150D01*
X3379586Y-12442198D02*
X3389110Y-12432674D01*
X3389110Y-12432674D02*
X3408158Y-12423150D01*
X3408158Y-12423150D02*
X3436729Y-12423150D01*
X3436729Y-12423150D02*
X3455777Y-12432674D01*
X3455777Y-12432674D02*
X3465301Y-12451722D01*
X3465301Y-12451722D02*
X3465301Y-12556484D01*
X3465301Y-12451722D02*
X3474824Y-12432674D01*
X3474824Y-12432674D02*
X3493872Y-12423150D01*
X3493872Y-12423150D02*
X3522443Y-12423150D01*
X3522443Y-12423150D02*
X3541491Y-12432674D01*
X3541491Y-12432674D02*
X3551015Y-12451722D01*
X3551015Y-12451722D02*
X3551015Y-12556484D01*
X3941491Y-12346960D02*
X3770063Y-12604103D01*
X4198634Y-12356484D02*
X4217682Y-12356484D01*
X4217682Y-12356484D02*
X4236729Y-12366008D01*
X4236729Y-12366008D02*
X4246253Y-12375531D01*
X4246253Y-12375531D02*
X4255777Y-12394579D01*
X4255777Y-12394579D02*
X4265301Y-12432674D01*
X4265301Y-12432674D02*
X4265301Y-12480293D01*
X4265301Y-12480293D02*
X4255777Y-12518388D01*
X4255777Y-12518388D02*
X4246253Y-12537436D01*
X4246253Y-12537436D02*
X4236729Y-12546960D01*
X4236729Y-12546960D02*
X4217682Y-12556484D01*
X4217682Y-12556484D02*
X4198634Y-12556484D01*
X4198634Y-12556484D02*
X4179586Y-12546960D01*
X4179586Y-12546960D02*
X4170063Y-12537436D01*
X4170063Y-12537436D02*
X4160539Y-12518388D01*
X4160539Y-12518388D02*
X4151015Y-12480293D01*
X4151015Y-12480293D02*
X4151015Y-12432674D01*
X4151015Y-12432674D02*
X4160539Y-12394579D01*
X4160539Y-12394579D02*
X4170063Y-12375531D01*
X4170063Y-12375531D02*
X4179586Y-12366008D01*
X4179586Y-12366008D02*
X4198634Y-12356484D01*
X4351015Y-12537436D02*
X4360539Y-12546960D01*
X4360539Y-12546960D02*
X4351015Y-12556484D01*
X4351015Y-12556484D02*
X4341491Y-12546960D01*
X4341491Y-12546960D02*
X4351015Y-12537436D01*
X4351015Y-12537436D02*
X4351015Y-12556484D01*
X4484348Y-12356484D02*
X4503396Y-12356484D01*
X4503396Y-12356484D02*
X4522444Y-12366008D01*
X4522444Y-12366008D02*
X4531968Y-12375531D01*
X4531968Y-12375531D02*
X4541491Y-12394579D01*
X4541491Y-12394579D02*
X4551015Y-12432674D01*
X4551015Y-12432674D02*
X4551015Y-12480293D01*
X4551015Y-12480293D02*
X4541491Y-12518388D01*
X4541491Y-12518388D02*
X4531968Y-12537436D01*
X4531968Y-12537436D02*
X4522444Y-12546960D01*
X4522444Y-12546960D02*
X4503396Y-12556484D01*
X4503396Y-12556484D02*
X4484348Y-12556484D01*
X4484348Y-12556484D02*
X4465301Y-12546960D01*
X4465301Y-12546960D02*
X4455777Y-12537436D01*
X4455777Y-12537436D02*
X4446253Y-12518388D01*
X4446253Y-12518388D02*
X4436729Y-12480293D01*
X4436729Y-12480293D02*
X4436729Y-12432674D01*
X4436729Y-12432674D02*
X4446253Y-12394579D01*
X4446253Y-12394579D02*
X4455777Y-12375531D01*
X4455777Y-12375531D02*
X4465301Y-12366008D01*
X4465301Y-12366008D02*
X4484348Y-12356484D01*
X4731968Y-12356484D02*
X4636729Y-12356484D01*
X4636729Y-12356484D02*
X4627206Y-12451722D01*
X4627206Y-12451722D02*
X4636729Y-12442198D01*
X4636729Y-12442198D02*
X4655777Y-12432674D01*
X4655777Y-12432674D02*
X4703396Y-12432674D01*
X4703396Y-12432674D02*
X4722444Y-12442198D01*
X4722444Y-12442198D02*
X4731968Y-12451722D01*
X4731968Y-12451722D02*
X4741491Y-12470769D01*
X4741491Y-12470769D02*
X4741491Y-12518388D01*
X4741491Y-12518388D02*
X4731968Y-12537436D01*
X4731968Y-12537436D02*
X4722444Y-12546960D01*
X4722444Y-12546960D02*
X4703396Y-12556484D01*
X4703396Y-12556484D02*
X4655777Y-12556484D01*
X4655777Y-12556484D02*
X4636729Y-12546960D01*
X4636729Y-12546960D02*
X4627206Y-12537436D01*
X4836729Y-12556484D02*
X4874825Y-12556484D01*
X4874825Y-12556484D02*
X4893872Y-12546960D01*
X4893872Y-12546960D02*
X4903396Y-12537436D01*
X4903396Y-12537436D02*
X4922444Y-12508865D01*
X4922444Y-12508865D02*
X4931968Y-12470769D01*
X4931968Y-12470769D02*
X4931968Y-12394579D01*
X4931968Y-12394579D02*
X4922444Y-12375531D01*
X4922444Y-12375531D02*
X4912920Y-12366008D01*
X4912920Y-12366008D02*
X4893872Y-12356484D01*
X4893872Y-12356484D02*
X4855777Y-12356484D01*
X4855777Y-12356484D02*
X4836729Y-12366008D01*
X4836729Y-12366008D02*
X4827206Y-12375531D01*
X4827206Y-12375531D02*
X4817682Y-12394579D01*
X4817682Y-12394579D02*
X4817682Y-12442198D01*
X4817682Y-12442198D02*
X4827206Y-12461246D01*
X4827206Y-12461246D02*
X4836729Y-12470769D01*
X4836729Y-12470769D02*
X4855777Y-12480293D01*
X4855777Y-12480293D02*
X4893872Y-12480293D01*
X4893872Y-12480293D02*
X4912920Y-12470769D01*
X4912920Y-12470769D02*
X4922444Y-12461246D01*
X4922444Y-12461246D02*
X4931968Y-12442198D01*
X5122444Y-12556484D02*
X5008158Y-12556484D01*
X5065301Y-12556484D02*
X5065301Y-12356484D01*
X5065301Y-12356484D02*
X5046253Y-12385055D01*
X5046253Y-12385055D02*
X5027206Y-12404103D01*
X5027206Y-12404103D02*
X5008158Y-12413627D01*
X5198634Y-12356484D02*
X5198634Y-12394579D01*
X5274825Y-12356484D02*
X5274825Y-12394579D01*
X5570063Y-12632674D02*
X5560539Y-12623150D01*
X5560539Y-12623150D02*
X5541491Y-12594579D01*
X5541491Y-12594579D02*
X5531968Y-12575531D01*
X5531968Y-12575531D02*
X5522444Y-12546960D01*
X5522444Y-12546960D02*
X5512920Y-12499341D01*
X5512920Y-12499341D02*
X5512920Y-12461246D01*
X5512920Y-12461246D02*
X5522444Y-12413627D01*
X5522444Y-12413627D02*
X5531968Y-12385055D01*
X5531968Y-12385055D02*
X5541491Y-12366008D01*
X5541491Y-12366008D02*
X5560539Y-12337436D01*
X5560539Y-12337436D02*
X5570063Y-12327912D01*
X5674825Y-12442198D02*
X5655777Y-12432674D01*
X5655777Y-12432674D02*
X5646253Y-12423150D01*
X5646253Y-12423150D02*
X5636729Y-12404103D01*
X5636729Y-12404103D02*
X5636729Y-12394579D01*
X5636729Y-12394579D02*
X5646253Y-12375531D01*
X5646253Y-12375531D02*
X5655777Y-12366008D01*
X5655777Y-12366008D02*
X5674825Y-12356484D01*
X5674825Y-12356484D02*
X5712920Y-12356484D01*
X5712920Y-12356484D02*
X5731968Y-12366008D01*
X5731968Y-12366008D02*
X5741491Y-12375531D01*
X5741491Y-12375531D02*
X5751015Y-12394579D01*
X5751015Y-12394579D02*
X5751015Y-12404103D01*
X5751015Y-12404103D02*
X5741491Y-12423150D01*
X5741491Y-12423150D02*
X5731968Y-12432674D01*
X5731968Y-12432674D02*
X5712920Y-12442198D01*
X5712920Y-12442198D02*
X5674825Y-12442198D01*
X5674825Y-12442198D02*
X5655777Y-12451722D01*
X5655777Y-12451722D02*
X5646253Y-12461246D01*
X5646253Y-12461246D02*
X5636729Y-12480293D01*
X5636729Y-12480293D02*
X5636729Y-12518388D01*
X5636729Y-12518388D02*
X5646253Y-12537436D01*
X5646253Y-12537436D02*
X5655777Y-12546960D01*
X5655777Y-12546960D02*
X5674825Y-12556484D01*
X5674825Y-12556484D02*
X5712920Y-12556484D01*
X5712920Y-12556484D02*
X5731968Y-12546960D01*
X5731968Y-12546960D02*
X5741491Y-12537436D01*
X5741491Y-12537436D02*
X5751015Y-12518388D01*
X5751015Y-12518388D02*
X5751015Y-12480293D01*
X5751015Y-12480293D02*
X5741491Y-12461246D01*
X5741491Y-12461246D02*
X5731968Y-12451722D01*
X5731968Y-12451722D02*
X5712920Y-12442198D01*
X5989110Y-12556484D02*
X5989110Y-12356484D01*
X6074825Y-12556484D02*
X6074825Y-12451722D01*
X6074825Y-12451722D02*
X6065301Y-12432674D01*
X6065301Y-12432674D02*
X6046253Y-12423150D01*
X6046253Y-12423150D02*
X6017682Y-12423150D01*
X6017682Y-12423150D02*
X5998634Y-12432674D01*
X5998634Y-12432674D02*
X5989110Y-12442198D01*
X6198634Y-12556484D02*
X6179587Y-12546960D01*
X6179587Y-12546960D02*
X6170063Y-12537436D01*
X6170063Y-12537436D02*
X6160539Y-12518388D01*
X6160539Y-12518388D02*
X6160539Y-12461246D01*
X6160539Y-12461246D02*
X6170063Y-12442198D01*
X6170063Y-12442198D02*
X6179587Y-12432674D01*
X6179587Y-12432674D02*
X6198634Y-12423150D01*
X6198634Y-12423150D02*
X6227206Y-12423150D01*
X6227206Y-12423150D02*
X6246253Y-12432674D01*
X6246253Y-12432674D02*
X6255777Y-12442198D01*
X6255777Y-12442198D02*
X6265301Y-12461246D01*
X6265301Y-12461246D02*
X6265301Y-12518388D01*
X6265301Y-12518388D02*
X6255777Y-12537436D01*
X6255777Y-12537436D02*
X6246253Y-12546960D01*
X6246253Y-12546960D02*
X6227206Y-12556484D01*
X6227206Y-12556484D02*
X6198634Y-12556484D01*
X6379587Y-12556484D02*
X6360539Y-12546960D01*
X6360539Y-12546960D02*
X6351015Y-12527912D01*
X6351015Y-12527912D02*
X6351015Y-12356484D01*
X6531968Y-12546960D02*
X6512920Y-12556484D01*
X6512920Y-12556484D02*
X6474825Y-12556484D01*
X6474825Y-12556484D02*
X6455777Y-12546960D01*
X6455777Y-12546960D02*
X6446253Y-12527912D01*
X6446253Y-12527912D02*
X6446253Y-12451722D01*
X6446253Y-12451722D02*
X6455777Y-12432674D01*
X6455777Y-12432674D02*
X6474825Y-12423150D01*
X6474825Y-12423150D02*
X6512920Y-12423150D01*
X6512920Y-12423150D02*
X6531968Y-12432674D01*
X6531968Y-12432674D02*
X6541491Y-12451722D01*
X6541491Y-12451722D02*
X6541491Y-12470769D01*
X6541491Y-12470769D02*
X6446253Y-12489817D01*
X6617682Y-12546960D02*
X6636730Y-12556484D01*
X6636730Y-12556484D02*
X6674825Y-12556484D01*
X6674825Y-12556484D02*
X6693872Y-12546960D01*
X6693872Y-12546960D02*
X6703396Y-12527912D01*
X6703396Y-12527912D02*
X6703396Y-12518388D01*
X6703396Y-12518388D02*
X6693872Y-12499341D01*
X6693872Y-12499341D02*
X6674825Y-12489817D01*
X6674825Y-12489817D02*
X6646253Y-12489817D01*
X6646253Y-12489817D02*
X6627206Y-12480293D01*
X6627206Y-12480293D02*
X6617682Y-12461246D01*
X6617682Y-12461246D02*
X6617682Y-12451722D01*
X6617682Y-12451722D02*
X6627206Y-12432674D01*
X6627206Y-12432674D02*
X6646253Y-12423150D01*
X6646253Y-12423150D02*
X6674825Y-12423150D01*
X6674825Y-12423150D02*
X6693872Y-12432674D01*
X6770063Y-12632674D02*
X6779587Y-12623150D01*
X6779587Y-12623150D02*
X6798634Y-12594579D01*
X6798634Y-12594579D02*
X6808158Y-12575531D01*
X6808158Y-12575531D02*
X6817682Y-12546960D01*
X6817682Y-12546960D02*
X6827206Y-12499341D01*
X6827206Y-12499341D02*
X6827206Y-12461246D01*
X6827206Y-12461246D02*
X6817682Y-12413627D01*
X6817682Y-12413627D02*
X6808158Y-12385055D01*
X6808158Y-12385055D02*
X6798634Y-12366008D01*
X6798634Y-12366008D02*
X6779587Y-12337436D01*
X6779587Y-12337436D02*
X6770063Y-12327912D01*
D14*
X1825000Y-12650000D02*
X1995000Y-12820000D01*
X1995000Y-12650000D02*
X1825000Y-12820000D01*
X1910000Y-12650000D02*
X1910000Y-12820000D01*
X1825000Y-12735000D02*
X1995000Y-12735000D01*
D11*
X2360539Y-12826484D02*
X2246253Y-12826484D01*
X2303396Y-12826484D02*
X2303396Y-12626484D01*
X2303396Y-12626484D02*
X2284348Y-12655055D01*
X2284348Y-12655055D02*
X2265301Y-12674103D01*
X2265301Y-12674103D02*
X2246253Y-12683627D01*
X2446253Y-12807436D02*
X2455777Y-12816960D01*
X2455777Y-12816960D02*
X2446253Y-12826484D01*
X2446253Y-12826484D02*
X2436729Y-12816960D01*
X2436729Y-12816960D02*
X2446253Y-12807436D01*
X2446253Y-12807436D02*
X2446253Y-12826484D01*
X2522444Y-12626484D02*
X2655777Y-12626484D01*
X2655777Y-12626484D02*
X2570063Y-12826484D01*
X2770063Y-12626484D02*
X2789110Y-12626484D01*
X2789110Y-12626484D02*
X2808158Y-12636008D01*
X2808158Y-12636008D02*
X2817682Y-12645531D01*
X2817682Y-12645531D02*
X2827205Y-12664579D01*
X2827205Y-12664579D02*
X2836729Y-12702674D01*
X2836729Y-12702674D02*
X2836729Y-12750293D01*
X2836729Y-12750293D02*
X2827205Y-12788388D01*
X2827205Y-12788388D02*
X2817682Y-12807436D01*
X2817682Y-12807436D02*
X2808158Y-12816960D01*
X2808158Y-12816960D02*
X2789110Y-12826484D01*
X2789110Y-12826484D02*
X2770063Y-12826484D01*
X2770063Y-12826484D02*
X2751015Y-12816960D01*
X2751015Y-12816960D02*
X2741491Y-12807436D01*
X2741491Y-12807436D02*
X2731967Y-12788388D01*
X2731967Y-12788388D02*
X2722444Y-12750293D01*
X2722444Y-12750293D02*
X2722444Y-12702674D01*
X2722444Y-12702674D02*
X2731967Y-12664579D01*
X2731967Y-12664579D02*
X2741491Y-12645531D01*
X2741491Y-12645531D02*
X2751015Y-12636008D01*
X2751015Y-12636008D02*
X2770063Y-12626484D01*
X2960539Y-12626484D02*
X2979586Y-12626484D01*
X2979586Y-12626484D02*
X2998634Y-12636008D01*
X2998634Y-12636008D02*
X3008158Y-12645531D01*
X3008158Y-12645531D02*
X3017682Y-12664579D01*
X3017682Y-12664579D02*
X3027205Y-12702674D01*
X3027205Y-12702674D02*
X3027205Y-12750293D01*
X3027205Y-12750293D02*
X3017682Y-12788388D01*
X3017682Y-12788388D02*
X3008158Y-12807436D01*
X3008158Y-12807436D02*
X2998634Y-12816960D01*
X2998634Y-12816960D02*
X2979586Y-12826484D01*
X2979586Y-12826484D02*
X2960539Y-12826484D01*
X2960539Y-12826484D02*
X2941491Y-12816960D01*
X2941491Y-12816960D02*
X2931967Y-12807436D01*
X2931967Y-12807436D02*
X2922443Y-12788388D01*
X2922443Y-12788388D02*
X2912920Y-12750293D01*
X2912920Y-12750293D02*
X2912920Y-12702674D01*
X2912920Y-12702674D02*
X2922443Y-12664579D01*
X2922443Y-12664579D02*
X2931967Y-12645531D01*
X2931967Y-12645531D02*
X2941491Y-12636008D01*
X2941491Y-12636008D02*
X2960539Y-12626484D01*
X3112920Y-12826484D02*
X3112920Y-12693150D01*
X3112920Y-12712198D02*
X3122443Y-12702674D01*
X3122443Y-12702674D02*
X3141491Y-12693150D01*
X3141491Y-12693150D02*
X3170063Y-12693150D01*
X3170063Y-12693150D02*
X3189110Y-12702674D01*
X3189110Y-12702674D02*
X3198634Y-12721722D01*
X3198634Y-12721722D02*
X3198634Y-12826484D01*
X3198634Y-12721722D02*
X3208158Y-12702674D01*
X3208158Y-12702674D02*
X3227205Y-12693150D01*
X3227205Y-12693150D02*
X3255777Y-12693150D01*
X3255777Y-12693150D02*
X3274824Y-12702674D01*
X3274824Y-12702674D02*
X3284348Y-12721722D01*
X3284348Y-12721722D02*
X3284348Y-12826484D01*
X3379586Y-12826484D02*
X3379586Y-12693150D01*
X3379586Y-12712198D02*
X3389110Y-12702674D01*
X3389110Y-12702674D02*
X3408158Y-12693150D01*
X3408158Y-12693150D02*
X3436729Y-12693150D01*
X3436729Y-12693150D02*
X3455777Y-12702674D01*
X3455777Y-12702674D02*
X3465301Y-12721722D01*
X3465301Y-12721722D02*
X3465301Y-12826484D01*
X3465301Y-12721722D02*
X3474824Y-12702674D01*
X3474824Y-12702674D02*
X3493872Y-12693150D01*
X3493872Y-12693150D02*
X3522443Y-12693150D01*
X3522443Y-12693150D02*
X3541491Y-12702674D01*
X3541491Y-12702674D02*
X3551015Y-12721722D01*
X3551015Y-12721722D02*
X3551015Y-12826484D01*
X3941491Y-12616960D02*
X3770063Y-12874103D01*
X4198634Y-12626484D02*
X4217682Y-12626484D01*
X4217682Y-12626484D02*
X4236729Y-12636008D01*
X4236729Y-12636008D02*
X4246253Y-12645531D01*
X4246253Y-12645531D02*
X4255777Y-12664579D01*
X4255777Y-12664579D02*
X4265301Y-12702674D01*
X4265301Y-12702674D02*
X4265301Y-12750293D01*
X4265301Y-12750293D02*
X4255777Y-12788388D01*
X4255777Y-12788388D02*
X4246253Y-12807436D01*
X4246253Y-12807436D02*
X4236729Y-12816960D01*
X4236729Y-12816960D02*
X4217682Y-12826484D01*
X4217682Y-12826484D02*
X4198634Y-12826484D01*
X4198634Y-12826484D02*
X4179586Y-12816960D01*
X4179586Y-12816960D02*
X4170063Y-12807436D01*
X4170063Y-12807436D02*
X4160539Y-12788388D01*
X4160539Y-12788388D02*
X4151015Y-12750293D01*
X4151015Y-12750293D02*
X4151015Y-12702674D01*
X4151015Y-12702674D02*
X4160539Y-12664579D01*
X4160539Y-12664579D02*
X4170063Y-12645531D01*
X4170063Y-12645531D02*
X4179586Y-12636008D01*
X4179586Y-12636008D02*
X4198634Y-12626484D01*
X4351015Y-12807436D02*
X4360539Y-12816960D01*
X4360539Y-12816960D02*
X4351015Y-12826484D01*
X4351015Y-12826484D02*
X4341491Y-12816960D01*
X4341491Y-12816960D02*
X4351015Y-12807436D01*
X4351015Y-12807436D02*
X4351015Y-12826484D01*
X4484348Y-12626484D02*
X4503396Y-12626484D01*
X4503396Y-12626484D02*
X4522444Y-12636008D01*
X4522444Y-12636008D02*
X4531968Y-12645531D01*
X4531968Y-12645531D02*
X4541491Y-12664579D01*
X4541491Y-12664579D02*
X4551015Y-12702674D01*
X4551015Y-12702674D02*
X4551015Y-12750293D01*
X4551015Y-12750293D02*
X4541491Y-12788388D01*
X4541491Y-12788388D02*
X4531968Y-12807436D01*
X4531968Y-12807436D02*
X4522444Y-12816960D01*
X4522444Y-12816960D02*
X4503396Y-12826484D01*
X4503396Y-12826484D02*
X4484348Y-12826484D01*
X4484348Y-12826484D02*
X4465301Y-12816960D01*
X4465301Y-12816960D02*
X4455777Y-12807436D01*
X4455777Y-12807436D02*
X4446253Y-12788388D01*
X4446253Y-12788388D02*
X4436729Y-12750293D01*
X4436729Y-12750293D02*
X4436729Y-12702674D01*
X4436729Y-12702674D02*
X4446253Y-12664579D01*
X4446253Y-12664579D02*
X4455777Y-12645531D01*
X4455777Y-12645531D02*
X4465301Y-12636008D01*
X4465301Y-12636008D02*
X4484348Y-12626484D01*
X4722444Y-12626484D02*
X4684348Y-12626484D01*
X4684348Y-12626484D02*
X4665301Y-12636008D01*
X4665301Y-12636008D02*
X4655777Y-12645531D01*
X4655777Y-12645531D02*
X4636729Y-12674103D01*
X4636729Y-12674103D02*
X4627206Y-12712198D01*
X4627206Y-12712198D02*
X4627206Y-12788388D01*
X4627206Y-12788388D02*
X4636729Y-12807436D01*
X4636729Y-12807436D02*
X4646253Y-12816960D01*
X4646253Y-12816960D02*
X4665301Y-12826484D01*
X4665301Y-12826484D02*
X4703396Y-12826484D01*
X4703396Y-12826484D02*
X4722444Y-12816960D01*
X4722444Y-12816960D02*
X4731968Y-12807436D01*
X4731968Y-12807436D02*
X4741491Y-12788388D01*
X4741491Y-12788388D02*
X4741491Y-12740769D01*
X4741491Y-12740769D02*
X4731968Y-12721722D01*
X4731968Y-12721722D02*
X4722444Y-12712198D01*
X4722444Y-12712198D02*
X4703396Y-12702674D01*
X4703396Y-12702674D02*
X4665301Y-12702674D01*
X4665301Y-12702674D02*
X4646253Y-12712198D01*
X4646253Y-12712198D02*
X4636729Y-12721722D01*
X4636729Y-12721722D02*
X4627206Y-12740769D01*
X4912920Y-12626484D02*
X4874825Y-12626484D01*
X4874825Y-12626484D02*
X4855777Y-12636008D01*
X4855777Y-12636008D02*
X4846253Y-12645531D01*
X4846253Y-12645531D02*
X4827206Y-12674103D01*
X4827206Y-12674103D02*
X4817682Y-12712198D01*
X4817682Y-12712198D02*
X4817682Y-12788388D01*
X4817682Y-12788388D02*
X4827206Y-12807436D01*
X4827206Y-12807436D02*
X4836729Y-12816960D01*
X4836729Y-12816960D02*
X4855777Y-12826484D01*
X4855777Y-12826484D02*
X4893872Y-12826484D01*
X4893872Y-12826484D02*
X4912920Y-12816960D01*
X4912920Y-12816960D02*
X4922444Y-12807436D01*
X4922444Y-12807436D02*
X4931968Y-12788388D01*
X4931968Y-12788388D02*
X4931968Y-12740769D01*
X4931968Y-12740769D02*
X4922444Y-12721722D01*
X4922444Y-12721722D02*
X4912920Y-12712198D01*
X4912920Y-12712198D02*
X4893872Y-12702674D01*
X4893872Y-12702674D02*
X4855777Y-12702674D01*
X4855777Y-12702674D02*
X4836729Y-12712198D01*
X4836729Y-12712198D02*
X4827206Y-12721722D01*
X4827206Y-12721722D02*
X4817682Y-12740769D01*
X5027206Y-12826484D02*
X5065301Y-12826484D01*
X5065301Y-12826484D02*
X5084349Y-12816960D01*
X5084349Y-12816960D02*
X5093872Y-12807436D01*
X5093872Y-12807436D02*
X5112920Y-12778865D01*
X5112920Y-12778865D02*
X5122444Y-12740769D01*
X5122444Y-12740769D02*
X5122444Y-12664579D01*
X5122444Y-12664579D02*
X5112920Y-12645531D01*
X5112920Y-12645531D02*
X5103396Y-12636008D01*
X5103396Y-12636008D02*
X5084349Y-12626484D01*
X5084349Y-12626484D02*
X5046253Y-12626484D01*
X5046253Y-12626484D02*
X5027206Y-12636008D01*
X5027206Y-12636008D02*
X5017682Y-12645531D01*
X5017682Y-12645531D02*
X5008158Y-12664579D01*
X5008158Y-12664579D02*
X5008158Y-12712198D01*
X5008158Y-12712198D02*
X5017682Y-12731246D01*
X5017682Y-12731246D02*
X5027206Y-12740769D01*
X5027206Y-12740769D02*
X5046253Y-12750293D01*
X5046253Y-12750293D02*
X5084349Y-12750293D01*
X5084349Y-12750293D02*
X5103396Y-12740769D01*
X5103396Y-12740769D02*
X5112920Y-12731246D01*
X5112920Y-12731246D02*
X5122444Y-12712198D01*
X5198634Y-12626484D02*
X5198634Y-12664579D01*
X5274825Y-12626484D02*
X5274825Y-12664579D01*
X5570063Y-12902674D02*
X5560539Y-12893150D01*
X5560539Y-12893150D02*
X5541491Y-12864579D01*
X5541491Y-12864579D02*
X5531968Y-12845531D01*
X5531968Y-12845531D02*
X5522444Y-12816960D01*
X5522444Y-12816960D02*
X5512920Y-12769341D01*
X5512920Y-12769341D02*
X5512920Y-12731246D01*
X5512920Y-12731246D02*
X5522444Y-12683627D01*
X5522444Y-12683627D02*
X5531968Y-12655055D01*
X5531968Y-12655055D02*
X5541491Y-12636008D01*
X5541491Y-12636008D02*
X5560539Y-12607436D01*
X5560539Y-12607436D02*
X5570063Y-12597912D01*
X5751015Y-12826484D02*
X5636729Y-12826484D01*
X5693872Y-12826484D02*
X5693872Y-12626484D01*
X5693872Y-12626484D02*
X5674825Y-12655055D01*
X5674825Y-12655055D02*
X5655777Y-12674103D01*
X5655777Y-12674103D02*
X5636729Y-12683627D01*
X5922444Y-12626484D02*
X5884348Y-12626484D01*
X5884348Y-12626484D02*
X5865301Y-12636008D01*
X5865301Y-12636008D02*
X5855777Y-12645531D01*
X5855777Y-12645531D02*
X5836729Y-12674103D01*
X5836729Y-12674103D02*
X5827206Y-12712198D01*
X5827206Y-12712198D02*
X5827206Y-12788388D01*
X5827206Y-12788388D02*
X5836729Y-12807436D01*
X5836729Y-12807436D02*
X5846253Y-12816960D01*
X5846253Y-12816960D02*
X5865301Y-12826484D01*
X5865301Y-12826484D02*
X5903396Y-12826484D01*
X5903396Y-12826484D02*
X5922444Y-12816960D01*
X5922444Y-12816960D02*
X5931968Y-12807436D01*
X5931968Y-12807436D02*
X5941491Y-12788388D01*
X5941491Y-12788388D02*
X5941491Y-12740769D01*
X5941491Y-12740769D02*
X5931968Y-12721722D01*
X5931968Y-12721722D02*
X5922444Y-12712198D01*
X5922444Y-12712198D02*
X5903396Y-12702674D01*
X5903396Y-12702674D02*
X5865301Y-12702674D01*
X5865301Y-12702674D02*
X5846253Y-12712198D01*
X5846253Y-12712198D02*
X5836729Y-12721722D01*
X5836729Y-12721722D02*
X5827206Y-12740769D01*
X6179587Y-12826484D02*
X6179587Y-12626484D01*
X6265301Y-12826484D02*
X6265301Y-12721722D01*
X6265301Y-12721722D02*
X6255777Y-12702674D01*
X6255777Y-12702674D02*
X6236730Y-12693150D01*
X6236730Y-12693150D02*
X6208158Y-12693150D01*
X6208158Y-12693150D02*
X6189110Y-12702674D01*
X6189110Y-12702674D02*
X6179587Y-12712198D01*
X6389110Y-12826484D02*
X6370063Y-12816960D01*
X6370063Y-12816960D02*
X6360539Y-12807436D01*
X6360539Y-12807436D02*
X6351015Y-12788388D01*
X6351015Y-12788388D02*
X6351015Y-12731246D01*
X6351015Y-12731246D02*
X6360539Y-12712198D01*
X6360539Y-12712198D02*
X6370063Y-12702674D01*
X6370063Y-12702674D02*
X6389110Y-12693150D01*
X6389110Y-12693150D02*
X6417682Y-12693150D01*
X6417682Y-12693150D02*
X6436730Y-12702674D01*
X6436730Y-12702674D02*
X6446253Y-12712198D01*
X6446253Y-12712198D02*
X6455777Y-12731246D01*
X6455777Y-12731246D02*
X6455777Y-12788388D01*
X6455777Y-12788388D02*
X6446253Y-12807436D01*
X6446253Y-12807436D02*
X6436730Y-12816960D01*
X6436730Y-12816960D02*
X6417682Y-12826484D01*
X6417682Y-12826484D02*
X6389110Y-12826484D01*
X6570063Y-12826484D02*
X6551015Y-12816960D01*
X6551015Y-12816960D02*
X6541491Y-12797912D01*
X6541491Y-12797912D02*
X6541491Y-12626484D01*
X6722444Y-12816960D02*
X6703396Y-12826484D01*
X6703396Y-12826484D02*
X6665301Y-12826484D01*
X6665301Y-12826484D02*
X6646253Y-12816960D01*
X6646253Y-12816960D02*
X6636730Y-12797912D01*
X6636730Y-12797912D02*
X6636730Y-12721722D01*
X6636730Y-12721722D02*
X6646253Y-12702674D01*
X6646253Y-12702674D02*
X6665301Y-12693150D01*
X6665301Y-12693150D02*
X6703396Y-12693150D01*
X6703396Y-12693150D02*
X6722444Y-12702674D01*
X6722444Y-12702674D02*
X6731968Y-12721722D01*
X6731968Y-12721722D02*
X6731968Y-12740769D01*
X6731968Y-12740769D02*
X6636730Y-12759817D01*
X6808158Y-12816960D02*
X6827206Y-12826484D01*
X6827206Y-12826484D02*
X6865301Y-12826484D01*
X6865301Y-12826484D02*
X6884349Y-12816960D01*
X6884349Y-12816960D02*
X6893872Y-12797912D01*
X6893872Y-12797912D02*
X6893872Y-12788388D01*
X6893872Y-12788388D02*
X6884349Y-12769341D01*
X6884349Y-12769341D02*
X6865301Y-12759817D01*
X6865301Y-12759817D02*
X6836730Y-12759817D01*
X6836730Y-12759817D02*
X6817682Y-12750293D01*
X6817682Y-12750293D02*
X6808158Y-12731246D01*
X6808158Y-12731246D02*
X6808158Y-12721722D01*
X6808158Y-12721722D02*
X6817682Y-12702674D01*
X6817682Y-12702674D02*
X6836730Y-12693150D01*
X6836730Y-12693150D02*
X6865301Y-12693150D01*
X6865301Y-12693150D02*
X6884349Y-12702674D01*
X6960539Y-12902674D02*
X6970063Y-12893150D01*
X6970063Y-12893150D02*
X6989111Y-12864579D01*
X6989111Y-12864579D02*
X6998634Y-12845531D01*
X6998634Y-12845531D02*
X7008158Y-12816960D01*
X7008158Y-12816960D02*
X7017682Y-12769341D01*
X7017682Y-12769341D02*
X7017682Y-12731246D01*
X7017682Y-12731246D02*
X7008158Y-12683627D01*
X7008158Y-12683627D02*
X6998634Y-12655055D01*
X6998634Y-12655055D02*
X6989111Y-12636008D01*
X6989111Y-12636008D02*
X6970063Y-12607436D01*
X6970063Y-12607436D02*
X6960539Y-12597912D01*
X1795000Y-12925000D02*
X1995000Y-13125000D01*
X1995000Y-12925000D02*
X1795000Y-13125000D01*
X1965711Y-13095711D02*
X1965711Y-12954289D01*
X1824289Y-12954289D01*
X1824289Y-13095711D01*
X1965711Y-13095711D01*
X2236729Y-12916484D02*
X2360539Y-12916484D01*
X2360539Y-12916484D02*
X2293872Y-12992674D01*
X2293872Y-12992674D02*
X2322444Y-12992674D01*
X2322444Y-12992674D02*
X2341491Y-13002198D01*
X2341491Y-13002198D02*
X2351015Y-13011722D01*
X2351015Y-13011722D02*
X2360539Y-13030769D01*
X2360539Y-13030769D02*
X2360539Y-13078388D01*
X2360539Y-13078388D02*
X2351015Y-13097436D01*
X2351015Y-13097436D02*
X2341491Y-13106960D01*
X2341491Y-13106960D02*
X2322444Y-13116484D01*
X2322444Y-13116484D02*
X2265301Y-13116484D01*
X2265301Y-13116484D02*
X2246253Y-13106960D01*
X2246253Y-13106960D02*
X2236729Y-13097436D01*
X2446253Y-13097436D02*
X2455777Y-13106960D01*
X2455777Y-13106960D02*
X2446253Y-13116484D01*
X2446253Y-13116484D02*
X2436729Y-13106960D01*
X2436729Y-13106960D02*
X2446253Y-13097436D01*
X2446253Y-13097436D02*
X2446253Y-13116484D01*
X2531967Y-12935531D02*
X2541491Y-12926008D01*
X2541491Y-12926008D02*
X2560539Y-12916484D01*
X2560539Y-12916484D02*
X2608158Y-12916484D01*
X2608158Y-12916484D02*
X2627205Y-12926008D01*
X2627205Y-12926008D02*
X2636729Y-12935531D01*
X2636729Y-12935531D02*
X2646253Y-12954579D01*
X2646253Y-12954579D02*
X2646253Y-12973627D01*
X2646253Y-12973627D02*
X2636729Y-13002198D01*
X2636729Y-13002198D02*
X2522444Y-13116484D01*
X2522444Y-13116484D02*
X2646253Y-13116484D01*
X2770063Y-12916484D02*
X2789110Y-12916484D01*
X2789110Y-12916484D02*
X2808158Y-12926008D01*
X2808158Y-12926008D02*
X2817682Y-12935531D01*
X2817682Y-12935531D02*
X2827205Y-12954579D01*
X2827205Y-12954579D02*
X2836729Y-12992674D01*
X2836729Y-12992674D02*
X2836729Y-13040293D01*
X2836729Y-13040293D02*
X2827205Y-13078388D01*
X2827205Y-13078388D02*
X2817682Y-13097436D01*
X2817682Y-13097436D02*
X2808158Y-13106960D01*
X2808158Y-13106960D02*
X2789110Y-13116484D01*
X2789110Y-13116484D02*
X2770063Y-13116484D01*
X2770063Y-13116484D02*
X2751015Y-13106960D01*
X2751015Y-13106960D02*
X2741491Y-13097436D01*
X2741491Y-13097436D02*
X2731967Y-13078388D01*
X2731967Y-13078388D02*
X2722444Y-13040293D01*
X2722444Y-13040293D02*
X2722444Y-12992674D01*
X2722444Y-12992674D02*
X2731967Y-12954579D01*
X2731967Y-12954579D02*
X2741491Y-12935531D01*
X2741491Y-12935531D02*
X2751015Y-12926008D01*
X2751015Y-12926008D02*
X2770063Y-12916484D01*
X2960539Y-12916484D02*
X2979586Y-12916484D01*
X2979586Y-12916484D02*
X2998634Y-12926008D01*
X2998634Y-12926008D02*
X3008158Y-12935531D01*
X3008158Y-12935531D02*
X3017682Y-12954579D01*
X3017682Y-12954579D02*
X3027205Y-12992674D01*
X3027205Y-12992674D02*
X3027205Y-13040293D01*
X3027205Y-13040293D02*
X3017682Y-13078388D01*
X3017682Y-13078388D02*
X3008158Y-13097436D01*
X3008158Y-13097436D02*
X2998634Y-13106960D01*
X2998634Y-13106960D02*
X2979586Y-13116484D01*
X2979586Y-13116484D02*
X2960539Y-13116484D01*
X2960539Y-13116484D02*
X2941491Y-13106960D01*
X2941491Y-13106960D02*
X2931967Y-13097436D01*
X2931967Y-13097436D02*
X2922443Y-13078388D01*
X2922443Y-13078388D02*
X2912920Y-13040293D01*
X2912920Y-13040293D02*
X2912920Y-12992674D01*
X2912920Y-12992674D02*
X2922443Y-12954579D01*
X2922443Y-12954579D02*
X2931967Y-12935531D01*
X2931967Y-12935531D02*
X2941491Y-12926008D01*
X2941491Y-12926008D02*
X2960539Y-12916484D01*
X3112920Y-13116484D02*
X3112920Y-12983150D01*
X3112920Y-13002198D02*
X3122443Y-12992674D01*
X3122443Y-12992674D02*
X3141491Y-12983150D01*
X3141491Y-12983150D02*
X3170063Y-12983150D01*
X3170063Y-12983150D02*
X3189110Y-12992674D01*
X3189110Y-12992674D02*
X3198634Y-13011722D01*
X3198634Y-13011722D02*
X3198634Y-13116484D01*
X3198634Y-13011722D02*
X3208158Y-12992674D01*
X3208158Y-12992674D02*
X3227205Y-12983150D01*
X3227205Y-12983150D02*
X3255777Y-12983150D01*
X3255777Y-12983150D02*
X3274824Y-12992674D01*
X3274824Y-12992674D02*
X3284348Y-13011722D01*
X3284348Y-13011722D02*
X3284348Y-13116484D01*
X3379586Y-13116484D02*
X3379586Y-12983150D01*
X3379586Y-13002198D02*
X3389110Y-12992674D01*
X3389110Y-12992674D02*
X3408158Y-12983150D01*
X3408158Y-12983150D02*
X3436729Y-12983150D01*
X3436729Y-12983150D02*
X3455777Y-12992674D01*
X3455777Y-12992674D02*
X3465301Y-13011722D01*
X3465301Y-13011722D02*
X3465301Y-13116484D01*
X3465301Y-13011722D02*
X3474824Y-12992674D01*
X3474824Y-12992674D02*
X3493872Y-12983150D01*
X3493872Y-12983150D02*
X3522443Y-12983150D01*
X3522443Y-12983150D02*
X3541491Y-12992674D01*
X3541491Y-12992674D02*
X3551015Y-13011722D01*
X3551015Y-13011722D02*
X3551015Y-13116484D01*
X3941491Y-12906960D02*
X3770063Y-13164103D01*
X4198634Y-12916484D02*
X4217682Y-12916484D01*
X4217682Y-12916484D02*
X4236729Y-12926008D01*
X4236729Y-12926008D02*
X4246253Y-12935531D01*
X4246253Y-12935531D02*
X4255777Y-12954579D01*
X4255777Y-12954579D02*
X4265301Y-12992674D01*
X4265301Y-12992674D02*
X4265301Y-13040293D01*
X4265301Y-13040293D02*
X4255777Y-13078388D01*
X4255777Y-13078388D02*
X4246253Y-13097436D01*
X4246253Y-13097436D02*
X4236729Y-13106960D01*
X4236729Y-13106960D02*
X4217682Y-13116484D01*
X4217682Y-13116484D02*
X4198634Y-13116484D01*
X4198634Y-13116484D02*
X4179586Y-13106960D01*
X4179586Y-13106960D02*
X4170063Y-13097436D01*
X4170063Y-13097436D02*
X4160539Y-13078388D01*
X4160539Y-13078388D02*
X4151015Y-13040293D01*
X4151015Y-13040293D02*
X4151015Y-12992674D01*
X4151015Y-12992674D02*
X4160539Y-12954579D01*
X4160539Y-12954579D02*
X4170063Y-12935531D01*
X4170063Y-12935531D02*
X4179586Y-12926008D01*
X4179586Y-12926008D02*
X4198634Y-12916484D01*
X4351015Y-13097436D02*
X4360539Y-13106960D01*
X4360539Y-13106960D02*
X4351015Y-13116484D01*
X4351015Y-13116484D02*
X4341491Y-13106960D01*
X4341491Y-13106960D02*
X4351015Y-13097436D01*
X4351015Y-13097436D02*
X4351015Y-13116484D01*
X4551015Y-13116484D02*
X4436729Y-13116484D01*
X4493872Y-13116484D02*
X4493872Y-12916484D01*
X4493872Y-12916484D02*
X4474825Y-12945055D01*
X4474825Y-12945055D02*
X4455777Y-12964103D01*
X4455777Y-12964103D02*
X4436729Y-12973627D01*
X4627206Y-12935531D02*
X4636729Y-12926008D01*
X4636729Y-12926008D02*
X4655777Y-12916484D01*
X4655777Y-12916484D02*
X4703396Y-12916484D01*
X4703396Y-12916484D02*
X4722444Y-12926008D01*
X4722444Y-12926008D02*
X4731968Y-12935531D01*
X4731968Y-12935531D02*
X4741491Y-12954579D01*
X4741491Y-12954579D02*
X4741491Y-12973627D01*
X4741491Y-12973627D02*
X4731968Y-13002198D01*
X4731968Y-13002198D02*
X4617682Y-13116484D01*
X4617682Y-13116484D02*
X4741491Y-13116484D01*
X4912920Y-12916484D02*
X4874825Y-12916484D01*
X4874825Y-12916484D02*
X4855777Y-12926008D01*
X4855777Y-12926008D02*
X4846253Y-12935531D01*
X4846253Y-12935531D02*
X4827206Y-12964103D01*
X4827206Y-12964103D02*
X4817682Y-13002198D01*
X4817682Y-13002198D02*
X4817682Y-13078388D01*
X4817682Y-13078388D02*
X4827206Y-13097436D01*
X4827206Y-13097436D02*
X4836729Y-13106960D01*
X4836729Y-13106960D02*
X4855777Y-13116484D01*
X4855777Y-13116484D02*
X4893872Y-13116484D01*
X4893872Y-13116484D02*
X4912920Y-13106960D01*
X4912920Y-13106960D02*
X4922444Y-13097436D01*
X4922444Y-13097436D02*
X4931968Y-13078388D01*
X4931968Y-13078388D02*
X4931968Y-13030769D01*
X4931968Y-13030769D02*
X4922444Y-13011722D01*
X4922444Y-13011722D02*
X4912920Y-13002198D01*
X4912920Y-13002198D02*
X4893872Y-12992674D01*
X4893872Y-12992674D02*
X4855777Y-12992674D01*
X4855777Y-12992674D02*
X4836729Y-13002198D01*
X4836729Y-13002198D02*
X4827206Y-13011722D01*
X4827206Y-13011722D02*
X4817682Y-13030769D01*
X5055777Y-12916484D02*
X5074825Y-12916484D01*
X5074825Y-12916484D02*
X5093872Y-12926008D01*
X5093872Y-12926008D02*
X5103396Y-12935531D01*
X5103396Y-12935531D02*
X5112920Y-12954579D01*
X5112920Y-12954579D02*
X5122444Y-12992674D01*
X5122444Y-12992674D02*
X5122444Y-13040293D01*
X5122444Y-13040293D02*
X5112920Y-13078388D01*
X5112920Y-13078388D02*
X5103396Y-13097436D01*
X5103396Y-13097436D02*
X5093872Y-13106960D01*
X5093872Y-13106960D02*
X5074825Y-13116484D01*
X5074825Y-13116484D02*
X5055777Y-13116484D01*
X5055777Y-13116484D02*
X5036729Y-13106960D01*
X5036729Y-13106960D02*
X5027206Y-13097436D01*
X5027206Y-13097436D02*
X5017682Y-13078388D01*
X5017682Y-13078388D02*
X5008158Y-13040293D01*
X5008158Y-13040293D02*
X5008158Y-12992674D01*
X5008158Y-12992674D02*
X5017682Y-12954579D01*
X5017682Y-12954579D02*
X5027206Y-12935531D01*
X5027206Y-12935531D02*
X5036729Y-12926008D01*
X5036729Y-12926008D02*
X5055777Y-12916484D01*
X5198634Y-12916484D02*
X5198634Y-12954579D01*
X5274825Y-12916484D02*
X5274825Y-12954579D01*
X5570063Y-13192674D02*
X5560539Y-13183150D01*
X5560539Y-13183150D02*
X5541491Y-13154579D01*
X5541491Y-13154579D02*
X5531968Y-13135531D01*
X5531968Y-13135531D02*
X5522444Y-13106960D01*
X5522444Y-13106960D02*
X5512920Y-13059341D01*
X5512920Y-13059341D02*
X5512920Y-13021246D01*
X5512920Y-13021246D02*
X5522444Y-12973627D01*
X5522444Y-12973627D02*
X5531968Y-12945055D01*
X5531968Y-12945055D02*
X5541491Y-12926008D01*
X5541491Y-12926008D02*
X5560539Y-12897436D01*
X5560539Y-12897436D02*
X5570063Y-12887912D01*
X5731968Y-12983150D02*
X5731968Y-13116484D01*
X5684348Y-12906960D02*
X5636729Y-13049817D01*
X5636729Y-13049817D02*
X5760539Y-13049817D01*
X5989110Y-13116484D02*
X5989110Y-12916484D01*
X6074825Y-13116484D02*
X6074825Y-13011722D01*
X6074825Y-13011722D02*
X6065301Y-12992674D01*
X6065301Y-12992674D02*
X6046253Y-12983150D01*
X6046253Y-12983150D02*
X6017682Y-12983150D01*
X6017682Y-12983150D02*
X5998634Y-12992674D01*
X5998634Y-12992674D02*
X5989110Y-13002198D01*
X6198634Y-13116484D02*
X6179587Y-13106960D01*
X6179587Y-13106960D02*
X6170063Y-13097436D01*
X6170063Y-13097436D02*
X6160539Y-13078388D01*
X6160539Y-13078388D02*
X6160539Y-13021246D01*
X6160539Y-13021246D02*
X6170063Y-13002198D01*
X6170063Y-13002198D02*
X6179587Y-12992674D01*
X6179587Y-12992674D02*
X6198634Y-12983150D01*
X6198634Y-12983150D02*
X6227206Y-12983150D01*
X6227206Y-12983150D02*
X6246253Y-12992674D01*
X6246253Y-12992674D02*
X6255777Y-13002198D01*
X6255777Y-13002198D02*
X6265301Y-13021246D01*
X6265301Y-13021246D02*
X6265301Y-13078388D01*
X6265301Y-13078388D02*
X6255777Y-13097436D01*
X6255777Y-13097436D02*
X6246253Y-13106960D01*
X6246253Y-13106960D02*
X6227206Y-13116484D01*
X6227206Y-13116484D02*
X6198634Y-13116484D01*
X6379587Y-13116484D02*
X6360539Y-13106960D01*
X6360539Y-13106960D02*
X6351015Y-13087912D01*
X6351015Y-13087912D02*
X6351015Y-12916484D01*
X6531968Y-13106960D02*
X6512920Y-13116484D01*
X6512920Y-13116484D02*
X6474825Y-13116484D01*
X6474825Y-13116484D02*
X6455777Y-13106960D01*
X6455777Y-13106960D02*
X6446253Y-13087912D01*
X6446253Y-13087912D02*
X6446253Y-13011722D01*
X6446253Y-13011722D02*
X6455777Y-12992674D01*
X6455777Y-12992674D02*
X6474825Y-12983150D01*
X6474825Y-12983150D02*
X6512920Y-12983150D01*
X6512920Y-12983150D02*
X6531968Y-12992674D01*
X6531968Y-12992674D02*
X6541491Y-13011722D01*
X6541491Y-13011722D02*
X6541491Y-13030769D01*
X6541491Y-13030769D02*
X6446253Y-13049817D01*
X6617682Y-13106960D02*
X6636730Y-13116484D01*
X6636730Y-13116484D02*
X6674825Y-13116484D01*
X6674825Y-13116484D02*
X6693872Y-13106960D01*
X6693872Y-13106960D02*
X6703396Y-13087912D01*
X6703396Y-13087912D02*
X6703396Y-13078388D01*
X6703396Y-13078388D02*
X6693872Y-13059341D01*
X6693872Y-13059341D02*
X6674825Y-13049817D01*
X6674825Y-13049817D02*
X6646253Y-13049817D01*
X6646253Y-13049817D02*
X6627206Y-13040293D01*
X6627206Y-13040293D02*
X6617682Y-13021246D01*
X6617682Y-13021246D02*
X6617682Y-13011722D01*
X6617682Y-13011722D02*
X6627206Y-12992674D01*
X6627206Y-12992674D02*
X6646253Y-12983150D01*
X6646253Y-12983150D02*
X6674825Y-12983150D01*
X6674825Y-12983150D02*
X6693872Y-12992674D01*
X6770063Y-13192674D02*
X6779587Y-13183150D01*
X6779587Y-13183150D02*
X6798634Y-13154579D01*
X6798634Y-13154579D02*
X6808158Y-13135531D01*
X6808158Y-13135531D02*
X6817682Y-13106960D01*
X6817682Y-13106960D02*
X6827206Y-13059341D01*
X6827206Y-13059341D02*
X6827206Y-13021246D01*
X6827206Y-13021246D02*
X6817682Y-12973627D01*
X6817682Y-12973627D02*
X6808158Y-12945055D01*
X6808158Y-12945055D02*
X6798634Y-12926008D01*
X6798634Y-12926008D02*
X6779587Y-12897436D01*
X6779587Y-12897436D02*
X6770063Y-12887912D01*
M02*
