G04 #@! TF.GenerationSoftware,KiCad,Pcbnew,7.0.11*
G04 #@! TF.CreationDate,2024-03-19T21:31:16+01:00*
G04 #@! TF.ProjectId,GPSDO,47505344-4f2e-46b6-9963-61645f706362,rev?*
G04 #@! TF.SameCoordinates,Original*
G04 #@! TF.FileFunction,Legend,Top*
G04 #@! TF.FilePolarity,Positive*
%FSLAX46Y46*%
G04 Gerber Fmt 4.6, Leading zero omitted, Abs format (unit mm)*
G04 Created by KiCad (PCBNEW 7.0.11) date 2024-03-19 21:31:16*
%MOMM*%
%LPD*%
G01*
G04 APERTURE LIST*
G04 Aperture macros list*
%AMRoundRect*
0 Rectangle with rounded corners*
0 $1 Rounding radius*
0 $2 $3 $4 $5 $6 $7 $8 $9 X,Y pos of 4 corners*
0 Add a 4 corners polygon primitive as box body*
4,1,4,$2,$3,$4,$5,$6,$7,$8,$9,$2,$3,0*
0 Add four circle primitives for the rounded corners*
1,1,$1+$1,$2,$3*
1,1,$1+$1,$4,$5*
1,1,$1+$1,$6,$7*
1,1,$1+$1,$8,$9*
0 Add four rect primitives between the rounded corners*
20,1,$1+$1,$2,$3,$4,$5,0*
20,1,$1+$1,$4,$5,$6,$7,0*
20,1,$1+$1,$6,$7,$8,$9,0*
20,1,$1+$1,$8,$9,$2,$3,0*%
G04 Aperture macros list end*
%ADD10C,0.300000*%
%ADD11C,0.150000*%
%ADD12C,0.120000*%
%ADD13C,0.100000*%
%ADD14RoundRect,0.250000X0.550000X-1.075000X0.550000X1.075000X-0.550000X1.075000X-0.550000X-1.075000X0*%
%ADD15RoundRect,0.250000X1.000000X-1.500000X1.000000X1.500000X-1.000000X1.500000X-1.000000X-1.500000X0*%
%ADD16R,0.400000X1.100000*%
%ADD17RoundRect,0.250000X0.350000X0.450000X-0.350000X0.450000X-0.350000X-0.450000X0.350000X-0.450000X0*%
%ADD18RoundRect,0.150000X-0.150000X0.512500X-0.150000X-0.512500X0.150000X-0.512500X0.150000X0.512500X0*%
%ADD19R,2.000000X2.000000*%
%ADD20RoundRect,0.243750X-0.243750X-0.456250X0.243750X-0.456250X0.243750X0.456250X-0.243750X0.456250X0*%
%ADD21RoundRect,0.162500X-0.617500X-0.162500X0.617500X-0.162500X0.617500X0.162500X-0.617500X0.162500X0*%
%ADD22R,0.510000X0.700000*%
%ADD23RoundRect,0.250000X1.500000X1.000000X-1.500000X1.000000X-1.500000X-1.000000X1.500000X-1.000000X0*%
%ADD24RoundRect,0.200100X-0.949900X-0.949900X0.949900X-0.949900X0.949900X0.949900X-0.949900X0.949900X0*%
%ADD25C,2.500000*%
%ADD26RoundRect,0.250000X-0.350000X-0.450000X0.350000X-0.450000X0.350000X0.450000X-0.350000X0.450000X0*%
%ADD27RoundRect,0.062500X-0.062500X0.287500X-0.062500X-0.287500X0.062500X-0.287500X0.062500X0.287500X0*%
%ADD28R,1.300000X0.900000*%
%ADD29RoundRect,0.375000X0.375000X-0.625000X0.375000X0.625000X-0.375000X0.625000X-0.375000X-0.625000X0*%
%ADD30RoundRect,0.500000X1.400000X-0.500000X1.400000X0.500000X-1.400000X0.500000X-1.400000X-0.500000X0*%
%ADD31RoundRect,0.250000X0.475000X-0.337500X0.475000X0.337500X-0.475000X0.337500X-0.475000X-0.337500X0*%
%ADD32R,3.500000X3.500000*%
%ADD33C,4.000000*%
%ADD34R,1.600000X1.600000*%
%ADD35C,1.600000*%
%ADD36RoundRect,0.250000X-1.412500X-0.550000X1.412500X-0.550000X1.412500X0.550000X-1.412500X0.550000X0*%
%ADD37RoundRect,0.250000X-0.450000X0.350000X-0.450000X-0.350000X0.450000X-0.350000X0.450000X0.350000X0*%
%ADD38R,1.700000X1.700000*%
%ADD39O,1.700000X1.700000*%
%ADD40RoundRect,0.250000X-0.337500X-0.475000X0.337500X-0.475000X0.337500X0.475000X-0.337500X0.475000X0*%
%ADD41RoundRect,0.250000X0.550000X-1.412500X0.550000X1.412500X-0.550000X1.412500X-0.550000X-1.412500X0*%
%ADD42C,0.800000*%
%ADD43C,6.400000*%
%ADD44R,4.600000X2.000000*%
%ADD45O,4.200000X2.000000*%
%ADD46O,2.000000X4.200000*%
%ADD47RoundRect,0.243750X0.243750X0.456250X-0.243750X0.456250X-0.243750X-0.456250X0.243750X-0.456250X0*%
%ADD48RoundRect,0.375000X0.625000X0.375000X-0.625000X0.375000X-0.625000X-0.375000X0.625000X-0.375000X0*%
%ADD49RoundRect,0.500000X0.500000X1.400000X-0.500000X1.400000X-0.500000X-1.400000X0.500000X-1.400000X0*%
%ADD50RoundRect,0.250000X-1.000000X1.500000X-1.000000X-1.500000X1.000000X-1.500000X1.000000X1.500000X0*%
%ADD51RoundRect,0.250000X0.337500X0.475000X-0.337500X0.475000X-0.337500X-0.475000X0.337500X-0.475000X0*%
%ADD52RoundRect,0.100000X0.225000X0.100000X-0.225000X0.100000X-0.225000X-0.100000X0.225000X-0.100000X0*%
%ADD53R,0.700000X0.510000*%
%ADD54R,1.300000X1.550000*%
%ADD55RoundRect,0.250000X-0.475000X0.337500X-0.475000X-0.337500X0.475000X-0.337500X0.475000X0.337500X0*%
%ADD56RoundRect,0.100000X0.100000X-0.225000X0.100000X0.225000X-0.100000X0.225000X-0.100000X-0.225000X0*%
%ADD57R,1.000000X1.000000*%
%ADD58R,1.050000X2.200000*%
%ADD59RoundRect,0.150000X0.150000X-0.875000X0.150000X0.875000X-0.150000X0.875000X-0.150000X-0.875000X0*%
%ADD60RoundRect,0.150000X-0.825000X-0.150000X0.825000X-0.150000X0.825000X0.150000X-0.825000X0.150000X0*%
%ADD61RoundRect,0.150000X-0.150000X0.825000X-0.150000X-0.825000X0.150000X-0.825000X0.150000X0.825000X0*%
G04 APERTURE END LIST*
D10*
X83594857Y-58756114D02*
X83094857Y-58756114D01*
X83094857Y-59541828D02*
X83094857Y-58041828D01*
X83094857Y-58041828D02*
X83809143Y-58041828D01*
X84380571Y-59541828D02*
X84380571Y-58541828D01*
X84380571Y-58041828D02*
X84309143Y-58113257D01*
X84309143Y-58113257D02*
X84380571Y-58184685D01*
X84380571Y-58184685D02*
X84452000Y-58113257D01*
X84452000Y-58113257D02*
X84380571Y-58041828D01*
X84380571Y-58041828D02*
X84380571Y-58184685D01*
X85309143Y-59541828D02*
X85166286Y-59470400D01*
X85166286Y-59470400D02*
X85094857Y-59327542D01*
X85094857Y-59327542D02*
X85094857Y-58041828D01*
X86094857Y-59541828D02*
X85952000Y-59470400D01*
X85952000Y-59470400D02*
X85880571Y-59327542D01*
X85880571Y-59327542D02*
X85880571Y-58041828D01*
X87666285Y-58541828D02*
X87952000Y-59541828D01*
X87952000Y-59541828D02*
X88237714Y-58827542D01*
X88237714Y-58827542D02*
X88523428Y-59541828D01*
X88523428Y-59541828D02*
X88809142Y-58541828D01*
X89380571Y-59541828D02*
X89380571Y-58541828D01*
X89380571Y-58041828D02*
X89309143Y-58113257D01*
X89309143Y-58113257D02*
X89380571Y-58184685D01*
X89380571Y-58184685D02*
X89452000Y-58113257D01*
X89452000Y-58113257D02*
X89380571Y-58041828D01*
X89380571Y-58041828D02*
X89380571Y-58184685D01*
X89880572Y-58541828D02*
X90452000Y-58541828D01*
X90094857Y-58041828D02*
X90094857Y-59327542D01*
X90094857Y-59327542D02*
X90166286Y-59470400D01*
X90166286Y-59470400D02*
X90309143Y-59541828D01*
X90309143Y-59541828D02*
X90452000Y-59541828D01*
X90952000Y-59541828D02*
X90952000Y-58041828D01*
X91594858Y-59541828D02*
X91594858Y-58756114D01*
X91594858Y-58756114D02*
X91523429Y-58613257D01*
X91523429Y-58613257D02*
X91380572Y-58541828D01*
X91380572Y-58541828D02*
X91166286Y-58541828D01*
X91166286Y-58541828D02*
X91023429Y-58613257D01*
X91023429Y-58613257D02*
X90952000Y-58684685D01*
X93237715Y-58541828D02*
X93809143Y-58541828D01*
X93452000Y-58041828D02*
X93452000Y-59327542D01*
X93452000Y-59327542D02*
X93523429Y-59470400D01*
X93523429Y-59470400D02*
X93666286Y-59541828D01*
X93666286Y-59541828D02*
X93809143Y-59541828D01*
X94309143Y-59541828D02*
X94309143Y-58041828D01*
X94952001Y-59541828D02*
X94952001Y-58756114D01*
X94952001Y-58756114D02*
X94880572Y-58613257D01*
X94880572Y-58613257D02*
X94737715Y-58541828D01*
X94737715Y-58541828D02*
X94523429Y-58541828D01*
X94523429Y-58541828D02*
X94380572Y-58613257D01*
X94380572Y-58613257D02*
X94309143Y-58684685D01*
X96237715Y-59470400D02*
X96094858Y-59541828D01*
X96094858Y-59541828D02*
X95809144Y-59541828D01*
X95809144Y-59541828D02*
X95666286Y-59470400D01*
X95666286Y-59470400D02*
X95594858Y-59327542D01*
X95594858Y-59327542D02*
X95594858Y-58756114D01*
X95594858Y-58756114D02*
X95666286Y-58613257D01*
X95666286Y-58613257D02*
X95809144Y-58541828D01*
X95809144Y-58541828D02*
X96094858Y-58541828D01*
X96094858Y-58541828D02*
X96237715Y-58613257D01*
X96237715Y-58613257D02*
X96309144Y-58756114D01*
X96309144Y-58756114D02*
X96309144Y-58898971D01*
X96309144Y-58898971D02*
X95594858Y-59041828D01*
X96952000Y-59541828D02*
X96952000Y-58541828D01*
X96952000Y-58827542D02*
X97023429Y-58684685D01*
X97023429Y-58684685D02*
X97094858Y-58613257D01*
X97094858Y-58613257D02*
X97237715Y-58541828D01*
X97237715Y-58541828D02*
X97380572Y-58541828D01*
X97880571Y-59541828D02*
X97880571Y-58541828D01*
X97880571Y-58684685D02*
X97952000Y-58613257D01*
X97952000Y-58613257D02*
X98094857Y-58541828D01*
X98094857Y-58541828D02*
X98309143Y-58541828D01*
X98309143Y-58541828D02*
X98452000Y-58613257D01*
X98452000Y-58613257D02*
X98523429Y-58756114D01*
X98523429Y-58756114D02*
X98523429Y-59541828D01*
X98523429Y-58756114D02*
X98594857Y-58613257D01*
X98594857Y-58613257D02*
X98737714Y-58541828D01*
X98737714Y-58541828D02*
X98952000Y-58541828D01*
X98952000Y-58541828D02*
X99094857Y-58613257D01*
X99094857Y-58613257D02*
X99166286Y-58756114D01*
X99166286Y-58756114D02*
X99166286Y-59541828D01*
X100523429Y-59541828D02*
X100523429Y-58756114D01*
X100523429Y-58756114D02*
X100452000Y-58613257D01*
X100452000Y-58613257D02*
X100309143Y-58541828D01*
X100309143Y-58541828D02*
X100023429Y-58541828D01*
X100023429Y-58541828D02*
X99880571Y-58613257D01*
X100523429Y-59470400D02*
X100380571Y-59541828D01*
X100380571Y-59541828D02*
X100023429Y-59541828D01*
X100023429Y-59541828D02*
X99880571Y-59470400D01*
X99880571Y-59470400D02*
X99809143Y-59327542D01*
X99809143Y-59327542D02*
X99809143Y-59184685D01*
X99809143Y-59184685D02*
X99880571Y-59041828D01*
X99880571Y-59041828D02*
X100023429Y-58970400D01*
X100023429Y-58970400D02*
X100380571Y-58970400D01*
X100380571Y-58970400D02*
X100523429Y-58898971D01*
X101452000Y-59541828D02*
X101309143Y-59470400D01*
X101309143Y-59470400D02*
X101237714Y-59327542D01*
X101237714Y-59327542D02*
X101237714Y-58041828D01*
X83916284Y-61956828D02*
X83916284Y-60956828D01*
X83916284Y-60456828D02*
X83844856Y-60528257D01*
X83844856Y-60528257D02*
X83916284Y-60599685D01*
X83916284Y-60599685D02*
X83987713Y-60528257D01*
X83987713Y-60528257D02*
X83916284Y-60456828D01*
X83916284Y-60456828D02*
X83916284Y-60599685D01*
X84630570Y-60956828D02*
X84630570Y-61956828D01*
X84630570Y-61099685D02*
X84701999Y-61028257D01*
X84701999Y-61028257D02*
X84844856Y-60956828D01*
X84844856Y-60956828D02*
X85059142Y-60956828D01*
X85059142Y-60956828D02*
X85201999Y-61028257D01*
X85201999Y-61028257D02*
X85273428Y-61171114D01*
X85273428Y-61171114D02*
X85273428Y-61956828D01*
X85916285Y-61885400D02*
X86059142Y-61956828D01*
X86059142Y-61956828D02*
X86344856Y-61956828D01*
X86344856Y-61956828D02*
X86487713Y-61885400D01*
X86487713Y-61885400D02*
X86559142Y-61742542D01*
X86559142Y-61742542D02*
X86559142Y-61671114D01*
X86559142Y-61671114D02*
X86487713Y-61528257D01*
X86487713Y-61528257D02*
X86344856Y-61456828D01*
X86344856Y-61456828D02*
X86130571Y-61456828D01*
X86130571Y-61456828D02*
X85987713Y-61385400D01*
X85987713Y-61385400D02*
X85916285Y-61242542D01*
X85916285Y-61242542D02*
X85916285Y-61171114D01*
X85916285Y-61171114D02*
X85987713Y-61028257D01*
X85987713Y-61028257D02*
X86130571Y-60956828D01*
X86130571Y-60956828D02*
X86344856Y-60956828D01*
X86344856Y-60956828D02*
X86487713Y-61028257D01*
X87844857Y-60956828D02*
X87844857Y-61956828D01*
X87201999Y-60956828D02*
X87201999Y-61742542D01*
X87201999Y-61742542D02*
X87273428Y-61885400D01*
X87273428Y-61885400D02*
X87416285Y-61956828D01*
X87416285Y-61956828D02*
X87630571Y-61956828D01*
X87630571Y-61956828D02*
X87773428Y-61885400D01*
X87773428Y-61885400D02*
X87844857Y-61813971D01*
X88773428Y-61956828D02*
X88630571Y-61885400D01*
X88630571Y-61885400D02*
X88559142Y-61742542D01*
X88559142Y-61742542D02*
X88559142Y-60456828D01*
X89987714Y-61956828D02*
X89987714Y-61171114D01*
X89987714Y-61171114D02*
X89916285Y-61028257D01*
X89916285Y-61028257D02*
X89773428Y-60956828D01*
X89773428Y-60956828D02*
X89487714Y-60956828D01*
X89487714Y-60956828D02*
X89344856Y-61028257D01*
X89987714Y-61885400D02*
X89844856Y-61956828D01*
X89844856Y-61956828D02*
X89487714Y-61956828D01*
X89487714Y-61956828D02*
X89344856Y-61885400D01*
X89344856Y-61885400D02*
X89273428Y-61742542D01*
X89273428Y-61742542D02*
X89273428Y-61599685D01*
X89273428Y-61599685D02*
X89344856Y-61456828D01*
X89344856Y-61456828D02*
X89487714Y-61385400D01*
X89487714Y-61385400D02*
X89844856Y-61385400D01*
X89844856Y-61385400D02*
X89987714Y-61313971D01*
X90487714Y-60956828D02*
X91059142Y-60956828D01*
X90701999Y-60456828D02*
X90701999Y-61742542D01*
X90701999Y-61742542D02*
X90773428Y-61885400D01*
X90773428Y-61885400D02*
X90916285Y-61956828D01*
X90916285Y-61956828D02*
X91059142Y-61956828D01*
X91559142Y-61956828D02*
X91559142Y-60956828D01*
X91559142Y-60456828D02*
X91487714Y-60528257D01*
X91487714Y-60528257D02*
X91559142Y-60599685D01*
X91559142Y-60599685D02*
X91630571Y-60528257D01*
X91630571Y-60528257D02*
X91559142Y-60456828D01*
X91559142Y-60456828D02*
X91559142Y-60599685D01*
X92487714Y-61956828D02*
X92344857Y-61885400D01*
X92344857Y-61885400D02*
X92273428Y-61813971D01*
X92273428Y-61813971D02*
X92202000Y-61671114D01*
X92202000Y-61671114D02*
X92202000Y-61242542D01*
X92202000Y-61242542D02*
X92273428Y-61099685D01*
X92273428Y-61099685D02*
X92344857Y-61028257D01*
X92344857Y-61028257D02*
X92487714Y-60956828D01*
X92487714Y-60956828D02*
X92702000Y-60956828D01*
X92702000Y-60956828D02*
X92844857Y-61028257D01*
X92844857Y-61028257D02*
X92916286Y-61099685D01*
X92916286Y-61099685D02*
X92987714Y-61242542D01*
X92987714Y-61242542D02*
X92987714Y-61671114D01*
X92987714Y-61671114D02*
X92916286Y-61813971D01*
X92916286Y-61813971D02*
X92844857Y-61885400D01*
X92844857Y-61885400D02*
X92702000Y-61956828D01*
X92702000Y-61956828D02*
X92487714Y-61956828D01*
X93630571Y-60956828D02*
X93630571Y-61956828D01*
X93630571Y-61099685D02*
X93702000Y-61028257D01*
X93702000Y-61028257D02*
X93844857Y-60956828D01*
X93844857Y-60956828D02*
X94059143Y-60956828D01*
X94059143Y-60956828D02*
X94202000Y-61028257D01*
X94202000Y-61028257D02*
X94273429Y-61171114D01*
X94273429Y-61171114D02*
X94273429Y-61956828D01*
X95987714Y-60956828D02*
X96273429Y-61956828D01*
X96273429Y-61956828D02*
X96559143Y-61242542D01*
X96559143Y-61242542D02*
X96844857Y-61956828D01*
X96844857Y-61956828D02*
X97130571Y-60956828D01*
X97916286Y-61956828D02*
X97773429Y-61885400D01*
X97773429Y-61885400D02*
X97702000Y-61813971D01*
X97702000Y-61813971D02*
X97630572Y-61671114D01*
X97630572Y-61671114D02*
X97630572Y-61242542D01*
X97630572Y-61242542D02*
X97702000Y-61099685D01*
X97702000Y-61099685D02*
X97773429Y-61028257D01*
X97773429Y-61028257D02*
X97916286Y-60956828D01*
X97916286Y-60956828D02*
X98130572Y-60956828D01*
X98130572Y-60956828D02*
X98273429Y-61028257D01*
X98273429Y-61028257D02*
X98344858Y-61099685D01*
X98344858Y-61099685D02*
X98416286Y-61242542D01*
X98416286Y-61242542D02*
X98416286Y-61671114D01*
X98416286Y-61671114D02*
X98344858Y-61813971D01*
X98344858Y-61813971D02*
X98273429Y-61885400D01*
X98273429Y-61885400D02*
X98130572Y-61956828D01*
X98130572Y-61956828D02*
X97916286Y-61956828D01*
X99273429Y-61956828D02*
X99130572Y-61885400D01*
X99130572Y-61885400D02*
X99059143Y-61813971D01*
X99059143Y-61813971D02*
X98987715Y-61671114D01*
X98987715Y-61671114D02*
X98987715Y-61242542D01*
X98987715Y-61242542D02*
X99059143Y-61099685D01*
X99059143Y-61099685D02*
X99130572Y-61028257D01*
X99130572Y-61028257D02*
X99273429Y-60956828D01*
X99273429Y-60956828D02*
X99487715Y-60956828D01*
X99487715Y-60956828D02*
X99630572Y-61028257D01*
X99630572Y-61028257D02*
X99702001Y-61099685D01*
X99702001Y-61099685D02*
X99773429Y-61242542D01*
X99773429Y-61242542D02*
X99773429Y-61671114D01*
X99773429Y-61671114D02*
X99702001Y-61813971D01*
X99702001Y-61813971D02*
X99630572Y-61885400D01*
X99630572Y-61885400D02*
X99487715Y-61956828D01*
X99487715Y-61956828D02*
X99273429Y-61956828D01*
X100630572Y-61956828D02*
X100487715Y-61885400D01*
X100487715Y-61885400D02*
X100416286Y-61742542D01*
X100416286Y-61742542D02*
X100416286Y-60456828D01*
D11*
X36195095Y-29220438D02*
X36099857Y-29172819D01*
X36099857Y-29172819D02*
X35957000Y-29172819D01*
X35957000Y-29172819D02*
X35814143Y-29220438D01*
X35814143Y-29220438D02*
X35718905Y-29315676D01*
X35718905Y-29315676D02*
X35671286Y-29410914D01*
X35671286Y-29410914D02*
X35623667Y-29601390D01*
X35623667Y-29601390D02*
X35623667Y-29744247D01*
X35623667Y-29744247D02*
X35671286Y-29934723D01*
X35671286Y-29934723D02*
X35718905Y-30029961D01*
X35718905Y-30029961D02*
X35814143Y-30125200D01*
X35814143Y-30125200D02*
X35957000Y-30172819D01*
X35957000Y-30172819D02*
X36052238Y-30172819D01*
X36052238Y-30172819D02*
X36195095Y-30125200D01*
X36195095Y-30125200D02*
X36242714Y-30077580D01*
X36242714Y-30077580D02*
X36242714Y-29744247D01*
X36242714Y-29744247D02*
X36052238Y-29744247D01*
X36671286Y-30172819D02*
X36671286Y-29172819D01*
X36671286Y-29172819D02*
X37242714Y-30172819D01*
X37242714Y-30172819D02*
X37242714Y-29172819D01*
X37718905Y-30172819D02*
X37718905Y-29172819D01*
X37718905Y-29172819D02*
X37957000Y-29172819D01*
X37957000Y-29172819D02*
X38099857Y-29220438D01*
X38099857Y-29220438D02*
X38195095Y-29315676D01*
X38195095Y-29315676D02*
X38242714Y-29410914D01*
X38242714Y-29410914D02*
X38290333Y-29601390D01*
X38290333Y-29601390D02*
X38290333Y-29744247D01*
X38290333Y-29744247D02*
X38242714Y-29934723D01*
X38242714Y-29934723D02*
X38195095Y-30029961D01*
X38195095Y-30029961D02*
X38099857Y-30125200D01*
X38099857Y-30125200D02*
X37957000Y-30172819D01*
X37957000Y-30172819D02*
X37718905Y-30172819D01*
X24257095Y-94879438D02*
X24161857Y-94831819D01*
X24161857Y-94831819D02*
X24019000Y-94831819D01*
X24019000Y-94831819D02*
X23876143Y-94879438D01*
X23876143Y-94879438D02*
X23780905Y-94974676D01*
X23780905Y-94974676D02*
X23733286Y-95069914D01*
X23733286Y-95069914D02*
X23685667Y-95260390D01*
X23685667Y-95260390D02*
X23685667Y-95403247D01*
X23685667Y-95403247D02*
X23733286Y-95593723D01*
X23733286Y-95593723D02*
X23780905Y-95688961D01*
X23780905Y-95688961D02*
X23876143Y-95784200D01*
X23876143Y-95784200D02*
X24019000Y-95831819D01*
X24019000Y-95831819D02*
X24114238Y-95831819D01*
X24114238Y-95831819D02*
X24257095Y-95784200D01*
X24257095Y-95784200D02*
X24304714Y-95736580D01*
X24304714Y-95736580D02*
X24304714Y-95403247D01*
X24304714Y-95403247D02*
X24114238Y-95403247D01*
X24733286Y-95831819D02*
X24733286Y-94831819D01*
X24733286Y-94831819D02*
X25304714Y-95831819D01*
X25304714Y-95831819D02*
X25304714Y-94831819D01*
X25780905Y-95831819D02*
X25780905Y-94831819D01*
X25780905Y-94831819D02*
X26019000Y-94831819D01*
X26019000Y-94831819D02*
X26161857Y-94879438D01*
X26161857Y-94879438D02*
X26257095Y-94974676D01*
X26257095Y-94974676D02*
X26304714Y-95069914D01*
X26304714Y-95069914D02*
X26352333Y-95260390D01*
X26352333Y-95260390D02*
X26352333Y-95403247D01*
X26352333Y-95403247D02*
X26304714Y-95593723D01*
X26304714Y-95593723D02*
X26257095Y-95688961D01*
X26257095Y-95688961D02*
X26161857Y-95784200D01*
X26161857Y-95784200D02*
X26019000Y-95831819D01*
X26019000Y-95831819D02*
X25780905Y-95831819D01*
X99187095Y-29220438D02*
X99091857Y-29172819D01*
X99091857Y-29172819D02*
X98949000Y-29172819D01*
X98949000Y-29172819D02*
X98806143Y-29220438D01*
X98806143Y-29220438D02*
X98710905Y-29315676D01*
X98710905Y-29315676D02*
X98663286Y-29410914D01*
X98663286Y-29410914D02*
X98615667Y-29601390D01*
X98615667Y-29601390D02*
X98615667Y-29744247D01*
X98615667Y-29744247D02*
X98663286Y-29934723D01*
X98663286Y-29934723D02*
X98710905Y-30029961D01*
X98710905Y-30029961D02*
X98806143Y-30125200D01*
X98806143Y-30125200D02*
X98949000Y-30172819D01*
X98949000Y-30172819D02*
X99044238Y-30172819D01*
X99044238Y-30172819D02*
X99187095Y-30125200D01*
X99187095Y-30125200D02*
X99234714Y-30077580D01*
X99234714Y-30077580D02*
X99234714Y-29744247D01*
X99234714Y-29744247D02*
X99044238Y-29744247D01*
X99663286Y-30172819D02*
X99663286Y-29172819D01*
X99663286Y-29172819D02*
X100234714Y-30172819D01*
X100234714Y-30172819D02*
X100234714Y-29172819D01*
X100710905Y-30172819D02*
X100710905Y-29172819D01*
X100710905Y-29172819D02*
X100949000Y-29172819D01*
X100949000Y-29172819D02*
X101091857Y-29220438D01*
X101091857Y-29220438D02*
X101187095Y-29315676D01*
X101187095Y-29315676D02*
X101234714Y-29410914D01*
X101234714Y-29410914D02*
X101282333Y-29601390D01*
X101282333Y-29601390D02*
X101282333Y-29744247D01*
X101282333Y-29744247D02*
X101234714Y-29934723D01*
X101234714Y-29934723D02*
X101187095Y-30029961D01*
X101187095Y-30029961D02*
X101091857Y-30125200D01*
X101091857Y-30125200D02*
X100949000Y-30172819D01*
X100949000Y-30172819D02*
X100710905Y-30172819D01*
X71239142Y-29696580D02*
X71191523Y-29744200D01*
X71191523Y-29744200D02*
X71048666Y-29791819D01*
X71048666Y-29791819D02*
X70953428Y-29791819D01*
X70953428Y-29791819D02*
X70810571Y-29744200D01*
X70810571Y-29744200D02*
X70715333Y-29648961D01*
X70715333Y-29648961D02*
X70667714Y-29553723D01*
X70667714Y-29553723D02*
X70620095Y-29363247D01*
X70620095Y-29363247D02*
X70620095Y-29220390D01*
X70620095Y-29220390D02*
X70667714Y-29029914D01*
X70667714Y-29029914D02*
X70715333Y-28934676D01*
X70715333Y-28934676D02*
X70810571Y-28839438D01*
X70810571Y-28839438D02*
X70953428Y-28791819D01*
X70953428Y-28791819D02*
X71048666Y-28791819D01*
X71048666Y-28791819D02*
X71191523Y-28839438D01*
X71191523Y-28839438D02*
X71239142Y-28887057D01*
X71572476Y-28791819D02*
X72191523Y-28791819D01*
X72191523Y-28791819D02*
X71858190Y-29172771D01*
X71858190Y-29172771D02*
X72001047Y-29172771D01*
X72001047Y-29172771D02*
X72096285Y-29220390D01*
X72096285Y-29220390D02*
X72143904Y-29268009D01*
X72143904Y-29268009D02*
X72191523Y-29363247D01*
X72191523Y-29363247D02*
X72191523Y-29601342D01*
X72191523Y-29601342D02*
X72143904Y-29696580D01*
X72143904Y-29696580D02*
X72096285Y-29744200D01*
X72096285Y-29744200D02*
X72001047Y-29791819D01*
X72001047Y-29791819D02*
X71715333Y-29791819D01*
X71715333Y-29791819D02*
X71620095Y-29744200D01*
X71620095Y-29744200D02*
X71572476Y-29696580D01*
X73048666Y-28791819D02*
X72858190Y-28791819D01*
X72858190Y-28791819D02*
X72762952Y-28839438D01*
X72762952Y-28839438D02*
X72715333Y-28887057D01*
X72715333Y-28887057D02*
X72620095Y-29029914D01*
X72620095Y-29029914D02*
X72572476Y-29220390D01*
X72572476Y-29220390D02*
X72572476Y-29601342D01*
X72572476Y-29601342D02*
X72620095Y-29696580D01*
X72620095Y-29696580D02*
X72667714Y-29744200D01*
X72667714Y-29744200D02*
X72762952Y-29791819D01*
X72762952Y-29791819D02*
X72953428Y-29791819D01*
X72953428Y-29791819D02*
X73048666Y-29744200D01*
X73048666Y-29744200D02*
X73096285Y-29696580D01*
X73096285Y-29696580D02*
X73143904Y-29601342D01*
X73143904Y-29601342D02*
X73143904Y-29363247D01*
X73143904Y-29363247D02*
X73096285Y-29268009D01*
X73096285Y-29268009D02*
X73048666Y-29220390D01*
X73048666Y-29220390D02*
X72953428Y-29172771D01*
X72953428Y-29172771D02*
X72762952Y-29172771D01*
X72762952Y-29172771D02*
X72667714Y-29220390D01*
X72667714Y-29220390D02*
X72620095Y-29268009D01*
X72620095Y-29268009D02*
X72572476Y-29363247D01*
X50030142Y-92942580D02*
X49982523Y-92990200D01*
X49982523Y-92990200D02*
X49839666Y-93037819D01*
X49839666Y-93037819D02*
X49744428Y-93037819D01*
X49744428Y-93037819D02*
X49601571Y-92990200D01*
X49601571Y-92990200D02*
X49506333Y-92894961D01*
X49506333Y-92894961D02*
X49458714Y-92799723D01*
X49458714Y-92799723D02*
X49411095Y-92609247D01*
X49411095Y-92609247D02*
X49411095Y-92466390D01*
X49411095Y-92466390D02*
X49458714Y-92275914D01*
X49458714Y-92275914D02*
X49506333Y-92180676D01*
X49506333Y-92180676D02*
X49601571Y-92085438D01*
X49601571Y-92085438D02*
X49744428Y-92037819D01*
X49744428Y-92037819D02*
X49839666Y-92037819D01*
X49839666Y-92037819D02*
X49982523Y-92085438D01*
X49982523Y-92085438D02*
X50030142Y-92133057D01*
X50411095Y-92133057D02*
X50458714Y-92085438D01*
X50458714Y-92085438D02*
X50553952Y-92037819D01*
X50553952Y-92037819D02*
X50792047Y-92037819D01*
X50792047Y-92037819D02*
X50887285Y-92085438D01*
X50887285Y-92085438D02*
X50934904Y-92133057D01*
X50934904Y-92133057D02*
X50982523Y-92228295D01*
X50982523Y-92228295D02*
X50982523Y-92323533D01*
X50982523Y-92323533D02*
X50934904Y-92466390D01*
X50934904Y-92466390D02*
X50363476Y-93037819D01*
X50363476Y-93037819D02*
X50982523Y-93037819D01*
X51363476Y-92133057D02*
X51411095Y-92085438D01*
X51411095Y-92085438D02*
X51506333Y-92037819D01*
X51506333Y-92037819D02*
X51744428Y-92037819D01*
X51744428Y-92037819D02*
X51839666Y-92085438D01*
X51839666Y-92085438D02*
X51887285Y-92133057D01*
X51887285Y-92133057D02*
X51934904Y-92228295D01*
X51934904Y-92228295D02*
X51934904Y-92323533D01*
X51934904Y-92323533D02*
X51887285Y-92466390D01*
X51887285Y-92466390D02*
X51315857Y-93037819D01*
X51315857Y-93037819D02*
X51934904Y-93037819D01*
X49530095Y-58128819D02*
X49530095Y-58938342D01*
X49530095Y-58938342D02*
X49577714Y-59033580D01*
X49577714Y-59033580D02*
X49625333Y-59081200D01*
X49625333Y-59081200D02*
X49720571Y-59128819D01*
X49720571Y-59128819D02*
X49911047Y-59128819D01*
X49911047Y-59128819D02*
X50006285Y-59081200D01*
X50006285Y-59081200D02*
X50053904Y-59033580D01*
X50053904Y-59033580D02*
X50101523Y-58938342D01*
X50101523Y-58938342D02*
X50101523Y-58128819D01*
X51006285Y-58462152D02*
X51006285Y-59128819D01*
X50768190Y-58081200D02*
X50530095Y-58795485D01*
X50530095Y-58795485D02*
X51149142Y-58795485D01*
X60444142Y-84782819D02*
X60110809Y-84306628D01*
X59872714Y-84782819D02*
X59872714Y-83782819D01*
X59872714Y-83782819D02*
X60253666Y-83782819D01*
X60253666Y-83782819D02*
X60348904Y-83830438D01*
X60348904Y-83830438D02*
X60396523Y-83878057D01*
X60396523Y-83878057D02*
X60444142Y-83973295D01*
X60444142Y-83973295D02*
X60444142Y-84116152D01*
X60444142Y-84116152D02*
X60396523Y-84211390D01*
X60396523Y-84211390D02*
X60348904Y-84259009D01*
X60348904Y-84259009D02*
X60253666Y-84306628D01*
X60253666Y-84306628D02*
X59872714Y-84306628D01*
X61396523Y-84782819D02*
X60825095Y-84782819D01*
X61110809Y-84782819D02*
X61110809Y-83782819D01*
X61110809Y-83782819D02*
X61015571Y-83925676D01*
X61015571Y-83925676D02*
X60920333Y-84020914D01*
X60920333Y-84020914D02*
X60825095Y-84068533D01*
X62348904Y-84782819D02*
X61777476Y-84782819D01*
X62063190Y-84782819D02*
X62063190Y-83782819D01*
X62063190Y-83782819D02*
X61967952Y-83925676D01*
X61967952Y-83925676D02*
X61872714Y-84020914D01*
X61872714Y-84020914D02*
X61777476Y-84068533D01*
X43719905Y-74892819D02*
X43719905Y-75702342D01*
X43719905Y-75702342D02*
X43767524Y-75797580D01*
X43767524Y-75797580D02*
X43815143Y-75845200D01*
X43815143Y-75845200D02*
X43910381Y-75892819D01*
X43910381Y-75892819D02*
X44100857Y-75892819D01*
X44100857Y-75892819D02*
X44196095Y-75845200D01*
X44196095Y-75845200D02*
X44243714Y-75797580D01*
X44243714Y-75797580D02*
X44291333Y-75702342D01*
X44291333Y-75702342D02*
X44291333Y-74892819D01*
X45291333Y-75892819D02*
X44719905Y-75892819D01*
X45005619Y-75892819D02*
X45005619Y-74892819D01*
X45005619Y-74892819D02*
X44910381Y-75035676D01*
X44910381Y-75035676D02*
X44815143Y-75130914D01*
X44815143Y-75130914D02*
X44719905Y-75178533D01*
X45910381Y-74892819D02*
X46005619Y-74892819D01*
X46005619Y-74892819D02*
X46100857Y-74940438D01*
X46100857Y-74940438D02*
X46148476Y-74988057D01*
X46148476Y-74988057D02*
X46196095Y-75083295D01*
X46196095Y-75083295D02*
X46243714Y-75273771D01*
X46243714Y-75273771D02*
X46243714Y-75511866D01*
X46243714Y-75511866D02*
X46196095Y-75702342D01*
X46196095Y-75702342D02*
X46148476Y-75797580D01*
X46148476Y-75797580D02*
X46100857Y-75845200D01*
X46100857Y-75845200D02*
X46005619Y-75892819D01*
X46005619Y-75892819D02*
X45910381Y-75892819D01*
X45910381Y-75892819D02*
X45815143Y-75845200D01*
X45815143Y-75845200D02*
X45767524Y-75797580D01*
X45767524Y-75797580D02*
X45719905Y-75702342D01*
X45719905Y-75702342D02*
X45672286Y-75511866D01*
X45672286Y-75511866D02*
X45672286Y-75273771D01*
X45672286Y-75273771D02*
X45719905Y-75083295D01*
X45719905Y-75083295D02*
X45767524Y-74988057D01*
X45767524Y-74988057D02*
X45815143Y-74940438D01*
X45815143Y-74940438D02*
X45910381Y-74892819D01*
X32789905Y-46428819D02*
X32789905Y-45428819D01*
X32789905Y-45428819D02*
X33028000Y-45428819D01*
X33028000Y-45428819D02*
X33170857Y-45476438D01*
X33170857Y-45476438D02*
X33266095Y-45571676D01*
X33266095Y-45571676D02*
X33313714Y-45666914D01*
X33313714Y-45666914D02*
X33361333Y-45857390D01*
X33361333Y-45857390D02*
X33361333Y-46000247D01*
X33361333Y-46000247D02*
X33313714Y-46190723D01*
X33313714Y-46190723D02*
X33266095Y-46285961D01*
X33266095Y-46285961D02*
X33170857Y-46381200D01*
X33170857Y-46381200D02*
X33028000Y-46428819D01*
X33028000Y-46428819D02*
X32789905Y-46428819D01*
X33742286Y-45524057D02*
X33789905Y-45476438D01*
X33789905Y-45476438D02*
X33885143Y-45428819D01*
X33885143Y-45428819D02*
X34123238Y-45428819D01*
X34123238Y-45428819D02*
X34218476Y-45476438D01*
X34218476Y-45476438D02*
X34266095Y-45524057D01*
X34266095Y-45524057D02*
X34313714Y-45619295D01*
X34313714Y-45619295D02*
X34313714Y-45714533D01*
X34313714Y-45714533D02*
X34266095Y-45857390D01*
X34266095Y-45857390D02*
X33694667Y-46428819D01*
X33694667Y-46428819D02*
X34313714Y-46428819D01*
X33686905Y-31286819D02*
X33686905Y-32096342D01*
X33686905Y-32096342D02*
X33734524Y-32191580D01*
X33734524Y-32191580D02*
X33782143Y-32239200D01*
X33782143Y-32239200D02*
X33877381Y-32286819D01*
X33877381Y-32286819D02*
X34067857Y-32286819D01*
X34067857Y-32286819D02*
X34163095Y-32239200D01*
X34163095Y-32239200D02*
X34210714Y-32191580D01*
X34210714Y-32191580D02*
X34258333Y-32096342D01*
X34258333Y-32096342D02*
X34258333Y-31286819D01*
X35258333Y-32286819D02*
X34686905Y-32286819D01*
X34972619Y-32286819D02*
X34972619Y-31286819D01*
X34972619Y-31286819D02*
X34877381Y-31429676D01*
X34877381Y-31429676D02*
X34782143Y-31524914D01*
X34782143Y-31524914D02*
X34686905Y-31572533D01*
X36115476Y-31286819D02*
X35925000Y-31286819D01*
X35925000Y-31286819D02*
X35829762Y-31334438D01*
X35829762Y-31334438D02*
X35782143Y-31382057D01*
X35782143Y-31382057D02*
X35686905Y-31524914D01*
X35686905Y-31524914D02*
X35639286Y-31715390D01*
X35639286Y-31715390D02*
X35639286Y-32096342D01*
X35639286Y-32096342D02*
X35686905Y-32191580D01*
X35686905Y-32191580D02*
X35734524Y-32239200D01*
X35734524Y-32239200D02*
X35829762Y-32286819D01*
X35829762Y-32286819D02*
X36020238Y-32286819D01*
X36020238Y-32286819D02*
X36115476Y-32239200D01*
X36115476Y-32239200D02*
X36163095Y-32191580D01*
X36163095Y-32191580D02*
X36210714Y-32096342D01*
X36210714Y-32096342D02*
X36210714Y-31858247D01*
X36210714Y-31858247D02*
X36163095Y-31763009D01*
X36163095Y-31763009D02*
X36115476Y-31715390D01*
X36115476Y-31715390D02*
X36020238Y-31667771D01*
X36020238Y-31667771D02*
X35829762Y-31667771D01*
X35829762Y-31667771D02*
X35734524Y-31715390D01*
X35734524Y-31715390D02*
X35686905Y-31763009D01*
X35686905Y-31763009D02*
X35639286Y-31858247D01*
X59563095Y-61811819D02*
X59563095Y-62621342D01*
X59563095Y-62621342D02*
X59610714Y-62716580D01*
X59610714Y-62716580D02*
X59658333Y-62764200D01*
X59658333Y-62764200D02*
X59753571Y-62811819D01*
X59753571Y-62811819D02*
X59944047Y-62811819D01*
X59944047Y-62811819D02*
X60039285Y-62764200D01*
X60039285Y-62764200D02*
X60086904Y-62716580D01*
X60086904Y-62716580D02*
X60134523Y-62621342D01*
X60134523Y-62621342D02*
X60134523Y-61811819D01*
X60563095Y-61907057D02*
X60610714Y-61859438D01*
X60610714Y-61859438D02*
X60705952Y-61811819D01*
X60705952Y-61811819D02*
X60944047Y-61811819D01*
X60944047Y-61811819D02*
X61039285Y-61859438D01*
X61039285Y-61859438D02*
X61086904Y-61907057D01*
X61086904Y-61907057D02*
X61134523Y-62002295D01*
X61134523Y-62002295D02*
X61134523Y-62097533D01*
X61134523Y-62097533D02*
X61086904Y-62240390D01*
X61086904Y-62240390D02*
X60515476Y-62811819D01*
X60515476Y-62811819D02*
X61134523Y-62811819D01*
X46347142Y-95355580D02*
X46299523Y-95403200D01*
X46299523Y-95403200D02*
X46156666Y-95450819D01*
X46156666Y-95450819D02*
X46061428Y-95450819D01*
X46061428Y-95450819D02*
X45918571Y-95403200D01*
X45918571Y-95403200D02*
X45823333Y-95307961D01*
X45823333Y-95307961D02*
X45775714Y-95212723D01*
X45775714Y-95212723D02*
X45728095Y-95022247D01*
X45728095Y-95022247D02*
X45728095Y-94879390D01*
X45728095Y-94879390D02*
X45775714Y-94688914D01*
X45775714Y-94688914D02*
X45823333Y-94593676D01*
X45823333Y-94593676D02*
X45918571Y-94498438D01*
X45918571Y-94498438D02*
X46061428Y-94450819D01*
X46061428Y-94450819D02*
X46156666Y-94450819D01*
X46156666Y-94450819D02*
X46299523Y-94498438D01*
X46299523Y-94498438D02*
X46347142Y-94546057D01*
X46728095Y-94546057D02*
X46775714Y-94498438D01*
X46775714Y-94498438D02*
X46870952Y-94450819D01*
X46870952Y-94450819D02*
X47109047Y-94450819D01*
X47109047Y-94450819D02*
X47204285Y-94498438D01*
X47204285Y-94498438D02*
X47251904Y-94546057D01*
X47251904Y-94546057D02*
X47299523Y-94641295D01*
X47299523Y-94641295D02*
X47299523Y-94736533D01*
X47299523Y-94736533D02*
X47251904Y-94879390D01*
X47251904Y-94879390D02*
X46680476Y-95450819D01*
X46680476Y-95450819D02*
X47299523Y-95450819D01*
X48251904Y-95450819D02*
X47680476Y-95450819D01*
X47966190Y-95450819D02*
X47966190Y-94450819D01*
X47966190Y-94450819D02*
X47870952Y-94593676D01*
X47870952Y-94593676D02*
X47775714Y-94688914D01*
X47775714Y-94688914D02*
X47680476Y-94736533D01*
X85891666Y-29187419D02*
X85891666Y-29901704D01*
X85891666Y-29901704D02*
X85844047Y-30044561D01*
X85844047Y-30044561D02*
X85748809Y-30139800D01*
X85748809Y-30139800D02*
X85605952Y-30187419D01*
X85605952Y-30187419D02*
X85510714Y-30187419D01*
X86510714Y-29615990D02*
X86415476Y-29568371D01*
X86415476Y-29568371D02*
X86367857Y-29520752D01*
X86367857Y-29520752D02*
X86320238Y-29425514D01*
X86320238Y-29425514D02*
X86320238Y-29377895D01*
X86320238Y-29377895D02*
X86367857Y-29282657D01*
X86367857Y-29282657D02*
X86415476Y-29235038D01*
X86415476Y-29235038D02*
X86510714Y-29187419D01*
X86510714Y-29187419D02*
X86701190Y-29187419D01*
X86701190Y-29187419D02*
X86796428Y-29235038D01*
X86796428Y-29235038D02*
X86844047Y-29282657D01*
X86844047Y-29282657D02*
X86891666Y-29377895D01*
X86891666Y-29377895D02*
X86891666Y-29425514D01*
X86891666Y-29425514D02*
X86844047Y-29520752D01*
X86844047Y-29520752D02*
X86796428Y-29568371D01*
X86796428Y-29568371D02*
X86701190Y-29615990D01*
X86701190Y-29615990D02*
X86510714Y-29615990D01*
X86510714Y-29615990D02*
X86415476Y-29663609D01*
X86415476Y-29663609D02*
X86367857Y-29711228D01*
X86367857Y-29711228D02*
X86320238Y-29806466D01*
X86320238Y-29806466D02*
X86320238Y-29996942D01*
X86320238Y-29996942D02*
X86367857Y-30092180D01*
X86367857Y-30092180D02*
X86415476Y-30139800D01*
X86415476Y-30139800D02*
X86510714Y-30187419D01*
X86510714Y-30187419D02*
X86701190Y-30187419D01*
X86701190Y-30187419D02*
X86796428Y-30139800D01*
X86796428Y-30139800D02*
X86844047Y-30092180D01*
X86844047Y-30092180D02*
X86891666Y-29996942D01*
X86891666Y-29996942D02*
X86891666Y-29806466D01*
X86891666Y-29806466D02*
X86844047Y-29711228D01*
X86844047Y-29711228D02*
X86796428Y-29663609D01*
X86796428Y-29663609D02*
X86701190Y-29615990D01*
X51776333Y-70939819D02*
X51443000Y-70463628D01*
X51204905Y-70939819D02*
X51204905Y-69939819D01*
X51204905Y-69939819D02*
X51585857Y-69939819D01*
X51585857Y-69939819D02*
X51681095Y-69987438D01*
X51681095Y-69987438D02*
X51728714Y-70035057D01*
X51728714Y-70035057D02*
X51776333Y-70130295D01*
X51776333Y-70130295D02*
X51776333Y-70273152D01*
X51776333Y-70273152D02*
X51728714Y-70368390D01*
X51728714Y-70368390D02*
X51681095Y-70416009D01*
X51681095Y-70416009D02*
X51585857Y-70463628D01*
X51585857Y-70463628D02*
X51204905Y-70463628D01*
X52633476Y-70273152D02*
X52633476Y-70939819D01*
X52395381Y-69892200D02*
X52157286Y-70606485D01*
X52157286Y-70606485D02*
X52776333Y-70606485D01*
X71154819Y-51659904D02*
X71964342Y-51659904D01*
X71964342Y-51659904D02*
X72059580Y-51612285D01*
X72059580Y-51612285D02*
X72107200Y-51564666D01*
X72107200Y-51564666D02*
X72154819Y-51469428D01*
X72154819Y-51469428D02*
X72154819Y-51278952D01*
X72154819Y-51278952D02*
X72107200Y-51183714D01*
X72107200Y-51183714D02*
X72059580Y-51136095D01*
X72059580Y-51136095D02*
X71964342Y-51088476D01*
X71964342Y-51088476D02*
X71154819Y-51088476D01*
X71154819Y-50183714D02*
X71154819Y-50374190D01*
X71154819Y-50374190D02*
X71202438Y-50469428D01*
X71202438Y-50469428D02*
X71250057Y-50517047D01*
X71250057Y-50517047D02*
X71392914Y-50612285D01*
X71392914Y-50612285D02*
X71583390Y-50659904D01*
X71583390Y-50659904D02*
X71964342Y-50659904D01*
X71964342Y-50659904D02*
X72059580Y-50612285D01*
X72059580Y-50612285D02*
X72107200Y-50564666D01*
X72107200Y-50564666D02*
X72154819Y-50469428D01*
X72154819Y-50469428D02*
X72154819Y-50278952D01*
X72154819Y-50278952D02*
X72107200Y-50183714D01*
X72107200Y-50183714D02*
X72059580Y-50136095D01*
X72059580Y-50136095D02*
X71964342Y-50088476D01*
X71964342Y-50088476D02*
X71726247Y-50088476D01*
X71726247Y-50088476D02*
X71631009Y-50136095D01*
X71631009Y-50136095D02*
X71583390Y-50183714D01*
X71583390Y-50183714D02*
X71535771Y-50278952D01*
X71535771Y-50278952D02*
X71535771Y-50469428D01*
X71535771Y-50469428D02*
X71583390Y-50564666D01*
X71583390Y-50564666D02*
X71631009Y-50612285D01*
X71631009Y-50612285D02*
X71726247Y-50659904D01*
X22942705Y-83173219D02*
X22942705Y-83982742D01*
X22942705Y-83982742D02*
X22990324Y-84077980D01*
X22990324Y-84077980D02*
X23037943Y-84125600D01*
X23037943Y-84125600D02*
X23133181Y-84173219D01*
X23133181Y-84173219D02*
X23323657Y-84173219D01*
X23323657Y-84173219D02*
X23418895Y-84125600D01*
X23418895Y-84125600D02*
X23466514Y-84077980D01*
X23466514Y-84077980D02*
X23514133Y-83982742D01*
X23514133Y-83982742D02*
X23514133Y-83173219D01*
X24514133Y-84173219D02*
X23942705Y-84173219D01*
X24228419Y-84173219D02*
X24228419Y-83173219D01*
X24228419Y-83173219D02*
X24133181Y-83316076D01*
X24133181Y-83316076D02*
X24037943Y-83411314D01*
X24037943Y-83411314D02*
X23942705Y-83458933D01*
X24847467Y-83173219D02*
X25466514Y-83173219D01*
X25466514Y-83173219D02*
X25133181Y-83554171D01*
X25133181Y-83554171D02*
X25276038Y-83554171D01*
X25276038Y-83554171D02*
X25371276Y-83601790D01*
X25371276Y-83601790D02*
X25418895Y-83649409D01*
X25418895Y-83649409D02*
X25466514Y-83744647D01*
X25466514Y-83744647D02*
X25466514Y-83982742D01*
X25466514Y-83982742D02*
X25418895Y-84077980D01*
X25418895Y-84077980D02*
X25371276Y-84125600D01*
X25371276Y-84125600D02*
X25276038Y-84173219D01*
X25276038Y-84173219D02*
X24990324Y-84173219D01*
X24990324Y-84173219D02*
X24895086Y-84125600D01*
X24895086Y-84125600D02*
X24847467Y-84077980D01*
X74908580Y-32011857D02*
X74956200Y-32059476D01*
X74956200Y-32059476D02*
X75003819Y-32202333D01*
X75003819Y-32202333D02*
X75003819Y-32297571D01*
X75003819Y-32297571D02*
X74956200Y-32440428D01*
X74956200Y-32440428D02*
X74860961Y-32535666D01*
X74860961Y-32535666D02*
X74765723Y-32583285D01*
X74765723Y-32583285D02*
X74575247Y-32630904D01*
X74575247Y-32630904D02*
X74432390Y-32630904D01*
X74432390Y-32630904D02*
X74241914Y-32583285D01*
X74241914Y-32583285D02*
X74146676Y-32535666D01*
X74146676Y-32535666D02*
X74051438Y-32440428D01*
X74051438Y-32440428D02*
X74003819Y-32297571D01*
X74003819Y-32297571D02*
X74003819Y-32202333D01*
X74003819Y-32202333D02*
X74051438Y-32059476D01*
X74051438Y-32059476D02*
X74099057Y-32011857D01*
X74003819Y-31678523D02*
X74003819Y-31059476D01*
X74003819Y-31059476D02*
X74384771Y-31392809D01*
X74384771Y-31392809D02*
X74384771Y-31249952D01*
X74384771Y-31249952D02*
X74432390Y-31154714D01*
X74432390Y-31154714D02*
X74480009Y-31107095D01*
X74480009Y-31107095D02*
X74575247Y-31059476D01*
X74575247Y-31059476D02*
X74813342Y-31059476D01*
X74813342Y-31059476D02*
X74908580Y-31107095D01*
X74908580Y-31107095D02*
X74956200Y-31154714D01*
X74956200Y-31154714D02*
X75003819Y-31249952D01*
X75003819Y-31249952D02*
X75003819Y-31535666D01*
X75003819Y-31535666D02*
X74956200Y-31630904D01*
X74956200Y-31630904D02*
X74908580Y-31678523D01*
X74003819Y-30154714D02*
X74003819Y-30630904D01*
X74003819Y-30630904D02*
X74480009Y-30678523D01*
X74480009Y-30678523D02*
X74432390Y-30630904D01*
X74432390Y-30630904D02*
X74384771Y-30535666D01*
X74384771Y-30535666D02*
X74384771Y-30297571D01*
X74384771Y-30297571D02*
X74432390Y-30202333D01*
X74432390Y-30202333D02*
X74480009Y-30154714D01*
X74480009Y-30154714D02*
X74575247Y-30107095D01*
X74575247Y-30107095D02*
X74813342Y-30107095D01*
X74813342Y-30107095D02*
X74908580Y-30154714D01*
X74908580Y-30154714D02*
X74956200Y-30202333D01*
X74956200Y-30202333D02*
X75003819Y-30297571D01*
X75003819Y-30297571D02*
X75003819Y-30535666D01*
X75003819Y-30535666D02*
X74956200Y-30630904D01*
X74956200Y-30630904D02*
X74908580Y-30678523D01*
X44370666Y-36393819D02*
X44370666Y-37108104D01*
X44370666Y-37108104D02*
X44323047Y-37250961D01*
X44323047Y-37250961D02*
X44227809Y-37346200D01*
X44227809Y-37346200D02*
X44084952Y-37393819D01*
X44084952Y-37393819D02*
X43989714Y-37393819D01*
X44894476Y-37393819D02*
X45084952Y-37393819D01*
X45084952Y-37393819D02*
X45180190Y-37346200D01*
X45180190Y-37346200D02*
X45227809Y-37298580D01*
X45227809Y-37298580D02*
X45323047Y-37155723D01*
X45323047Y-37155723D02*
X45370666Y-36965247D01*
X45370666Y-36965247D02*
X45370666Y-36584295D01*
X45370666Y-36584295D02*
X45323047Y-36489057D01*
X45323047Y-36489057D02*
X45275428Y-36441438D01*
X45275428Y-36441438D02*
X45180190Y-36393819D01*
X45180190Y-36393819D02*
X44989714Y-36393819D01*
X44989714Y-36393819D02*
X44894476Y-36441438D01*
X44894476Y-36441438D02*
X44846857Y-36489057D01*
X44846857Y-36489057D02*
X44799238Y-36584295D01*
X44799238Y-36584295D02*
X44799238Y-36822390D01*
X44799238Y-36822390D02*
X44846857Y-36917628D01*
X44846857Y-36917628D02*
X44894476Y-36965247D01*
X44894476Y-36965247D02*
X44989714Y-37012866D01*
X44989714Y-37012866D02*
X45180190Y-37012866D01*
X45180190Y-37012866D02*
X45275428Y-36965247D01*
X45275428Y-36965247D02*
X45323047Y-36917628D01*
X45323047Y-36917628D02*
X45370666Y-36822390D01*
X94847580Y-33376857D02*
X94895200Y-33424476D01*
X94895200Y-33424476D02*
X94942819Y-33567333D01*
X94942819Y-33567333D02*
X94942819Y-33662571D01*
X94942819Y-33662571D02*
X94895200Y-33805428D01*
X94895200Y-33805428D02*
X94799961Y-33900666D01*
X94799961Y-33900666D02*
X94704723Y-33948285D01*
X94704723Y-33948285D02*
X94514247Y-33995904D01*
X94514247Y-33995904D02*
X94371390Y-33995904D01*
X94371390Y-33995904D02*
X94180914Y-33948285D01*
X94180914Y-33948285D02*
X94085676Y-33900666D01*
X94085676Y-33900666D02*
X93990438Y-33805428D01*
X93990438Y-33805428D02*
X93942819Y-33662571D01*
X93942819Y-33662571D02*
X93942819Y-33567333D01*
X93942819Y-33567333D02*
X93990438Y-33424476D01*
X93990438Y-33424476D02*
X94038057Y-33376857D01*
X93942819Y-33043523D02*
X93942819Y-32424476D01*
X93942819Y-32424476D02*
X94323771Y-32757809D01*
X94323771Y-32757809D02*
X94323771Y-32614952D01*
X94323771Y-32614952D02*
X94371390Y-32519714D01*
X94371390Y-32519714D02*
X94419009Y-32472095D01*
X94419009Y-32472095D02*
X94514247Y-32424476D01*
X94514247Y-32424476D02*
X94752342Y-32424476D01*
X94752342Y-32424476D02*
X94847580Y-32472095D01*
X94847580Y-32472095D02*
X94895200Y-32519714D01*
X94895200Y-32519714D02*
X94942819Y-32614952D01*
X94942819Y-32614952D02*
X94942819Y-32900666D01*
X94942819Y-32900666D02*
X94895200Y-32995904D01*
X94895200Y-32995904D02*
X94847580Y-33043523D01*
X94371390Y-31853047D02*
X94323771Y-31948285D01*
X94323771Y-31948285D02*
X94276152Y-31995904D01*
X94276152Y-31995904D02*
X94180914Y-32043523D01*
X94180914Y-32043523D02*
X94133295Y-32043523D01*
X94133295Y-32043523D02*
X94038057Y-31995904D01*
X94038057Y-31995904D02*
X93990438Y-31948285D01*
X93990438Y-31948285D02*
X93942819Y-31853047D01*
X93942819Y-31853047D02*
X93942819Y-31662571D01*
X93942819Y-31662571D02*
X93990438Y-31567333D01*
X93990438Y-31567333D02*
X94038057Y-31519714D01*
X94038057Y-31519714D02*
X94133295Y-31472095D01*
X94133295Y-31472095D02*
X94180914Y-31472095D01*
X94180914Y-31472095D02*
X94276152Y-31519714D01*
X94276152Y-31519714D02*
X94323771Y-31567333D01*
X94323771Y-31567333D02*
X94371390Y-31662571D01*
X94371390Y-31662571D02*
X94371390Y-31853047D01*
X94371390Y-31853047D02*
X94419009Y-31948285D01*
X94419009Y-31948285D02*
X94466628Y-31995904D01*
X94466628Y-31995904D02*
X94561866Y-32043523D01*
X94561866Y-32043523D02*
X94752342Y-32043523D01*
X94752342Y-32043523D02*
X94847580Y-31995904D01*
X94847580Y-31995904D02*
X94895200Y-31948285D01*
X94895200Y-31948285D02*
X94942819Y-31853047D01*
X94942819Y-31853047D02*
X94942819Y-31662571D01*
X94942819Y-31662571D02*
X94895200Y-31567333D01*
X94895200Y-31567333D02*
X94847580Y-31519714D01*
X94847580Y-31519714D02*
X94752342Y-31472095D01*
X94752342Y-31472095D02*
X94561866Y-31472095D01*
X94561866Y-31472095D02*
X94466628Y-31519714D01*
X94466628Y-31519714D02*
X94419009Y-31567333D01*
X94419009Y-31567333D02*
X94371390Y-31662571D01*
X80877580Y-36837857D02*
X80925200Y-36885476D01*
X80925200Y-36885476D02*
X80972819Y-37028333D01*
X80972819Y-37028333D02*
X80972819Y-37123571D01*
X80972819Y-37123571D02*
X80925200Y-37266428D01*
X80925200Y-37266428D02*
X80829961Y-37361666D01*
X80829961Y-37361666D02*
X80734723Y-37409285D01*
X80734723Y-37409285D02*
X80544247Y-37456904D01*
X80544247Y-37456904D02*
X80401390Y-37456904D01*
X80401390Y-37456904D02*
X80210914Y-37409285D01*
X80210914Y-37409285D02*
X80115676Y-37361666D01*
X80115676Y-37361666D02*
X80020438Y-37266428D01*
X80020438Y-37266428D02*
X79972819Y-37123571D01*
X79972819Y-37123571D02*
X79972819Y-37028333D01*
X79972819Y-37028333D02*
X80020438Y-36885476D01*
X80020438Y-36885476D02*
X80068057Y-36837857D01*
X80306152Y-35980714D02*
X80972819Y-35980714D01*
X79925200Y-36218809D02*
X80639485Y-36456904D01*
X80639485Y-36456904D02*
X80639485Y-35837857D01*
X79972819Y-35552142D02*
X79972819Y-34933095D01*
X79972819Y-34933095D02*
X80353771Y-35266428D01*
X80353771Y-35266428D02*
X80353771Y-35123571D01*
X80353771Y-35123571D02*
X80401390Y-35028333D01*
X80401390Y-35028333D02*
X80449009Y-34980714D01*
X80449009Y-34980714D02*
X80544247Y-34933095D01*
X80544247Y-34933095D02*
X80782342Y-34933095D01*
X80782342Y-34933095D02*
X80877580Y-34980714D01*
X80877580Y-34980714D02*
X80925200Y-35028333D01*
X80925200Y-35028333D02*
X80972819Y-35123571D01*
X80972819Y-35123571D02*
X80972819Y-35409285D01*
X80972819Y-35409285D02*
X80925200Y-35504523D01*
X80925200Y-35504523D02*
X80877580Y-35552142D01*
X73739476Y-60541819D02*
X74406142Y-61541819D01*
X74406142Y-60541819D02*
X73739476Y-61541819D01*
X75310904Y-61541819D02*
X74739476Y-61541819D01*
X75025190Y-61541819D02*
X75025190Y-60541819D01*
X75025190Y-60541819D02*
X74929952Y-60684676D01*
X74929952Y-60684676D02*
X74834714Y-60779914D01*
X74834714Y-60779914D02*
X74739476Y-60827533D01*
X78867095Y-75321438D02*
X78771857Y-75273819D01*
X78771857Y-75273819D02*
X78629000Y-75273819D01*
X78629000Y-75273819D02*
X78486143Y-75321438D01*
X78486143Y-75321438D02*
X78390905Y-75416676D01*
X78390905Y-75416676D02*
X78343286Y-75511914D01*
X78343286Y-75511914D02*
X78295667Y-75702390D01*
X78295667Y-75702390D02*
X78295667Y-75845247D01*
X78295667Y-75845247D02*
X78343286Y-76035723D01*
X78343286Y-76035723D02*
X78390905Y-76130961D01*
X78390905Y-76130961D02*
X78486143Y-76226200D01*
X78486143Y-76226200D02*
X78629000Y-76273819D01*
X78629000Y-76273819D02*
X78724238Y-76273819D01*
X78724238Y-76273819D02*
X78867095Y-76226200D01*
X78867095Y-76226200D02*
X78914714Y-76178580D01*
X78914714Y-76178580D02*
X78914714Y-75845247D01*
X78914714Y-75845247D02*
X78724238Y-75845247D01*
X79343286Y-76273819D02*
X79343286Y-75273819D01*
X79343286Y-75273819D02*
X79914714Y-76273819D01*
X79914714Y-76273819D02*
X79914714Y-75273819D01*
X80390905Y-76273819D02*
X80390905Y-75273819D01*
X80390905Y-75273819D02*
X80629000Y-75273819D01*
X80629000Y-75273819D02*
X80771857Y-75321438D01*
X80771857Y-75321438D02*
X80867095Y-75416676D01*
X80867095Y-75416676D02*
X80914714Y-75511914D01*
X80914714Y-75511914D02*
X80962333Y-75702390D01*
X80962333Y-75702390D02*
X80962333Y-75845247D01*
X80962333Y-75845247D02*
X80914714Y-76035723D01*
X80914714Y-76035723D02*
X80867095Y-76130961D01*
X80867095Y-76130961D02*
X80771857Y-76226200D01*
X80771857Y-76226200D02*
X80629000Y-76273819D01*
X80629000Y-76273819D02*
X80390905Y-76273819D01*
X90741667Y-66637819D02*
X91075000Y-67637819D01*
X91075000Y-67637819D02*
X91408333Y-66637819D01*
X92313095Y-67542580D02*
X92265476Y-67590200D01*
X92265476Y-67590200D02*
X92122619Y-67637819D01*
X92122619Y-67637819D02*
X92027381Y-67637819D01*
X92027381Y-67637819D02*
X91884524Y-67590200D01*
X91884524Y-67590200D02*
X91789286Y-67494961D01*
X91789286Y-67494961D02*
X91741667Y-67399723D01*
X91741667Y-67399723D02*
X91694048Y-67209247D01*
X91694048Y-67209247D02*
X91694048Y-67066390D01*
X91694048Y-67066390D02*
X91741667Y-66875914D01*
X91741667Y-66875914D02*
X91789286Y-66780676D01*
X91789286Y-66780676D02*
X91884524Y-66685438D01*
X91884524Y-66685438D02*
X92027381Y-66637819D01*
X92027381Y-66637819D02*
X92122619Y-66637819D01*
X92122619Y-66637819D02*
X92265476Y-66685438D01*
X92265476Y-66685438D02*
X92313095Y-66733057D01*
X93313095Y-67542580D02*
X93265476Y-67590200D01*
X93265476Y-67590200D02*
X93122619Y-67637819D01*
X93122619Y-67637819D02*
X93027381Y-67637819D01*
X93027381Y-67637819D02*
X92884524Y-67590200D01*
X92884524Y-67590200D02*
X92789286Y-67494961D01*
X92789286Y-67494961D02*
X92741667Y-67399723D01*
X92741667Y-67399723D02*
X92694048Y-67209247D01*
X92694048Y-67209247D02*
X92694048Y-67066390D01*
X92694048Y-67066390D02*
X92741667Y-66875914D01*
X92741667Y-66875914D02*
X92789286Y-66780676D01*
X92789286Y-66780676D02*
X92884524Y-66685438D01*
X92884524Y-66685438D02*
X93027381Y-66637819D01*
X93027381Y-66637819D02*
X93122619Y-66637819D01*
X93122619Y-66637819D02*
X93265476Y-66685438D01*
X93265476Y-66685438D02*
X93313095Y-66733057D01*
X78629000Y-66637819D02*
X78819476Y-66637819D01*
X78819476Y-66637819D02*
X78914714Y-66685438D01*
X78914714Y-66685438D02*
X79009952Y-66780676D01*
X79009952Y-66780676D02*
X79057571Y-66971152D01*
X79057571Y-66971152D02*
X79057571Y-67304485D01*
X79057571Y-67304485D02*
X79009952Y-67494961D01*
X79009952Y-67494961D02*
X78914714Y-67590200D01*
X78914714Y-67590200D02*
X78819476Y-67637819D01*
X78819476Y-67637819D02*
X78629000Y-67637819D01*
X78629000Y-67637819D02*
X78533762Y-67590200D01*
X78533762Y-67590200D02*
X78438524Y-67494961D01*
X78438524Y-67494961D02*
X78390905Y-67304485D01*
X78390905Y-67304485D02*
X78390905Y-66971152D01*
X78390905Y-66971152D02*
X78438524Y-66780676D01*
X78438524Y-66780676D02*
X78533762Y-66685438D01*
X78533762Y-66685438D02*
X78629000Y-66637819D01*
X79486143Y-66637819D02*
X79486143Y-67447342D01*
X79486143Y-67447342D02*
X79533762Y-67542580D01*
X79533762Y-67542580D02*
X79581381Y-67590200D01*
X79581381Y-67590200D02*
X79676619Y-67637819D01*
X79676619Y-67637819D02*
X79867095Y-67637819D01*
X79867095Y-67637819D02*
X79962333Y-67590200D01*
X79962333Y-67590200D02*
X80009952Y-67542580D01*
X80009952Y-67542580D02*
X80057571Y-67447342D01*
X80057571Y-67447342D02*
X80057571Y-66637819D01*
X80390905Y-66637819D02*
X80962333Y-66637819D01*
X80676619Y-67637819D02*
X80676619Y-66637819D01*
X78478524Y-84417819D02*
X78811857Y-85417819D01*
X78811857Y-85417819D02*
X79145190Y-84417819D01*
X80049952Y-85322580D02*
X80002333Y-85370200D01*
X80002333Y-85370200D02*
X79859476Y-85417819D01*
X79859476Y-85417819D02*
X79764238Y-85417819D01*
X79764238Y-85417819D02*
X79621381Y-85370200D01*
X79621381Y-85370200D02*
X79526143Y-85274961D01*
X79526143Y-85274961D02*
X79478524Y-85179723D01*
X79478524Y-85179723D02*
X79430905Y-84989247D01*
X79430905Y-84989247D02*
X79430905Y-84846390D01*
X79430905Y-84846390D02*
X79478524Y-84655914D01*
X79478524Y-84655914D02*
X79526143Y-84560676D01*
X79526143Y-84560676D02*
X79621381Y-84465438D01*
X79621381Y-84465438D02*
X79764238Y-84417819D01*
X79764238Y-84417819D02*
X79859476Y-84417819D01*
X79859476Y-84417819D02*
X80002333Y-84465438D01*
X80002333Y-84465438D02*
X80049952Y-84513057D01*
X80669000Y-84417819D02*
X80859476Y-84417819D01*
X80859476Y-84417819D02*
X80954714Y-84465438D01*
X80954714Y-84465438D02*
X81049952Y-84560676D01*
X81049952Y-84560676D02*
X81097571Y-84751152D01*
X81097571Y-84751152D02*
X81097571Y-85084485D01*
X81097571Y-85084485D02*
X81049952Y-85274961D01*
X81049952Y-85274961D02*
X80954714Y-85370200D01*
X80954714Y-85370200D02*
X80859476Y-85417819D01*
X80859476Y-85417819D02*
X80669000Y-85417819D01*
X80669000Y-85417819D02*
X80573762Y-85370200D01*
X80573762Y-85370200D02*
X80478524Y-85274961D01*
X80478524Y-85274961D02*
X80430905Y-85084485D01*
X80430905Y-85084485D02*
X80430905Y-84751152D01*
X80430905Y-84751152D02*
X80478524Y-84560676D01*
X80478524Y-84560676D02*
X80573762Y-84465438D01*
X80573762Y-84465438D02*
X80669000Y-84417819D01*
X81526143Y-85417819D02*
X81526143Y-84417819D01*
X81526143Y-84417819D02*
X82097571Y-85417819D01*
X82097571Y-85417819D02*
X82097571Y-84417819D01*
X82430905Y-84417819D02*
X83002333Y-84417819D01*
X82716619Y-85417819D02*
X82716619Y-84417819D01*
X83907095Y-85417819D02*
X83573762Y-84941628D01*
X83335667Y-85417819D02*
X83335667Y-84417819D01*
X83335667Y-84417819D02*
X83716619Y-84417819D01*
X83716619Y-84417819D02*
X83811857Y-84465438D01*
X83811857Y-84465438D02*
X83859476Y-84513057D01*
X83859476Y-84513057D02*
X83907095Y-84608295D01*
X83907095Y-84608295D02*
X83907095Y-84751152D01*
X83907095Y-84751152D02*
X83859476Y-84846390D01*
X83859476Y-84846390D02*
X83811857Y-84894009D01*
X83811857Y-84894009D02*
X83716619Y-84941628D01*
X83716619Y-84941628D02*
X83335667Y-84941628D01*
X84526143Y-84417819D02*
X84716619Y-84417819D01*
X84716619Y-84417819D02*
X84811857Y-84465438D01*
X84811857Y-84465438D02*
X84907095Y-84560676D01*
X84907095Y-84560676D02*
X84954714Y-84751152D01*
X84954714Y-84751152D02*
X84954714Y-85084485D01*
X84954714Y-85084485D02*
X84907095Y-85274961D01*
X84907095Y-85274961D02*
X84811857Y-85370200D01*
X84811857Y-85370200D02*
X84716619Y-85417819D01*
X84716619Y-85417819D02*
X84526143Y-85417819D01*
X84526143Y-85417819D02*
X84430905Y-85370200D01*
X84430905Y-85370200D02*
X84335667Y-85274961D01*
X84335667Y-85274961D02*
X84288048Y-85084485D01*
X84288048Y-85084485D02*
X84288048Y-84751152D01*
X84288048Y-84751152D02*
X84335667Y-84560676D01*
X84335667Y-84560676D02*
X84430905Y-84465438D01*
X84430905Y-84465438D02*
X84526143Y-84417819D01*
X85859476Y-85417819D02*
X85383286Y-85417819D01*
X85383286Y-85417819D02*
X85383286Y-84417819D01*
X91543286Y-84909819D02*
X91543286Y-83909819D01*
X91543286Y-83909819D02*
X92114714Y-84909819D01*
X92114714Y-84909819D02*
X92114714Y-83909819D01*
X93162333Y-84814580D02*
X93114714Y-84862200D01*
X93114714Y-84862200D02*
X92971857Y-84909819D01*
X92971857Y-84909819D02*
X92876619Y-84909819D01*
X92876619Y-84909819D02*
X92733762Y-84862200D01*
X92733762Y-84862200D02*
X92638524Y-84766961D01*
X92638524Y-84766961D02*
X92590905Y-84671723D01*
X92590905Y-84671723D02*
X92543286Y-84481247D01*
X92543286Y-84481247D02*
X92543286Y-84338390D01*
X92543286Y-84338390D02*
X92590905Y-84147914D01*
X92590905Y-84147914D02*
X92638524Y-84052676D01*
X92638524Y-84052676D02*
X92733762Y-83957438D01*
X92733762Y-83957438D02*
X92876619Y-83909819D01*
X92876619Y-83909819D02*
X92971857Y-83909819D01*
X92971857Y-83909819D02*
X93114714Y-83957438D01*
X93114714Y-83957438D02*
X93162333Y-84005057D01*
X79843333Y-41729819D02*
X79510000Y-41253628D01*
X79271905Y-41729819D02*
X79271905Y-40729819D01*
X79271905Y-40729819D02*
X79652857Y-40729819D01*
X79652857Y-40729819D02*
X79748095Y-40777438D01*
X79748095Y-40777438D02*
X79795714Y-40825057D01*
X79795714Y-40825057D02*
X79843333Y-40920295D01*
X79843333Y-40920295D02*
X79843333Y-41063152D01*
X79843333Y-41063152D02*
X79795714Y-41158390D01*
X79795714Y-41158390D02*
X79748095Y-41206009D01*
X79748095Y-41206009D02*
X79652857Y-41253628D01*
X79652857Y-41253628D02*
X79271905Y-41253628D01*
X80319524Y-41729819D02*
X80510000Y-41729819D01*
X80510000Y-41729819D02*
X80605238Y-41682200D01*
X80605238Y-41682200D02*
X80652857Y-41634580D01*
X80652857Y-41634580D02*
X80748095Y-41491723D01*
X80748095Y-41491723D02*
X80795714Y-41301247D01*
X80795714Y-41301247D02*
X80795714Y-40920295D01*
X80795714Y-40920295D02*
X80748095Y-40825057D01*
X80748095Y-40825057D02*
X80700476Y-40777438D01*
X80700476Y-40777438D02*
X80605238Y-40729819D01*
X80605238Y-40729819D02*
X80414762Y-40729819D01*
X80414762Y-40729819D02*
X80319524Y-40777438D01*
X80319524Y-40777438D02*
X80271905Y-40825057D01*
X80271905Y-40825057D02*
X80224286Y-40920295D01*
X80224286Y-40920295D02*
X80224286Y-41158390D01*
X80224286Y-41158390D02*
X80271905Y-41253628D01*
X80271905Y-41253628D02*
X80319524Y-41301247D01*
X80319524Y-41301247D02*
X80414762Y-41348866D01*
X80414762Y-41348866D02*
X80605238Y-41348866D01*
X80605238Y-41348866D02*
X80700476Y-41301247D01*
X80700476Y-41301247D02*
X80748095Y-41253628D01*
X80748095Y-41253628D02*
X80795714Y-41158390D01*
X86682342Y-54207580D02*
X86634723Y-54255200D01*
X86634723Y-54255200D02*
X86491866Y-54302819D01*
X86491866Y-54302819D02*
X86396628Y-54302819D01*
X86396628Y-54302819D02*
X86253771Y-54255200D01*
X86253771Y-54255200D02*
X86158533Y-54159961D01*
X86158533Y-54159961D02*
X86110914Y-54064723D01*
X86110914Y-54064723D02*
X86063295Y-53874247D01*
X86063295Y-53874247D02*
X86063295Y-53731390D01*
X86063295Y-53731390D02*
X86110914Y-53540914D01*
X86110914Y-53540914D02*
X86158533Y-53445676D01*
X86158533Y-53445676D02*
X86253771Y-53350438D01*
X86253771Y-53350438D02*
X86396628Y-53302819D01*
X86396628Y-53302819D02*
X86491866Y-53302819D01*
X86491866Y-53302819D02*
X86634723Y-53350438D01*
X86634723Y-53350438D02*
X86682342Y-53398057D01*
X87015676Y-53302819D02*
X87634723Y-53302819D01*
X87634723Y-53302819D02*
X87301390Y-53683771D01*
X87301390Y-53683771D02*
X87444247Y-53683771D01*
X87444247Y-53683771D02*
X87539485Y-53731390D01*
X87539485Y-53731390D02*
X87587104Y-53779009D01*
X87587104Y-53779009D02*
X87634723Y-53874247D01*
X87634723Y-53874247D02*
X87634723Y-54112342D01*
X87634723Y-54112342D02*
X87587104Y-54207580D01*
X87587104Y-54207580D02*
X87539485Y-54255200D01*
X87539485Y-54255200D02*
X87444247Y-54302819D01*
X87444247Y-54302819D02*
X87158533Y-54302819D01*
X87158533Y-54302819D02*
X87063295Y-54255200D01*
X87063295Y-54255200D02*
X87015676Y-54207580D01*
X88491866Y-53636152D02*
X88491866Y-54302819D01*
X88253771Y-53255200D02*
X88015676Y-53969485D01*
X88015676Y-53969485D02*
X88634723Y-53969485D01*
X41818333Y-70454819D02*
X41485000Y-69978628D01*
X41246905Y-70454819D02*
X41246905Y-69454819D01*
X41246905Y-69454819D02*
X41627857Y-69454819D01*
X41627857Y-69454819D02*
X41723095Y-69502438D01*
X41723095Y-69502438D02*
X41770714Y-69550057D01*
X41770714Y-69550057D02*
X41818333Y-69645295D01*
X41818333Y-69645295D02*
X41818333Y-69788152D01*
X41818333Y-69788152D02*
X41770714Y-69883390D01*
X41770714Y-69883390D02*
X41723095Y-69931009D01*
X41723095Y-69931009D02*
X41627857Y-69978628D01*
X41627857Y-69978628D02*
X41246905Y-69978628D01*
X42151667Y-69454819D02*
X42770714Y-69454819D01*
X42770714Y-69454819D02*
X42437381Y-69835771D01*
X42437381Y-69835771D02*
X42580238Y-69835771D01*
X42580238Y-69835771D02*
X42675476Y-69883390D01*
X42675476Y-69883390D02*
X42723095Y-69931009D01*
X42723095Y-69931009D02*
X42770714Y-70026247D01*
X42770714Y-70026247D02*
X42770714Y-70264342D01*
X42770714Y-70264342D02*
X42723095Y-70359580D01*
X42723095Y-70359580D02*
X42675476Y-70407200D01*
X42675476Y-70407200D02*
X42580238Y-70454819D01*
X42580238Y-70454819D02*
X42294524Y-70454819D01*
X42294524Y-70454819D02*
X42199286Y-70407200D01*
X42199286Y-70407200D02*
X42151667Y-70359580D01*
X24203066Y-55842819D02*
X24203066Y-56557104D01*
X24203066Y-56557104D02*
X24155447Y-56699961D01*
X24155447Y-56699961D02*
X24060209Y-56795200D01*
X24060209Y-56795200D02*
X23917352Y-56842819D01*
X23917352Y-56842819D02*
X23822114Y-56842819D01*
X25155447Y-55842819D02*
X24679257Y-55842819D01*
X24679257Y-55842819D02*
X24631638Y-56319009D01*
X24631638Y-56319009D02*
X24679257Y-56271390D01*
X24679257Y-56271390D02*
X24774495Y-56223771D01*
X24774495Y-56223771D02*
X25012590Y-56223771D01*
X25012590Y-56223771D02*
X25107828Y-56271390D01*
X25107828Y-56271390D02*
X25155447Y-56319009D01*
X25155447Y-56319009D02*
X25203066Y-56414247D01*
X25203066Y-56414247D02*
X25203066Y-56652342D01*
X25203066Y-56652342D02*
X25155447Y-56747580D01*
X25155447Y-56747580D02*
X25107828Y-56795200D01*
X25107828Y-56795200D02*
X25012590Y-56842819D01*
X25012590Y-56842819D02*
X24774495Y-56842819D01*
X24774495Y-56842819D02*
X24679257Y-56795200D01*
X24679257Y-56795200D02*
X24631638Y-56747580D01*
X77319142Y-54207580D02*
X77271523Y-54255200D01*
X77271523Y-54255200D02*
X77128666Y-54302819D01*
X77128666Y-54302819D02*
X77033428Y-54302819D01*
X77033428Y-54302819D02*
X76890571Y-54255200D01*
X76890571Y-54255200D02*
X76795333Y-54159961D01*
X76795333Y-54159961D02*
X76747714Y-54064723D01*
X76747714Y-54064723D02*
X76700095Y-53874247D01*
X76700095Y-53874247D02*
X76700095Y-53731390D01*
X76700095Y-53731390D02*
X76747714Y-53540914D01*
X76747714Y-53540914D02*
X76795333Y-53445676D01*
X76795333Y-53445676D02*
X76890571Y-53350438D01*
X76890571Y-53350438D02*
X77033428Y-53302819D01*
X77033428Y-53302819D02*
X77128666Y-53302819D01*
X77128666Y-53302819D02*
X77271523Y-53350438D01*
X77271523Y-53350438D02*
X77319142Y-53398057D01*
X78271523Y-54302819D02*
X77700095Y-54302819D01*
X77985809Y-54302819D02*
X77985809Y-53302819D01*
X77985809Y-53302819D02*
X77890571Y-53445676D01*
X77890571Y-53445676D02*
X77795333Y-53540914D01*
X77795333Y-53540914D02*
X77700095Y-53588533D01*
X78604857Y-53302819D02*
X79223904Y-53302819D01*
X79223904Y-53302819D02*
X78890571Y-53683771D01*
X78890571Y-53683771D02*
X79033428Y-53683771D01*
X79033428Y-53683771D02*
X79128666Y-53731390D01*
X79128666Y-53731390D02*
X79176285Y-53779009D01*
X79176285Y-53779009D02*
X79223904Y-53874247D01*
X79223904Y-53874247D02*
X79223904Y-54112342D01*
X79223904Y-54112342D02*
X79176285Y-54207580D01*
X79176285Y-54207580D02*
X79128666Y-54255200D01*
X79128666Y-54255200D02*
X79033428Y-54302819D01*
X79033428Y-54302819D02*
X78747714Y-54302819D01*
X78747714Y-54302819D02*
X78652476Y-54255200D01*
X78652476Y-54255200D02*
X78604857Y-54207580D01*
X55064580Y-48680666D02*
X55112200Y-48728285D01*
X55112200Y-48728285D02*
X55159819Y-48871142D01*
X55159819Y-48871142D02*
X55159819Y-48966380D01*
X55159819Y-48966380D02*
X55112200Y-49109237D01*
X55112200Y-49109237D02*
X55016961Y-49204475D01*
X55016961Y-49204475D02*
X54921723Y-49252094D01*
X54921723Y-49252094D02*
X54731247Y-49299713D01*
X54731247Y-49299713D02*
X54588390Y-49299713D01*
X54588390Y-49299713D02*
X54397914Y-49252094D01*
X54397914Y-49252094D02*
X54302676Y-49204475D01*
X54302676Y-49204475D02*
X54207438Y-49109237D01*
X54207438Y-49109237D02*
X54159819Y-48966380D01*
X54159819Y-48966380D02*
X54159819Y-48871142D01*
X54159819Y-48871142D02*
X54207438Y-48728285D01*
X54207438Y-48728285D02*
X54255057Y-48680666D01*
X55159819Y-47728285D02*
X55159819Y-48299713D01*
X55159819Y-48013999D02*
X54159819Y-48013999D01*
X54159819Y-48013999D02*
X54302676Y-48109237D01*
X54302676Y-48109237D02*
X54397914Y-48204475D01*
X54397914Y-48204475D02*
X54445533Y-48299713D01*
X29061580Y-41536857D02*
X29109200Y-41584476D01*
X29109200Y-41584476D02*
X29156819Y-41727333D01*
X29156819Y-41727333D02*
X29156819Y-41822571D01*
X29156819Y-41822571D02*
X29109200Y-41965428D01*
X29109200Y-41965428D02*
X29013961Y-42060666D01*
X29013961Y-42060666D02*
X28918723Y-42108285D01*
X28918723Y-42108285D02*
X28728247Y-42155904D01*
X28728247Y-42155904D02*
X28585390Y-42155904D01*
X28585390Y-42155904D02*
X28394914Y-42108285D01*
X28394914Y-42108285D02*
X28299676Y-42060666D01*
X28299676Y-42060666D02*
X28204438Y-41965428D01*
X28204438Y-41965428D02*
X28156819Y-41822571D01*
X28156819Y-41822571D02*
X28156819Y-41727333D01*
X28156819Y-41727333D02*
X28204438Y-41584476D01*
X28204438Y-41584476D02*
X28252057Y-41536857D01*
X28252057Y-41155904D02*
X28204438Y-41108285D01*
X28204438Y-41108285D02*
X28156819Y-41013047D01*
X28156819Y-41013047D02*
X28156819Y-40774952D01*
X28156819Y-40774952D02*
X28204438Y-40679714D01*
X28204438Y-40679714D02*
X28252057Y-40632095D01*
X28252057Y-40632095D02*
X28347295Y-40584476D01*
X28347295Y-40584476D02*
X28442533Y-40584476D01*
X28442533Y-40584476D02*
X28585390Y-40632095D01*
X28585390Y-40632095D02*
X29156819Y-41203523D01*
X29156819Y-41203523D02*
X29156819Y-40584476D01*
X28585390Y-40013047D02*
X28537771Y-40108285D01*
X28537771Y-40108285D02*
X28490152Y-40155904D01*
X28490152Y-40155904D02*
X28394914Y-40203523D01*
X28394914Y-40203523D02*
X28347295Y-40203523D01*
X28347295Y-40203523D02*
X28252057Y-40155904D01*
X28252057Y-40155904D02*
X28204438Y-40108285D01*
X28204438Y-40108285D02*
X28156819Y-40013047D01*
X28156819Y-40013047D02*
X28156819Y-39822571D01*
X28156819Y-39822571D02*
X28204438Y-39727333D01*
X28204438Y-39727333D02*
X28252057Y-39679714D01*
X28252057Y-39679714D02*
X28347295Y-39632095D01*
X28347295Y-39632095D02*
X28394914Y-39632095D01*
X28394914Y-39632095D02*
X28490152Y-39679714D01*
X28490152Y-39679714D02*
X28537771Y-39727333D01*
X28537771Y-39727333D02*
X28585390Y-39822571D01*
X28585390Y-39822571D02*
X28585390Y-40013047D01*
X28585390Y-40013047D02*
X28633009Y-40108285D01*
X28633009Y-40108285D02*
X28680628Y-40155904D01*
X28680628Y-40155904D02*
X28775866Y-40203523D01*
X28775866Y-40203523D02*
X28966342Y-40203523D01*
X28966342Y-40203523D02*
X29061580Y-40155904D01*
X29061580Y-40155904D02*
X29109200Y-40108285D01*
X29109200Y-40108285D02*
X29156819Y-40013047D01*
X29156819Y-40013047D02*
X29156819Y-39822571D01*
X29156819Y-39822571D02*
X29109200Y-39727333D01*
X29109200Y-39727333D02*
X29061580Y-39679714D01*
X29061580Y-39679714D02*
X28966342Y-39632095D01*
X28966342Y-39632095D02*
X28775866Y-39632095D01*
X28775866Y-39632095D02*
X28680628Y-39679714D01*
X28680628Y-39679714D02*
X28633009Y-39727333D01*
X28633009Y-39727333D02*
X28585390Y-39822571D01*
X29172819Y-95456333D02*
X29887104Y-95456333D01*
X29887104Y-95456333D02*
X30029961Y-95503952D01*
X30029961Y-95503952D02*
X30125200Y-95599190D01*
X30125200Y-95599190D02*
X30172819Y-95742047D01*
X30172819Y-95742047D02*
X30172819Y-95837285D01*
X29268057Y-95027761D02*
X29220438Y-94980142D01*
X29220438Y-94980142D02*
X29172819Y-94884904D01*
X29172819Y-94884904D02*
X29172819Y-94646809D01*
X29172819Y-94646809D02*
X29220438Y-94551571D01*
X29220438Y-94551571D02*
X29268057Y-94503952D01*
X29268057Y-94503952D02*
X29363295Y-94456333D01*
X29363295Y-94456333D02*
X29458533Y-94456333D01*
X29458533Y-94456333D02*
X29601390Y-94503952D01*
X29601390Y-94503952D02*
X30172819Y-95075380D01*
X30172819Y-95075380D02*
X30172819Y-94456333D01*
X52982905Y-83004819D02*
X52982905Y-82004819D01*
X52982905Y-82004819D02*
X53221000Y-82004819D01*
X53221000Y-82004819D02*
X53363857Y-82052438D01*
X53363857Y-82052438D02*
X53459095Y-82147676D01*
X53459095Y-82147676D02*
X53506714Y-82242914D01*
X53506714Y-82242914D02*
X53554333Y-82433390D01*
X53554333Y-82433390D02*
X53554333Y-82576247D01*
X53554333Y-82576247D02*
X53506714Y-82766723D01*
X53506714Y-82766723D02*
X53459095Y-82861961D01*
X53459095Y-82861961D02*
X53363857Y-82957200D01*
X53363857Y-82957200D02*
X53221000Y-83004819D01*
X53221000Y-83004819D02*
X52982905Y-83004819D01*
X54411476Y-82338152D02*
X54411476Y-83004819D01*
X54173381Y-81957200D02*
X53935286Y-82671485D01*
X53935286Y-82671485D02*
X54554333Y-82671485D01*
X52355905Y-83909819D02*
X52355905Y-84719342D01*
X52355905Y-84719342D02*
X52403524Y-84814580D01*
X52403524Y-84814580D02*
X52451143Y-84862200D01*
X52451143Y-84862200D02*
X52546381Y-84909819D01*
X52546381Y-84909819D02*
X52736857Y-84909819D01*
X52736857Y-84909819D02*
X52832095Y-84862200D01*
X52832095Y-84862200D02*
X52879714Y-84814580D01*
X52879714Y-84814580D02*
X52927333Y-84719342D01*
X52927333Y-84719342D02*
X52927333Y-83909819D01*
X53927333Y-84909819D02*
X53355905Y-84909819D01*
X53641619Y-84909819D02*
X53641619Y-83909819D01*
X53641619Y-83909819D02*
X53546381Y-84052676D01*
X53546381Y-84052676D02*
X53451143Y-84147914D01*
X53451143Y-84147914D02*
X53355905Y-84195533D01*
X54308286Y-84005057D02*
X54355905Y-83957438D01*
X54355905Y-83957438D02*
X54451143Y-83909819D01*
X54451143Y-83909819D02*
X54689238Y-83909819D01*
X54689238Y-83909819D02*
X54784476Y-83957438D01*
X54784476Y-83957438D02*
X54832095Y-84005057D01*
X54832095Y-84005057D02*
X54879714Y-84100295D01*
X54879714Y-84100295D02*
X54879714Y-84195533D01*
X54879714Y-84195533D02*
X54832095Y-84338390D01*
X54832095Y-84338390D02*
X54260667Y-84909819D01*
X54260667Y-84909819D02*
X54879714Y-84909819D01*
X35486580Y-73211857D02*
X35534200Y-73259476D01*
X35534200Y-73259476D02*
X35581819Y-73402333D01*
X35581819Y-73402333D02*
X35581819Y-73497571D01*
X35581819Y-73497571D02*
X35534200Y-73640428D01*
X35534200Y-73640428D02*
X35438961Y-73735666D01*
X35438961Y-73735666D02*
X35343723Y-73783285D01*
X35343723Y-73783285D02*
X35153247Y-73830904D01*
X35153247Y-73830904D02*
X35010390Y-73830904D01*
X35010390Y-73830904D02*
X34819914Y-73783285D01*
X34819914Y-73783285D02*
X34724676Y-73735666D01*
X34724676Y-73735666D02*
X34629438Y-73640428D01*
X34629438Y-73640428D02*
X34581819Y-73497571D01*
X34581819Y-73497571D02*
X34581819Y-73402333D01*
X34581819Y-73402333D02*
X34629438Y-73259476D01*
X34629438Y-73259476D02*
X34677057Y-73211857D01*
X34677057Y-72830904D02*
X34629438Y-72783285D01*
X34629438Y-72783285D02*
X34581819Y-72688047D01*
X34581819Y-72688047D02*
X34581819Y-72449952D01*
X34581819Y-72449952D02*
X34629438Y-72354714D01*
X34629438Y-72354714D02*
X34677057Y-72307095D01*
X34677057Y-72307095D02*
X34772295Y-72259476D01*
X34772295Y-72259476D02*
X34867533Y-72259476D01*
X34867533Y-72259476D02*
X35010390Y-72307095D01*
X35010390Y-72307095D02*
X35581819Y-72878523D01*
X35581819Y-72878523D02*
X35581819Y-72259476D01*
X34581819Y-71640428D02*
X34581819Y-71545190D01*
X34581819Y-71545190D02*
X34629438Y-71449952D01*
X34629438Y-71449952D02*
X34677057Y-71402333D01*
X34677057Y-71402333D02*
X34772295Y-71354714D01*
X34772295Y-71354714D02*
X34962771Y-71307095D01*
X34962771Y-71307095D02*
X35200866Y-71307095D01*
X35200866Y-71307095D02*
X35391342Y-71354714D01*
X35391342Y-71354714D02*
X35486580Y-71402333D01*
X35486580Y-71402333D02*
X35534200Y-71449952D01*
X35534200Y-71449952D02*
X35581819Y-71545190D01*
X35581819Y-71545190D02*
X35581819Y-71640428D01*
X35581819Y-71640428D02*
X35534200Y-71735666D01*
X35534200Y-71735666D02*
X35486580Y-71783285D01*
X35486580Y-71783285D02*
X35391342Y-71830904D01*
X35391342Y-71830904D02*
X35200866Y-71878523D01*
X35200866Y-71878523D02*
X34962771Y-71878523D01*
X34962771Y-71878523D02*
X34772295Y-71830904D01*
X34772295Y-71830904D02*
X34677057Y-71783285D01*
X34677057Y-71783285D02*
X34629438Y-71735666D01*
X34629438Y-71735666D02*
X34581819Y-71640428D01*
X53572580Y-99829857D02*
X53620200Y-99877476D01*
X53620200Y-99877476D02*
X53667819Y-100020333D01*
X53667819Y-100020333D02*
X53667819Y-100115571D01*
X53667819Y-100115571D02*
X53620200Y-100258428D01*
X53620200Y-100258428D02*
X53524961Y-100353666D01*
X53524961Y-100353666D02*
X53429723Y-100401285D01*
X53429723Y-100401285D02*
X53239247Y-100448904D01*
X53239247Y-100448904D02*
X53096390Y-100448904D01*
X53096390Y-100448904D02*
X52905914Y-100401285D01*
X52905914Y-100401285D02*
X52810676Y-100353666D01*
X52810676Y-100353666D02*
X52715438Y-100258428D01*
X52715438Y-100258428D02*
X52667819Y-100115571D01*
X52667819Y-100115571D02*
X52667819Y-100020333D01*
X52667819Y-100020333D02*
X52715438Y-99877476D01*
X52715438Y-99877476D02*
X52763057Y-99829857D01*
X52763057Y-99448904D02*
X52715438Y-99401285D01*
X52715438Y-99401285D02*
X52667819Y-99306047D01*
X52667819Y-99306047D02*
X52667819Y-99067952D01*
X52667819Y-99067952D02*
X52715438Y-98972714D01*
X52715438Y-98972714D02*
X52763057Y-98925095D01*
X52763057Y-98925095D02*
X52858295Y-98877476D01*
X52858295Y-98877476D02*
X52953533Y-98877476D01*
X52953533Y-98877476D02*
X53096390Y-98925095D01*
X53096390Y-98925095D02*
X53667819Y-99496523D01*
X53667819Y-99496523D02*
X53667819Y-98877476D01*
X52667819Y-98020333D02*
X52667819Y-98210809D01*
X52667819Y-98210809D02*
X52715438Y-98306047D01*
X52715438Y-98306047D02*
X52763057Y-98353666D01*
X52763057Y-98353666D02*
X52905914Y-98448904D01*
X52905914Y-98448904D02*
X53096390Y-98496523D01*
X53096390Y-98496523D02*
X53477342Y-98496523D01*
X53477342Y-98496523D02*
X53572580Y-98448904D01*
X53572580Y-98448904D02*
X53620200Y-98401285D01*
X53620200Y-98401285D02*
X53667819Y-98306047D01*
X53667819Y-98306047D02*
X53667819Y-98115571D01*
X53667819Y-98115571D02*
X53620200Y-98020333D01*
X53620200Y-98020333D02*
X53572580Y-97972714D01*
X53572580Y-97972714D02*
X53477342Y-97925095D01*
X53477342Y-97925095D02*
X53239247Y-97925095D01*
X53239247Y-97925095D02*
X53144009Y-97972714D01*
X53144009Y-97972714D02*
X53096390Y-98020333D01*
X53096390Y-98020333D02*
X53048771Y-98115571D01*
X53048771Y-98115571D02*
X53048771Y-98306047D01*
X53048771Y-98306047D02*
X53096390Y-98401285D01*
X53096390Y-98401285D02*
X53144009Y-98448904D01*
X53144009Y-98448904D02*
X53239247Y-98496523D01*
X82796142Y-50270580D02*
X82748523Y-50318200D01*
X82748523Y-50318200D02*
X82605666Y-50365819D01*
X82605666Y-50365819D02*
X82510428Y-50365819D01*
X82510428Y-50365819D02*
X82367571Y-50318200D01*
X82367571Y-50318200D02*
X82272333Y-50222961D01*
X82272333Y-50222961D02*
X82224714Y-50127723D01*
X82224714Y-50127723D02*
X82177095Y-49937247D01*
X82177095Y-49937247D02*
X82177095Y-49794390D01*
X82177095Y-49794390D02*
X82224714Y-49603914D01*
X82224714Y-49603914D02*
X82272333Y-49508676D01*
X82272333Y-49508676D02*
X82367571Y-49413438D01*
X82367571Y-49413438D02*
X82510428Y-49365819D01*
X82510428Y-49365819D02*
X82605666Y-49365819D01*
X82605666Y-49365819D02*
X82748523Y-49413438D01*
X82748523Y-49413438D02*
X82796142Y-49461057D01*
X83748523Y-50365819D02*
X83177095Y-50365819D01*
X83462809Y-50365819D02*
X83462809Y-49365819D01*
X83462809Y-49365819D02*
X83367571Y-49508676D01*
X83367571Y-49508676D02*
X83272333Y-49603914D01*
X83272333Y-49603914D02*
X83177095Y-49651533D01*
X84367571Y-49365819D02*
X84462809Y-49365819D01*
X84462809Y-49365819D02*
X84558047Y-49413438D01*
X84558047Y-49413438D02*
X84605666Y-49461057D01*
X84605666Y-49461057D02*
X84653285Y-49556295D01*
X84653285Y-49556295D02*
X84700904Y-49746771D01*
X84700904Y-49746771D02*
X84700904Y-49984866D01*
X84700904Y-49984866D02*
X84653285Y-50175342D01*
X84653285Y-50175342D02*
X84605666Y-50270580D01*
X84605666Y-50270580D02*
X84558047Y-50318200D01*
X84558047Y-50318200D02*
X84462809Y-50365819D01*
X84462809Y-50365819D02*
X84367571Y-50365819D01*
X84367571Y-50365819D02*
X84272333Y-50318200D01*
X84272333Y-50318200D02*
X84224714Y-50270580D01*
X84224714Y-50270580D02*
X84177095Y-50175342D01*
X84177095Y-50175342D02*
X84129476Y-49984866D01*
X84129476Y-49984866D02*
X84129476Y-49746771D01*
X84129476Y-49746771D02*
X84177095Y-49556295D01*
X84177095Y-49556295D02*
X84224714Y-49461057D01*
X84224714Y-49461057D02*
X84272333Y-49413438D01*
X84272333Y-49413438D02*
X84367571Y-49365819D01*
X46061333Y-80471180D02*
X46013714Y-80518800D01*
X46013714Y-80518800D02*
X45870857Y-80566419D01*
X45870857Y-80566419D02*
X45775619Y-80566419D01*
X45775619Y-80566419D02*
X45632762Y-80518800D01*
X45632762Y-80518800D02*
X45537524Y-80423561D01*
X45537524Y-80423561D02*
X45489905Y-80328323D01*
X45489905Y-80328323D02*
X45442286Y-80137847D01*
X45442286Y-80137847D02*
X45442286Y-79994990D01*
X45442286Y-79994990D02*
X45489905Y-79804514D01*
X45489905Y-79804514D02*
X45537524Y-79709276D01*
X45537524Y-79709276D02*
X45632762Y-79614038D01*
X45632762Y-79614038D02*
X45775619Y-79566419D01*
X45775619Y-79566419D02*
X45870857Y-79566419D01*
X45870857Y-79566419D02*
X46013714Y-79614038D01*
X46013714Y-79614038D02*
X46061333Y-79661657D01*
X46918476Y-79566419D02*
X46728000Y-79566419D01*
X46728000Y-79566419D02*
X46632762Y-79614038D01*
X46632762Y-79614038D02*
X46585143Y-79661657D01*
X46585143Y-79661657D02*
X46489905Y-79804514D01*
X46489905Y-79804514D02*
X46442286Y-79994990D01*
X46442286Y-79994990D02*
X46442286Y-80375942D01*
X46442286Y-80375942D02*
X46489905Y-80471180D01*
X46489905Y-80471180D02*
X46537524Y-80518800D01*
X46537524Y-80518800D02*
X46632762Y-80566419D01*
X46632762Y-80566419D02*
X46823238Y-80566419D01*
X46823238Y-80566419D02*
X46918476Y-80518800D01*
X46918476Y-80518800D02*
X46966095Y-80471180D01*
X46966095Y-80471180D02*
X47013714Y-80375942D01*
X47013714Y-80375942D02*
X47013714Y-80137847D01*
X47013714Y-80137847D02*
X46966095Y-80042609D01*
X46966095Y-80042609D02*
X46918476Y-79994990D01*
X46918476Y-79994990D02*
X46823238Y-79947371D01*
X46823238Y-79947371D02*
X46632762Y-79947371D01*
X46632762Y-79947371D02*
X46537524Y-79994990D01*
X46537524Y-79994990D02*
X46489905Y-80042609D01*
X46489905Y-80042609D02*
X46442286Y-80137847D01*
X25473819Y-33408857D02*
X24997628Y-33742190D01*
X25473819Y-33980285D02*
X24473819Y-33980285D01*
X24473819Y-33980285D02*
X24473819Y-33599333D01*
X24473819Y-33599333D02*
X24521438Y-33504095D01*
X24521438Y-33504095D02*
X24569057Y-33456476D01*
X24569057Y-33456476D02*
X24664295Y-33408857D01*
X24664295Y-33408857D02*
X24807152Y-33408857D01*
X24807152Y-33408857D02*
X24902390Y-33456476D01*
X24902390Y-33456476D02*
X24950009Y-33504095D01*
X24950009Y-33504095D02*
X24997628Y-33599333D01*
X24997628Y-33599333D02*
X24997628Y-33980285D01*
X25473819Y-32456476D02*
X25473819Y-33027904D01*
X25473819Y-32742190D02*
X24473819Y-32742190D01*
X24473819Y-32742190D02*
X24616676Y-32837428D01*
X24616676Y-32837428D02*
X24711914Y-32932666D01*
X24711914Y-32932666D02*
X24759533Y-33027904D01*
X24569057Y-32075523D02*
X24521438Y-32027904D01*
X24521438Y-32027904D02*
X24473819Y-31932666D01*
X24473819Y-31932666D02*
X24473819Y-31694571D01*
X24473819Y-31694571D02*
X24521438Y-31599333D01*
X24521438Y-31599333D02*
X24569057Y-31551714D01*
X24569057Y-31551714D02*
X24664295Y-31504095D01*
X24664295Y-31504095D02*
X24759533Y-31504095D01*
X24759533Y-31504095D02*
X24902390Y-31551714D01*
X24902390Y-31551714D02*
X25473819Y-32123142D01*
X25473819Y-32123142D02*
X25473819Y-31504095D01*
X40745580Y-84081857D02*
X40793200Y-84129476D01*
X40793200Y-84129476D02*
X40840819Y-84272333D01*
X40840819Y-84272333D02*
X40840819Y-84367571D01*
X40840819Y-84367571D02*
X40793200Y-84510428D01*
X40793200Y-84510428D02*
X40697961Y-84605666D01*
X40697961Y-84605666D02*
X40602723Y-84653285D01*
X40602723Y-84653285D02*
X40412247Y-84700904D01*
X40412247Y-84700904D02*
X40269390Y-84700904D01*
X40269390Y-84700904D02*
X40078914Y-84653285D01*
X40078914Y-84653285D02*
X39983676Y-84605666D01*
X39983676Y-84605666D02*
X39888438Y-84510428D01*
X39888438Y-84510428D02*
X39840819Y-84367571D01*
X39840819Y-84367571D02*
X39840819Y-84272333D01*
X39840819Y-84272333D02*
X39888438Y-84129476D01*
X39888438Y-84129476D02*
X39936057Y-84081857D01*
X39936057Y-83700904D02*
X39888438Y-83653285D01*
X39888438Y-83653285D02*
X39840819Y-83558047D01*
X39840819Y-83558047D02*
X39840819Y-83319952D01*
X39840819Y-83319952D02*
X39888438Y-83224714D01*
X39888438Y-83224714D02*
X39936057Y-83177095D01*
X39936057Y-83177095D02*
X40031295Y-83129476D01*
X40031295Y-83129476D02*
X40126533Y-83129476D01*
X40126533Y-83129476D02*
X40269390Y-83177095D01*
X40269390Y-83177095D02*
X40840819Y-83748523D01*
X40840819Y-83748523D02*
X40840819Y-83129476D01*
X39840819Y-82796142D02*
X39840819Y-82129476D01*
X39840819Y-82129476D02*
X40840819Y-82558047D01*
X39997142Y-31982580D02*
X39949523Y-32030200D01*
X39949523Y-32030200D02*
X39806666Y-32077819D01*
X39806666Y-32077819D02*
X39711428Y-32077819D01*
X39711428Y-32077819D02*
X39568571Y-32030200D01*
X39568571Y-32030200D02*
X39473333Y-31934961D01*
X39473333Y-31934961D02*
X39425714Y-31839723D01*
X39425714Y-31839723D02*
X39378095Y-31649247D01*
X39378095Y-31649247D02*
X39378095Y-31506390D01*
X39378095Y-31506390D02*
X39425714Y-31315914D01*
X39425714Y-31315914D02*
X39473333Y-31220676D01*
X39473333Y-31220676D02*
X39568571Y-31125438D01*
X39568571Y-31125438D02*
X39711428Y-31077819D01*
X39711428Y-31077819D02*
X39806666Y-31077819D01*
X39806666Y-31077819D02*
X39949523Y-31125438D01*
X39949523Y-31125438D02*
X39997142Y-31173057D01*
X40854285Y-31411152D02*
X40854285Y-32077819D01*
X40616190Y-31030200D02*
X40378095Y-31744485D01*
X40378095Y-31744485D02*
X40997142Y-31744485D01*
X41854285Y-31077819D02*
X41378095Y-31077819D01*
X41378095Y-31077819D02*
X41330476Y-31554009D01*
X41330476Y-31554009D02*
X41378095Y-31506390D01*
X41378095Y-31506390D02*
X41473333Y-31458771D01*
X41473333Y-31458771D02*
X41711428Y-31458771D01*
X41711428Y-31458771D02*
X41806666Y-31506390D01*
X41806666Y-31506390D02*
X41854285Y-31554009D01*
X41854285Y-31554009D02*
X41901904Y-31649247D01*
X41901904Y-31649247D02*
X41901904Y-31887342D01*
X41901904Y-31887342D02*
X41854285Y-31982580D01*
X41854285Y-31982580D02*
X41806666Y-32030200D01*
X41806666Y-32030200D02*
X41711428Y-32077819D01*
X41711428Y-32077819D02*
X41473333Y-32077819D01*
X41473333Y-32077819D02*
X41378095Y-32030200D01*
X41378095Y-32030200D02*
X41330476Y-31982580D01*
X52879666Y-51905819D02*
X52879666Y-52620104D01*
X52879666Y-52620104D02*
X52832047Y-52762961D01*
X52832047Y-52762961D02*
X52736809Y-52858200D01*
X52736809Y-52858200D02*
X52593952Y-52905819D01*
X52593952Y-52905819D02*
X52498714Y-52905819D01*
X53784428Y-52239152D02*
X53784428Y-52905819D01*
X53546333Y-51858200D02*
X53308238Y-52572485D01*
X53308238Y-52572485D02*
X53927285Y-52572485D01*
X63859580Y-36964857D02*
X63907200Y-37012476D01*
X63907200Y-37012476D02*
X63954819Y-37155333D01*
X63954819Y-37155333D02*
X63954819Y-37250571D01*
X63954819Y-37250571D02*
X63907200Y-37393428D01*
X63907200Y-37393428D02*
X63811961Y-37488666D01*
X63811961Y-37488666D02*
X63716723Y-37536285D01*
X63716723Y-37536285D02*
X63526247Y-37583904D01*
X63526247Y-37583904D02*
X63383390Y-37583904D01*
X63383390Y-37583904D02*
X63192914Y-37536285D01*
X63192914Y-37536285D02*
X63097676Y-37488666D01*
X63097676Y-37488666D02*
X63002438Y-37393428D01*
X63002438Y-37393428D02*
X62954819Y-37250571D01*
X62954819Y-37250571D02*
X62954819Y-37155333D01*
X62954819Y-37155333D02*
X63002438Y-37012476D01*
X63002438Y-37012476D02*
X63050057Y-36964857D01*
X63288152Y-36107714D02*
X63954819Y-36107714D01*
X62907200Y-36345809D02*
X63621485Y-36583904D01*
X63621485Y-36583904D02*
X63621485Y-35964857D01*
X63954819Y-35060095D02*
X63954819Y-35631523D01*
X63954819Y-35345809D02*
X62954819Y-35345809D01*
X62954819Y-35345809D02*
X63097676Y-35441047D01*
X63097676Y-35441047D02*
X63192914Y-35536285D01*
X63192914Y-35536285D02*
X63240533Y-35631523D01*
X61624476Y-29187419D02*
X61624476Y-29901704D01*
X61624476Y-29901704D02*
X61576857Y-30044561D01*
X61576857Y-30044561D02*
X61481619Y-30139800D01*
X61481619Y-30139800D02*
X61338762Y-30187419D01*
X61338762Y-30187419D02*
X61243524Y-30187419D01*
X62624476Y-30187419D02*
X62053048Y-30187419D01*
X62338762Y-30187419D02*
X62338762Y-29187419D01*
X62338762Y-29187419D02*
X62243524Y-29330276D01*
X62243524Y-29330276D02*
X62148286Y-29425514D01*
X62148286Y-29425514D02*
X62053048Y-29473133D01*
X63243524Y-29187419D02*
X63338762Y-29187419D01*
X63338762Y-29187419D02*
X63434000Y-29235038D01*
X63434000Y-29235038D02*
X63481619Y-29282657D01*
X63481619Y-29282657D02*
X63529238Y-29377895D01*
X63529238Y-29377895D02*
X63576857Y-29568371D01*
X63576857Y-29568371D02*
X63576857Y-29806466D01*
X63576857Y-29806466D02*
X63529238Y-29996942D01*
X63529238Y-29996942D02*
X63481619Y-30092180D01*
X63481619Y-30092180D02*
X63434000Y-30139800D01*
X63434000Y-30139800D02*
X63338762Y-30187419D01*
X63338762Y-30187419D02*
X63243524Y-30187419D01*
X63243524Y-30187419D02*
X63148286Y-30139800D01*
X63148286Y-30139800D02*
X63100667Y-30092180D01*
X63100667Y-30092180D02*
X63053048Y-29996942D01*
X63053048Y-29996942D02*
X63005429Y-29806466D01*
X63005429Y-29806466D02*
X63005429Y-29568371D01*
X63005429Y-29568371D02*
X63053048Y-29377895D01*
X63053048Y-29377895D02*
X63100667Y-29282657D01*
X63100667Y-29282657D02*
X63148286Y-29235038D01*
X63148286Y-29235038D02*
X63243524Y-29187419D01*
X80724476Y-29187419D02*
X80724476Y-29901704D01*
X80724476Y-29901704D02*
X80676857Y-30044561D01*
X80676857Y-30044561D02*
X80581619Y-30139800D01*
X80581619Y-30139800D02*
X80438762Y-30187419D01*
X80438762Y-30187419D02*
X80343524Y-30187419D01*
X81724476Y-30187419D02*
X81153048Y-30187419D01*
X81438762Y-30187419D02*
X81438762Y-29187419D01*
X81438762Y-29187419D02*
X81343524Y-29330276D01*
X81343524Y-29330276D02*
X81248286Y-29425514D01*
X81248286Y-29425514D02*
X81153048Y-29473133D01*
X82676857Y-30187419D02*
X82105429Y-30187419D01*
X82391143Y-30187419D02*
X82391143Y-29187419D01*
X82391143Y-29187419D02*
X82295905Y-29330276D01*
X82295905Y-29330276D02*
X82200667Y-29425514D01*
X82200667Y-29425514D02*
X82105429Y-29473133D01*
X88624580Y-33398357D02*
X88672200Y-33445976D01*
X88672200Y-33445976D02*
X88719819Y-33588833D01*
X88719819Y-33588833D02*
X88719819Y-33684071D01*
X88719819Y-33684071D02*
X88672200Y-33826928D01*
X88672200Y-33826928D02*
X88576961Y-33922166D01*
X88576961Y-33922166D02*
X88481723Y-33969785D01*
X88481723Y-33969785D02*
X88291247Y-34017404D01*
X88291247Y-34017404D02*
X88148390Y-34017404D01*
X88148390Y-34017404D02*
X87957914Y-33969785D01*
X87957914Y-33969785D02*
X87862676Y-33922166D01*
X87862676Y-33922166D02*
X87767438Y-33826928D01*
X87767438Y-33826928D02*
X87719819Y-33684071D01*
X87719819Y-33684071D02*
X87719819Y-33588833D01*
X87719819Y-33588833D02*
X87767438Y-33445976D01*
X87767438Y-33445976D02*
X87815057Y-33398357D01*
X87719819Y-33065023D02*
X87719819Y-32445976D01*
X87719819Y-32445976D02*
X88100771Y-32779309D01*
X88100771Y-32779309D02*
X88100771Y-32636452D01*
X88100771Y-32636452D02*
X88148390Y-32541214D01*
X88148390Y-32541214D02*
X88196009Y-32493595D01*
X88196009Y-32493595D02*
X88291247Y-32445976D01*
X88291247Y-32445976D02*
X88529342Y-32445976D01*
X88529342Y-32445976D02*
X88624580Y-32493595D01*
X88624580Y-32493595D02*
X88672200Y-32541214D01*
X88672200Y-32541214D02*
X88719819Y-32636452D01*
X88719819Y-32636452D02*
X88719819Y-32922166D01*
X88719819Y-32922166D02*
X88672200Y-33017404D01*
X88672200Y-33017404D02*
X88624580Y-33065023D01*
X87719819Y-32112642D02*
X87719819Y-31445976D01*
X87719819Y-31445976D02*
X88719819Y-31874547D01*
X33357333Y-44015819D02*
X33024000Y-43539628D01*
X32785905Y-44015819D02*
X32785905Y-43015819D01*
X32785905Y-43015819D02*
X33166857Y-43015819D01*
X33166857Y-43015819D02*
X33262095Y-43063438D01*
X33262095Y-43063438D02*
X33309714Y-43111057D01*
X33309714Y-43111057D02*
X33357333Y-43206295D01*
X33357333Y-43206295D02*
X33357333Y-43349152D01*
X33357333Y-43349152D02*
X33309714Y-43444390D01*
X33309714Y-43444390D02*
X33262095Y-43492009D01*
X33262095Y-43492009D02*
X33166857Y-43539628D01*
X33166857Y-43539628D02*
X32785905Y-43539628D01*
X34214476Y-43015819D02*
X34024000Y-43015819D01*
X34024000Y-43015819D02*
X33928762Y-43063438D01*
X33928762Y-43063438D02*
X33881143Y-43111057D01*
X33881143Y-43111057D02*
X33785905Y-43253914D01*
X33785905Y-43253914D02*
X33738286Y-43444390D01*
X33738286Y-43444390D02*
X33738286Y-43825342D01*
X33738286Y-43825342D02*
X33785905Y-43920580D01*
X33785905Y-43920580D02*
X33833524Y-43968200D01*
X33833524Y-43968200D02*
X33928762Y-44015819D01*
X33928762Y-44015819D02*
X34119238Y-44015819D01*
X34119238Y-44015819D02*
X34214476Y-43968200D01*
X34214476Y-43968200D02*
X34262095Y-43920580D01*
X34262095Y-43920580D02*
X34309714Y-43825342D01*
X34309714Y-43825342D02*
X34309714Y-43587247D01*
X34309714Y-43587247D02*
X34262095Y-43492009D01*
X34262095Y-43492009D02*
X34214476Y-43444390D01*
X34214476Y-43444390D02*
X34119238Y-43396771D01*
X34119238Y-43396771D02*
X33928762Y-43396771D01*
X33928762Y-43396771D02*
X33833524Y-43444390D01*
X33833524Y-43444390D02*
X33785905Y-43492009D01*
X33785905Y-43492009D02*
X33738286Y-43587247D01*
X38802142Y-70359580D02*
X38754523Y-70407200D01*
X38754523Y-70407200D02*
X38611666Y-70454819D01*
X38611666Y-70454819D02*
X38516428Y-70454819D01*
X38516428Y-70454819D02*
X38373571Y-70407200D01*
X38373571Y-70407200D02*
X38278333Y-70311961D01*
X38278333Y-70311961D02*
X38230714Y-70216723D01*
X38230714Y-70216723D02*
X38183095Y-70026247D01*
X38183095Y-70026247D02*
X38183095Y-69883390D01*
X38183095Y-69883390D02*
X38230714Y-69692914D01*
X38230714Y-69692914D02*
X38278333Y-69597676D01*
X38278333Y-69597676D02*
X38373571Y-69502438D01*
X38373571Y-69502438D02*
X38516428Y-69454819D01*
X38516428Y-69454819D02*
X38611666Y-69454819D01*
X38611666Y-69454819D02*
X38754523Y-69502438D01*
X38754523Y-69502438D02*
X38802142Y-69550057D01*
X39754523Y-70454819D02*
X39183095Y-70454819D01*
X39468809Y-70454819D02*
X39468809Y-69454819D01*
X39468809Y-69454819D02*
X39373571Y-69597676D01*
X39373571Y-69597676D02*
X39278333Y-69692914D01*
X39278333Y-69692914D02*
X39183095Y-69740533D01*
X40230714Y-70454819D02*
X40421190Y-70454819D01*
X40421190Y-70454819D02*
X40516428Y-70407200D01*
X40516428Y-70407200D02*
X40564047Y-70359580D01*
X40564047Y-70359580D02*
X40659285Y-70216723D01*
X40659285Y-70216723D02*
X40706904Y-70026247D01*
X40706904Y-70026247D02*
X40706904Y-69645295D01*
X40706904Y-69645295D02*
X40659285Y-69550057D01*
X40659285Y-69550057D02*
X40611666Y-69502438D01*
X40611666Y-69502438D02*
X40516428Y-69454819D01*
X40516428Y-69454819D02*
X40325952Y-69454819D01*
X40325952Y-69454819D02*
X40230714Y-69502438D01*
X40230714Y-69502438D02*
X40183095Y-69550057D01*
X40183095Y-69550057D02*
X40135476Y-69645295D01*
X40135476Y-69645295D02*
X40135476Y-69883390D01*
X40135476Y-69883390D02*
X40183095Y-69978628D01*
X40183095Y-69978628D02*
X40230714Y-70026247D01*
X40230714Y-70026247D02*
X40325952Y-70073866D01*
X40325952Y-70073866D02*
X40516428Y-70073866D01*
X40516428Y-70073866D02*
X40611666Y-70026247D01*
X40611666Y-70026247D02*
X40659285Y-69978628D01*
X40659285Y-69978628D02*
X40706904Y-69883390D01*
X42904580Y-49410857D02*
X42952200Y-49458476D01*
X42952200Y-49458476D02*
X42999819Y-49601333D01*
X42999819Y-49601333D02*
X42999819Y-49696571D01*
X42999819Y-49696571D02*
X42952200Y-49839428D01*
X42952200Y-49839428D02*
X42856961Y-49934666D01*
X42856961Y-49934666D02*
X42761723Y-49982285D01*
X42761723Y-49982285D02*
X42571247Y-50029904D01*
X42571247Y-50029904D02*
X42428390Y-50029904D01*
X42428390Y-50029904D02*
X42237914Y-49982285D01*
X42237914Y-49982285D02*
X42142676Y-49934666D01*
X42142676Y-49934666D02*
X42047438Y-49839428D01*
X42047438Y-49839428D02*
X41999819Y-49696571D01*
X41999819Y-49696571D02*
X41999819Y-49601333D01*
X41999819Y-49601333D02*
X42047438Y-49458476D01*
X42047438Y-49458476D02*
X42095057Y-49410857D01*
X41999819Y-49077523D02*
X41999819Y-48458476D01*
X41999819Y-48458476D02*
X42380771Y-48791809D01*
X42380771Y-48791809D02*
X42380771Y-48648952D01*
X42380771Y-48648952D02*
X42428390Y-48553714D01*
X42428390Y-48553714D02*
X42476009Y-48506095D01*
X42476009Y-48506095D02*
X42571247Y-48458476D01*
X42571247Y-48458476D02*
X42809342Y-48458476D01*
X42809342Y-48458476D02*
X42904580Y-48506095D01*
X42904580Y-48506095D02*
X42952200Y-48553714D01*
X42952200Y-48553714D02*
X42999819Y-48648952D01*
X42999819Y-48648952D02*
X42999819Y-48934666D01*
X42999819Y-48934666D02*
X42952200Y-49029904D01*
X42952200Y-49029904D02*
X42904580Y-49077523D01*
X42095057Y-48077523D02*
X42047438Y-48029904D01*
X42047438Y-48029904D02*
X41999819Y-47934666D01*
X41999819Y-47934666D02*
X41999819Y-47696571D01*
X41999819Y-47696571D02*
X42047438Y-47601333D01*
X42047438Y-47601333D02*
X42095057Y-47553714D01*
X42095057Y-47553714D02*
X42190295Y-47506095D01*
X42190295Y-47506095D02*
X42285533Y-47506095D01*
X42285533Y-47506095D02*
X42428390Y-47553714D01*
X42428390Y-47553714D02*
X42999819Y-48125142D01*
X42999819Y-48125142D02*
X42999819Y-47506095D01*
X78337580Y-36837857D02*
X78385200Y-36885476D01*
X78385200Y-36885476D02*
X78432819Y-37028333D01*
X78432819Y-37028333D02*
X78432819Y-37123571D01*
X78432819Y-37123571D02*
X78385200Y-37266428D01*
X78385200Y-37266428D02*
X78289961Y-37361666D01*
X78289961Y-37361666D02*
X78194723Y-37409285D01*
X78194723Y-37409285D02*
X78004247Y-37456904D01*
X78004247Y-37456904D02*
X77861390Y-37456904D01*
X77861390Y-37456904D02*
X77670914Y-37409285D01*
X77670914Y-37409285D02*
X77575676Y-37361666D01*
X77575676Y-37361666D02*
X77480438Y-37266428D01*
X77480438Y-37266428D02*
X77432819Y-37123571D01*
X77432819Y-37123571D02*
X77432819Y-37028333D01*
X77432819Y-37028333D02*
X77480438Y-36885476D01*
X77480438Y-36885476D02*
X77528057Y-36837857D01*
X77766152Y-35980714D02*
X78432819Y-35980714D01*
X77385200Y-36218809D02*
X78099485Y-36456904D01*
X78099485Y-36456904D02*
X78099485Y-35837857D01*
X77766152Y-35028333D02*
X78432819Y-35028333D01*
X77385200Y-35266428D02*
X78099485Y-35504523D01*
X78099485Y-35504523D02*
X78099485Y-34885476D01*
X55350580Y-70619857D02*
X55398200Y-70667476D01*
X55398200Y-70667476D02*
X55445819Y-70810333D01*
X55445819Y-70810333D02*
X55445819Y-70905571D01*
X55445819Y-70905571D02*
X55398200Y-71048428D01*
X55398200Y-71048428D02*
X55302961Y-71143666D01*
X55302961Y-71143666D02*
X55207723Y-71191285D01*
X55207723Y-71191285D02*
X55017247Y-71238904D01*
X55017247Y-71238904D02*
X54874390Y-71238904D01*
X54874390Y-71238904D02*
X54683914Y-71191285D01*
X54683914Y-71191285D02*
X54588676Y-71143666D01*
X54588676Y-71143666D02*
X54493438Y-71048428D01*
X54493438Y-71048428D02*
X54445819Y-70905571D01*
X54445819Y-70905571D02*
X54445819Y-70810333D01*
X54445819Y-70810333D02*
X54493438Y-70667476D01*
X54493438Y-70667476D02*
X54541057Y-70619857D01*
X55445819Y-69667476D02*
X55445819Y-70238904D01*
X55445819Y-69953190D02*
X54445819Y-69953190D01*
X54445819Y-69953190D02*
X54588676Y-70048428D01*
X54588676Y-70048428D02*
X54683914Y-70143666D01*
X54683914Y-70143666D02*
X54731533Y-70238904D01*
X54779152Y-68810333D02*
X55445819Y-68810333D01*
X54398200Y-69048428D02*
X55112485Y-69286523D01*
X55112485Y-69286523D02*
X55112485Y-68667476D01*
X22629905Y-82090419D02*
X22629905Y-81090419D01*
X22629905Y-81090419D02*
X22868000Y-81090419D01*
X22868000Y-81090419D02*
X23010857Y-81138038D01*
X23010857Y-81138038D02*
X23106095Y-81233276D01*
X23106095Y-81233276D02*
X23153714Y-81328514D01*
X23153714Y-81328514D02*
X23201333Y-81518990D01*
X23201333Y-81518990D02*
X23201333Y-81661847D01*
X23201333Y-81661847D02*
X23153714Y-81852323D01*
X23153714Y-81852323D02*
X23106095Y-81947561D01*
X23106095Y-81947561D02*
X23010857Y-82042800D01*
X23010857Y-82042800D02*
X22868000Y-82090419D01*
X22868000Y-82090419D02*
X22629905Y-82090419D01*
X23534667Y-81090419D02*
X24153714Y-81090419D01*
X24153714Y-81090419D02*
X23820381Y-81471371D01*
X23820381Y-81471371D02*
X23963238Y-81471371D01*
X23963238Y-81471371D02*
X24058476Y-81518990D01*
X24058476Y-81518990D02*
X24106095Y-81566609D01*
X24106095Y-81566609D02*
X24153714Y-81661847D01*
X24153714Y-81661847D02*
X24153714Y-81899942D01*
X24153714Y-81899942D02*
X24106095Y-81995180D01*
X24106095Y-81995180D02*
X24058476Y-82042800D01*
X24058476Y-82042800D02*
X23963238Y-82090419D01*
X23963238Y-82090419D02*
X23677524Y-82090419D01*
X23677524Y-82090419D02*
X23582286Y-82042800D01*
X23582286Y-82042800D02*
X23534667Y-81995180D01*
X26554133Y-82090419D02*
X26220800Y-81614228D01*
X25982705Y-82090419D02*
X25982705Y-81090419D01*
X25982705Y-81090419D02*
X26363657Y-81090419D01*
X26363657Y-81090419D02*
X26458895Y-81138038D01*
X26458895Y-81138038D02*
X26506514Y-81185657D01*
X26506514Y-81185657D02*
X26554133Y-81280895D01*
X26554133Y-81280895D02*
X26554133Y-81423752D01*
X26554133Y-81423752D02*
X26506514Y-81518990D01*
X26506514Y-81518990D02*
X26458895Y-81566609D01*
X26458895Y-81566609D02*
X26363657Y-81614228D01*
X26363657Y-81614228D02*
X25982705Y-81614228D01*
X27125562Y-81518990D02*
X27030324Y-81471371D01*
X27030324Y-81471371D02*
X26982705Y-81423752D01*
X26982705Y-81423752D02*
X26935086Y-81328514D01*
X26935086Y-81328514D02*
X26935086Y-81280895D01*
X26935086Y-81280895D02*
X26982705Y-81185657D01*
X26982705Y-81185657D02*
X27030324Y-81138038D01*
X27030324Y-81138038D02*
X27125562Y-81090419D01*
X27125562Y-81090419D02*
X27316038Y-81090419D01*
X27316038Y-81090419D02*
X27411276Y-81138038D01*
X27411276Y-81138038D02*
X27458895Y-81185657D01*
X27458895Y-81185657D02*
X27506514Y-81280895D01*
X27506514Y-81280895D02*
X27506514Y-81328514D01*
X27506514Y-81328514D02*
X27458895Y-81423752D01*
X27458895Y-81423752D02*
X27411276Y-81471371D01*
X27411276Y-81471371D02*
X27316038Y-81518990D01*
X27316038Y-81518990D02*
X27125562Y-81518990D01*
X27125562Y-81518990D02*
X27030324Y-81566609D01*
X27030324Y-81566609D02*
X26982705Y-81614228D01*
X26982705Y-81614228D02*
X26935086Y-81709466D01*
X26935086Y-81709466D02*
X26935086Y-81899942D01*
X26935086Y-81899942D02*
X26982705Y-81995180D01*
X26982705Y-81995180D02*
X27030324Y-82042800D01*
X27030324Y-82042800D02*
X27125562Y-82090419D01*
X27125562Y-82090419D02*
X27316038Y-82090419D01*
X27316038Y-82090419D02*
X27411276Y-82042800D01*
X27411276Y-82042800D02*
X27458895Y-81995180D01*
X27458895Y-81995180D02*
X27506514Y-81899942D01*
X27506514Y-81899942D02*
X27506514Y-81709466D01*
X27506514Y-81709466D02*
X27458895Y-81614228D01*
X27458895Y-81614228D02*
X27411276Y-81566609D01*
X27411276Y-81566609D02*
X27316038Y-81518990D01*
X21162819Y-24858933D02*
X21877104Y-24858933D01*
X21877104Y-24858933D02*
X22019961Y-24906552D01*
X22019961Y-24906552D02*
X22115200Y-25001790D01*
X22115200Y-25001790D02*
X22162819Y-25144647D01*
X22162819Y-25144647D02*
X22162819Y-25239885D01*
X21162819Y-24477980D02*
X21162819Y-23811314D01*
X21162819Y-23811314D02*
X22162819Y-24239885D01*
X50762819Y-76551904D02*
X51572342Y-76551904D01*
X51572342Y-76551904D02*
X51667580Y-76504285D01*
X51667580Y-76504285D02*
X51715200Y-76456666D01*
X51715200Y-76456666D02*
X51762819Y-76361428D01*
X51762819Y-76361428D02*
X51762819Y-76170952D01*
X51762819Y-76170952D02*
X51715200Y-76075714D01*
X51715200Y-76075714D02*
X51667580Y-76028095D01*
X51667580Y-76028095D02*
X51572342Y-75980476D01*
X51572342Y-75980476D02*
X50762819Y-75980476D01*
X50762819Y-75599523D02*
X50762819Y-74932857D01*
X50762819Y-74932857D02*
X51762819Y-75361428D01*
X61714142Y-41380580D02*
X61666523Y-41428200D01*
X61666523Y-41428200D02*
X61523666Y-41475819D01*
X61523666Y-41475819D02*
X61428428Y-41475819D01*
X61428428Y-41475819D02*
X61285571Y-41428200D01*
X61285571Y-41428200D02*
X61190333Y-41332961D01*
X61190333Y-41332961D02*
X61142714Y-41237723D01*
X61142714Y-41237723D02*
X61095095Y-41047247D01*
X61095095Y-41047247D02*
X61095095Y-40904390D01*
X61095095Y-40904390D02*
X61142714Y-40713914D01*
X61142714Y-40713914D02*
X61190333Y-40618676D01*
X61190333Y-40618676D02*
X61285571Y-40523438D01*
X61285571Y-40523438D02*
X61428428Y-40475819D01*
X61428428Y-40475819D02*
X61523666Y-40475819D01*
X61523666Y-40475819D02*
X61666523Y-40523438D01*
X61666523Y-40523438D02*
X61714142Y-40571057D01*
X62047476Y-40475819D02*
X62666523Y-40475819D01*
X62666523Y-40475819D02*
X62333190Y-40856771D01*
X62333190Y-40856771D02*
X62476047Y-40856771D01*
X62476047Y-40856771D02*
X62571285Y-40904390D01*
X62571285Y-40904390D02*
X62618904Y-40952009D01*
X62618904Y-40952009D02*
X62666523Y-41047247D01*
X62666523Y-41047247D02*
X62666523Y-41285342D01*
X62666523Y-41285342D02*
X62618904Y-41380580D01*
X62618904Y-41380580D02*
X62571285Y-41428200D01*
X62571285Y-41428200D02*
X62476047Y-41475819D01*
X62476047Y-41475819D02*
X62190333Y-41475819D01*
X62190333Y-41475819D02*
X62095095Y-41428200D01*
X62095095Y-41428200D02*
X62047476Y-41380580D01*
X63142714Y-41475819D02*
X63333190Y-41475819D01*
X63333190Y-41475819D02*
X63428428Y-41428200D01*
X63428428Y-41428200D02*
X63476047Y-41380580D01*
X63476047Y-41380580D02*
X63571285Y-41237723D01*
X63571285Y-41237723D02*
X63618904Y-41047247D01*
X63618904Y-41047247D02*
X63618904Y-40666295D01*
X63618904Y-40666295D02*
X63571285Y-40571057D01*
X63571285Y-40571057D02*
X63523666Y-40523438D01*
X63523666Y-40523438D02*
X63428428Y-40475819D01*
X63428428Y-40475819D02*
X63237952Y-40475819D01*
X63237952Y-40475819D02*
X63142714Y-40523438D01*
X63142714Y-40523438D02*
X63095095Y-40571057D01*
X63095095Y-40571057D02*
X63047476Y-40666295D01*
X63047476Y-40666295D02*
X63047476Y-40904390D01*
X63047476Y-40904390D02*
X63095095Y-40999628D01*
X63095095Y-40999628D02*
X63142714Y-41047247D01*
X63142714Y-41047247D02*
X63237952Y-41094866D01*
X63237952Y-41094866D02*
X63428428Y-41094866D01*
X63428428Y-41094866D02*
X63523666Y-41047247D01*
X63523666Y-41047247D02*
X63571285Y-40999628D01*
X63571285Y-40999628D02*
X63618904Y-40904390D01*
X55586333Y-66272580D02*
X55538714Y-66320200D01*
X55538714Y-66320200D02*
X55395857Y-66367819D01*
X55395857Y-66367819D02*
X55300619Y-66367819D01*
X55300619Y-66367819D02*
X55157762Y-66320200D01*
X55157762Y-66320200D02*
X55062524Y-66224961D01*
X55062524Y-66224961D02*
X55014905Y-66129723D01*
X55014905Y-66129723D02*
X54967286Y-65939247D01*
X54967286Y-65939247D02*
X54967286Y-65796390D01*
X54967286Y-65796390D02*
X55014905Y-65605914D01*
X55014905Y-65605914D02*
X55062524Y-65510676D01*
X55062524Y-65510676D02*
X55157762Y-65415438D01*
X55157762Y-65415438D02*
X55300619Y-65367819D01*
X55300619Y-65367819D02*
X55395857Y-65367819D01*
X55395857Y-65367819D02*
X55538714Y-65415438D01*
X55538714Y-65415438D02*
X55586333Y-65463057D01*
X56062524Y-66367819D02*
X56253000Y-66367819D01*
X56253000Y-66367819D02*
X56348238Y-66320200D01*
X56348238Y-66320200D02*
X56395857Y-66272580D01*
X56395857Y-66272580D02*
X56491095Y-66129723D01*
X56491095Y-66129723D02*
X56538714Y-65939247D01*
X56538714Y-65939247D02*
X56538714Y-65558295D01*
X56538714Y-65558295D02*
X56491095Y-65463057D01*
X56491095Y-65463057D02*
X56443476Y-65415438D01*
X56443476Y-65415438D02*
X56348238Y-65367819D01*
X56348238Y-65367819D02*
X56157762Y-65367819D01*
X56157762Y-65367819D02*
X56062524Y-65415438D01*
X56062524Y-65415438D02*
X56014905Y-65463057D01*
X56014905Y-65463057D02*
X55967286Y-65558295D01*
X55967286Y-65558295D02*
X55967286Y-65796390D01*
X55967286Y-65796390D02*
X56014905Y-65891628D01*
X56014905Y-65891628D02*
X56062524Y-65939247D01*
X56062524Y-65939247D02*
X56157762Y-65986866D01*
X56157762Y-65986866D02*
X56348238Y-65986866D01*
X56348238Y-65986866D02*
X56443476Y-65939247D01*
X56443476Y-65939247D02*
X56491095Y-65891628D01*
X56491095Y-65891628D02*
X56538714Y-65796390D01*
X51681142Y-73411580D02*
X51633523Y-73459200D01*
X51633523Y-73459200D02*
X51490666Y-73506819D01*
X51490666Y-73506819D02*
X51395428Y-73506819D01*
X51395428Y-73506819D02*
X51252571Y-73459200D01*
X51252571Y-73459200D02*
X51157333Y-73363961D01*
X51157333Y-73363961D02*
X51109714Y-73268723D01*
X51109714Y-73268723D02*
X51062095Y-73078247D01*
X51062095Y-73078247D02*
X51062095Y-72935390D01*
X51062095Y-72935390D02*
X51109714Y-72744914D01*
X51109714Y-72744914D02*
X51157333Y-72649676D01*
X51157333Y-72649676D02*
X51252571Y-72554438D01*
X51252571Y-72554438D02*
X51395428Y-72506819D01*
X51395428Y-72506819D02*
X51490666Y-72506819D01*
X51490666Y-72506819D02*
X51633523Y-72554438D01*
X51633523Y-72554438D02*
X51681142Y-72602057D01*
X52633523Y-73506819D02*
X52062095Y-73506819D01*
X52347809Y-73506819D02*
X52347809Y-72506819D01*
X52347809Y-72506819D02*
X52252571Y-72649676D01*
X52252571Y-72649676D02*
X52157333Y-72744914D01*
X52157333Y-72744914D02*
X52062095Y-72792533D01*
X53204952Y-72935390D02*
X53109714Y-72887771D01*
X53109714Y-72887771D02*
X53062095Y-72840152D01*
X53062095Y-72840152D02*
X53014476Y-72744914D01*
X53014476Y-72744914D02*
X53014476Y-72697295D01*
X53014476Y-72697295D02*
X53062095Y-72602057D01*
X53062095Y-72602057D02*
X53109714Y-72554438D01*
X53109714Y-72554438D02*
X53204952Y-72506819D01*
X53204952Y-72506819D02*
X53395428Y-72506819D01*
X53395428Y-72506819D02*
X53490666Y-72554438D01*
X53490666Y-72554438D02*
X53538285Y-72602057D01*
X53538285Y-72602057D02*
X53585904Y-72697295D01*
X53585904Y-72697295D02*
X53585904Y-72744914D01*
X53585904Y-72744914D02*
X53538285Y-72840152D01*
X53538285Y-72840152D02*
X53490666Y-72887771D01*
X53490666Y-72887771D02*
X53395428Y-72935390D01*
X53395428Y-72935390D02*
X53204952Y-72935390D01*
X53204952Y-72935390D02*
X53109714Y-72983009D01*
X53109714Y-72983009D02*
X53062095Y-73030628D01*
X53062095Y-73030628D02*
X53014476Y-73125866D01*
X53014476Y-73125866D02*
X53014476Y-73316342D01*
X53014476Y-73316342D02*
X53062095Y-73411580D01*
X53062095Y-73411580D02*
X53109714Y-73459200D01*
X53109714Y-73459200D02*
X53204952Y-73506819D01*
X53204952Y-73506819D02*
X53395428Y-73506819D01*
X53395428Y-73506819D02*
X53490666Y-73459200D01*
X53490666Y-73459200D02*
X53538285Y-73411580D01*
X53538285Y-73411580D02*
X53585904Y-73316342D01*
X53585904Y-73316342D02*
X53585904Y-73125866D01*
X53585904Y-73125866D02*
X53538285Y-73030628D01*
X53538285Y-73030628D02*
X53490666Y-72983009D01*
X53490666Y-72983009D02*
X53395428Y-72935390D01*
X28368666Y-76721619D02*
X28368666Y-77435904D01*
X28368666Y-77435904D02*
X28321047Y-77578761D01*
X28321047Y-77578761D02*
X28225809Y-77674000D01*
X28225809Y-77674000D02*
X28082952Y-77721619D01*
X28082952Y-77721619D02*
X27987714Y-77721619D01*
X29273428Y-76721619D02*
X29082952Y-76721619D01*
X29082952Y-76721619D02*
X28987714Y-76769238D01*
X28987714Y-76769238D02*
X28940095Y-76816857D01*
X28940095Y-76816857D02*
X28844857Y-76959714D01*
X28844857Y-76959714D02*
X28797238Y-77150190D01*
X28797238Y-77150190D02*
X28797238Y-77531142D01*
X28797238Y-77531142D02*
X28844857Y-77626380D01*
X28844857Y-77626380D02*
X28892476Y-77674000D01*
X28892476Y-77674000D02*
X28987714Y-77721619D01*
X28987714Y-77721619D02*
X29178190Y-77721619D01*
X29178190Y-77721619D02*
X29273428Y-77674000D01*
X29273428Y-77674000D02*
X29321047Y-77626380D01*
X29321047Y-77626380D02*
X29368666Y-77531142D01*
X29368666Y-77531142D02*
X29368666Y-77293047D01*
X29368666Y-77293047D02*
X29321047Y-77197809D01*
X29321047Y-77197809D02*
X29273428Y-77150190D01*
X29273428Y-77150190D02*
X29178190Y-77102571D01*
X29178190Y-77102571D02*
X28987714Y-77102571D01*
X28987714Y-77102571D02*
X28892476Y-77150190D01*
X28892476Y-77150190D02*
X28844857Y-77197809D01*
X28844857Y-77197809D02*
X28797238Y-77293047D01*
X53713142Y-68275580D02*
X53665523Y-68323200D01*
X53665523Y-68323200D02*
X53522666Y-68370819D01*
X53522666Y-68370819D02*
X53427428Y-68370819D01*
X53427428Y-68370819D02*
X53284571Y-68323200D01*
X53284571Y-68323200D02*
X53189333Y-68227961D01*
X53189333Y-68227961D02*
X53141714Y-68132723D01*
X53141714Y-68132723D02*
X53094095Y-67942247D01*
X53094095Y-67942247D02*
X53094095Y-67799390D01*
X53094095Y-67799390D02*
X53141714Y-67608914D01*
X53141714Y-67608914D02*
X53189333Y-67513676D01*
X53189333Y-67513676D02*
X53284571Y-67418438D01*
X53284571Y-67418438D02*
X53427428Y-67370819D01*
X53427428Y-67370819D02*
X53522666Y-67370819D01*
X53522666Y-67370819D02*
X53665523Y-67418438D01*
X53665523Y-67418438D02*
X53713142Y-67466057D01*
X54094095Y-67466057D02*
X54141714Y-67418438D01*
X54141714Y-67418438D02*
X54236952Y-67370819D01*
X54236952Y-67370819D02*
X54475047Y-67370819D01*
X54475047Y-67370819D02*
X54570285Y-67418438D01*
X54570285Y-67418438D02*
X54617904Y-67466057D01*
X54617904Y-67466057D02*
X54665523Y-67561295D01*
X54665523Y-67561295D02*
X54665523Y-67656533D01*
X54665523Y-67656533D02*
X54617904Y-67799390D01*
X54617904Y-67799390D02*
X54046476Y-68370819D01*
X54046476Y-68370819D02*
X54665523Y-68370819D01*
X55522666Y-67704152D02*
X55522666Y-68370819D01*
X55284571Y-67323200D02*
X55046476Y-68037485D01*
X55046476Y-68037485D02*
X55665523Y-68037485D01*
X57404095Y-69148819D02*
X57404095Y-69958342D01*
X57404095Y-69958342D02*
X57451714Y-70053580D01*
X57451714Y-70053580D02*
X57499333Y-70101200D01*
X57499333Y-70101200D02*
X57594571Y-70148819D01*
X57594571Y-70148819D02*
X57785047Y-70148819D01*
X57785047Y-70148819D02*
X57880285Y-70101200D01*
X57880285Y-70101200D02*
X57927904Y-70053580D01*
X57927904Y-70053580D02*
X57975523Y-69958342D01*
X57975523Y-69958342D02*
X57975523Y-69148819D01*
X58356476Y-69148819D02*
X58975523Y-69148819D01*
X58975523Y-69148819D02*
X58642190Y-69529771D01*
X58642190Y-69529771D02*
X58785047Y-69529771D01*
X58785047Y-69529771D02*
X58880285Y-69577390D01*
X58880285Y-69577390D02*
X58927904Y-69625009D01*
X58927904Y-69625009D02*
X58975523Y-69720247D01*
X58975523Y-69720247D02*
X58975523Y-69958342D01*
X58975523Y-69958342D02*
X58927904Y-70053580D01*
X58927904Y-70053580D02*
X58880285Y-70101200D01*
X58880285Y-70101200D02*
X58785047Y-70148819D01*
X58785047Y-70148819D02*
X58499333Y-70148819D01*
X58499333Y-70148819D02*
X58404095Y-70101200D01*
X58404095Y-70101200D02*
X58356476Y-70053580D01*
X97604342Y-48721180D02*
X97556723Y-48768800D01*
X97556723Y-48768800D02*
X97413866Y-48816419D01*
X97413866Y-48816419D02*
X97318628Y-48816419D01*
X97318628Y-48816419D02*
X97175771Y-48768800D01*
X97175771Y-48768800D02*
X97080533Y-48673561D01*
X97080533Y-48673561D02*
X97032914Y-48578323D01*
X97032914Y-48578323D02*
X96985295Y-48387847D01*
X96985295Y-48387847D02*
X96985295Y-48244990D01*
X96985295Y-48244990D02*
X97032914Y-48054514D01*
X97032914Y-48054514D02*
X97080533Y-47959276D01*
X97080533Y-47959276D02*
X97175771Y-47864038D01*
X97175771Y-47864038D02*
X97318628Y-47816419D01*
X97318628Y-47816419D02*
X97413866Y-47816419D01*
X97413866Y-47816419D02*
X97556723Y-47864038D01*
X97556723Y-47864038D02*
X97604342Y-47911657D01*
X97937676Y-47816419D02*
X98556723Y-47816419D01*
X98556723Y-47816419D02*
X98223390Y-48197371D01*
X98223390Y-48197371D02*
X98366247Y-48197371D01*
X98366247Y-48197371D02*
X98461485Y-48244990D01*
X98461485Y-48244990D02*
X98509104Y-48292609D01*
X98509104Y-48292609D02*
X98556723Y-48387847D01*
X98556723Y-48387847D02*
X98556723Y-48625942D01*
X98556723Y-48625942D02*
X98509104Y-48721180D01*
X98509104Y-48721180D02*
X98461485Y-48768800D01*
X98461485Y-48768800D02*
X98366247Y-48816419D01*
X98366247Y-48816419D02*
X98080533Y-48816419D01*
X98080533Y-48816419D02*
X97985295Y-48768800D01*
X97985295Y-48768800D02*
X97937676Y-48721180D01*
X98890057Y-47816419D02*
X99509104Y-47816419D01*
X99509104Y-47816419D02*
X99175771Y-48197371D01*
X99175771Y-48197371D02*
X99318628Y-48197371D01*
X99318628Y-48197371D02*
X99413866Y-48244990D01*
X99413866Y-48244990D02*
X99461485Y-48292609D01*
X99461485Y-48292609D02*
X99509104Y-48387847D01*
X99509104Y-48387847D02*
X99509104Y-48625942D01*
X99509104Y-48625942D02*
X99461485Y-48721180D01*
X99461485Y-48721180D02*
X99413866Y-48768800D01*
X99413866Y-48768800D02*
X99318628Y-48816419D01*
X99318628Y-48816419D02*
X99032914Y-48816419D01*
X99032914Y-48816419D02*
X98937676Y-48768800D01*
X98937676Y-48768800D02*
X98890057Y-48721180D01*
X53239200Y-47434332D02*
X53286819Y-47291475D01*
X53286819Y-47291475D02*
X53286819Y-47053380D01*
X53286819Y-47053380D02*
X53239200Y-46958142D01*
X53239200Y-46958142D02*
X53191580Y-46910523D01*
X53191580Y-46910523D02*
X53096342Y-46862904D01*
X53096342Y-46862904D02*
X53001104Y-46862904D01*
X53001104Y-46862904D02*
X52905866Y-46910523D01*
X52905866Y-46910523D02*
X52858247Y-46958142D01*
X52858247Y-46958142D02*
X52810628Y-47053380D01*
X52810628Y-47053380D02*
X52763009Y-47243856D01*
X52763009Y-47243856D02*
X52715390Y-47339094D01*
X52715390Y-47339094D02*
X52667771Y-47386713D01*
X52667771Y-47386713D02*
X52572533Y-47434332D01*
X52572533Y-47434332D02*
X52477295Y-47434332D01*
X52477295Y-47434332D02*
X52382057Y-47386713D01*
X52382057Y-47386713D02*
X52334438Y-47339094D01*
X52334438Y-47339094D02*
X52286819Y-47243856D01*
X52286819Y-47243856D02*
X52286819Y-47005761D01*
X52286819Y-47005761D02*
X52334438Y-46862904D01*
X52286819Y-46529570D02*
X53286819Y-46291475D01*
X53286819Y-46291475D02*
X52572533Y-46100999D01*
X52572533Y-46100999D02*
X53286819Y-45910523D01*
X53286819Y-45910523D02*
X52286819Y-45672428D01*
X53286819Y-44767666D02*
X53286819Y-45339094D01*
X53286819Y-45053380D02*
X52286819Y-45053380D01*
X52286819Y-45053380D02*
X52429676Y-45148618D01*
X52429676Y-45148618D02*
X52524914Y-45243856D01*
X52524914Y-45243856D02*
X52572533Y-45339094D01*
X61206142Y-43920580D02*
X61158523Y-43968200D01*
X61158523Y-43968200D02*
X61015666Y-44015819D01*
X61015666Y-44015819D02*
X60920428Y-44015819D01*
X60920428Y-44015819D02*
X60777571Y-43968200D01*
X60777571Y-43968200D02*
X60682333Y-43872961D01*
X60682333Y-43872961D02*
X60634714Y-43777723D01*
X60634714Y-43777723D02*
X60587095Y-43587247D01*
X60587095Y-43587247D02*
X60587095Y-43444390D01*
X60587095Y-43444390D02*
X60634714Y-43253914D01*
X60634714Y-43253914D02*
X60682333Y-43158676D01*
X60682333Y-43158676D02*
X60777571Y-43063438D01*
X60777571Y-43063438D02*
X60920428Y-43015819D01*
X60920428Y-43015819D02*
X61015666Y-43015819D01*
X61015666Y-43015819D02*
X61158523Y-43063438D01*
X61158523Y-43063438D02*
X61206142Y-43111057D01*
X62063285Y-43349152D02*
X62063285Y-44015819D01*
X61825190Y-42968200D02*
X61587095Y-43682485D01*
X61587095Y-43682485D02*
X62206142Y-43682485D01*
X62777571Y-43015819D02*
X62872809Y-43015819D01*
X62872809Y-43015819D02*
X62968047Y-43063438D01*
X62968047Y-43063438D02*
X63015666Y-43111057D01*
X63015666Y-43111057D02*
X63063285Y-43206295D01*
X63063285Y-43206295D02*
X63110904Y-43396771D01*
X63110904Y-43396771D02*
X63110904Y-43634866D01*
X63110904Y-43634866D02*
X63063285Y-43825342D01*
X63063285Y-43825342D02*
X63015666Y-43920580D01*
X63015666Y-43920580D02*
X62968047Y-43968200D01*
X62968047Y-43968200D02*
X62872809Y-44015819D01*
X62872809Y-44015819D02*
X62777571Y-44015819D01*
X62777571Y-44015819D02*
X62682333Y-43968200D01*
X62682333Y-43968200D02*
X62634714Y-43920580D01*
X62634714Y-43920580D02*
X62587095Y-43825342D01*
X62587095Y-43825342D02*
X62539476Y-43634866D01*
X62539476Y-43634866D02*
X62539476Y-43396771D01*
X62539476Y-43396771D02*
X62587095Y-43206295D01*
X62587095Y-43206295D02*
X62634714Y-43111057D01*
X62634714Y-43111057D02*
X62682333Y-43063438D01*
X62682333Y-43063438D02*
X62777571Y-43015819D01*
X24489580Y-53037257D02*
X24537200Y-53084876D01*
X24537200Y-53084876D02*
X24584819Y-53227733D01*
X24584819Y-53227733D02*
X24584819Y-53322971D01*
X24584819Y-53322971D02*
X24537200Y-53465828D01*
X24537200Y-53465828D02*
X24441961Y-53561066D01*
X24441961Y-53561066D02*
X24346723Y-53608685D01*
X24346723Y-53608685D02*
X24156247Y-53656304D01*
X24156247Y-53656304D02*
X24013390Y-53656304D01*
X24013390Y-53656304D02*
X23822914Y-53608685D01*
X23822914Y-53608685D02*
X23727676Y-53561066D01*
X23727676Y-53561066D02*
X23632438Y-53465828D01*
X23632438Y-53465828D02*
X23584819Y-53322971D01*
X23584819Y-53322971D02*
X23584819Y-53227733D01*
X23584819Y-53227733D02*
X23632438Y-53084876D01*
X23632438Y-53084876D02*
X23680057Y-53037257D01*
X23680057Y-52656304D02*
X23632438Y-52608685D01*
X23632438Y-52608685D02*
X23584819Y-52513447D01*
X23584819Y-52513447D02*
X23584819Y-52275352D01*
X23584819Y-52275352D02*
X23632438Y-52180114D01*
X23632438Y-52180114D02*
X23680057Y-52132495D01*
X23680057Y-52132495D02*
X23775295Y-52084876D01*
X23775295Y-52084876D02*
X23870533Y-52084876D01*
X23870533Y-52084876D02*
X24013390Y-52132495D01*
X24013390Y-52132495D02*
X24584819Y-52703923D01*
X24584819Y-52703923D02*
X24584819Y-52084876D01*
X23584819Y-51180114D02*
X23584819Y-51656304D01*
X23584819Y-51656304D02*
X24061009Y-51703923D01*
X24061009Y-51703923D02*
X24013390Y-51656304D01*
X24013390Y-51656304D02*
X23965771Y-51561066D01*
X23965771Y-51561066D02*
X23965771Y-51322971D01*
X23965771Y-51322971D02*
X24013390Y-51227733D01*
X24013390Y-51227733D02*
X24061009Y-51180114D01*
X24061009Y-51180114D02*
X24156247Y-51132495D01*
X24156247Y-51132495D02*
X24394342Y-51132495D01*
X24394342Y-51132495D02*
X24489580Y-51180114D01*
X24489580Y-51180114D02*
X24537200Y-51227733D01*
X24537200Y-51227733D02*
X24584819Y-51322971D01*
X24584819Y-51322971D02*
X24584819Y-51561066D01*
X24584819Y-51561066D02*
X24537200Y-51656304D01*
X24537200Y-51656304D02*
X24489580Y-51703923D01*
X41125095Y-78754819D02*
X41125095Y-79564342D01*
X41125095Y-79564342D02*
X41172714Y-79659580D01*
X41172714Y-79659580D02*
X41220333Y-79707200D01*
X41220333Y-79707200D02*
X41315571Y-79754819D01*
X41315571Y-79754819D02*
X41506047Y-79754819D01*
X41506047Y-79754819D02*
X41601285Y-79707200D01*
X41601285Y-79707200D02*
X41648904Y-79659580D01*
X41648904Y-79659580D02*
X41696523Y-79564342D01*
X41696523Y-79564342D02*
X41696523Y-78754819D01*
X42315571Y-79183390D02*
X42220333Y-79135771D01*
X42220333Y-79135771D02*
X42172714Y-79088152D01*
X42172714Y-79088152D02*
X42125095Y-78992914D01*
X42125095Y-78992914D02*
X42125095Y-78945295D01*
X42125095Y-78945295D02*
X42172714Y-78850057D01*
X42172714Y-78850057D02*
X42220333Y-78802438D01*
X42220333Y-78802438D02*
X42315571Y-78754819D01*
X42315571Y-78754819D02*
X42506047Y-78754819D01*
X42506047Y-78754819D02*
X42601285Y-78802438D01*
X42601285Y-78802438D02*
X42648904Y-78850057D01*
X42648904Y-78850057D02*
X42696523Y-78945295D01*
X42696523Y-78945295D02*
X42696523Y-78992914D01*
X42696523Y-78992914D02*
X42648904Y-79088152D01*
X42648904Y-79088152D02*
X42601285Y-79135771D01*
X42601285Y-79135771D02*
X42506047Y-79183390D01*
X42506047Y-79183390D02*
X42315571Y-79183390D01*
X42315571Y-79183390D02*
X42220333Y-79231009D01*
X42220333Y-79231009D02*
X42172714Y-79278628D01*
X42172714Y-79278628D02*
X42125095Y-79373866D01*
X42125095Y-79373866D02*
X42125095Y-79564342D01*
X42125095Y-79564342D02*
X42172714Y-79659580D01*
X42172714Y-79659580D02*
X42220333Y-79707200D01*
X42220333Y-79707200D02*
X42315571Y-79754819D01*
X42315571Y-79754819D02*
X42506047Y-79754819D01*
X42506047Y-79754819D02*
X42601285Y-79707200D01*
X42601285Y-79707200D02*
X42648904Y-79659580D01*
X42648904Y-79659580D02*
X42696523Y-79564342D01*
X42696523Y-79564342D02*
X42696523Y-79373866D01*
X42696523Y-79373866D02*
X42648904Y-79278628D01*
X42648904Y-79278628D02*
X42601285Y-79231009D01*
X42601285Y-79231009D02*
X42506047Y-79183390D01*
X66286142Y-44015819D02*
X65952809Y-43539628D01*
X65714714Y-44015819D02*
X65714714Y-43015819D01*
X65714714Y-43015819D02*
X66095666Y-43015819D01*
X66095666Y-43015819D02*
X66190904Y-43063438D01*
X66190904Y-43063438D02*
X66238523Y-43111057D01*
X66238523Y-43111057D02*
X66286142Y-43206295D01*
X66286142Y-43206295D02*
X66286142Y-43349152D01*
X66286142Y-43349152D02*
X66238523Y-43444390D01*
X66238523Y-43444390D02*
X66190904Y-43492009D01*
X66190904Y-43492009D02*
X66095666Y-43539628D01*
X66095666Y-43539628D02*
X65714714Y-43539628D01*
X67238523Y-44015819D02*
X66667095Y-44015819D01*
X66952809Y-44015819D02*
X66952809Y-43015819D01*
X66952809Y-43015819D02*
X66857571Y-43158676D01*
X66857571Y-43158676D02*
X66762333Y-43253914D01*
X66762333Y-43253914D02*
X66667095Y-43301533D01*
X67857571Y-43015819D02*
X67952809Y-43015819D01*
X67952809Y-43015819D02*
X68048047Y-43063438D01*
X68048047Y-43063438D02*
X68095666Y-43111057D01*
X68095666Y-43111057D02*
X68143285Y-43206295D01*
X68143285Y-43206295D02*
X68190904Y-43396771D01*
X68190904Y-43396771D02*
X68190904Y-43634866D01*
X68190904Y-43634866D02*
X68143285Y-43825342D01*
X68143285Y-43825342D02*
X68095666Y-43920580D01*
X68095666Y-43920580D02*
X68048047Y-43968200D01*
X68048047Y-43968200D02*
X67952809Y-44015819D01*
X67952809Y-44015819D02*
X67857571Y-44015819D01*
X67857571Y-44015819D02*
X67762333Y-43968200D01*
X67762333Y-43968200D02*
X67714714Y-43920580D01*
X67714714Y-43920580D02*
X67667095Y-43825342D01*
X67667095Y-43825342D02*
X67619476Y-43634866D01*
X67619476Y-43634866D02*
X67619476Y-43396771D01*
X67619476Y-43396771D02*
X67667095Y-43206295D01*
X67667095Y-43206295D02*
X67714714Y-43111057D01*
X67714714Y-43111057D02*
X67762333Y-43063438D01*
X67762333Y-43063438D02*
X67857571Y-43015819D01*
X42999819Y-43854666D02*
X42523628Y-44187999D01*
X42999819Y-44426094D02*
X41999819Y-44426094D01*
X41999819Y-44426094D02*
X41999819Y-44045142D01*
X41999819Y-44045142D02*
X42047438Y-43949904D01*
X42047438Y-43949904D02*
X42095057Y-43902285D01*
X42095057Y-43902285D02*
X42190295Y-43854666D01*
X42190295Y-43854666D02*
X42333152Y-43854666D01*
X42333152Y-43854666D02*
X42428390Y-43902285D01*
X42428390Y-43902285D02*
X42476009Y-43949904D01*
X42476009Y-43949904D02*
X42523628Y-44045142D01*
X42523628Y-44045142D02*
X42523628Y-44426094D01*
X41999819Y-43521332D02*
X41999819Y-42854666D01*
X41999819Y-42854666D02*
X42999819Y-43283237D01*
X54094142Y-61192580D02*
X54046523Y-61240200D01*
X54046523Y-61240200D02*
X53903666Y-61287819D01*
X53903666Y-61287819D02*
X53808428Y-61287819D01*
X53808428Y-61287819D02*
X53665571Y-61240200D01*
X53665571Y-61240200D02*
X53570333Y-61144961D01*
X53570333Y-61144961D02*
X53522714Y-61049723D01*
X53522714Y-61049723D02*
X53475095Y-60859247D01*
X53475095Y-60859247D02*
X53475095Y-60716390D01*
X53475095Y-60716390D02*
X53522714Y-60525914D01*
X53522714Y-60525914D02*
X53570333Y-60430676D01*
X53570333Y-60430676D02*
X53665571Y-60335438D01*
X53665571Y-60335438D02*
X53808428Y-60287819D01*
X53808428Y-60287819D02*
X53903666Y-60287819D01*
X53903666Y-60287819D02*
X54046523Y-60335438D01*
X54046523Y-60335438D02*
X54094142Y-60383057D01*
X55046523Y-61287819D02*
X54475095Y-61287819D01*
X54760809Y-61287819D02*
X54760809Y-60287819D01*
X54760809Y-60287819D02*
X54665571Y-60430676D01*
X54665571Y-60430676D02*
X54570333Y-60525914D01*
X54570333Y-60525914D02*
X54475095Y-60573533D01*
X55427476Y-60383057D02*
X55475095Y-60335438D01*
X55475095Y-60335438D02*
X55570333Y-60287819D01*
X55570333Y-60287819D02*
X55808428Y-60287819D01*
X55808428Y-60287819D02*
X55903666Y-60335438D01*
X55903666Y-60335438D02*
X55951285Y-60383057D01*
X55951285Y-60383057D02*
X55998904Y-60478295D01*
X55998904Y-60478295D02*
X55998904Y-60573533D01*
X55998904Y-60573533D02*
X55951285Y-60716390D01*
X55951285Y-60716390D02*
X55379857Y-61287819D01*
X55379857Y-61287819D02*
X55998904Y-61287819D01*
X54149666Y-77432819D02*
X54149666Y-78147104D01*
X54149666Y-78147104D02*
X54102047Y-78289961D01*
X54102047Y-78289961D02*
X54006809Y-78385200D01*
X54006809Y-78385200D02*
X53863952Y-78432819D01*
X53863952Y-78432819D02*
X53768714Y-78432819D01*
X55149666Y-78432819D02*
X54578238Y-78432819D01*
X54863952Y-78432819D02*
X54863952Y-77432819D01*
X54863952Y-77432819D02*
X54768714Y-77575676D01*
X54768714Y-77575676D02*
X54673476Y-77670914D01*
X54673476Y-77670914D02*
X54578238Y-77718533D01*
X66399580Y-36964857D02*
X66447200Y-37012476D01*
X66447200Y-37012476D02*
X66494819Y-37155333D01*
X66494819Y-37155333D02*
X66494819Y-37250571D01*
X66494819Y-37250571D02*
X66447200Y-37393428D01*
X66447200Y-37393428D02*
X66351961Y-37488666D01*
X66351961Y-37488666D02*
X66256723Y-37536285D01*
X66256723Y-37536285D02*
X66066247Y-37583904D01*
X66066247Y-37583904D02*
X65923390Y-37583904D01*
X65923390Y-37583904D02*
X65732914Y-37536285D01*
X65732914Y-37536285D02*
X65637676Y-37488666D01*
X65637676Y-37488666D02*
X65542438Y-37393428D01*
X65542438Y-37393428D02*
X65494819Y-37250571D01*
X65494819Y-37250571D02*
X65494819Y-37155333D01*
X65494819Y-37155333D02*
X65542438Y-37012476D01*
X65542438Y-37012476D02*
X65590057Y-36964857D01*
X65828152Y-36107714D02*
X66494819Y-36107714D01*
X65447200Y-36345809D02*
X66161485Y-36583904D01*
X66161485Y-36583904D02*
X66161485Y-35964857D01*
X65590057Y-35631523D02*
X65542438Y-35583904D01*
X65542438Y-35583904D02*
X65494819Y-35488666D01*
X65494819Y-35488666D02*
X65494819Y-35250571D01*
X65494819Y-35250571D02*
X65542438Y-35155333D01*
X65542438Y-35155333D02*
X65590057Y-35107714D01*
X65590057Y-35107714D02*
X65685295Y-35060095D01*
X65685295Y-35060095D02*
X65780533Y-35060095D01*
X65780533Y-35060095D02*
X65923390Y-35107714D01*
X65923390Y-35107714D02*
X66494819Y-35679142D01*
X66494819Y-35679142D02*
X66494819Y-35060095D01*
X32916905Y-51254819D02*
X32916905Y-50254819D01*
X32916905Y-50254819D02*
X33155000Y-50254819D01*
X33155000Y-50254819D02*
X33297857Y-50302438D01*
X33297857Y-50302438D02*
X33393095Y-50397676D01*
X33393095Y-50397676D02*
X33440714Y-50492914D01*
X33440714Y-50492914D02*
X33488333Y-50683390D01*
X33488333Y-50683390D02*
X33488333Y-50826247D01*
X33488333Y-50826247D02*
X33440714Y-51016723D01*
X33440714Y-51016723D02*
X33393095Y-51111961D01*
X33393095Y-51111961D02*
X33297857Y-51207200D01*
X33297857Y-51207200D02*
X33155000Y-51254819D01*
X33155000Y-51254819D02*
X32916905Y-51254819D01*
X34440714Y-51254819D02*
X33869286Y-51254819D01*
X34155000Y-51254819D02*
X34155000Y-50254819D01*
X34155000Y-50254819D02*
X34059762Y-50397676D01*
X34059762Y-50397676D02*
X33964524Y-50492914D01*
X33964524Y-50492914D02*
X33869286Y-50540533D01*
X28924819Y-64484094D02*
X29734342Y-64484094D01*
X29734342Y-64484094D02*
X29829580Y-64436475D01*
X29829580Y-64436475D02*
X29877200Y-64388856D01*
X29877200Y-64388856D02*
X29924819Y-64293618D01*
X29924819Y-64293618D02*
X29924819Y-64103142D01*
X29924819Y-64103142D02*
X29877200Y-64007904D01*
X29877200Y-64007904D02*
X29829580Y-63960285D01*
X29829580Y-63960285D02*
X29734342Y-63912666D01*
X29734342Y-63912666D02*
X28924819Y-63912666D01*
X29924819Y-62912666D02*
X29924819Y-63484094D01*
X29924819Y-63198380D02*
X28924819Y-63198380D01*
X28924819Y-63198380D02*
X29067676Y-63293618D01*
X29067676Y-63293618D02*
X29162914Y-63388856D01*
X29162914Y-63388856D02*
X29210533Y-63484094D01*
X29924819Y-61960285D02*
X29924819Y-62531713D01*
X29924819Y-62245999D02*
X28924819Y-62245999D01*
X28924819Y-62245999D02*
X29067676Y-62341237D01*
X29067676Y-62341237D02*
X29162914Y-62436475D01*
X29162914Y-62436475D02*
X29210533Y-62531713D01*
X77940819Y-47593094D02*
X78750342Y-47593094D01*
X78750342Y-47593094D02*
X78845580Y-47545475D01*
X78845580Y-47545475D02*
X78893200Y-47497856D01*
X78893200Y-47497856D02*
X78940819Y-47402618D01*
X78940819Y-47402618D02*
X78940819Y-47212142D01*
X78940819Y-47212142D02*
X78893200Y-47116904D01*
X78893200Y-47116904D02*
X78845580Y-47069285D01*
X78845580Y-47069285D02*
X78750342Y-47021666D01*
X78750342Y-47021666D02*
X77940819Y-47021666D01*
X78940819Y-46021666D02*
X78940819Y-46593094D01*
X78940819Y-46307380D02*
X77940819Y-46307380D01*
X77940819Y-46307380D02*
X78083676Y-46402618D01*
X78083676Y-46402618D02*
X78178914Y-46497856D01*
X78178914Y-46497856D02*
X78226533Y-46593094D01*
X77940819Y-45116904D02*
X77940819Y-45593094D01*
X77940819Y-45593094D02*
X78417009Y-45640713D01*
X78417009Y-45640713D02*
X78369390Y-45593094D01*
X78369390Y-45593094D02*
X78321771Y-45497856D01*
X78321771Y-45497856D02*
X78321771Y-45259761D01*
X78321771Y-45259761D02*
X78369390Y-45164523D01*
X78369390Y-45164523D02*
X78417009Y-45116904D01*
X78417009Y-45116904D02*
X78512247Y-45069285D01*
X78512247Y-45069285D02*
X78750342Y-45069285D01*
X78750342Y-45069285D02*
X78845580Y-45116904D01*
X78845580Y-45116904D02*
X78893200Y-45164523D01*
X78893200Y-45164523D02*
X78940819Y-45259761D01*
X78940819Y-45259761D02*
X78940819Y-45497856D01*
X78940819Y-45497856D02*
X78893200Y-45593094D01*
X78893200Y-45593094D02*
X78845580Y-45640713D01*
X33341333Y-48841819D02*
X33008000Y-48365628D01*
X32769905Y-48841819D02*
X32769905Y-47841819D01*
X32769905Y-47841819D02*
X33150857Y-47841819D01*
X33150857Y-47841819D02*
X33246095Y-47889438D01*
X33246095Y-47889438D02*
X33293714Y-47937057D01*
X33293714Y-47937057D02*
X33341333Y-48032295D01*
X33341333Y-48032295D02*
X33341333Y-48175152D01*
X33341333Y-48175152D02*
X33293714Y-48270390D01*
X33293714Y-48270390D02*
X33246095Y-48318009D01*
X33246095Y-48318009D02*
X33150857Y-48365628D01*
X33150857Y-48365628D02*
X32769905Y-48365628D01*
X34246095Y-47841819D02*
X33769905Y-47841819D01*
X33769905Y-47841819D02*
X33722286Y-48318009D01*
X33722286Y-48318009D02*
X33769905Y-48270390D01*
X33769905Y-48270390D02*
X33865143Y-48222771D01*
X33865143Y-48222771D02*
X34103238Y-48222771D01*
X34103238Y-48222771D02*
X34198476Y-48270390D01*
X34198476Y-48270390D02*
X34246095Y-48318009D01*
X34246095Y-48318009D02*
X34293714Y-48413247D01*
X34293714Y-48413247D02*
X34293714Y-48651342D01*
X34293714Y-48651342D02*
X34246095Y-48746580D01*
X34246095Y-48746580D02*
X34198476Y-48794200D01*
X34198476Y-48794200D02*
X34103238Y-48841819D01*
X34103238Y-48841819D02*
X33865143Y-48841819D01*
X33865143Y-48841819D02*
X33769905Y-48794200D01*
X33769905Y-48794200D02*
X33722286Y-48746580D01*
X86195819Y-42259094D02*
X87005342Y-42259094D01*
X87005342Y-42259094D02*
X87100580Y-42211475D01*
X87100580Y-42211475D02*
X87148200Y-42163856D01*
X87148200Y-42163856D02*
X87195819Y-42068618D01*
X87195819Y-42068618D02*
X87195819Y-41878142D01*
X87195819Y-41878142D02*
X87148200Y-41782904D01*
X87148200Y-41782904D02*
X87100580Y-41735285D01*
X87100580Y-41735285D02*
X87005342Y-41687666D01*
X87005342Y-41687666D02*
X86195819Y-41687666D01*
X87195819Y-40687666D02*
X87195819Y-41259094D01*
X87195819Y-40973380D02*
X86195819Y-40973380D01*
X86195819Y-40973380D02*
X86338676Y-41068618D01*
X86338676Y-41068618D02*
X86433914Y-41163856D01*
X86433914Y-41163856D02*
X86481533Y-41259094D01*
X86529152Y-39830523D02*
X87195819Y-39830523D01*
X86148200Y-40068618D02*
X86862485Y-40306713D01*
X86862485Y-40306713D02*
X86862485Y-39687666D01*
X34631333Y-76432580D02*
X34583714Y-76480200D01*
X34583714Y-76480200D02*
X34440857Y-76527819D01*
X34440857Y-76527819D02*
X34345619Y-76527819D01*
X34345619Y-76527819D02*
X34202762Y-76480200D01*
X34202762Y-76480200D02*
X34107524Y-76384961D01*
X34107524Y-76384961D02*
X34059905Y-76289723D01*
X34059905Y-76289723D02*
X34012286Y-76099247D01*
X34012286Y-76099247D02*
X34012286Y-75956390D01*
X34012286Y-75956390D02*
X34059905Y-75765914D01*
X34059905Y-75765914D02*
X34107524Y-75670676D01*
X34107524Y-75670676D02*
X34202762Y-75575438D01*
X34202762Y-75575438D02*
X34345619Y-75527819D01*
X34345619Y-75527819D02*
X34440857Y-75527819D01*
X34440857Y-75527819D02*
X34583714Y-75575438D01*
X34583714Y-75575438D02*
X34631333Y-75623057D01*
X34964667Y-75527819D02*
X35583714Y-75527819D01*
X35583714Y-75527819D02*
X35250381Y-75908771D01*
X35250381Y-75908771D02*
X35393238Y-75908771D01*
X35393238Y-75908771D02*
X35488476Y-75956390D01*
X35488476Y-75956390D02*
X35536095Y-76004009D01*
X35536095Y-76004009D02*
X35583714Y-76099247D01*
X35583714Y-76099247D02*
X35583714Y-76337342D01*
X35583714Y-76337342D02*
X35536095Y-76432580D01*
X35536095Y-76432580D02*
X35488476Y-76480200D01*
X35488476Y-76480200D02*
X35393238Y-76527819D01*
X35393238Y-76527819D02*
X35107524Y-76527819D01*
X35107524Y-76527819D02*
X35012286Y-76480200D01*
X35012286Y-76480200D02*
X34964667Y-76432580D01*
X39743142Y-53826580D02*
X39695523Y-53874200D01*
X39695523Y-53874200D02*
X39552666Y-53921819D01*
X39552666Y-53921819D02*
X39457428Y-53921819D01*
X39457428Y-53921819D02*
X39314571Y-53874200D01*
X39314571Y-53874200D02*
X39219333Y-53778961D01*
X39219333Y-53778961D02*
X39171714Y-53683723D01*
X39171714Y-53683723D02*
X39124095Y-53493247D01*
X39124095Y-53493247D02*
X39124095Y-53350390D01*
X39124095Y-53350390D02*
X39171714Y-53159914D01*
X39171714Y-53159914D02*
X39219333Y-53064676D01*
X39219333Y-53064676D02*
X39314571Y-52969438D01*
X39314571Y-52969438D02*
X39457428Y-52921819D01*
X39457428Y-52921819D02*
X39552666Y-52921819D01*
X39552666Y-52921819D02*
X39695523Y-52969438D01*
X39695523Y-52969438D02*
X39743142Y-53017057D01*
X40124095Y-53017057D02*
X40171714Y-52969438D01*
X40171714Y-52969438D02*
X40266952Y-52921819D01*
X40266952Y-52921819D02*
X40505047Y-52921819D01*
X40505047Y-52921819D02*
X40600285Y-52969438D01*
X40600285Y-52969438D02*
X40647904Y-53017057D01*
X40647904Y-53017057D02*
X40695523Y-53112295D01*
X40695523Y-53112295D02*
X40695523Y-53207533D01*
X40695523Y-53207533D02*
X40647904Y-53350390D01*
X40647904Y-53350390D02*
X40076476Y-53921819D01*
X40076476Y-53921819D02*
X40695523Y-53921819D01*
X41028857Y-52921819D02*
X41647904Y-52921819D01*
X41647904Y-52921819D02*
X41314571Y-53302771D01*
X41314571Y-53302771D02*
X41457428Y-53302771D01*
X41457428Y-53302771D02*
X41552666Y-53350390D01*
X41552666Y-53350390D02*
X41600285Y-53398009D01*
X41600285Y-53398009D02*
X41647904Y-53493247D01*
X41647904Y-53493247D02*
X41647904Y-53731342D01*
X41647904Y-53731342D02*
X41600285Y-53826580D01*
X41600285Y-53826580D02*
X41552666Y-53874200D01*
X41552666Y-53874200D02*
X41457428Y-53921819D01*
X41457428Y-53921819D02*
X41171714Y-53921819D01*
X41171714Y-53921819D02*
X41076476Y-53874200D01*
X41076476Y-53874200D02*
X41028857Y-53826580D01*
X39163666Y-40221819D02*
X39163666Y-40936104D01*
X39163666Y-40936104D02*
X39116047Y-41078961D01*
X39116047Y-41078961D02*
X39020809Y-41174200D01*
X39020809Y-41174200D02*
X38877952Y-41221819D01*
X38877952Y-41221819D02*
X38782714Y-41221819D01*
X39544619Y-40221819D02*
X40163666Y-40221819D01*
X40163666Y-40221819D02*
X39830333Y-40602771D01*
X39830333Y-40602771D02*
X39973190Y-40602771D01*
X39973190Y-40602771D02*
X40068428Y-40650390D01*
X40068428Y-40650390D02*
X40116047Y-40698009D01*
X40116047Y-40698009D02*
X40163666Y-40793247D01*
X40163666Y-40793247D02*
X40163666Y-41031342D01*
X40163666Y-41031342D02*
X40116047Y-41126580D01*
X40116047Y-41126580D02*
X40068428Y-41174200D01*
X40068428Y-41174200D02*
X39973190Y-41221819D01*
X39973190Y-41221819D02*
X39687476Y-41221819D01*
X39687476Y-41221819D02*
X39592238Y-41174200D01*
X39592238Y-41174200D02*
X39544619Y-41126580D01*
X29671180Y-84005657D02*
X29718800Y-84053276D01*
X29718800Y-84053276D02*
X29766419Y-84196133D01*
X29766419Y-84196133D02*
X29766419Y-84291371D01*
X29766419Y-84291371D02*
X29718800Y-84434228D01*
X29718800Y-84434228D02*
X29623561Y-84529466D01*
X29623561Y-84529466D02*
X29528323Y-84577085D01*
X29528323Y-84577085D02*
X29337847Y-84624704D01*
X29337847Y-84624704D02*
X29194990Y-84624704D01*
X29194990Y-84624704D02*
X29004514Y-84577085D01*
X29004514Y-84577085D02*
X28909276Y-84529466D01*
X28909276Y-84529466D02*
X28814038Y-84434228D01*
X28814038Y-84434228D02*
X28766419Y-84291371D01*
X28766419Y-84291371D02*
X28766419Y-84196133D01*
X28766419Y-84196133D02*
X28814038Y-84053276D01*
X28814038Y-84053276D02*
X28861657Y-84005657D01*
X28766419Y-83672323D02*
X28766419Y-83053276D01*
X28766419Y-83053276D02*
X29147371Y-83386609D01*
X29147371Y-83386609D02*
X29147371Y-83243752D01*
X29147371Y-83243752D02*
X29194990Y-83148514D01*
X29194990Y-83148514D02*
X29242609Y-83100895D01*
X29242609Y-83100895D02*
X29337847Y-83053276D01*
X29337847Y-83053276D02*
X29575942Y-83053276D01*
X29575942Y-83053276D02*
X29671180Y-83100895D01*
X29671180Y-83100895D02*
X29718800Y-83148514D01*
X29718800Y-83148514D02*
X29766419Y-83243752D01*
X29766419Y-83243752D02*
X29766419Y-83529466D01*
X29766419Y-83529466D02*
X29718800Y-83624704D01*
X29718800Y-83624704D02*
X29671180Y-83672323D01*
X28766419Y-82434228D02*
X28766419Y-82338990D01*
X28766419Y-82338990D02*
X28814038Y-82243752D01*
X28814038Y-82243752D02*
X28861657Y-82196133D01*
X28861657Y-82196133D02*
X28956895Y-82148514D01*
X28956895Y-82148514D02*
X29147371Y-82100895D01*
X29147371Y-82100895D02*
X29385466Y-82100895D01*
X29385466Y-82100895D02*
X29575942Y-82148514D01*
X29575942Y-82148514D02*
X29671180Y-82196133D01*
X29671180Y-82196133D02*
X29718800Y-82243752D01*
X29718800Y-82243752D02*
X29766419Y-82338990D01*
X29766419Y-82338990D02*
X29766419Y-82434228D01*
X29766419Y-82434228D02*
X29718800Y-82529466D01*
X29718800Y-82529466D02*
X29671180Y-82577085D01*
X29671180Y-82577085D02*
X29575942Y-82624704D01*
X29575942Y-82624704D02*
X29385466Y-82672323D01*
X29385466Y-82672323D02*
X29147371Y-82672323D01*
X29147371Y-82672323D02*
X28956895Y-82624704D01*
X28956895Y-82624704D02*
X28861657Y-82577085D01*
X28861657Y-82577085D02*
X28814038Y-82529466D01*
X28814038Y-82529466D02*
X28766419Y-82434228D01*
D12*
X69416437Y-35661000D02*
X69552000Y-35661000D01*
X69416437Y-35661000D02*
X68352000Y-34596563D01*
X71807563Y-35661000D02*
X71672000Y-35661000D01*
X71807563Y-35661000D02*
X72872000Y-34596563D01*
X68352000Y-34596563D02*
X68352000Y-31141000D01*
X72872000Y-34596563D02*
X72872000Y-31141000D01*
X68352000Y-31141000D02*
X69552000Y-31141000D01*
X72872000Y-31141000D02*
X71672000Y-31141000D01*
X44480000Y-92622000D02*
X44480000Y-91622000D01*
X43980000Y-92122000D02*
X44980000Y-92122000D01*
X43794437Y-91382000D02*
X45480000Y-91382000D01*
X43794437Y-91382000D02*
X42730000Y-90317563D01*
X50185563Y-91382000D02*
X48500000Y-91382000D01*
X50185563Y-91382000D02*
X51250000Y-90317563D01*
X42730000Y-90317563D02*
X42730000Y-82862000D01*
X51250000Y-90317563D02*
X51250000Y-82862000D01*
X42730000Y-82862000D02*
X45480000Y-82862000D01*
X51250000Y-82862000D02*
X48500000Y-82862000D01*
D11*
X52552000Y-60732000D02*
X52377000Y-60732000D01*
X52552000Y-60732000D02*
X52552000Y-63982000D01*
X49477000Y-60732000D02*
X49302000Y-60732000D01*
X49302000Y-60732000D02*
X49302000Y-63982000D01*
X52552000Y-63982000D02*
X52377000Y-63982000D01*
X49477000Y-63982000D02*
X49302000Y-63982000D01*
D12*
X52707000Y-60497000D02*
X52377000Y-60257000D01*
X52707000Y-60017000D01*
X52707000Y-60497000D01*
G36*
X52707000Y-60497000D02*
G01*
X52377000Y-60257000D01*
X52707000Y-60017000D01*
X52707000Y-60497000D01*
G37*
X61314064Y-83285000D02*
X60859936Y-83285000D01*
X61314064Y-81815000D02*
X60859936Y-81815000D01*
X46518000Y-72390000D02*
X46518000Y-71590000D01*
X46518000Y-72390000D02*
X46518000Y-73190000D01*
X43398000Y-72390000D02*
X43398000Y-71590000D01*
X43398000Y-72390000D02*
X43398000Y-73190000D01*
X46798000Y-71330000D02*
X46468000Y-71090000D01*
X46798000Y-70850000D01*
X46798000Y-71330000D01*
G36*
X46798000Y-71330000D02*
G01*
X46468000Y-71090000D01*
X46798000Y-70850000D01*
X46798000Y-71330000D01*
G37*
X62554000Y-78175000D02*
X64954000Y-78175000D01*
X62554000Y-80575000D02*
X62554000Y-78175000D01*
X64954000Y-78175000D02*
X64954000Y-80575000D01*
X64954000Y-80575000D02*
X62554000Y-80575000D01*
X28668000Y-45014000D02*
X28668000Y-46934000D01*
X28668000Y-46934000D02*
X31353000Y-46934000D01*
X31353000Y-45014000D02*
X28668000Y-45014000D01*
X34025000Y-36342000D02*
X35825000Y-36342000D01*
X35025000Y-33122000D02*
X34225000Y-33122000D01*
X35025000Y-33122000D02*
X35825000Y-33122000D01*
X33725000Y-33172000D02*
X33485000Y-32842000D01*
X33965000Y-32842000D01*
X33725000Y-33172000D01*
G36*
X33725000Y-33172000D02*
G01*
X33485000Y-32842000D01*
X33965000Y-32842000D01*
X33725000Y-33172000D01*
G37*
X62554000Y-60268000D02*
X64954000Y-60268000D01*
X62554000Y-62668000D02*
X62554000Y-60268000D01*
X64954000Y-60268000D02*
X64954000Y-62668000D01*
X64954000Y-62668000D02*
X62554000Y-62668000D01*
X60909000Y-58988000D02*
X60909000Y-60588000D01*
X57709000Y-58988000D02*
X57709000Y-60588000D01*
X61089000Y-58778000D02*
X60759000Y-58538000D01*
X61089000Y-58298000D01*
X61089000Y-58778000D01*
G36*
X61089000Y-58778000D02*
G01*
X60759000Y-58538000D01*
X61089000Y-58298000D01*
X61089000Y-58778000D01*
G37*
X52490000Y-102713000D02*
X51490000Y-102713000D01*
X51990000Y-103213000D02*
X51990000Y-102213000D01*
X51250000Y-103398563D02*
X51250000Y-101713000D01*
X51250000Y-103398563D02*
X50185563Y-104463000D01*
X51250000Y-97007437D02*
X51250000Y-98693000D01*
X51250000Y-97007437D02*
X50185563Y-95943000D01*
X50185563Y-104463000D02*
X42730000Y-104463000D01*
X50185563Y-95943000D02*
X42730000Y-95943000D01*
X42730000Y-104463000D02*
X42730000Y-101713000D01*
X42730000Y-95943000D02*
X42730000Y-98693000D01*
X85900000Y-20425600D02*
X85900000Y-28625600D01*
X85900000Y-20425600D02*
X94100000Y-20425600D01*
X85900000Y-25025600D02*
X86400000Y-24525600D01*
X85900000Y-28625600D02*
X94100000Y-28625600D01*
X86400000Y-24525600D02*
X85900000Y-24025600D01*
X94100000Y-20425600D02*
X94100000Y-28625600D01*
D13*
X94300000Y-20025600D02*
X94300000Y-20025600D01*
X93900000Y-20025600D02*
X93900000Y-20025600D01*
X93500000Y-20025600D02*
X93500000Y-20025600D01*
X93100000Y-20025600D02*
X93100000Y-20025600D01*
X92700000Y-20025600D02*
X92700000Y-20025600D01*
X92300000Y-20025600D02*
X92300000Y-20025600D01*
X91900000Y-20025600D02*
X91900000Y-20025600D01*
X91500000Y-20025600D02*
X91500000Y-20025600D01*
X91100000Y-20025600D02*
X91100000Y-20025600D01*
X90700000Y-20025600D02*
X90700000Y-20025600D01*
X90300000Y-20025600D02*
X90300000Y-20025600D01*
X89900000Y-20025600D02*
X89900000Y-20025600D01*
X89500000Y-20025600D02*
X89500000Y-20025600D01*
X89100000Y-20025600D02*
X89100000Y-20025600D01*
X88700000Y-20025600D02*
X88700000Y-20025600D01*
X88300000Y-20025600D02*
X88300000Y-20025600D01*
X87900000Y-20025600D02*
X87900000Y-20025600D01*
X87500000Y-20025600D02*
X87500000Y-20025600D01*
X87100000Y-20025600D02*
X87100000Y-20025600D01*
X86700000Y-20025600D02*
X86700000Y-20025600D01*
X86300000Y-20025600D02*
X86300000Y-20025600D01*
X85900000Y-20025600D02*
X85900000Y-20025600D01*
D12*
X48667936Y-69750000D02*
X49122064Y-69750000D01*
X48667936Y-71220000D02*
X49122064Y-71220000D01*
X74851000Y-49898000D02*
X74851000Y-51898000D01*
X72581000Y-49898000D02*
X72581000Y-51898000D01*
X75046000Y-49378000D02*
X74766000Y-49378000D01*
X74766000Y-49098000D01*
X75046000Y-49378000D01*
G36*
X75046000Y-49378000D02*
G01*
X74766000Y-49378000D01*
X74766000Y-49098000D01*
X75046000Y-49378000D01*
G37*
X20847000Y-90877000D02*
X20847000Y-87117000D01*
X27667000Y-90877000D02*
X27667000Y-87117000D01*
X20847000Y-87117000D02*
X22107000Y-87117000D01*
X27667000Y-87117000D02*
X26407000Y-87117000D01*
X20947000Y-92157000D02*
X20617000Y-92397000D01*
X20617000Y-91917000D01*
X20947000Y-92157000D01*
G36*
X20947000Y-92157000D02*
G01*
X20617000Y-92397000D01*
X20617000Y-91917000D01*
X20947000Y-92157000D01*
G37*
X73814000Y-35059252D02*
X73814000Y-34536748D01*
X75284000Y-35059252D02*
X75284000Y-34536748D01*
X45451000Y-25351000D02*
X45451000Y-31001000D01*
X48356000Y-33906000D02*
X54006000Y-33906000D01*
X51181000Y-22876000D02*
X50681000Y-23576000D01*
X51181000Y-22876000D02*
X51681000Y-23576000D01*
X54006000Y-22676000D02*
X48356000Y-22676000D01*
X56911000Y-31001000D02*
X56911000Y-25351000D01*
X91848000Y-33027252D02*
X91848000Y-32504748D01*
X93318000Y-33027252D02*
X93318000Y-32504748D01*
X79783000Y-33027252D02*
X79783000Y-32504748D01*
X81253000Y-33027252D02*
X81253000Y-32504748D01*
X73533000Y-63119000D02*
X73533000Y-87819000D01*
X74233000Y-88519000D02*
X98148670Y-88519000D01*
X98233000Y-63119000D02*
X73533000Y-63119000D01*
X98933000Y-87734670D02*
X98933000Y-63903330D01*
X73533000Y-87819000D02*
G75*
G03*
X74233000Y-88519000I699999J-1D01*
G01*
X98933000Y-63903330D02*
G75*
G03*
X98148670Y-63119000I-784300J30D01*
G01*
X98148670Y-88519000D02*
G75*
G03*
X98933000Y-87734670I0J784330D01*
G01*
X80983000Y-70069000D02*
G75*
G03*
X79983000Y-70069000I-500000J0D01*
G01*
X79983000Y-70069000D02*
G75*
G03*
X80983000Y-70069000I500000J0D01*
G01*
X80983000Y-81569000D02*
G75*
G03*
X79983000Y-81569000I-500000J0D01*
G01*
X79983000Y-81569000D02*
G75*
G03*
X80983000Y-81569000I500000J0D01*
G01*
X92483000Y-70069000D02*
G75*
G03*
X91483000Y-70069000I-500000J0D01*
G01*
X91483000Y-70069000D02*
G75*
G03*
X92483000Y-70069000I500000J0D01*
G01*
X92483000Y-81569000D02*
G75*
G03*
X91483000Y-81569000I-500000J0D01*
G01*
X91483000Y-81569000D02*
G75*
G03*
X92483000Y-81569000I500000J0D01*
G01*
X79782936Y-42318000D02*
X80237064Y-42318000D01*
X79782936Y-43788000D02*
X80237064Y-43788000D01*
X102178000Y-56204000D02*
X104578000Y-56204000D01*
X102178000Y-58604000D02*
X102178000Y-56204000D01*
X104578000Y-56204000D02*
X104578000Y-58604000D01*
X104578000Y-58604000D02*
X102178000Y-58604000D01*
X89173000Y-48581437D02*
X89173000Y-49867000D01*
X89173000Y-48581437D02*
X90237437Y-47517000D01*
X89173000Y-53272563D02*
X89173000Y-51987000D01*
X89173000Y-53272563D02*
X90237437Y-54337000D01*
X90237437Y-47517000D02*
X95993000Y-47517000D01*
X90237437Y-54337000D02*
X95993000Y-54337000D01*
X95993000Y-47517000D02*
X95993000Y-49867000D01*
X95993000Y-54337000D02*
X95993000Y-51987000D01*
X79826000Y-56204000D02*
X82226000Y-56204000D01*
X79826000Y-58604000D02*
X79826000Y-56204000D01*
X82226000Y-56204000D02*
X82226000Y-58604000D01*
X82226000Y-58604000D02*
X79826000Y-58604000D01*
X42720000Y-72341936D02*
X42720000Y-72796064D01*
X41250000Y-72341936D02*
X41250000Y-72796064D01*
X27090600Y-65475400D02*
X25760600Y-65475400D01*
X27090600Y-64145400D02*
X27090600Y-65475400D01*
X27090600Y-62875400D02*
X27090600Y-57735400D01*
X27090600Y-62875400D02*
X24490600Y-62875400D01*
X27090600Y-57735400D02*
X21890600Y-57735400D01*
X24490600Y-65475400D02*
X21890600Y-65475400D01*
X24490600Y-62875400D02*
X24490600Y-65475400D01*
X21890600Y-65475400D02*
X21890600Y-57735400D01*
X74160748Y-53113000D02*
X74683252Y-53113000D01*
X74160748Y-54583000D02*
X74683252Y-54583000D01*
X56709437Y-54718000D02*
X57995000Y-54718000D01*
X56709437Y-54718000D02*
X55645000Y-53653563D01*
X61400563Y-54718000D02*
X60115000Y-54718000D01*
X61400563Y-54718000D02*
X62465000Y-53653563D01*
X55645000Y-53653563D02*
X55645000Y-47898000D01*
X62465000Y-53653563D02*
X62465000Y-47898000D01*
X55645000Y-47898000D02*
X57995000Y-47898000D01*
X62465000Y-47898000D02*
X60115000Y-47898000D01*
X21784437Y-44304000D02*
X23070000Y-44304000D01*
X21784437Y-44304000D02*
X20720000Y-43239563D01*
X26475563Y-44304000D02*
X25190000Y-44304000D01*
X26475563Y-44304000D02*
X27540000Y-43239563D01*
X20720000Y-43239563D02*
X20720000Y-37484000D01*
X27540000Y-43239563D02*
X27540000Y-37484000D01*
X20720000Y-37484000D02*
X23070000Y-37484000D01*
X27540000Y-37484000D02*
X25190000Y-37484000D01*
X30787000Y-90059000D02*
X30787000Y-91359000D01*
X31087000Y-90359000D02*
X33087000Y-90359000D01*
X31087000Y-104859000D02*
X31087000Y-90359000D01*
X32487000Y-90059000D02*
X30787000Y-90059000D01*
X38287000Y-90359000D02*
X40287000Y-90359000D01*
X40287000Y-90359000D02*
X40287000Y-91659000D01*
X40287000Y-96259000D02*
X40287000Y-104859000D01*
X40287000Y-104859000D02*
X31087000Y-104859000D01*
X58200000Y-83510000D02*
X58200000Y-81590000D01*
X58200000Y-81590000D02*
X55515000Y-81590000D01*
X55515000Y-83510000D02*
X58200000Y-83510000D01*
X59635000Y-92183000D02*
X55875000Y-92183000D01*
X59635000Y-85363000D02*
X55875000Y-85363000D01*
X55875000Y-92183000D02*
X55875000Y-90923000D01*
X55875000Y-85363000D02*
X55875000Y-86623000D01*
X61155000Y-92413000D02*
X60675000Y-92413000D01*
X60915000Y-92083000D01*
X61155000Y-92413000D01*
G36*
X61155000Y-92413000D02*
G01*
X60675000Y-92413000D01*
X60915000Y-92083000D01*
X61155000Y-92413000D01*
G37*
X36170000Y-72830252D02*
X36170000Y-72307748D01*
X37640000Y-72830252D02*
X37640000Y-72307748D01*
X60930000Y-93687000D02*
X60930000Y-94687000D01*
X61430000Y-94187000D02*
X60430000Y-94187000D01*
X61615563Y-94927000D02*
X59930000Y-94927000D01*
X61615563Y-94927000D02*
X62680000Y-95991437D01*
X55224437Y-94927000D02*
X56910000Y-94927000D01*
X55224437Y-94927000D02*
X54160000Y-95991437D01*
X62680000Y-95991437D02*
X62680000Y-103447000D01*
X54160000Y-95991437D02*
X54160000Y-103447000D01*
X62680000Y-103447000D02*
X59930000Y-103447000D01*
X54160000Y-103447000D02*
X56910000Y-103447000D01*
X80271252Y-50646000D02*
X79748748Y-50646000D01*
X80271252Y-49176000D02*
X79748748Y-49176000D01*
X46017548Y-77512000D02*
X46540052Y-77512000D01*
X46017548Y-78982000D02*
X46540052Y-78982000D01*
X98876000Y-53664000D02*
X101276000Y-53664000D01*
X98876000Y-56064000D02*
X98876000Y-53664000D01*
X101276000Y-53664000D02*
X101276000Y-56064000D01*
X101276000Y-56064000D02*
X98876000Y-56064000D01*
X27659000Y-32538936D02*
X27659000Y-32993064D01*
X26189000Y-32538936D02*
X26189000Y-32993064D01*
X37689000Y-77939000D02*
X37689000Y-78939000D01*
X38189000Y-78439000D02*
X37189000Y-78439000D01*
X38374563Y-79179000D02*
X36689000Y-79179000D01*
X38374563Y-79179000D02*
X39439000Y-80243437D01*
X31983437Y-79179000D02*
X33669000Y-79179000D01*
X31983437Y-79179000D02*
X30919000Y-80243437D01*
X39439000Y-80243437D02*
X39439000Y-87699000D01*
X30919000Y-80243437D02*
X30919000Y-87699000D01*
X39439000Y-87699000D02*
X36689000Y-87699000D01*
X30919000Y-87699000D02*
X33669000Y-87699000D01*
X40901252Y-34263000D02*
X40378748Y-34263000D01*
X40901252Y-32793000D02*
X40378748Y-32793000D01*
X54533000Y-53788000D02*
X54533000Y-55118000D01*
X53203000Y-53788000D02*
X54533000Y-53788000D01*
X51933000Y-53788000D02*
X44253000Y-53788000D01*
X51933000Y-53788000D02*
X51933000Y-56448000D01*
X44253000Y-53788000D02*
X44253000Y-56448000D01*
X51933000Y-56448000D02*
X44253000Y-56448000D01*
X62765000Y-33027252D02*
X62765000Y-32504748D01*
X64235000Y-33027252D02*
X64235000Y-32504748D01*
X65094000Y-56204000D02*
X67494000Y-56204000D01*
X65094000Y-58604000D02*
X65094000Y-56204000D01*
X67494000Y-56204000D02*
X67494000Y-58604000D01*
X67494000Y-58604000D02*
X65094000Y-58604000D01*
X61900000Y-20425600D02*
X61900000Y-28625600D01*
X61900000Y-20425600D02*
X70100000Y-20425600D01*
X61900000Y-25025600D02*
X62400000Y-24525600D01*
X61900000Y-28625600D02*
X70100000Y-28625600D01*
X62400000Y-24525600D02*
X61900000Y-24025600D01*
X70100000Y-20425600D02*
X70100000Y-28625600D01*
D13*
X70300000Y-20025600D02*
X70300000Y-20025600D01*
X69900000Y-20025600D02*
X69900000Y-20025600D01*
X69500000Y-20025600D02*
X69500000Y-20025600D01*
X69100000Y-20025600D02*
X69100000Y-20025600D01*
X68700000Y-20025600D02*
X68700000Y-20025600D01*
X68300000Y-20025600D02*
X68300000Y-20025600D01*
X67900000Y-20025600D02*
X67900000Y-20025600D01*
X67500000Y-20025600D02*
X67500000Y-20025600D01*
X67100000Y-20025600D02*
X67100000Y-20025600D01*
X66700000Y-20025600D02*
X66700000Y-20025600D01*
X66300000Y-20025600D02*
X66300000Y-20025600D01*
X65900000Y-20025600D02*
X65900000Y-20025600D01*
X65500000Y-20025600D02*
X65500000Y-20025600D01*
X65100000Y-20025600D02*
X65100000Y-20025600D01*
X64700000Y-20025600D02*
X64700000Y-20025600D01*
X64300000Y-20025600D02*
X64300000Y-20025600D01*
X63900000Y-20025600D02*
X63900000Y-20025600D01*
X63500000Y-20025600D02*
X63500000Y-20025600D01*
X63100000Y-20025600D02*
X63100000Y-20025600D01*
X62700000Y-20025600D02*
X62700000Y-20025600D01*
X62300000Y-20025600D02*
X62300000Y-20025600D01*
X61900000Y-20025600D02*
X61900000Y-20025600D01*
D12*
X73900000Y-20425600D02*
X73900000Y-28625600D01*
X73900000Y-20425600D02*
X82100000Y-20425600D01*
X73900000Y-25025600D02*
X74400000Y-24525600D01*
X73900000Y-28625600D02*
X82100000Y-28625600D01*
X74400000Y-24525600D02*
X73900000Y-24025600D01*
X82100000Y-20425600D02*
X82100000Y-28625600D01*
D13*
X82300000Y-20025600D02*
X82300000Y-20025600D01*
X81900000Y-20025600D02*
X81900000Y-20025600D01*
X81500000Y-20025600D02*
X81500000Y-20025600D01*
X81100000Y-20025600D02*
X81100000Y-20025600D01*
X80700000Y-20025600D02*
X80700000Y-20025600D01*
X80300000Y-20025600D02*
X80300000Y-20025600D01*
X79900000Y-20025600D02*
X79900000Y-20025600D01*
X79500000Y-20025600D02*
X79500000Y-20025600D01*
X79100000Y-20025600D02*
X79100000Y-20025600D01*
X78700000Y-20025600D02*
X78700000Y-20025600D01*
X78300000Y-20025600D02*
X78300000Y-20025600D01*
X77900000Y-20025600D02*
X77900000Y-20025600D01*
X77500000Y-20025600D02*
X77500000Y-20025600D01*
X77100000Y-20025600D02*
X77100000Y-20025600D01*
X76700000Y-20025600D02*
X76700000Y-20025600D01*
X76300000Y-20025600D02*
X76300000Y-20025600D01*
X75900000Y-20025600D02*
X75900000Y-20025600D01*
X75500000Y-20025600D02*
X75500000Y-20025600D01*
X75100000Y-20025600D02*
X75100000Y-20025600D01*
X74700000Y-20025600D02*
X74700000Y-20025600D01*
X74300000Y-20025600D02*
X74300000Y-20025600D01*
X73900000Y-20025600D02*
X73900000Y-20025600D01*
D12*
X89308000Y-33048752D02*
X89308000Y-32526248D01*
X90778000Y-33048752D02*
X90778000Y-32526248D01*
X30560064Y-44296000D02*
X30105936Y-44296000D01*
X30560064Y-42826000D02*
X30105936Y-42826000D01*
X38710000Y-72830252D02*
X38710000Y-72307748D01*
X40180000Y-72830252D02*
X40180000Y-72307748D01*
X68269000Y-53664000D02*
X70669000Y-53664000D01*
X68269000Y-56064000D02*
X68269000Y-53664000D01*
X70669000Y-53664000D02*
X70669000Y-56064000D01*
X70669000Y-56064000D02*
X68269000Y-56064000D01*
X43588000Y-49029252D02*
X43588000Y-48506748D01*
X45058000Y-49029252D02*
X45058000Y-48506748D01*
X77243000Y-33027252D02*
X77243000Y-32504748D01*
X78713000Y-33027252D02*
X78713000Y-32504748D01*
X54256000Y-73540252D02*
X54256000Y-73017748D01*
X55726000Y-73540252D02*
X55726000Y-73017748D01*
X25103800Y-80817600D02*
X25103800Y-78897600D01*
X25103800Y-78897600D02*
X22418800Y-78897600D01*
X22418800Y-80817600D02*
X25103800Y-80817600D01*
X28014664Y-80592600D02*
X27560536Y-80592600D01*
X28014664Y-79122600D02*
X27560536Y-79122600D01*
X22808000Y-20425600D02*
X22808000Y-28625600D01*
X22808000Y-20425600D02*
X31008000Y-20425600D01*
X22808000Y-25025600D02*
X23308000Y-24525600D01*
X22808000Y-28625600D02*
X31008000Y-28625600D01*
X23308000Y-24525600D02*
X22808000Y-24025600D01*
X31008000Y-20425600D02*
X31008000Y-28625600D01*
D13*
X31208000Y-20025600D02*
X31208000Y-20025600D01*
X30808000Y-20025600D02*
X30808000Y-20025600D01*
X30408000Y-20025600D02*
X30408000Y-20025600D01*
X30008000Y-20025600D02*
X30008000Y-20025600D01*
X29608000Y-20025600D02*
X29608000Y-20025600D01*
X29208000Y-20025600D02*
X29208000Y-20025600D01*
X28808000Y-20025600D02*
X28808000Y-20025600D01*
X28408000Y-20025600D02*
X28408000Y-20025600D01*
X28008000Y-20025600D02*
X28008000Y-20025600D01*
X27608000Y-20025600D02*
X27608000Y-20025600D01*
X27208000Y-20025600D02*
X27208000Y-20025600D01*
X26808000Y-20025600D02*
X26808000Y-20025600D01*
X26408000Y-20025600D02*
X26408000Y-20025600D01*
X26008000Y-20025600D02*
X26008000Y-20025600D01*
X25608000Y-20025600D02*
X25608000Y-20025600D01*
X25208000Y-20025600D02*
X25208000Y-20025600D01*
X24808000Y-20025600D02*
X24808000Y-20025600D01*
X24408000Y-20025600D02*
X24408000Y-20025600D01*
X24008000Y-20025600D02*
X24008000Y-20025600D01*
X23608000Y-20025600D02*
X23608000Y-20025600D01*
X23208000Y-20025600D02*
X23208000Y-20025600D01*
X22808000Y-20025600D02*
X22808000Y-20025600D01*
D12*
X49605000Y-76852000D02*
X48195000Y-76852000D01*
X49595000Y-74532000D02*
X48195000Y-74532000D01*
X50215000Y-77132000D02*
X49735000Y-77132000D01*
X49975000Y-76802000D01*
X50215000Y-77132000D01*
G36*
X50215000Y-77132000D02*
G01*
X49735000Y-77132000D01*
X49975000Y-76802000D01*
X50215000Y-77132000D01*
G37*
X58808252Y-41756000D02*
X58285748Y-41756000D01*
X58808252Y-40286000D02*
X58285748Y-40286000D01*
X56014252Y-64870000D02*
X55491748Y-64870000D01*
X56014252Y-63400000D02*
X55491748Y-63400000D01*
X49134752Y-73760000D02*
X48612248Y-73760000D01*
X49134752Y-72290000D02*
X48612248Y-72290000D01*
X21885600Y-67199200D02*
X23215600Y-67199200D01*
X21885600Y-68529200D02*
X21885600Y-67199200D01*
X21885600Y-69799200D02*
X21885600Y-77479200D01*
X21885600Y-69799200D02*
X24485600Y-69799200D01*
X21885600Y-77479200D02*
X27085600Y-77479200D01*
X24485600Y-67199200D02*
X27085600Y-67199200D01*
X24485600Y-69799200D02*
X24485600Y-67199200D01*
X27085600Y-67199200D02*
X27085600Y-77479200D01*
X51188252Y-68680000D02*
X50665748Y-68680000D01*
X51188252Y-67210000D02*
X50665748Y-67210000D01*
X58966000Y-73863000D02*
X57366000Y-73863000D01*
X58966000Y-70663000D02*
X57366000Y-70663000D01*
X59656000Y-74043000D02*
X59176000Y-74043000D01*
X59416000Y-73713000D01*
X59656000Y-74043000D01*
G36*
X59656000Y-74043000D02*
G01*
X59176000Y-74043000D01*
X59416000Y-73713000D01*
X59656000Y-74043000D01*
G37*
X97985948Y-45594600D02*
X98508452Y-45594600D01*
X97985948Y-47064600D02*
X98508452Y-47064600D01*
X46482000Y-48768000D02*
X51562000Y-48768000D01*
X46482000Y-48768000D02*
X46482000Y-43688000D01*
X51562000Y-48768000D02*
X51562000Y-43688000D01*
X46482000Y-43688000D02*
X51562000Y-43688000D01*
X58300252Y-44296000D02*
X57777748Y-44296000D01*
X58300252Y-42826000D02*
X57777748Y-42826000D01*
X24865000Y-48659148D02*
X24865000Y-49181652D01*
X23395000Y-48659148D02*
X23395000Y-49181652D01*
X40698000Y-77441000D02*
X40698000Y-76031000D01*
X43018000Y-77431000D02*
X43018000Y-76031000D01*
X40748000Y-77811000D02*
X40418000Y-78051000D01*
X40418000Y-77571000D01*
X40748000Y-77811000D01*
G36*
X40748000Y-77811000D02*
G01*
X40418000Y-78051000D01*
X40418000Y-77571000D01*
X40748000Y-77811000D01*
G37*
X65094000Y-91256000D02*
X67494000Y-91256000D01*
X65094000Y-93656000D02*
X65094000Y-91256000D01*
X67494000Y-91256000D02*
X67494000Y-93656000D01*
X67494000Y-93656000D02*
X65094000Y-93656000D01*
X67156064Y-42391000D02*
X66701936Y-42391000D01*
X67156064Y-40921000D02*
X66701936Y-40921000D01*
X45058000Y-43460936D02*
X45058000Y-43915064D01*
X43588000Y-43460936D02*
X43588000Y-43915064D01*
X54475748Y-58193000D02*
X54998252Y-58193000D01*
X54475748Y-59663000D02*
X54998252Y-59663000D01*
X59793000Y-79478000D02*
X58993000Y-79478000D01*
X59793000Y-79278000D02*
X59793000Y-79478000D01*
X59593000Y-76478000D02*
X59793000Y-76678000D01*
X58993000Y-76478000D02*
X59593000Y-76478000D01*
X58993000Y-76478000D02*
X58993000Y-75978000D01*
X57593000Y-79478000D02*
X56793000Y-79478000D01*
X57593000Y-76478000D02*
X57593000Y-75978000D01*
X56793000Y-79478000D02*
X56793000Y-79278000D01*
X56793000Y-76678000D02*
X56793000Y-76478000D01*
X56793000Y-76478000D02*
X57593000Y-76478000D01*
X65305000Y-33027252D02*
X65305000Y-32504748D01*
X66775000Y-33027252D02*
X66775000Y-32504748D01*
X28668000Y-49840000D02*
X28668000Y-51760000D01*
X28668000Y-51760000D02*
X31353000Y-51760000D01*
X31353000Y-49840000D02*
X28668000Y-49840000D01*
X30310000Y-67106000D02*
X30555000Y-67106000D01*
X48430000Y-67106000D02*
X48185000Y-67106000D01*
X30310000Y-63246000D02*
X30310000Y-67106000D01*
X30310000Y-63246000D02*
X30310000Y-59386000D01*
X48430000Y-63246000D02*
X48430000Y-67106000D01*
X48430000Y-63246000D02*
X48430000Y-59386000D01*
X30310000Y-59386000D02*
X30555000Y-59386000D01*
X48430000Y-59386000D02*
X48185000Y-59386000D01*
X30555000Y-67958500D02*
X30085000Y-68298500D01*
X30085000Y-67618500D01*
X30555000Y-67958500D01*
G36*
X30555000Y-67958500D02*
G01*
X30085000Y-68298500D01*
X30085000Y-67618500D01*
X30555000Y-67958500D01*
G37*
X73787000Y-37358000D02*
X71837000Y-37358000D01*
X73787000Y-37358000D02*
X75737000Y-37358000D01*
X73787000Y-47478000D02*
X71837000Y-47478000D01*
X73787000Y-47478000D02*
X75737000Y-47478000D01*
X71087000Y-37413000D02*
X70847000Y-37083000D01*
X71327000Y-37083000D01*
X71087000Y-37413000D01*
G36*
X71087000Y-37413000D02*
G01*
X70847000Y-37083000D01*
X71327000Y-37083000D01*
X71087000Y-37413000D01*
G37*
X30560064Y-49122000D02*
X30105936Y-49122000D01*
X30560064Y-47652000D02*
X30105936Y-47652000D01*
X97897000Y-41021000D02*
X97897000Y-39071000D01*
X97897000Y-41021000D02*
X97897000Y-42971000D01*
X87777000Y-41021000D02*
X87777000Y-39071000D01*
X87777000Y-41021000D02*
X87777000Y-42971000D01*
X98172000Y-38561000D02*
X97842000Y-38321000D01*
X98172000Y-38081000D01*
X98172000Y-38561000D01*
G36*
X98172000Y-38561000D02*
G01*
X97842000Y-38321000D01*
X98172000Y-38081000D01*
X98172000Y-38561000D01*
G37*
X37532748Y-75361000D02*
X38055252Y-75361000D01*
X37532748Y-76831000D02*
X38055252Y-76831000D01*
X40124748Y-54637000D02*
X40647252Y-54637000D01*
X40124748Y-56107000D02*
X40647252Y-56107000D01*
X38167000Y-42231000D02*
X39497000Y-42231000D01*
X38167000Y-43561000D02*
X38167000Y-42231000D01*
X38167000Y-44831000D02*
X38167000Y-49971000D01*
X38167000Y-44831000D02*
X40827000Y-44831000D01*
X38167000Y-49971000D02*
X40827000Y-49971000D01*
X40827000Y-44831000D02*
X40827000Y-49971000D01*
X28576600Y-87180052D02*
X28576600Y-86657548D01*
X30046600Y-87180052D02*
X30046600Y-86657548D01*
%LPC*%
D14*
X70612000Y-35076000D03*
X70612000Y-31726000D03*
D15*
X46990000Y-90372000D03*
X46990000Y-83872000D03*
D16*
X51902000Y-60207000D03*
X51252000Y-60207000D03*
X50602000Y-60207000D03*
X49952000Y-60207000D03*
X49952000Y-64507000D03*
X50602000Y-64507000D03*
X51252000Y-64507000D03*
X51902000Y-64507000D03*
D17*
X62087000Y-82550000D03*
X60087000Y-82550000D03*
D18*
X45908000Y-71252500D03*
X44008000Y-71252500D03*
X44958000Y-73527500D03*
D19*
X63754000Y-79375000D03*
D20*
X29415500Y-45974000D03*
X31290500Y-45974000D03*
D21*
X33575000Y-33782000D03*
X33575000Y-34732000D03*
X33575000Y-35682000D03*
X36275000Y-35682000D03*
X36275000Y-33782000D03*
D19*
X63754000Y-61468000D03*
D22*
X60259000Y-58628000D03*
X59309000Y-58628000D03*
X58359000Y-58628000D03*
X58359000Y-60948000D03*
X59309000Y-60948000D03*
X60259000Y-60948000D03*
D23*
X50240000Y-100203000D03*
X43740000Y-100203000D03*
D24*
X90000000Y-24525600D03*
D25*
X87460000Y-21985600D03*
X87460000Y-27065600D03*
X92540000Y-21985600D03*
X92540000Y-27065600D03*
D26*
X47895000Y-70485000D03*
X49895000Y-70485000D03*
D27*
X74466000Y-49898000D03*
X73966000Y-49898000D03*
X73466000Y-49898000D03*
X72966000Y-49898000D03*
X72966000Y-51898000D03*
X73466000Y-51898000D03*
X73966000Y-51898000D03*
X74466000Y-51898000D03*
D28*
X73716000Y-50898000D03*
D29*
X21957000Y-92177000D03*
X24257000Y-92177000D03*
D30*
X24257000Y-85877000D03*
D29*
X26557000Y-92177000D03*
D31*
X74549000Y-35835500D03*
X74549000Y-33760500D03*
D32*
X51181000Y-28176000D03*
D33*
X46156000Y-23151000D03*
X46156000Y-33201000D03*
X56206000Y-23151000D03*
X56206000Y-33201000D03*
D31*
X92583000Y-33803500D03*
X92583000Y-31728500D03*
X80518000Y-33803500D03*
X80518000Y-31728500D03*
D34*
X76708000Y-85344000D03*
D35*
X76708000Y-75819000D03*
X76708000Y-66294000D03*
X95758000Y-85344000D03*
X95758000Y-66294000D03*
D26*
X79010000Y-43053000D03*
X81010000Y-43053000D03*
D19*
X103378000Y-57404000D03*
D36*
X90045500Y-50927000D03*
X95120500Y-50927000D03*
D19*
X81026000Y-57404000D03*
D37*
X41985000Y-71569000D03*
X41985000Y-73569000D03*
D38*
X25760600Y-64145400D03*
D39*
X23220600Y-64145400D03*
X25760600Y-61605400D03*
X23220600Y-61605400D03*
X25760600Y-59065400D03*
X23220600Y-59065400D03*
D40*
X73384500Y-53848000D03*
X75459500Y-53848000D03*
D41*
X59055000Y-53845500D03*
X59055000Y-48770500D03*
X24130000Y-43431500D03*
X24130000Y-38356500D03*
D42*
X34557000Y-25019000D03*
X35259944Y-23321944D03*
X35259944Y-26716056D03*
X36957000Y-22619000D03*
D43*
X36957000Y-25019000D03*
D42*
X36957000Y-27419000D03*
X38654056Y-23321944D03*
X38654056Y-26716056D03*
X39357000Y-25019000D03*
D44*
X35687000Y-91059000D03*
D45*
X35687000Y-97359000D03*
D46*
X40487000Y-93959000D03*
D47*
X57452500Y-82550000D03*
X55577500Y-82550000D03*
D48*
X60935000Y-91073000D03*
X60935000Y-88773000D03*
D49*
X54635000Y-88773000D03*
D48*
X60935000Y-86473000D03*
D31*
X36905000Y-73606500D03*
X36905000Y-71531500D03*
D42*
X97600000Y-100000000D03*
X98302944Y-98302944D03*
X98302944Y-101697056D03*
X100000000Y-97600000D03*
D43*
X100000000Y-100000000D03*
D42*
X100000000Y-102400000D03*
X101697056Y-98302944D03*
X101697056Y-101697056D03*
X102400000Y-100000000D03*
D50*
X58420000Y-95937000D03*
X58420000Y-102437000D03*
D51*
X81047500Y-49911000D03*
X78972500Y-49911000D03*
D40*
X45241300Y-78247000D03*
X47316300Y-78247000D03*
D19*
X100076000Y-54864000D03*
D37*
X26924000Y-31766000D03*
X26924000Y-33766000D03*
D50*
X35179000Y-80189000D03*
X35179000Y-86689000D03*
D42*
X22492000Y-99949000D03*
X23194944Y-98251944D03*
X23194944Y-101646056D03*
X24892000Y-97549000D03*
D43*
X24892000Y-99949000D03*
D42*
X24892000Y-102349000D03*
X26589056Y-98251944D03*
X26589056Y-101646056D03*
X27292000Y-99949000D03*
D51*
X41677500Y-33528000D03*
X39602500Y-33528000D03*
D38*
X53203000Y-55118000D03*
D39*
X50663000Y-55118000D03*
X48123000Y-55118000D03*
X45583000Y-55118000D03*
D31*
X63500000Y-33803500D03*
X63500000Y-31728500D03*
D19*
X66294000Y-57404000D03*
D24*
X66000000Y-24525600D03*
D25*
X63460000Y-21985600D03*
X63460000Y-27065600D03*
X68540000Y-21985600D03*
X68540000Y-27065600D03*
D24*
X78000000Y-24525600D03*
D25*
X75460000Y-21985600D03*
X75460000Y-27065600D03*
X80540000Y-21985600D03*
X80540000Y-27065600D03*
D31*
X90043000Y-33825000D03*
X90043000Y-31750000D03*
D17*
X31333000Y-43561000D03*
X29333000Y-43561000D03*
D31*
X39445000Y-73606500D03*
X39445000Y-71531500D03*
D19*
X69469000Y-54864000D03*
D31*
X44323000Y-49805500D03*
X44323000Y-47730500D03*
X77978000Y-33803500D03*
X77978000Y-31728500D03*
X54991000Y-74316500D03*
X54991000Y-72241500D03*
D47*
X24356300Y-79857600D03*
X22481300Y-79857600D03*
D17*
X28787600Y-79857600D03*
X26787600Y-79857600D03*
D24*
X26908000Y-24525600D03*
D25*
X24368000Y-21985600D03*
X24368000Y-27065600D03*
X29448000Y-21985600D03*
X29448000Y-27065600D03*
D52*
X49845000Y-76342000D03*
X49845000Y-75692000D03*
X49845000Y-75042000D03*
X47945000Y-75042000D03*
X47945000Y-76342000D03*
D42*
X97549000Y-25019000D03*
X98251944Y-23321944D03*
X98251944Y-26716056D03*
X99949000Y-22619000D03*
D43*
X99949000Y-25019000D03*
D42*
X99949000Y-27419000D03*
X101646056Y-23321944D03*
X101646056Y-26716056D03*
X102349000Y-25019000D03*
D51*
X59584500Y-41021000D03*
X57509500Y-41021000D03*
X56790500Y-64135000D03*
X54715500Y-64135000D03*
X49911000Y-73025000D03*
X47836000Y-73025000D03*
D38*
X23215600Y-68529200D03*
D39*
X25755600Y-68529200D03*
X23215600Y-71069200D03*
X25755600Y-71069200D03*
X23215600Y-73609200D03*
X25755600Y-73609200D03*
X23215600Y-76149200D03*
X25755600Y-76149200D03*
D51*
X51964500Y-67945000D03*
X49889500Y-67945000D03*
D53*
X59326000Y-73213000D03*
X59326000Y-72263000D03*
X59326000Y-71313000D03*
X57006000Y-71313000D03*
X57006000Y-72263000D03*
X57006000Y-73213000D03*
D40*
X97209700Y-46329600D03*
X99284700Y-46329600D03*
D54*
X46922000Y-49628000D03*
X46922000Y-42828000D03*
X51122000Y-49628000D03*
X51122000Y-42828000D03*
D51*
X59076500Y-43561000D03*
X57001500Y-43561000D03*
D55*
X24130000Y-47882900D03*
X24130000Y-49957900D03*
D56*
X41208000Y-77681000D03*
X41858000Y-77681000D03*
X42508000Y-77681000D03*
X42508000Y-75781000D03*
X41208000Y-75781000D03*
D19*
X66294000Y-92456000D03*
D17*
X67929000Y-41656000D03*
X65929000Y-41656000D03*
D37*
X44323000Y-42688000D03*
X44323000Y-44688000D03*
D40*
X53699500Y-58928000D03*
X55774500Y-58928000D03*
D57*
X58293000Y-76478000D03*
D58*
X59768000Y-77978000D03*
D57*
X58293000Y-79478000D03*
D58*
X56818000Y-77978000D03*
D31*
X66040000Y-33803500D03*
X66040000Y-31728500D03*
D20*
X29415500Y-50800000D03*
X31290500Y-50800000D03*
D59*
X31115000Y-67896000D03*
X32385000Y-67896000D03*
X33655000Y-67896000D03*
X34925000Y-67896000D03*
X36195000Y-67896000D03*
X37465000Y-67896000D03*
X38735000Y-67896000D03*
X40005000Y-67896000D03*
X41275000Y-67896000D03*
X42545000Y-67896000D03*
X43815000Y-67896000D03*
X45085000Y-67896000D03*
X46355000Y-67896000D03*
X47625000Y-67896000D03*
X47625000Y-58596000D03*
X46355000Y-58596000D03*
X45085000Y-58596000D03*
X43815000Y-58596000D03*
X42545000Y-58596000D03*
X41275000Y-58596000D03*
X40005000Y-58596000D03*
X38735000Y-58596000D03*
X37465000Y-58596000D03*
X36195000Y-58596000D03*
X34925000Y-58596000D03*
X33655000Y-58596000D03*
X32385000Y-58596000D03*
X31115000Y-58596000D03*
D60*
X71312000Y-37973000D03*
X71312000Y-39243000D03*
X71312000Y-40513000D03*
X71312000Y-41783000D03*
X71312000Y-43053000D03*
X71312000Y-44323000D03*
X71312000Y-45593000D03*
X71312000Y-46863000D03*
X76262000Y-46863000D03*
X76262000Y-45593000D03*
X76262000Y-44323000D03*
X76262000Y-43053000D03*
X76262000Y-41783000D03*
X76262000Y-40513000D03*
X76262000Y-39243000D03*
X76262000Y-37973000D03*
D17*
X31333000Y-48387000D03*
X29333000Y-48387000D03*
D61*
X97282000Y-38546000D03*
X96012000Y-38546000D03*
X94742000Y-38546000D03*
X93472000Y-38546000D03*
X92202000Y-38546000D03*
X90932000Y-38546000D03*
X89662000Y-38546000D03*
X88392000Y-38546000D03*
X88392000Y-43496000D03*
X89662000Y-43496000D03*
X90932000Y-43496000D03*
X92202000Y-43496000D03*
X93472000Y-43496000D03*
X94742000Y-43496000D03*
X96012000Y-43496000D03*
X97282000Y-43496000D03*
D40*
X36756500Y-76096000D03*
X38831500Y-76096000D03*
X39348500Y-55372000D03*
X41423500Y-55372000D03*
D38*
X39497000Y-43561000D03*
D39*
X39497000Y-46101000D03*
X39497000Y-48641000D03*
D31*
X29311600Y-87956300D03*
X29311600Y-85881300D03*
%LPD*%
M02*
