G04 #@! TF.GenerationSoftware,KiCad,Pcbnew,7.0.11*
G04 #@! TF.CreationDate,2024-03-19T21:31:16+01:00*
G04 #@! TF.ProjectId,GPSDO,47505344-4f2e-46b6-9963-61645f706362,rev?*
G04 #@! TF.SameCoordinates,Original*
G04 #@! TF.FileFunction,Copper,L2,Bot*
G04 #@! TF.FilePolarity,Positive*
%FSLAX46Y46*%
G04 Gerber Fmt 4.6, Leading zero omitted, Abs format (unit mm)*
G04 Created by KiCad (PCBNEW 7.0.11) date 2024-03-19 21:31:16*
%MOMM*%
%LPD*%
G01*
G04 APERTURE LIST*
G04 Aperture macros list*
%AMRoundRect*
0 Rectangle with rounded corners*
0 $1 Rounding radius*
0 $2 $3 $4 $5 $6 $7 $8 $9 X,Y pos of 4 corners*
0 Add a 4 corners polygon primitive as box body*
4,1,4,$2,$3,$4,$5,$6,$7,$8,$9,$2,$3,0*
0 Add four circle primitives for the rounded corners*
1,1,$1+$1,$2,$3*
1,1,$1+$1,$4,$5*
1,1,$1+$1,$6,$7*
1,1,$1+$1,$8,$9*
0 Add four rect primitives between the rounded corners*
20,1,$1+$1,$2,$3,$4,$5,0*
20,1,$1+$1,$4,$5,$6,$7,0*
20,1,$1+$1,$6,$7,$8,$9,0*
20,1,$1+$1,$8,$9,$2,$3,0*%
%AMFreePoly0*
4,1,6,1.000000,0.000000,0.500000,-0.750000,-0.500000,-0.750000,-0.500000,0.750000,0.500000,0.750000,1.000000,0.000000,1.000000,0.000000,$1*%
%AMFreePoly1*
4,1,6,0.500000,-0.750000,-0.650000,-0.750000,-0.150000,0.000000,-0.650000,0.750000,0.500000,0.750000,0.500000,-0.750000,0.500000,-0.750000,$1*%
G04 Aperture macros list end*
G04 #@! TA.AperFunction,SMDPad,CuDef*
%ADD10FreePoly0,270.000000*%
G04 #@! TD*
G04 #@! TA.AperFunction,SMDPad,CuDef*
%ADD11FreePoly1,270.000000*%
G04 #@! TD*
G04 #@! TA.AperFunction,ComponentPad*
%ADD12R,2.000000X2.000000*%
G04 #@! TD*
G04 #@! TA.AperFunction,ComponentPad*
%ADD13RoundRect,0.200100X-0.949900X-0.949900X0.949900X-0.949900X0.949900X0.949900X-0.949900X0.949900X0*%
G04 #@! TD*
G04 #@! TA.AperFunction,ComponentPad*
%ADD14C,2.500000*%
G04 #@! TD*
G04 #@! TA.AperFunction,ComponentPad*
%ADD15R,3.500000X3.500000*%
G04 #@! TD*
G04 #@! TA.AperFunction,ComponentPad*
%ADD16C,4.000000*%
G04 #@! TD*
G04 #@! TA.AperFunction,ComponentPad*
%ADD17R,1.600000X1.600000*%
G04 #@! TD*
G04 #@! TA.AperFunction,ComponentPad*
%ADD18C,1.600000*%
G04 #@! TD*
G04 #@! TA.AperFunction,ComponentPad*
%ADD19R,1.700000X1.700000*%
G04 #@! TD*
G04 #@! TA.AperFunction,ComponentPad*
%ADD20O,1.700000X1.700000*%
G04 #@! TD*
G04 #@! TA.AperFunction,ComponentPad*
%ADD21C,0.800000*%
G04 #@! TD*
G04 #@! TA.AperFunction,ComponentPad*
%ADD22C,6.400000*%
G04 #@! TD*
G04 #@! TA.AperFunction,ComponentPad*
%ADD23R,4.600000X2.000000*%
G04 #@! TD*
G04 #@! TA.AperFunction,ComponentPad*
%ADD24O,4.200000X2.000000*%
G04 #@! TD*
G04 #@! TA.AperFunction,ComponentPad*
%ADD25O,2.000000X4.200000*%
G04 #@! TD*
G04 #@! TA.AperFunction,SMDPad,CuDef*
%ADD26RoundRect,0.250000X1.000000X-1.500000X1.000000X1.500000X-1.000000X1.500000X-1.000000X-1.500000X0*%
G04 #@! TD*
G04 #@! TA.AperFunction,SMDPad,CuDef*
%ADD27RoundRect,0.250000X0.475000X-0.337500X0.475000X0.337500X-0.475000X0.337500X-0.475000X-0.337500X0*%
G04 #@! TD*
G04 #@! TA.AperFunction,SMDPad,CuDef*
%ADD28RoundRect,0.250000X0.337500X0.475000X-0.337500X0.475000X-0.337500X-0.475000X0.337500X-0.475000X0*%
G04 #@! TD*
G04 #@! TA.AperFunction,SMDPad,CuDef*
%ADD29RoundRect,0.100000X0.680000X0.100000X-0.680000X0.100000X-0.680000X-0.100000X0.680000X-0.100000X0*%
G04 #@! TD*
G04 #@! TA.AperFunction,SMDPad,CuDef*
%ADD30RoundRect,0.250000X-1.100000X0.412500X-1.100000X-0.412500X1.100000X-0.412500X1.100000X0.412500X0*%
G04 #@! TD*
G04 #@! TA.AperFunction,SMDPad,CuDef*
%ADD31RoundRect,0.250000X-0.475000X0.337500X-0.475000X-0.337500X0.475000X-0.337500X0.475000X0.337500X0*%
G04 #@! TD*
G04 #@! TA.AperFunction,SMDPad,CuDef*
%ADD32RoundRect,0.250000X0.412500X1.100000X-0.412500X1.100000X-0.412500X-1.100000X0.412500X-1.100000X0*%
G04 #@! TD*
G04 #@! TA.AperFunction,SMDPad,CuDef*
%ADD33RoundRect,0.218750X0.381250X-0.218750X0.381250X0.218750X-0.381250X0.218750X-0.381250X-0.218750X0*%
G04 #@! TD*
G04 #@! TA.AperFunction,SMDPad,CuDef*
%ADD34RoundRect,0.250000X1.500000X1.000000X-1.500000X1.000000X-1.500000X-1.000000X1.500000X-1.000000X0*%
G04 #@! TD*
G04 #@! TA.AperFunction,SMDPad,CuDef*
%ADD35RoundRect,0.150000X-0.512500X-0.150000X0.512500X-0.150000X0.512500X0.150000X-0.512500X0.150000X0*%
G04 #@! TD*
G04 #@! TA.AperFunction,SMDPad,CuDef*
%ADD36RoundRect,0.250000X0.350000X0.450000X-0.350000X0.450000X-0.350000X-0.450000X0.350000X-0.450000X0*%
G04 #@! TD*
G04 #@! TA.AperFunction,SMDPad,CuDef*
%ADD37RoundRect,0.150000X-0.150000X0.725000X-0.150000X-0.725000X0.150000X-0.725000X0.150000X0.725000X0*%
G04 #@! TD*
G04 #@! TA.AperFunction,ViaPad*
%ADD38C,0.800000*%
G04 #@! TD*
G04 #@! TA.AperFunction,Conductor*
%ADD39C,2.000000*%
G04 #@! TD*
G04 #@! TA.AperFunction,Conductor*
%ADD40C,1.200000*%
G04 #@! TD*
G04 #@! TA.AperFunction,Conductor*
%ADD41C,0.400000*%
G04 #@! TD*
G04 #@! TA.AperFunction,Conductor*
%ADD42C,0.500000*%
G04 #@! TD*
G04 #@! TA.AperFunction,Conductor*
%ADD43C,1.000000*%
G04 #@! TD*
G04 #@! TA.AperFunction,Conductor*
%ADD44C,0.250000*%
G04 #@! TD*
G04 #@! TA.AperFunction,Conductor*
%ADD45C,1.500000*%
G04 #@! TD*
G04 #@! TA.AperFunction,Conductor*
%ADD46C,0.200000*%
G04 #@! TD*
G04 APERTURE END LIST*
D10*
X92303600Y-55205800D03*
D11*
X92303600Y-56655800D03*
D12*
X63754000Y-79375000D03*
X63754000Y-61468000D03*
D13*
X90000000Y-24525600D03*
D14*
X87460000Y-21985600D03*
X87460000Y-27065600D03*
X92540000Y-21985600D03*
X92540000Y-27065600D03*
D15*
X51181000Y-28176000D03*
D16*
X46156000Y-23151000D03*
X46156000Y-33201000D03*
X56206000Y-23151000D03*
X56206000Y-33201000D03*
D17*
X76708000Y-85344000D03*
D18*
X76708000Y-75819000D03*
X76708000Y-66294000D03*
X95758000Y-85344000D03*
X95758000Y-66294000D03*
D12*
X103378000Y-57404000D03*
X81026000Y-57404000D03*
D19*
X25760600Y-64145400D03*
D20*
X23220600Y-64145400D03*
X25760600Y-61605400D03*
X23220600Y-61605400D03*
X25760600Y-59065400D03*
X23220600Y-59065400D03*
D21*
X34557000Y-25019000D03*
X35259944Y-23321944D03*
X35259944Y-26716056D03*
X36957000Y-22619000D03*
D22*
X36957000Y-25019000D03*
D21*
X36957000Y-27419000D03*
X38654056Y-23321944D03*
X38654056Y-26716056D03*
X39357000Y-25019000D03*
D23*
X35687000Y-91059000D03*
D24*
X35687000Y-97359000D03*
D25*
X40487000Y-93959000D03*
D21*
X97600000Y-100000000D03*
X98302944Y-98302944D03*
X98302944Y-101697056D03*
X100000000Y-97600000D03*
D22*
X100000000Y-100000000D03*
D21*
X100000000Y-102400000D03*
X101697056Y-98302944D03*
X101697056Y-101697056D03*
X102400000Y-100000000D03*
D12*
X100076000Y-54864000D03*
D21*
X22492000Y-99949000D03*
X23194944Y-98251944D03*
X23194944Y-101646056D03*
X24892000Y-97549000D03*
D22*
X24892000Y-99949000D03*
D21*
X24892000Y-102349000D03*
X26589056Y-98251944D03*
X26589056Y-101646056D03*
X27292000Y-99949000D03*
D19*
X53203000Y-55118000D03*
D20*
X50663000Y-55118000D03*
X48123000Y-55118000D03*
X45583000Y-55118000D03*
D12*
X66294000Y-57404000D03*
D13*
X66000000Y-24525600D03*
D14*
X63460000Y-21985600D03*
X63460000Y-27065600D03*
X68540000Y-21985600D03*
X68540000Y-27065600D03*
D13*
X78000000Y-24525600D03*
D14*
X75460000Y-21985600D03*
X75460000Y-27065600D03*
X80540000Y-21985600D03*
X80540000Y-27065600D03*
D12*
X69469000Y-54864000D03*
D13*
X26908000Y-24525600D03*
D14*
X24368000Y-21985600D03*
X24368000Y-27065600D03*
X29448000Y-21985600D03*
X29448000Y-27065600D03*
D21*
X97549000Y-25019000D03*
X98251944Y-23321944D03*
X98251944Y-26716056D03*
X99949000Y-22619000D03*
D22*
X99949000Y-25019000D03*
D21*
X99949000Y-27419000D03*
X101646056Y-23321944D03*
X101646056Y-26716056D03*
X102349000Y-25019000D03*
D19*
X23215600Y-68529200D03*
D20*
X25755600Y-68529200D03*
X23215600Y-71069200D03*
X25755600Y-71069200D03*
X23215600Y-73609200D03*
X25755600Y-73609200D03*
X23215600Y-76149200D03*
X25755600Y-76149200D03*
D12*
X66294000Y-92456000D03*
D19*
X39497000Y-43561000D03*
D20*
X39497000Y-46101000D03*
X39497000Y-48641000D03*
D26*
X76454000Y-102437000D03*
X76454000Y-95937000D03*
D27*
X82550000Y-99081500D03*
X82550000Y-97006500D03*
D28*
X70887500Y-80967500D03*
X68812500Y-80967500D03*
X70252500Y-78486000D03*
X68177500Y-78486000D03*
D29*
X71327000Y-83892000D03*
X71327000Y-84542000D03*
X71327000Y-85202000D03*
X71327000Y-85852000D03*
X68627000Y-85852000D03*
X68627000Y-85202000D03*
X68627000Y-84542000D03*
X68627000Y-83892000D03*
D30*
X69850000Y-92925500D03*
X69850000Y-96050500D03*
D28*
X70506500Y-67818000D03*
X68431500Y-67818000D03*
D31*
X67183000Y-101705500D03*
X67183000Y-103780500D03*
D27*
X67818000Y-90064500D03*
X67818000Y-87989500D03*
D32*
X70777500Y-75184000D03*
X67652500Y-75184000D03*
D33*
X102235000Y-70404500D03*
X102235000Y-68279500D03*
D34*
X102564000Y-91440000D03*
X96064000Y-91440000D03*
D35*
X68077500Y-71689000D03*
X68077500Y-70739000D03*
X68077500Y-69789000D03*
X70352500Y-69789000D03*
X70352500Y-70739000D03*
X70352500Y-71689000D03*
D36*
X72120000Y-90043000D03*
X70120000Y-90043000D03*
D37*
X85598000Y-95469000D03*
X86868000Y-95469000D03*
X88138000Y-95469000D03*
X89408000Y-95469000D03*
X89408000Y-100619000D03*
X88138000Y-100619000D03*
X86868000Y-100619000D03*
X85598000Y-100619000D03*
D31*
X102235000Y-63859500D03*
X102235000Y-65934500D03*
D36*
X89900000Y-90932000D03*
X87900000Y-90932000D03*
D38*
X70993000Y-81026000D03*
X58420000Y-96621600D03*
X58420000Y-99060000D03*
X70485000Y-67818000D03*
X58420000Y-97790000D03*
X59182000Y-64135000D03*
X74803000Y-91059000D03*
X46990000Y-84988400D03*
X21945600Y-92710000D03*
X51562000Y-57658000D03*
X74803000Y-91948000D03*
X74828400Y-90170000D03*
X21945600Y-91643200D03*
X87122000Y-38557200D03*
X66151000Y-82550000D03*
X97078800Y-90830400D03*
X95123000Y-50927000D03*
X70612000Y-31750000D03*
X40005000Y-74930000D03*
X24130000Y-37439600D03*
X46990000Y-83820000D03*
X69138800Y-46837600D03*
X21945600Y-90373200D03*
X53594000Y-65786000D03*
X35204400Y-87985600D03*
X46990000Y-82651600D03*
X35204400Y-85598000D03*
X24130000Y-39319200D03*
X93472000Y-41503600D03*
X59055000Y-48768000D03*
X95859600Y-92252800D03*
X96469200Y-91541600D03*
X48006000Y-61722000D03*
X96012000Y-40487600D03*
X35179000Y-86741000D03*
X49911000Y-73025000D03*
X59029600Y-55016400D03*
X70612000Y-35179000D03*
X47319000Y-78232000D03*
X59029600Y-53975000D03*
X36905000Y-71531500D03*
X24130000Y-43535600D03*
X35204400Y-81330800D03*
X35204400Y-80162400D03*
X81026000Y-43053000D03*
X65913000Y-41656000D03*
X24130000Y-42418000D03*
X24130000Y-44653200D03*
X48514000Y-64389000D03*
X35179000Y-78994000D03*
X76327000Y-51308000D03*
X38937000Y-78284000D03*
X59029600Y-52882800D03*
X54991000Y-72390000D03*
X65659000Y-47498000D03*
X85242400Y-51308000D03*
X54737000Y-64135000D03*
X43840400Y-66040000D03*
X68580000Y-86614000D03*
X60833000Y-68580000D03*
X69596000Y-82550000D03*
X60833000Y-66802000D03*
X32385000Y-66040000D03*
X67239500Y-85217000D03*
X60833000Y-70231000D03*
X34925000Y-66040000D03*
X73660000Y-37973000D03*
X94742000Y-36830000D03*
X93472000Y-45974000D03*
X73914000Y-45212000D03*
D39*
X74891000Y-104000000D02*
X63398400Y-104000000D01*
D40*
X75110500Y-103780500D02*
X76454000Y-102437000D01*
D41*
X68077500Y-69789000D02*
X70352500Y-69789000D01*
D40*
X82677000Y-103251000D02*
X77268000Y-103251000D01*
X82550000Y-99081500D02*
X82550000Y-103124000D01*
D39*
X76454000Y-102437000D02*
X74891000Y-104000000D01*
D42*
X82571500Y-99060000D02*
X82550000Y-99081500D01*
X86868000Y-99441000D02*
X86868000Y-100619000D01*
X86487000Y-99060000D02*
X82571500Y-99060000D01*
D39*
X102564000Y-91440000D02*
X102337460Y-91440000D01*
D41*
X71327000Y-81407000D02*
X70887500Y-80967500D01*
D40*
X67183000Y-103780500D02*
X63140500Y-103780500D01*
X90043000Y-103251000D02*
X82677000Y-103251000D01*
D39*
X58420000Y-99060000D02*
X63140500Y-103780500D01*
X90526460Y-103251000D02*
X77268000Y-103251000D01*
X102337460Y-91440000D02*
X90526460Y-103251000D01*
D40*
X102564000Y-90730000D02*
X90043000Y-103251000D01*
X67183000Y-103780500D02*
X75110500Y-103780500D01*
D41*
X70352500Y-69789000D02*
X70352500Y-67950500D01*
D42*
X86868000Y-99441000D02*
X86487000Y-99060000D01*
D40*
X77268000Y-103251000D02*
X76454000Y-102437000D01*
D39*
X58420000Y-96621600D02*
X58420000Y-99060000D01*
D41*
X70352500Y-67950500D02*
X70485000Y-67818000D01*
D40*
X82550000Y-103124000D02*
X82677000Y-103251000D01*
D41*
X71327000Y-83892000D02*
X71327000Y-81407000D01*
X66167000Y-67818000D02*
X66040000Y-67691000D01*
X68077500Y-71689000D02*
X68077500Y-70739000D01*
D40*
X76708000Y-79375000D02*
X76708000Y-75819000D01*
D42*
X89408000Y-95469000D02*
X89408000Y-91424000D01*
D41*
X68077500Y-70739000D02*
X66167000Y-70739000D01*
X66222000Y-83892000D02*
X66040000Y-84074000D01*
D40*
X66040000Y-62865000D02*
X66040000Y-65024000D01*
X69850000Y-96050500D02*
X76340500Y-96050500D01*
X76454000Y-95937000D02*
X81480500Y-95937000D01*
X84328000Y-57150000D02*
X66040000Y-57150000D01*
D41*
X67652500Y-75184000D02*
X66421000Y-75184000D01*
D42*
X66188500Y-87989500D02*
X66040000Y-88138000D01*
D41*
X66294000Y-78486000D02*
X66040000Y-78232000D01*
D40*
X102235000Y-63859500D02*
X102383500Y-63859500D01*
X67602500Y-96050500D02*
X69850000Y-96050500D01*
X66040000Y-65024000D02*
X66040000Y-67691000D01*
X66040000Y-69723000D02*
X66040000Y-70612000D01*
D43*
X76340500Y-96050500D02*
X76454000Y-95937000D01*
D42*
X67818000Y-87989500D02*
X66188500Y-87989500D01*
X89408000Y-91424000D02*
X89900000Y-90932000D01*
D41*
X68224500Y-80967500D02*
X68166000Y-81026000D01*
D40*
X102383500Y-63859500D02*
X103378000Y-62865000D01*
X66040000Y-81788000D02*
X66040000Y-84074000D01*
D41*
X68166000Y-81026000D02*
X66040000Y-81026000D01*
D40*
X66040000Y-57150000D02*
X66040000Y-62865000D01*
X66040000Y-79756000D02*
X66040000Y-81026000D01*
X67602500Y-96050500D02*
X67602500Y-101286000D01*
X74803000Y-81280000D02*
X74803000Y-91948000D01*
X74803000Y-81280000D02*
X76708000Y-79375000D01*
X66040000Y-70612000D02*
X66040000Y-73025000D01*
D41*
X68177500Y-78486000D02*
X66294000Y-78486000D01*
D43*
X81480500Y-95937000D02*
X82550000Y-97006500D01*
D40*
X66040000Y-81026000D02*
X66040000Y-81788000D01*
X66040000Y-78232000D02*
X66040000Y-79756000D01*
X66040000Y-73025000D02*
X66040000Y-75565000D01*
D41*
X66421000Y-75184000D02*
X66040000Y-75565000D01*
D43*
X90154000Y-90678000D02*
X89900000Y-90932000D01*
D40*
X66040000Y-84074000D02*
X66040000Y-88138000D01*
X66040000Y-88138000D02*
X66040000Y-92329000D01*
X66040000Y-67691000D02*
X66040000Y-69723000D01*
D41*
X67912000Y-83892000D02*
X66222000Y-83892000D01*
D40*
X84328000Y-57150000D02*
X103632000Y-57150000D01*
X103378000Y-62865000D02*
X103378000Y-57404000D01*
D41*
X66167000Y-70739000D02*
X66040000Y-70612000D01*
D40*
X66040000Y-76835000D02*
X66040000Y-78232000D01*
X66040000Y-75565000D02*
X66040000Y-76835000D01*
D41*
X68431500Y-67818000D02*
X66167000Y-67818000D01*
D43*
X67602500Y-101286000D02*
X67183000Y-101705500D01*
D40*
X66040000Y-94488000D02*
X67602500Y-96050500D01*
X66040000Y-92329000D02*
X66040000Y-94488000D01*
D43*
X96064000Y-90678000D02*
X90154000Y-90678000D01*
D41*
X72507000Y-80740500D02*
X70252500Y-78486000D01*
X70352500Y-70739000D02*
X70352500Y-71689000D01*
X70777500Y-77961000D02*
X70252500Y-78486000D01*
X70352500Y-74759000D02*
X70777500Y-75184000D01*
X70777500Y-75184000D02*
X70777500Y-77961000D01*
X72507000Y-84258000D02*
X72507000Y-80740500D01*
X70352500Y-71689000D02*
X70352500Y-74759000D01*
X71327000Y-84542000D02*
X72223000Y-84542000D01*
X72223000Y-84542000D02*
X72507000Y-84258000D01*
D40*
X101875500Y-66294000D02*
X102235000Y-65934500D01*
X95758000Y-66294000D02*
X101875500Y-66294000D01*
X102235000Y-68279500D02*
X102235000Y-67056000D01*
X102235000Y-67056000D02*
X102235000Y-65934500D01*
D42*
X70098500Y-90064500D02*
X70120000Y-90043000D01*
D44*
X88138000Y-95469000D02*
X88138000Y-94234000D01*
D42*
X70120000Y-90043000D02*
X70120000Y-92655500D01*
X67818000Y-90064500D02*
X70098500Y-90064500D01*
X70120000Y-92655500D02*
X69850000Y-92925500D01*
D44*
X88138000Y-94234000D02*
X86829500Y-92925500D01*
X86829500Y-92925500D02*
X69850000Y-92925500D01*
D40*
X38937000Y-78284000D02*
X43382000Y-78284000D01*
X69215000Y-41656000D02*
X70612000Y-40259000D01*
D43*
X76327000Y-51308000D02*
X85242400Y-51308000D01*
D45*
X24130000Y-42468800D02*
X24130000Y-43561000D01*
X39497000Y-43561000D02*
X46863000Y-43561000D01*
D40*
X65659000Y-41910000D02*
X65913000Y-41656000D01*
X65659000Y-47498000D02*
X65659000Y-41910000D01*
D43*
X70637400Y-40233600D02*
X77825600Y-40233600D01*
D40*
X65913000Y-41656000D02*
X69215000Y-41656000D01*
D45*
X24130000Y-43561000D02*
X24130000Y-44602400D01*
D40*
X36905000Y-78257400D02*
X36931600Y-78284000D01*
D43*
X76327000Y-51308000D02*
X69469000Y-51308000D01*
X77825600Y-40233600D02*
X80645000Y-43053000D01*
D40*
X36931600Y-78284000D02*
X35889000Y-78284000D01*
D45*
X39497000Y-43561000D02*
X24130000Y-43561000D01*
D40*
X36905000Y-71531500D02*
X36905000Y-78257400D01*
X49097000Y-78284000D02*
X54991000Y-72390000D01*
X43382000Y-78284000D02*
X49097000Y-78284000D01*
X38937000Y-78284000D02*
X36931600Y-78284000D01*
D43*
X54737000Y-64135000D02*
X59055000Y-59817000D01*
X48768000Y-64135000D02*
X54737000Y-64135000D01*
X70612000Y-40259000D02*
X70612000Y-35179000D01*
X59055000Y-59817000D02*
X59029600Y-52882800D01*
X69469000Y-51308000D02*
X65659000Y-47498000D01*
X70612000Y-40259000D02*
X70637400Y-40233600D01*
X48514000Y-64389000D02*
X48768000Y-64135000D01*
D40*
X35889000Y-78284000D02*
X35179000Y-78994000D01*
D45*
X53203000Y-49921000D02*
X53203000Y-55118000D01*
X46863000Y-43561000D02*
X53213000Y-49911000D01*
D40*
X35179000Y-78994000D02*
X35179000Y-81305400D01*
X35179000Y-81305400D02*
X35204400Y-81330800D01*
D45*
X53213000Y-49911000D02*
X53203000Y-49921000D01*
D42*
X87460000Y-22225000D02*
X92540000Y-22225000D01*
X87460000Y-27305000D02*
X92540000Y-27305000D01*
X92540000Y-22225000D02*
X92540000Y-27305000D01*
X87460000Y-22225000D02*
X87460000Y-27305000D01*
D44*
X86868000Y-95469000D02*
X86868000Y-97409000D01*
X78867000Y-90932000D02*
X76708000Y-88773000D01*
X88138000Y-98679000D02*
X88138000Y-100619000D01*
X86868000Y-97409000D02*
X88138000Y-98679000D01*
X79248000Y-90932000D02*
X87900000Y-90932000D01*
X87900000Y-90932000D02*
X88773000Y-91805000D01*
X79248000Y-90932000D02*
X78867000Y-90932000D01*
X88773000Y-91805000D02*
X88773000Y-98044000D01*
X88773000Y-98044000D02*
X88138000Y-98679000D01*
X76708000Y-88773000D02*
X76708000Y-85344000D01*
D42*
X46156000Y-33219000D02*
X46156000Y-23169000D01*
X46156000Y-23169000D02*
X56206000Y-23169000D01*
X56206000Y-23169000D02*
X56206000Y-33219000D01*
X46156000Y-33219000D02*
X56206000Y-33219000D01*
D46*
X68627000Y-86567000D02*
X68580000Y-86614000D01*
D44*
X43840400Y-66040000D02*
X46380400Y-68580000D01*
X60833000Y-68580000D02*
X46482000Y-68580000D01*
D46*
X68627000Y-85852000D02*
X68627000Y-86567000D01*
D44*
X46380400Y-68580000D02*
X46482000Y-68580000D01*
X32385000Y-66014600D02*
X34950400Y-63449200D01*
D46*
X69850000Y-83439000D02*
X69850000Y-82804000D01*
D44*
X47447200Y-66802000D02*
X60833000Y-66802000D01*
D46*
X69607000Y-84542000D02*
X69850000Y-84299000D01*
X69850000Y-82804000D02*
X69596000Y-82550000D01*
D44*
X44094400Y-63449200D02*
X47447200Y-66802000D01*
X34950400Y-63449200D02*
X44094400Y-63449200D01*
D46*
X68627000Y-84542000D02*
X69607000Y-84542000D01*
D44*
X32385000Y-66040000D02*
X32385000Y-66014600D01*
D46*
X69850000Y-84299000D02*
X69850000Y-83439000D01*
D42*
X68540000Y-22225000D02*
X68540000Y-27305000D01*
X68540000Y-27305000D02*
X63460000Y-27305000D01*
X63460000Y-27305000D02*
X63460000Y-22225000D01*
X63460000Y-22225000D02*
X68540000Y-22225000D01*
D46*
X68627000Y-85202000D02*
X67254500Y-85202000D01*
D44*
X60833000Y-70231000D02*
X39116000Y-70231000D01*
X39116000Y-70231000D02*
X34925000Y-66040000D01*
D46*
X67254500Y-85202000D02*
X67239500Y-85217000D01*
D44*
X74803000Y-36830000D02*
X73660000Y-37973000D01*
X94742000Y-36830000D02*
X74803000Y-36830000D01*
D42*
X75460000Y-27305000D02*
X75460000Y-22225000D01*
X80540000Y-22225000D02*
X80540000Y-27305000D01*
X75460000Y-22225000D02*
X80540000Y-22225000D01*
X80540000Y-27305000D02*
X75460000Y-27305000D01*
D44*
X92710000Y-46736000D02*
X75311000Y-46736000D01*
X73914000Y-45339000D02*
X73914000Y-45212000D01*
X93472000Y-45974000D02*
X92710000Y-46736000D01*
X75311000Y-46736000D02*
X73914000Y-45339000D01*
D41*
X70612000Y-85202000D02*
X70612000Y-85852000D01*
X70612000Y-85979000D02*
X70612000Y-85852000D01*
X72120000Y-90043000D02*
X72120000Y-87487000D01*
X72120000Y-87487000D02*
X70612000Y-85979000D01*
G04 #@! TA.AperFunction,Conductor*
G36*
X104958691Y-20019407D02*
G01*
X104994655Y-20068907D01*
X104999500Y-20099500D01*
X104999500Y-55527000D01*
X104980593Y-55585191D01*
X104931093Y-55621155D01*
X104900500Y-55626000D01*
X101429000Y-55626000D01*
X101370809Y-55607093D01*
X101334845Y-55557593D01*
X101330000Y-55527000D01*
X101330000Y-55264001D01*
X101329999Y-55264000D01*
X100377897Y-55264000D01*
X100457761Y-55194798D01*
X100535493Y-55073844D01*
X100576000Y-54935889D01*
X100576000Y-54792111D01*
X100535493Y-54654156D01*
X100457761Y-54533202D01*
X100377895Y-54463999D01*
X100476000Y-54463999D01*
X100476001Y-54464000D01*
X101329998Y-54464000D01*
X101329999Y-54463999D01*
X101329999Y-53838987D01*
X101329998Y-53838977D01*
X101315263Y-53764895D01*
X101315262Y-53764892D01*
X101259125Y-53680878D01*
X101259121Y-53680874D01*
X101175106Y-53624736D01*
X101101019Y-53610000D01*
X100476001Y-53610000D01*
X100476000Y-53610001D01*
X100476000Y-54463999D01*
X100377895Y-54463999D01*
X100349100Y-54439048D01*
X100218315Y-54379320D01*
X100111763Y-54364000D01*
X100040237Y-54364000D01*
X99933685Y-54379320D01*
X99802900Y-54439048D01*
X99694239Y-54533202D01*
X99616507Y-54654156D01*
X99576000Y-54792111D01*
X99576000Y-54935889D01*
X99616507Y-55073844D01*
X99694239Y-55194798D01*
X99774103Y-55264000D01*
X98822002Y-55264000D01*
X98822001Y-55264001D01*
X98822001Y-55527000D01*
X98803094Y-55585191D01*
X98753594Y-55621155D01*
X98723001Y-55626000D01*
X70822000Y-55626000D01*
X70763809Y-55607093D01*
X70727845Y-55557593D01*
X70723000Y-55527000D01*
X70723000Y-55264001D01*
X70722999Y-55264000D01*
X69770897Y-55264000D01*
X69850761Y-55194798D01*
X69928493Y-55073844D01*
X69969000Y-54935889D01*
X69969000Y-54792111D01*
X69928493Y-54654156D01*
X69850761Y-54533202D01*
X69770895Y-54463999D01*
X69869000Y-54463999D01*
X69869001Y-54464000D01*
X70722998Y-54464000D01*
X70722999Y-54463999D01*
X98822000Y-54463999D01*
X98822001Y-54464000D01*
X99675999Y-54464000D01*
X99676000Y-54463999D01*
X99676000Y-53610001D01*
X99675999Y-53610000D01*
X99050986Y-53610000D01*
X99050977Y-53610001D01*
X98976895Y-53624736D01*
X98976892Y-53624737D01*
X98892878Y-53680874D01*
X98892874Y-53680878D01*
X98836736Y-53764893D01*
X98822000Y-53838980D01*
X98822000Y-54463999D01*
X70722999Y-54463999D01*
X70722999Y-53838987D01*
X70722998Y-53838977D01*
X70708263Y-53764895D01*
X70708262Y-53764892D01*
X70652125Y-53680878D01*
X70652121Y-53680874D01*
X70568106Y-53624736D01*
X70494019Y-53610000D01*
X69869001Y-53610000D01*
X69869000Y-53610001D01*
X69869000Y-54463999D01*
X69770895Y-54463999D01*
X69742100Y-54439048D01*
X69611315Y-54379320D01*
X69504763Y-54364000D01*
X69433237Y-54364000D01*
X69326685Y-54379320D01*
X69195900Y-54439048D01*
X69087239Y-54533202D01*
X69009507Y-54654156D01*
X68969000Y-54792111D01*
X68969000Y-54935889D01*
X69009507Y-55073844D01*
X69087239Y-55194798D01*
X69167103Y-55264000D01*
X68215002Y-55264000D01*
X68215001Y-55264001D01*
X68215001Y-55527000D01*
X68196094Y-55585191D01*
X68146594Y-55621155D01*
X68116001Y-55626000D01*
X64516000Y-55626000D01*
X64516000Y-55626001D01*
X64516000Y-60115000D01*
X64497093Y-60173191D01*
X64447593Y-60209155D01*
X64417000Y-60214000D01*
X64154001Y-60214000D01*
X64154000Y-60214001D01*
X64154000Y-61165582D01*
X64135761Y-61137202D01*
X64027100Y-61043048D01*
X63896315Y-60983320D01*
X63789763Y-60968000D01*
X63718237Y-60968000D01*
X63611685Y-60983320D01*
X63480900Y-61043048D01*
X63372239Y-61137202D01*
X63294507Y-61258156D01*
X63254000Y-61396111D01*
X63254000Y-61539889D01*
X63294507Y-61677844D01*
X63372239Y-61798798D01*
X63480900Y-61892952D01*
X63611685Y-61952680D01*
X63718237Y-61968000D01*
X63789763Y-61968000D01*
X63896315Y-61952680D01*
X64027100Y-61892952D01*
X64135761Y-61798798D01*
X64154000Y-61770417D01*
X64154000Y-62721998D01*
X64154001Y-62721999D01*
X64417000Y-62721999D01*
X64475191Y-62740906D01*
X64511155Y-62790406D01*
X64516000Y-62820999D01*
X64516000Y-78022000D01*
X64497093Y-78080191D01*
X64447593Y-78116155D01*
X64417000Y-78121000D01*
X64154001Y-78121000D01*
X64154000Y-78121001D01*
X64154000Y-79072582D01*
X64135761Y-79044202D01*
X64027100Y-78950048D01*
X63896315Y-78890320D01*
X63789763Y-78875000D01*
X63718237Y-78875000D01*
X63611685Y-78890320D01*
X63480900Y-78950048D01*
X63372239Y-79044202D01*
X63294507Y-79165156D01*
X63254000Y-79303111D01*
X63254000Y-79446889D01*
X63294507Y-79584844D01*
X63372239Y-79705798D01*
X63480900Y-79799952D01*
X63611685Y-79859680D01*
X63718237Y-79875000D01*
X63789763Y-79875000D01*
X63896315Y-79859680D01*
X64027100Y-79799952D01*
X64135761Y-79705798D01*
X64154000Y-79677417D01*
X64154000Y-80628998D01*
X64154001Y-80628999D01*
X64417000Y-80628999D01*
X64475191Y-80647906D01*
X64511155Y-80697406D01*
X64516000Y-80727999D01*
X64516000Y-80926586D01*
X64497093Y-80984777D01*
X64447593Y-81020741D01*
X64416588Y-81025585D01*
X52324000Y-80975199D01*
X52323999Y-80975200D01*
X52358657Y-97385645D01*
X52339872Y-97443875D01*
X52290448Y-97479944D01*
X52259278Y-97484853D01*
X39065200Y-97434399D01*
X39065200Y-104828924D01*
X39046293Y-104887115D01*
X38996793Y-104923079D01*
X38966726Y-104927923D01*
X25492563Y-104999499D01*
X25492037Y-104999500D01*
X20099500Y-104999500D01*
X20041309Y-104980593D01*
X20005345Y-104931093D01*
X20000500Y-104900500D01*
X20000500Y-97859000D01*
X33432025Y-97859000D01*
X33536216Y-98052618D01*
X33536219Y-98052624D01*
X33676947Y-98229091D01*
X33676955Y-98229099D01*
X33846938Y-98377608D01*
X33846941Y-98377610D01*
X34040709Y-98493382D01*
X34252032Y-98572693D01*
X34252043Y-98572696D01*
X34474131Y-98612998D01*
X34474144Y-98613000D01*
X35186999Y-98613000D01*
X35187000Y-98612999D01*
X35187000Y-97859001D01*
X35186999Y-97859000D01*
X36187001Y-97859000D01*
X36187000Y-97859001D01*
X36187000Y-98612999D01*
X36187001Y-98613000D01*
X36843316Y-98613000D01*
X36843339Y-98612998D01*
X37011814Y-98597835D01*
X37229393Y-98537787D01*
X37229410Y-98537781D01*
X37432773Y-98439847D01*
X37615391Y-98307167D01*
X37771376Y-98144021D01*
X37771376Y-98144020D01*
X37895732Y-97955629D01*
X37895735Y-97955625D01*
X37937034Y-97859000D01*
X36822763Y-97859000D01*
X36929315Y-97843680D01*
X37060100Y-97783952D01*
X37168761Y-97689798D01*
X37246493Y-97568844D01*
X37287000Y-97430889D01*
X37287000Y-97287111D01*
X37246493Y-97149156D01*
X37168761Y-97028202D01*
X37060100Y-96934048D01*
X36929315Y-96874320D01*
X36822763Y-96859000D01*
X37941974Y-96859000D01*
X37941974Y-96858999D01*
X37837783Y-96665381D01*
X37837780Y-96665375D01*
X37697052Y-96488908D01*
X37697044Y-96488900D01*
X37527061Y-96340391D01*
X37527058Y-96340389D01*
X37333290Y-96224617D01*
X37121967Y-96145306D01*
X37121956Y-96145303D01*
X36899868Y-96105001D01*
X36899856Y-96105000D01*
X36187001Y-96105000D01*
X36187000Y-96105001D01*
X36187000Y-96858999D01*
X36187001Y-96859000D01*
X35186999Y-96859000D01*
X35187000Y-96858999D01*
X35187000Y-96105001D01*
X35186999Y-96105000D01*
X34530684Y-96105000D01*
X34530660Y-96105001D01*
X34362185Y-96120164D01*
X34144606Y-96180212D01*
X34144589Y-96180218D01*
X33941226Y-96278152D01*
X33758608Y-96410832D01*
X33602623Y-96573978D01*
X33602623Y-96573979D01*
X33478267Y-96762370D01*
X33478264Y-96762374D01*
X33436966Y-96858999D01*
X33436967Y-96859000D01*
X34551237Y-96859000D01*
X34444685Y-96874320D01*
X34313900Y-96934048D01*
X34205239Y-97028202D01*
X34127507Y-97149156D01*
X34087000Y-97287111D01*
X34087000Y-97430889D01*
X34127507Y-97568844D01*
X34205239Y-97689798D01*
X34313900Y-97783952D01*
X34444685Y-97843680D01*
X34551237Y-97859000D01*
X33432025Y-97859000D01*
X20000500Y-97859000D01*
X20000500Y-95114503D01*
X39286500Y-95114503D01*
X39301885Y-95280536D01*
X39362771Y-95494528D01*
X39461942Y-95693689D01*
X39596019Y-95871236D01*
X39760438Y-96021124D01*
X39949599Y-96138247D01*
X40157060Y-96218618D01*
X40375757Y-96259500D01*
X40598243Y-96259500D01*
X40816940Y-96218618D01*
X41024401Y-96138247D01*
X41213562Y-96021124D01*
X41377981Y-95871236D01*
X41512058Y-95693689D01*
X41611229Y-95494528D01*
X41672115Y-95280536D01*
X41687500Y-95114503D01*
X41687500Y-92803497D01*
X41672115Y-92637464D01*
X41611229Y-92423472D01*
X41512058Y-92224311D01*
X41377981Y-92046764D01*
X41213562Y-91896876D01*
X41024401Y-91779753D01*
X40816940Y-91699382D01*
X40816939Y-91699381D01*
X40816937Y-91699381D01*
X40598243Y-91658500D01*
X40375757Y-91658500D01*
X40157062Y-91699381D01*
X40144752Y-91704150D01*
X39949599Y-91779753D01*
X39760438Y-91896876D01*
X39596020Y-92046763D01*
X39461943Y-92224309D01*
X39461938Y-92224318D01*
X39362772Y-92423469D01*
X39362771Y-92423472D01*
X39301885Y-92637464D01*
X39286500Y-92803497D01*
X39286500Y-95114503D01*
X20000500Y-95114503D01*
X20000500Y-92078746D01*
X33186500Y-92078746D01*
X33186501Y-92078758D01*
X33198132Y-92137227D01*
X33198134Y-92137233D01*
X33242445Y-92203548D01*
X33242448Y-92203552D01*
X33308769Y-92247867D01*
X33353231Y-92256711D01*
X33367241Y-92259498D01*
X33367246Y-92259498D01*
X33367252Y-92259500D01*
X33367253Y-92259500D01*
X38006747Y-92259500D01*
X38006748Y-92259500D01*
X38065231Y-92247867D01*
X38131552Y-92203552D01*
X38175867Y-92137231D01*
X38187500Y-92078748D01*
X38187500Y-90039252D01*
X38175867Y-89980769D01*
X38131552Y-89914448D01*
X38131548Y-89914445D01*
X38065233Y-89870134D01*
X38065231Y-89870133D01*
X38065228Y-89870132D01*
X38065227Y-89870132D01*
X38006758Y-89858501D01*
X38006748Y-89858500D01*
X33367252Y-89858500D01*
X33367251Y-89858500D01*
X33367241Y-89858501D01*
X33308772Y-89870132D01*
X33308766Y-89870134D01*
X33242451Y-89914445D01*
X33242445Y-89914451D01*
X33198134Y-89980766D01*
X33198132Y-89980772D01*
X33186501Y-90039241D01*
X33186500Y-90039253D01*
X33186500Y-92078746D01*
X20000500Y-92078746D01*
X20000500Y-81395595D01*
X34378500Y-81395595D01*
X34387329Y-81434282D01*
X34389188Y-81445223D01*
X34393630Y-81484649D01*
X34393632Y-81484656D01*
X34406735Y-81522103D01*
X34409807Y-81532766D01*
X34418640Y-81571461D01*
X34435856Y-81607211D01*
X34440104Y-81617466D01*
X34453211Y-81654924D01*
X34474325Y-81688525D01*
X34479689Y-81698231D01*
X34496909Y-81733987D01*
X34496910Y-81733988D01*
X34496910Y-81733990D01*
X34521643Y-81765002D01*
X34528069Y-81774058D01*
X34549184Y-81807662D01*
X34676738Y-81935216D01*
X34679920Y-81937215D01*
X34688968Y-81943634D01*
X34715705Y-81964956D01*
X34775812Y-82012891D01*
X34828640Y-82038331D01*
X34938339Y-82091160D01*
X34938341Y-82091160D01*
X34938342Y-82091161D01*
X35114206Y-82131300D01*
X35294594Y-82131300D01*
X35470457Y-82091161D01*
X35470457Y-82091160D01*
X35470461Y-82091160D01*
X35632987Y-82012891D01*
X35774020Y-81900420D01*
X35886491Y-81759387D01*
X35964760Y-81596861D01*
X36004900Y-81420994D01*
X36004900Y-81240606D01*
X35981982Y-81140193D01*
X35979500Y-81118164D01*
X35979500Y-80400022D01*
X62500001Y-80400022D01*
X62514736Y-80474104D01*
X62514737Y-80474107D01*
X62570874Y-80558121D01*
X62570878Y-80558125D01*
X62654893Y-80614263D01*
X62728981Y-80628999D01*
X63353998Y-80628999D01*
X63354000Y-80628998D01*
X63354000Y-79775001D01*
X63353999Y-79775000D01*
X62500002Y-79775000D01*
X62500001Y-79775001D01*
X62500001Y-80400022D01*
X35979500Y-80400022D01*
X35979500Y-79366586D01*
X35998407Y-79308395D01*
X36008496Y-79296582D01*
X36191582Y-79113496D01*
X36246099Y-79085719D01*
X36261586Y-79084500D01*
X49187191Y-79084500D01*
X49187194Y-79084500D01*
X49225893Y-79075667D01*
X49236810Y-79073812D01*
X49276255Y-79069368D01*
X49313718Y-79056258D01*
X49324373Y-79053190D01*
X49363054Y-79044362D01*
X49363055Y-79044361D01*
X49363061Y-79044360D01*
X49398819Y-79027139D01*
X49409051Y-79022900D01*
X49446522Y-79009789D01*
X49480125Y-78988673D01*
X49489826Y-78983311D01*
X49507088Y-78974999D01*
X62500000Y-78974999D01*
X62500001Y-78975000D01*
X63353999Y-78975000D01*
X63354000Y-78974999D01*
X63354000Y-78121001D01*
X63353999Y-78121000D01*
X62728986Y-78121000D01*
X62728977Y-78121001D01*
X62654895Y-78135736D01*
X62654892Y-78135737D01*
X62570878Y-78191874D01*
X62570874Y-78191878D01*
X62514736Y-78275893D01*
X62500000Y-78349980D01*
X62500000Y-78974999D01*
X49507088Y-78974999D01*
X49525587Y-78966091D01*
X49556607Y-78941351D01*
X49565660Y-78934929D01*
X49574917Y-78929112D01*
X49599262Y-78913816D01*
X49726816Y-78786262D01*
X55588826Y-72924252D01*
X55673092Y-72818586D01*
X55751360Y-72656061D01*
X55791500Y-72480194D01*
X55791500Y-72299806D01*
X55751360Y-72123939D01*
X55711517Y-72041204D01*
X55673093Y-71961413D01*
X55560624Y-71820383D01*
X55560621Y-71820379D01*
X55525252Y-71792173D01*
X55419586Y-71707906D01*
X55298428Y-71649561D01*
X55257061Y-71629640D01*
X55257058Y-71629639D01*
X55257055Y-71629638D01*
X55081194Y-71589500D01*
X54900806Y-71589500D01*
X54724944Y-71629638D01*
X54724937Y-71629641D01*
X54562415Y-71707906D01*
X54456749Y-71792173D01*
X48794418Y-77454504D01*
X48739901Y-77482281D01*
X48724414Y-77483500D01*
X37804500Y-77483500D01*
X37746309Y-77464593D01*
X37710345Y-77415093D01*
X37705500Y-77384500D01*
X37705500Y-71486546D01*
X37705499Y-71486529D01*
X37690369Y-71352250D01*
X37690366Y-71352238D01*
X37663384Y-71275129D01*
X37630789Y-71181978D01*
X37534816Y-71029238D01*
X37407262Y-70901684D01*
X37407259Y-70901682D01*
X37407258Y-70901681D01*
X37254523Y-70805711D01*
X37084261Y-70746133D01*
X37084257Y-70746132D01*
X36905000Y-70725935D01*
X36725742Y-70746132D01*
X36725738Y-70746133D01*
X36555477Y-70805711D01*
X36555476Y-70805711D01*
X36402741Y-70901681D01*
X36275181Y-71029241D01*
X36179211Y-71181976D01*
X36179211Y-71181977D01*
X36119633Y-71352238D01*
X36119630Y-71352250D01*
X36104500Y-71486529D01*
X36104500Y-77384500D01*
X36085593Y-77442691D01*
X36036093Y-77478655D01*
X36005500Y-77483500D01*
X35979195Y-77483500D01*
X35798806Y-77483500D01*
X35760105Y-77492332D01*
X35749177Y-77494188D01*
X35709750Y-77498630D01*
X35709744Y-77498632D01*
X35672286Y-77511738D01*
X35661625Y-77514809D01*
X35622936Y-77523640D01*
X35587186Y-77540856D01*
X35576935Y-77545102D01*
X35539480Y-77558209D01*
X35539477Y-77558210D01*
X35505872Y-77579324D01*
X35496163Y-77584690D01*
X35460418Y-77601905D01*
X35460406Y-77601913D01*
X35429385Y-77626651D01*
X35420334Y-77633073D01*
X35386740Y-77654182D01*
X35386738Y-77654184D01*
X35354749Y-77686173D01*
X34676738Y-78364184D01*
X34676737Y-78364183D01*
X34549184Y-78491737D01*
X34528070Y-78525340D01*
X34521647Y-78534391D01*
X34496910Y-78565410D01*
X34496906Y-78565416D01*
X34479692Y-78601160D01*
X34474326Y-78610869D01*
X34453214Y-78644472D01*
X34453208Y-78644483D01*
X34440103Y-78681932D01*
X34435858Y-78692182D01*
X34418640Y-78727938D01*
X34409809Y-78766625D01*
X34406738Y-78777286D01*
X34393632Y-78814744D01*
X34393630Y-78814750D01*
X34389188Y-78854177D01*
X34387332Y-78865105D01*
X34378500Y-78903806D01*
X34378500Y-78903809D01*
X34378500Y-81395595D01*
X20000500Y-81395595D01*
X20000500Y-76149203D01*
X22160017Y-76149203D01*
X22180298Y-76355129D01*
X22180299Y-76355134D01*
X22240368Y-76553154D01*
X22337916Y-76735652D01*
X22469185Y-76895604D01*
X22469190Y-76895610D01*
X22469195Y-76895614D01*
X22629147Y-77026883D01*
X22629148Y-77026883D01*
X22629150Y-77026885D01*
X22811646Y-77124432D01*
X22949597Y-77166278D01*
X23009665Y-77184500D01*
X23009670Y-77184501D01*
X23215597Y-77204783D01*
X23215600Y-77204783D01*
X23215603Y-77204783D01*
X23421529Y-77184501D01*
X23421534Y-77184500D01*
X23442345Y-77178187D01*
X23619554Y-77124432D01*
X23802050Y-77026885D01*
X23962010Y-76895610D01*
X24093285Y-76735650D01*
X24190832Y-76553154D01*
X24192031Y-76549200D01*
X24721592Y-76549200D01*
X24721739Y-76549717D01*
X24721740Y-76549721D01*
X24812935Y-76732863D01*
X24812940Y-76732872D01*
X24936240Y-76896147D01*
X25087443Y-77033987D01*
X25261394Y-77141692D01*
X25261396Y-77141693D01*
X25355599Y-77178187D01*
X25355600Y-77178187D01*
X26155600Y-77178187D01*
X26249803Y-77141693D01*
X26249805Y-77141692D01*
X26423756Y-77033987D01*
X26574959Y-76896147D01*
X26698259Y-76732872D01*
X26698264Y-76732863D01*
X26789459Y-76549721D01*
X26789460Y-76549717D01*
X26789608Y-76549200D01*
X26155601Y-76549200D01*
X26155600Y-76549201D01*
X26155600Y-77178187D01*
X25355600Y-77178187D01*
X25355600Y-76549201D01*
X25355599Y-76549200D01*
X24721592Y-76549200D01*
X24192031Y-76549200D01*
X24250900Y-76355134D01*
X24250901Y-76355129D01*
X24264103Y-76221089D01*
X25255600Y-76221089D01*
X25296107Y-76359044D01*
X25373839Y-76479998D01*
X25482500Y-76574152D01*
X25613285Y-76633880D01*
X25719837Y-76649200D01*
X25791363Y-76649200D01*
X25897915Y-76633880D01*
X26028700Y-76574152D01*
X26137361Y-76479998D01*
X26215093Y-76359044D01*
X26255600Y-76221089D01*
X26255600Y-76077311D01*
X26215093Y-75939356D01*
X26137361Y-75818402D01*
X26028700Y-75724248D01*
X25897915Y-75664520D01*
X25791363Y-75649200D01*
X25719837Y-75649200D01*
X25613285Y-75664520D01*
X25482500Y-75724248D01*
X25373839Y-75818402D01*
X25296107Y-75939356D01*
X25255600Y-76077311D01*
X25255600Y-76221089D01*
X24264103Y-76221089D01*
X24271183Y-76149203D01*
X24271183Y-76149196D01*
X24250901Y-75943270D01*
X24250900Y-75943265D01*
X24232678Y-75883197D01*
X24192031Y-75749199D01*
X24721591Y-75749199D01*
X24721592Y-75749200D01*
X25355599Y-75749200D01*
X25355600Y-75749199D01*
X25355600Y-75120211D01*
X26155600Y-75120211D01*
X26155600Y-75749199D01*
X26155601Y-75749200D01*
X26789608Y-75749200D01*
X26789608Y-75749199D01*
X26789460Y-75748682D01*
X26789459Y-75748678D01*
X26698264Y-75565536D01*
X26698259Y-75565527D01*
X26574959Y-75402252D01*
X26423756Y-75264412D01*
X26249806Y-75156708D01*
X26155600Y-75120211D01*
X25355600Y-75120211D01*
X25261393Y-75156708D01*
X25087443Y-75264412D01*
X24936240Y-75402252D01*
X24812940Y-75565527D01*
X24812935Y-75565536D01*
X24721740Y-75748678D01*
X24721739Y-75748682D01*
X24721591Y-75749199D01*
X24192031Y-75749199D01*
X24190832Y-75745246D01*
X24093285Y-75562750D01*
X23962010Y-75402790D01*
X23962004Y-75402785D01*
X23802052Y-75271516D01*
X23619554Y-75173968D01*
X23421534Y-75113899D01*
X23421529Y-75113898D01*
X23215603Y-75093617D01*
X23215597Y-75093617D01*
X23009670Y-75113898D01*
X23009665Y-75113899D01*
X22811645Y-75173968D01*
X22629147Y-75271516D01*
X22469195Y-75402785D01*
X22469185Y-75402795D01*
X22337916Y-75562747D01*
X22240368Y-75745245D01*
X22180299Y-75943265D01*
X22180298Y-75943270D01*
X22160017Y-76149196D01*
X22160017Y-76149203D01*
X20000500Y-76149203D01*
X20000500Y-73609203D01*
X22160017Y-73609203D01*
X22180298Y-73815129D01*
X22180299Y-73815134D01*
X22240368Y-74013154D01*
X22337916Y-74195652D01*
X22469185Y-74355604D01*
X22469190Y-74355610D01*
X22469195Y-74355614D01*
X22629147Y-74486883D01*
X22629148Y-74486883D01*
X22629150Y-74486885D01*
X22811646Y-74584432D01*
X22949597Y-74626278D01*
X23009665Y-74644500D01*
X23009670Y-74644501D01*
X23215597Y-74664783D01*
X23215600Y-74664783D01*
X23215603Y-74664783D01*
X23421529Y-74644501D01*
X23421534Y-74644500D01*
X23619554Y-74584432D01*
X23802050Y-74486885D01*
X23962010Y-74355610D01*
X24093285Y-74195650D01*
X24190832Y-74013154D01*
X24250900Y-73815134D01*
X24250901Y-73815129D01*
X24271183Y-73609203D01*
X24700017Y-73609203D01*
X24720298Y-73815129D01*
X24720299Y-73815134D01*
X24780368Y-74013154D01*
X24877916Y-74195652D01*
X25009185Y-74355604D01*
X25009190Y-74355610D01*
X25009195Y-74355614D01*
X25169147Y-74486883D01*
X25169148Y-74486883D01*
X25169150Y-74486885D01*
X25351646Y-74584432D01*
X25489597Y-74626278D01*
X25549665Y-74644500D01*
X25549670Y-74644501D01*
X25755597Y-74664783D01*
X25755600Y-74664783D01*
X25755603Y-74664783D01*
X25961529Y-74644501D01*
X25961534Y-74644500D01*
X26159554Y-74584432D01*
X26342050Y-74486885D01*
X26502010Y-74355610D01*
X26633285Y-74195650D01*
X26730832Y-74013154D01*
X26790900Y-73815134D01*
X26790901Y-73815129D01*
X26811183Y-73609203D01*
X26811183Y-73609196D01*
X26790901Y-73403270D01*
X26790900Y-73403265D01*
X26772678Y-73343197D01*
X26730832Y-73205246D01*
X26633285Y-73022750D01*
X26502010Y-72862790D01*
X26448145Y-72818584D01*
X26342052Y-72731516D01*
X26159554Y-72633968D01*
X25961534Y-72573899D01*
X25961529Y-72573898D01*
X25755603Y-72553617D01*
X25755597Y-72553617D01*
X25549670Y-72573898D01*
X25549665Y-72573899D01*
X25351645Y-72633968D01*
X25169147Y-72731516D01*
X25009195Y-72862785D01*
X25009185Y-72862795D01*
X24877916Y-73022747D01*
X24780368Y-73205245D01*
X24720299Y-73403265D01*
X24720298Y-73403270D01*
X24700017Y-73609196D01*
X24700017Y-73609203D01*
X24271183Y-73609203D01*
X24271183Y-73609196D01*
X24250901Y-73403270D01*
X24250900Y-73403265D01*
X24232678Y-73343197D01*
X24190832Y-73205246D01*
X24093285Y-73022750D01*
X23962010Y-72862790D01*
X23908145Y-72818584D01*
X23802052Y-72731516D01*
X23619554Y-72633968D01*
X23421534Y-72573899D01*
X23421529Y-72573898D01*
X23215603Y-72553617D01*
X23215597Y-72553617D01*
X23009670Y-72573898D01*
X23009665Y-72573899D01*
X22811645Y-72633968D01*
X22629147Y-72731516D01*
X22469195Y-72862785D01*
X22469185Y-72862795D01*
X22337916Y-73022747D01*
X22240368Y-73205245D01*
X22180299Y-73403265D01*
X22180298Y-73403270D01*
X22160017Y-73609196D01*
X22160017Y-73609203D01*
X20000500Y-73609203D01*
X20000500Y-71069203D01*
X22160017Y-71069203D01*
X22180298Y-71275129D01*
X22180299Y-71275134D01*
X22240368Y-71473154D01*
X22337916Y-71655652D01*
X22449956Y-71792173D01*
X22469190Y-71815610D01*
X22469195Y-71815614D01*
X22629147Y-71946883D01*
X22629148Y-71946883D01*
X22629150Y-71946885D01*
X22811646Y-72044432D01*
X22949597Y-72086278D01*
X23009665Y-72104500D01*
X23009670Y-72104501D01*
X23215597Y-72124783D01*
X23215600Y-72124783D01*
X23215603Y-72124783D01*
X23421529Y-72104501D01*
X23421534Y-72104500D01*
X23619554Y-72044432D01*
X23802050Y-71946885D01*
X23962010Y-71815610D01*
X24093285Y-71655650D01*
X24190832Y-71473154D01*
X24250900Y-71275134D01*
X24250901Y-71275129D01*
X24271183Y-71069203D01*
X24700017Y-71069203D01*
X24720298Y-71275129D01*
X24720299Y-71275134D01*
X24780368Y-71473154D01*
X24877916Y-71655652D01*
X24989956Y-71792173D01*
X25009190Y-71815610D01*
X25009195Y-71815614D01*
X25169147Y-71946883D01*
X25169148Y-71946883D01*
X25169150Y-71946885D01*
X25351646Y-72044432D01*
X25489597Y-72086278D01*
X25549665Y-72104500D01*
X25549670Y-72104501D01*
X25755597Y-72124783D01*
X25755600Y-72124783D01*
X25755603Y-72124783D01*
X25961529Y-72104501D01*
X25961534Y-72104500D01*
X26159554Y-72044432D01*
X26342050Y-71946885D01*
X26502010Y-71815610D01*
X26633285Y-71655650D01*
X26730832Y-71473154D01*
X26790900Y-71275134D01*
X26790901Y-71275129D01*
X26811183Y-71069203D01*
X26811183Y-71069196D01*
X26790901Y-70863270D01*
X26790900Y-70863265D01*
X26758221Y-70755536D01*
X26730832Y-70665246D01*
X26633285Y-70482750D01*
X26502010Y-70322790D01*
X26386749Y-70228198D01*
X26342052Y-70191516D01*
X26159554Y-70093968D01*
X25961534Y-70033899D01*
X25961529Y-70033898D01*
X25755603Y-70013617D01*
X25755597Y-70013617D01*
X25549670Y-70033898D01*
X25549665Y-70033899D01*
X25351645Y-70093968D01*
X25169147Y-70191516D01*
X25009195Y-70322785D01*
X25009185Y-70322795D01*
X24877916Y-70482747D01*
X24780368Y-70665245D01*
X24720299Y-70863265D01*
X24720298Y-70863270D01*
X24700017Y-71069196D01*
X24700017Y-71069203D01*
X24271183Y-71069203D01*
X24271183Y-71069196D01*
X24250901Y-70863270D01*
X24250900Y-70863265D01*
X24218221Y-70755536D01*
X24190832Y-70665246D01*
X24093285Y-70482750D01*
X23962010Y-70322790D01*
X23846749Y-70228198D01*
X23802052Y-70191516D01*
X23619554Y-70093968D01*
X23421534Y-70033899D01*
X23421529Y-70033898D01*
X23215603Y-70013617D01*
X23215597Y-70013617D01*
X23009670Y-70033898D01*
X23009665Y-70033899D01*
X22811645Y-70093968D01*
X22629147Y-70191516D01*
X22469195Y-70322785D01*
X22469185Y-70322795D01*
X22337916Y-70482747D01*
X22240368Y-70665245D01*
X22180299Y-70863265D01*
X22180298Y-70863270D01*
X22160017Y-71069196D01*
X22160017Y-71069203D01*
X20000500Y-71069203D01*
X20000500Y-69398946D01*
X22165100Y-69398946D01*
X22165101Y-69398958D01*
X22176732Y-69457427D01*
X22176734Y-69457433D01*
X22221045Y-69523748D01*
X22221048Y-69523752D01*
X22287369Y-69568067D01*
X22331831Y-69576911D01*
X22345841Y-69579698D01*
X22345846Y-69579698D01*
X22345852Y-69579700D01*
X22345853Y-69579700D01*
X24085347Y-69579700D01*
X24085348Y-69579700D01*
X24143831Y-69568067D01*
X24210152Y-69523752D01*
X24254467Y-69457431D01*
X24266100Y-69398948D01*
X24266100Y-68529203D01*
X24700017Y-68529203D01*
X24720298Y-68735129D01*
X24720299Y-68735134D01*
X24780368Y-68933154D01*
X24877916Y-69115652D01*
X24918451Y-69165044D01*
X25009190Y-69275610D01*
X25009195Y-69275614D01*
X25169147Y-69406883D01*
X25169148Y-69406883D01*
X25169150Y-69406885D01*
X25351646Y-69504432D01*
X25461011Y-69537607D01*
X25549665Y-69564500D01*
X25549670Y-69564501D01*
X25755597Y-69584783D01*
X25755600Y-69584783D01*
X25755603Y-69584783D01*
X25961529Y-69564501D01*
X25961534Y-69564500D01*
X26159554Y-69504432D01*
X26342050Y-69406885D01*
X26502010Y-69275610D01*
X26633285Y-69115650D01*
X26730832Y-68933154D01*
X26790900Y-68735134D01*
X26790901Y-68735129D01*
X26811183Y-68529203D01*
X26811183Y-68529196D01*
X26790901Y-68323270D01*
X26790900Y-68323265D01*
X26764305Y-68235593D01*
X26730832Y-68125246D01*
X26633285Y-67942750D01*
X26502010Y-67782790D01*
X26351723Y-67659453D01*
X26342052Y-67651516D01*
X26159554Y-67553968D01*
X25961534Y-67493899D01*
X25961529Y-67493898D01*
X25755603Y-67473617D01*
X25755597Y-67473617D01*
X25549670Y-67493898D01*
X25549665Y-67493899D01*
X25351645Y-67553968D01*
X25169147Y-67651516D01*
X25009195Y-67782785D01*
X25009185Y-67782795D01*
X24877916Y-67942747D01*
X24780368Y-68125245D01*
X24720299Y-68323265D01*
X24720298Y-68323270D01*
X24700017Y-68529196D01*
X24700017Y-68529203D01*
X24266100Y-68529203D01*
X24266100Y-67659452D01*
X24264521Y-67651516D01*
X24263311Y-67645431D01*
X24254467Y-67600969D01*
X24210152Y-67534648D01*
X24210148Y-67534645D01*
X24143833Y-67490334D01*
X24143831Y-67490333D01*
X24143828Y-67490332D01*
X24143827Y-67490332D01*
X24085358Y-67478701D01*
X24085348Y-67478700D01*
X22345852Y-67478700D01*
X22345851Y-67478700D01*
X22345841Y-67478701D01*
X22287372Y-67490332D01*
X22287366Y-67490334D01*
X22221051Y-67534645D01*
X22221045Y-67534651D01*
X22176734Y-67600966D01*
X22176732Y-67600972D01*
X22165101Y-67659441D01*
X22165100Y-67659453D01*
X22165100Y-69398946D01*
X20000500Y-69398946D01*
X20000500Y-66040000D01*
X31779318Y-66040000D01*
X31799955Y-66196758D01*
X31799957Y-66196766D01*
X31860462Y-66342838D01*
X31860462Y-66342839D01*
X31948516Y-66457593D01*
X31956718Y-66468282D01*
X31956722Y-66468285D01*
X31956723Y-66468286D01*
X31967428Y-66476500D01*
X32082159Y-66564536D01*
X32228238Y-66625044D01*
X32345809Y-66640522D01*
X32384999Y-66645682D01*
X32385000Y-66645682D01*
X32385001Y-66645682D01*
X32416352Y-66641554D01*
X32541762Y-66625044D01*
X32687841Y-66564536D01*
X32813282Y-66468282D01*
X32909536Y-66342841D01*
X32970044Y-66196762D01*
X32990682Y-66040000D01*
X34319318Y-66040000D01*
X34339955Y-66196758D01*
X34339957Y-66196766D01*
X34400462Y-66342838D01*
X34400462Y-66342839D01*
X34488516Y-66457593D01*
X34496718Y-66468282D01*
X34496722Y-66468285D01*
X34496723Y-66468286D01*
X34507428Y-66476500D01*
X34622159Y-66564536D01*
X34768238Y-66625044D01*
X34925000Y-66645682D01*
X35005041Y-66635143D01*
X35065199Y-66646292D01*
X35087966Y-66663292D01*
X38872730Y-70448056D01*
X38878564Y-70454423D01*
X38903545Y-70484194D01*
X38937209Y-70503630D01*
X38944482Y-70508264D01*
X38965173Y-70522752D01*
X38976316Y-70530554D01*
X38977767Y-70530942D01*
X39001659Y-70540840D01*
X39002954Y-70541588D01*
X39041220Y-70548335D01*
X39049652Y-70550204D01*
X39087193Y-70560264D01*
X39125905Y-70556876D01*
X39134534Y-70556500D01*
X60277030Y-70556500D01*
X60335221Y-70575407D01*
X60355570Y-70595231D01*
X60404718Y-70659282D01*
X60530159Y-70755536D01*
X60676238Y-70816044D01*
X60793809Y-70831522D01*
X60832999Y-70836682D01*
X60833000Y-70836682D01*
X60833001Y-70836682D01*
X60864352Y-70832554D01*
X60989762Y-70816044D01*
X61135841Y-70755536D01*
X61261282Y-70659282D01*
X61357536Y-70533841D01*
X61418044Y-70387762D01*
X61438682Y-70231000D01*
X61418044Y-70074238D01*
X61404025Y-70040393D01*
X61357537Y-69928161D01*
X61357537Y-69928160D01*
X61261286Y-69802723D01*
X61261285Y-69802722D01*
X61261282Y-69802718D01*
X61261277Y-69802714D01*
X61261276Y-69802713D01*
X61158207Y-69723626D01*
X61135841Y-69706464D01*
X61135840Y-69706463D01*
X61135838Y-69706462D01*
X60989766Y-69645957D01*
X60989758Y-69645955D01*
X60833001Y-69625318D01*
X60832999Y-69625318D01*
X60676241Y-69645955D01*
X60676233Y-69645957D01*
X60530161Y-69706462D01*
X60530160Y-69706462D01*
X60404723Y-69802713D01*
X60404714Y-69802722D01*
X60355572Y-69866767D01*
X60305148Y-69901423D01*
X60277030Y-69905500D01*
X39291834Y-69905500D01*
X39233643Y-69886593D01*
X39221830Y-69876504D01*
X35548292Y-66202966D01*
X35520515Y-66148449D01*
X35520143Y-66120046D01*
X35530682Y-66040000D01*
X43234718Y-66040000D01*
X43255355Y-66196758D01*
X43255357Y-66196766D01*
X43315862Y-66342838D01*
X43315862Y-66342839D01*
X43403916Y-66457593D01*
X43412118Y-66468282D01*
X43412122Y-66468285D01*
X43412123Y-66468286D01*
X43422828Y-66476500D01*
X43537559Y-66564536D01*
X43683638Y-66625044D01*
X43840400Y-66645682D01*
X43920441Y-66635143D01*
X43980599Y-66646292D01*
X44003366Y-66663292D01*
X46137141Y-68797068D01*
X46142965Y-68803424D01*
X46167945Y-68833194D01*
X46201609Y-68852629D01*
X46208880Y-68857261D01*
X46240716Y-68879553D01*
X46242166Y-68879941D01*
X46266049Y-68889834D01*
X46267355Y-68890588D01*
X46305634Y-68897337D01*
X46314058Y-68899205D01*
X46351593Y-68909263D01*
X46390297Y-68905877D01*
X46398925Y-68905500D01*
X46453525Y-68905500D01*
X60277030Y-68905500D01*
X60335221Y-68924407D01*
X60355570Y-68944231D01*
X60404718Y-69008282D01*
X60530159Y-69104536D01*
X60530160Y-69104536D01*
X60530161Y-69104537D01*
X60556995Y-69115652D01*
X60676238Y-69165044D01*
X60793809Y-69180522D01*
X60832999Y-69185682D01*
X60833000Y-69185682D01*
X60833001Y-69185682D01*
X60864352Y-69181554D01*
X60989762Y-69165044D01*
X61135841Y-69104536D01*
X61261282Y-69008282D01*
X61357536Y-68882841D01*
X61418044Y-68736762D01*
X61438682Y-68580000D01*
X61418044Y-68423238D01*
X61357537Y-68277161D01*
X61357537Y-68277160D01*
X61261286Y-68151723D01*
X61261285Y-68151722D01*
X61261282Y-68151718D01*
X61261277Y-68151714D01*
X61261276Y-68151713D01*
X61135838Y-68055462D01*
X60989766Y-67994957D01*
X60989758Y-67994955D01*
X60833001Y-67974318D01*
X60832999Y-67974318D01*
X60676241Y-67994955D01*
X60676233Y-67994957D01*
X60530161Y-68055462D01*
X60530160Y-68055462D01*
X60404723Y-68151713D01*
X60404714Y-68151722D01*
X60355572Y-68215767D01*
X60305148Y-68250423D01*
X60277030Y-68254500D01*
X46556235Y-68254500D01*
X46498044Y-68235593D01*
X46486231Y-68225504D01*
X44463692Y-66202966D01*
X44435915Y-66148449D01*
X44435543Y-66120046D01*
X44446082Y-66040000D01*
X44425444Y-65883238D01*
X44364937Y-65737161D01*
X44364937Y-65737160D01*
X44268686Y-65611723D01*
X44268685Y-65611722D01*
X44268682Y-65611718D01*
X44268677Y-65611714D01*
X44268676Y-65611713D01*
X44143238Y-65515462D01*
X43997166Y-65454957D01*
X43997158Y-65454955D01*
X43840401Y-65434318D01*
X43840399Y-65434318D01*
X43683641Y-65454955D01*
X43683633Y-65454957D01*
X43537561Y-65515462D01*
X43537560Y-65515462D01*
X43412123Y-65611713D01*
X43412113Y-65611723D01*
X43315862Y-65737160D01*
X43315862Y-65737161D01*
X43255357Y-65883233D01*
X43255355Y-65883241D01*
X43234718Y-66039999D01*
X43234718Y-66040000D01*
X35530682Y-66040000D01*
X35510044Y-65883238D01*
X35449537Y-65737161D01*
X35449537Y-65737160D01*
X35353286Y-65611723D01*
X35353285Y-65611722D01*
X35353282Y-65611718D01*
X35353277Y-65611714D01*
X35353276Y-65611713D01*
X35227838Y-65515462D01*
X35081766Y-65454957D01*
X35081758Y-65454955D01*
X34925001Y-65434318D01*
X34924999Y-65434318D01*
X34768241Y-65454955D01*
X34768233Y-65454957D01*
X34622161Y-65515462D01*
X34622160Y-65515462D01*
X34496723Y-65611713D01*
X34496713Y-65611723D01*
X34400462Y-65737160D01*
X34400462Y-65737161D01*
X34339957Y-65883233D01*
X34339955Y-65883241D01*
X34319318Y-66039999D01*
X34319318Y-66040000D01*
X32990682Y-66040000D01*
X32977188Y-65937511D01*
X32988338Y-65877353D01*
X33005333Y-65854591D01*
X35056231Y-63803696D01*
X35110748Y-63775919D01*
X35126235Y-63774700D01*
X43918566Y-63774700D01*
X43976757Y-63793607D01*
X43988570Y-63803696D01*
X47203941Y-67019068D01*
X47209765Y-67025424D01*
X47234745Y-67055194D01*
X47268408Y-67074629D01*
X47275673Y-67079257D01*
X47307516Y-67101554D01*
X47308967Y-67101942D01*
X47332859Y-67111840D01*
X47334154Y-67112588D01*
X47345390Y-67114568D01*
X47372433Y-67119337D01*
X47380842Y-67121201D01*
X47418393Y-67131263D01*
X47418394Y-67131262D01*
X47418394Y-67131263D01*
X47457097Y-67127877D01*
X47465725Y-67127500D01*
X60277030Y-67127500D01*
X60335221Y-67146407D01*
X60355570Y-67166231D01*
X60404718Y-67230282D01*
X60530159Y-67326536D01*
X60676238Y-67387044D01*
X60793809Y-67402522D01*
X60832999Y-67407682D01*
X60833000Y-67407682D01*
X60833001Y-67407682D01*
X60864352Y-67403554D01*
X60989762Y-67387044D01*
X61135841Y-67326536D01*
X61261282Y-67230282D01*
X61357536Y-67104841D01*
X61418044Y-66958762D01*
X61438682Y-66802000D01*
X61418044Y-66645238D01*
X61395002Y-66589610D01*
X61357537Y-66499161D01*
X61357537Y-66499160D01*
X61261286Y-66373723D01*
X61261285Y-66373722D01*
X61261282Y-66373718D01*
X61261277Y-66373714D01*
X61261276Y-66373713D01*
X61135838Y-66277462D01*
X60989766Y-66216957D01*
X60989758Y-66216955D01*
X60833001Y-66196318D01*
X60832999Y-66196318D01*
X60676241Y-66216955D01*
X60676233Y-66216957D01*
X60530161Y-66277462D01*
X60530160Y-66277462D01*
X60404723Y-66373713D01*
X60404714Y-66373722D01*
X60355572Y-66437767D01*
X60305148Y-66472423D01*
X60277030Y-66476500D01*
X47623035Y-66476500D01*
X47564844Y-66457593D01*
X47553031Y-66447504D01*
X45451918Y-64346392D01*
X47809641Y-64346392D01*
X47819913Y-64516191D01*
X47819913Y-64516193D01*
X47819914Y-64516196D01*
X47842570Y-64588904D01*
X47870521Y-64678605D01*
X47870522Y-64678607D01*
X47919617Y-64759819D01*
X47958528Y-64824185D01*
X48078815Y-64944472D01*
X48158888Y-64992878D01*
X48195723Y-65015146D01*
X48224394Y-65032478D01*
X48386804Y-65083086D01*
X48556606Y-65093358D01*
X48556606Y-65093357D01*
X48556607Y-65093358D01*
X48590071Y-65087225D01*
X48723932Y-65062695D01*
X48879057Y-64992878D01*
X48979367Y-64914290D01*
X49004267Y-64889390D01*
X49029162Y-64864496D01*
X49083679Y-64836719D01*
X49099165Y-64835500D01*
X54712845Y-64835500D01*
X54718822Y-64835680D01*
X54735982Y-64836719D01*
X54779605Y-64839358D01*
X54779605Y-64839357D01*
X54779606Y-64839358D01*
X54839539Y-64828374D01*
X54845419Y-64827479D01*
X54905872Y-64820140D01*
X54917462Y-64815744D01*
X54934725Y-64810931D01*
X54946932Y-64808695D01*
X55002487Y-64783690D01*
X55008003Y-64781407D01*
X55009896Y-64780689D01*
X55064930Y-64759818D01*
X55075142Y-64752768D01*
X55090750Y-64743965D01*
X55102057Y-64738878D01*
X55102057Y-64738877D01*
X55102059Y-64738877D01*
X55149995Y-64701321D01*
X55154813Y-64697775D01*
X55204929Y-64663183D01*
X55245312Y-64617598D01*
X55249378Y-64613277D01*
X57369634Y-62493022D01*
X62500001Y-62493022D01*
X62514736Y-62567104D01*
X62514737Y-62567107D01*
X62570874Y-62651121D01*
X62570878Y-62651125D01*
X62654893Y-62707263D01*
X62728981Y-62721999D01*
X63353998Y-62721999D01*
X63354000Y-62721998D01*
X63354000Y-61868001D01*
X63353999Y-61868000D01*
X62500002Y-61868000D01*
X62500001Y-61868001D01*
X62500001Y-62493022D01*
X57369634Y-62493022D01*
X58794657Y-61067999D01*
X62500000Y-61067999D01*
X62500001Y-61068000D01*
X63353999Y-61068000D01*
X63354000Y-61067999D01*
X63354000Y-60214001D01*
X63353999Y-60214000D01*
X62728986Y-60214000D01*
X62728977Y-60214001D01*
X62654895Y-60228736D01*
X62654892Y-60228737D01*
X62570878Y-60284874D01*
X62570874Y-60284878D01*
X62514736Y-60368893D01*
X62500000Y-60442980D01*
X62500000Y-61067999D01*
X58794657Y-61067999D01*
X59534312Y-60328344D01*
X59538360Y-60324520D01*
X59584893Y-60282992D01*
X59618484Y-60233941D01*
X59622230Y-60228833D01*
X59622306Y-60228736D01*
X59658878Y-60182057D01*
X59664573Y-60169401D01*
X59673168Y-60154096D01*
X59681015Y-60142640D01*
X59701897Y-60086959D01*
X59704302Y-60081128D01*
X59728691Y-60026938D01*
X59728694Y-60026932D01*
X59731195Y-60013279D01*
X59735877Y-59996361D01*
X59740754Y-59983362D01*
X59747704Y-59924312D01*
X59748638Y-59918090D01*
X59759357Y-59859606D01*
X59755591Y-59797347D01*
X59755412Y-59791784D01*
X59735896Y-54463999D01*
X68215000Y-54463999D01*
X68215001Y-54464000D01*
X69068999Y-54464000D01*
X69069000Y-54463999D01*
X69069000Y-53610001D01*
X69068999Y-53610000D01*
X68443986Y-53610000D01*
X68443977Y-53610001D01*
X68369895Y-53624736D01*
X68369892Y-53624737D01*
X68285878Y-53680874D01*
X68285874Y-53680878D01*
X68229736Y-53764893D01*
X68215000Y-53838980D01*
X68215000Y-54463999D01*
X59735896Y-54463999D01*
X59729940Y-52837862D01*
X59714117Y-52711419D01*
X59653213Y-52552584D01*
X59556065Y-52412939D01*
X59428322Y-52300602D01*
X59277407Y-52222098D01*
X59112090Y-52181993D01*
X59112088Y-52181993D01*
X59112084Y-52181992D01*
X58943191Y-52182611D01*
X58941979Y-52182616D01*
X58776960Y-52223931D01*
X58776958Y-52223931D01*
X58776955Y-52223933D01*
X58626624Y-52303536D01*
X58499706Y-52416809D01*
X58403583Y-52557163D01*
X58343845Y-52716439D01*
X58328949Y-52842988D01*
X58328948Y-52842997D01*
X58353285Y-59486685D01*
X58334591Y-59544945D01*
X58324290Y-59557052D01*
X54475839Y-63405504D01*
X54421322Y-63433281D01*
X54405835Y-63434500D01*
X48792144Y-63434500D01*
X48786167Y-63434319D01*
X48783841Y-63434178D01*
X48725394Y-63430642D01*
X48665484Y-63441620D01*
X48659577Y-63442519D01*
X48599124Y-63449860D01*
X48587522Y-63454260D01*
X48570271Y-63459069D01*
X48558070Y-63461305D01*
X48558063Y-63461307D01*
X48502533Y-63486299D01*
X48497009Y-63488587D01*
X48440070Y-63510181D01*
X48440067Y-63510182D01*
X48429852Y-63517233D01*
X48414260Y-63526027D01*
X48402947Y-63531119D01*
X48402942Y-63531122D01*
X48355000Y-63568681D01*
X48350187Y-63572222D01*
X48300073Y-63606814D01*
X48300071Y-63606816D01*
X48259687Y-63652399D01*
X48255590Y-63656751D01*
X47988715Y-63923627D01*
X47988705Y-63923639D01*
X47910122Y-64023943D01*
X47840305Y-64179066D01*
X47840304Y-64179071D01*
X47809641Y-64346392D01*
X45451918Y-64346392D01*
X44337668Y-63232142D01*
X44331834Y-63225774D01*
X44306856Y-63196006D01*
X44273195Y-63176572D01*
X44265912Y-63171932D01*
X44234085Y-63149646D01*
X44234079Y-63149643D01*
X44232624Y-63149254D01*
X44208748Y-63139364D01*
X44207445Y-63138611D01*
X44169179Y-63131864D01*
X44160750Y-63129995D01*
X44135848Y-63123323D01*
X44123207Y-63119936D01*
X44123206Y-63119936D01*
X44123205Y-63119936D01*
X44084495Y-63123323D01*
X44075866Y-63123700D01*
X34968922Y-63123700D01*
X34960293Y-63123323D01*
X34921594Y-63119937D01*
X34921585Y-63119937D01*
X34884059Y-63129992D01*
X34875635Y-63131860D01*
X34837358Y-63138610D01*
X34837351Y-63138613D01*
X34836032Y-63139375D01*
X34812190Y-63149250D01*
X34810726Y-63149642D01*
X34810712Y-63149648D01*
X34778888Y-63171931D01*
X34771609Y-63176568D01*
X34737946Y-63196004D01*
X34712974Y-63225764D01*
X34707141Y-63232130D01*
X32525521Y-65413751D01*
X32471004Y-65441528D01*
X32442596Y-65441900D01*
X32385002Y-65434318D01*
X32384999Y-65434318D01*
X32228241Y-65454955D01*
X32228233Y-65454957D01*
X32082161Y-65515462D01*
X32082160Y-65515462D01*
X31956723Y-65611713D01*
X31956713Y-65611723D01*
X31860462Y-65737160D01*
X31860462Y-65737161D01*
X31799957Y-65883233D01*
X31799955Y-65883241D01*
X31779318Y-66039999D01*
X31779318Y-66040000D01*
X20000500Y-66040000D01*
X20000500Y-64145403D01*
X22165017Y-64145403D01*
X22185298Y-64351329D01*
X22185299Y-64351334D01*
X22245368Y-64549354D01*
X22342916Y-64731852D01*
X22422133Y-64828378D01*
X22474190Y-64891810D01*
X22474195Y-64891814D01*
X22634147Y-65023083D01*
X22634148Y-65023083D01*
X22634150Y-65023085D01*
X22816646Y-65120632D01*
X22954597Y-65162478D01*
X23014665Y-65180700D01*
X23014670Y-65180701D01*
X23220597Y-65200983D01*
X23220600Y-65200983D01*
X23220603Y-65200983D01*
X23426529Y-65180701D01*
X23426534Y-65180700D01*
X23624554Y-65120632D01*
X23807050Y-65023085D01*
X23816724Y-65015146D01*
X24710100Y-65015146D01*
X24710101Y-65015158D01*
X24721732Y-65073627D01*
X24721734Y-65073633D01*
X24762071Y-65134000D01*
X24766048Y-65139952D01*
X24832369Y-65184267D01*
X24876831Y-65193111D01*
X24890841Y-65195898D01*
X24890846Y-65195898D01*
X24890852Y-65195900D01*
X24890853Y-65195900D01*
X26630347Y-65195900D01*
X26630348Y-65195900D01*
X26688831Y-65184267D01*
X26755152Y-65139952D01*
X26799467Y-65073631D01*
X26811100Y-65015148D01*
X26811100Y-63275652D01*
X26809521Y-63267716D01*
X26802443Y-63232130D01*
X26799467Y-63217169D01*
X26755152Y-63150848D01*
X26755148Y-63150845D01*
X26688833Y-63106534D01*
X26688831Y-63106533D01*
X26688828Y-63106532D01*
X26688827Y-63106532D01*
X26630358Y-63094901D01*
X26630348Y-63094900D01*
X24890852Y-63094900D01*
X24890851Y-63094900D01*
X24890841Y-63094901D01*
X24832372Y-63106532D01*
X24832366Y-63106534D01*
X24766051Y-63150845D01*
X24766045Y-63150851D01*
X24721734Y-63217166D01*
X24721732Y-63217172D01*
X24710101Y-63275641D01*
X24710100Y-63275653D01*
X24710100Y-65015146D01*
X23816724Y-65015146D01*
X23967010Y-64891810D01*
X24098285Y-64731850D01*
X24195832Y-64549354D01*
X24255900Y-64351334D01*
X24255901Y-64351329D01*
X24276183Y-64145403D01*
X24276183Y-64145396D01*
X24255901Y-63939470D01*
X24255900Y-63939465D01*
X24214715Y-63803696D01*
X24195832Y-63741446D01*
X24098285Y-63558950D01*
X24075447Y-63531122D01*
X23967014Y-63398995D01*
X23967010Y-63398990D01*
X23816723Y-63275653D01*
X23807052Y-63267716D01*
X23624554Y-63170168D01*
X23426534Y-63110099D01*
X23426529Y-63110098D01*
X23220603Y-63089817D01*
X23220597Y-63089817D01*
X23014670Y-63110098D01*
X23014665Y-63110099D01*
X22816645Y-63170168D01*
X22634147Y-63267716D01*
X22474195Y-63398985D01*
X22474185Y-63398995D01*
X22342916Y-63558947D01*
X22245368Y-63741445D01*
X22185299Y-63939465D01*
X22185298Y-63939470D01*
X22165017Y-64145396D01*
X22165017Y-64145403D01*
X20000500Y-64145403D01*
X20000500Y-63885500D01*
X20002596Y-62483083D01*
X20003908Y-61605403D01*
X22165017Y-61605403D01*
X22185298Y-61811329D01*
X22185299Y-61811334D01*
X22245368Y-62009354D01*
X22342916Y-62191852D01*
X22474185Y-62351804D01*
X22474190Y-62351810D01*
X22474195Y-62351814D01*
X22634147Y-62483083D01*
X22634148Y-62483083D01*
X22634150Y-62483085D01*
X22816646Y-62580632D01*
X22954597Y-62622478D01*
X23014665Y-62640700D01*
X23014670Y-62640701D01*
X23220597Y-62660983D01*
X23220600Y-62660983D01*
X23220603Y-62660983D01*
X23426529Y-62640701D01*
X23426534Y-62640700D01*
X23624554Y-62580632D01*
X23807050Y-62483085D01*
X23967010Y-62351810D01*
X24098285Y-62191850D01*
X24195832Y-62009354D01*
X24255900Y-61811334D01*
X24255901Y-61811329D01*
X24276183Y-61605403D01*
X24705017Y-61605403D01*
X24725298Y-61811329D01*
X24725299Y-61811334D01*
X24785368Y-62009354D01*
X24882916Y-62191852D01*
X25014185Y-62351804D01*
X25014190Y-62351810D01*
X25014195Y-62351814D01*
X25174147Y-62483083D01*
X25174148Y-62483083D01*
X25174150Y-62483085D01*
X25356646Y-62580632D01*
X25494597Y-62622478D01*
X25554665Y-62640700D01*
X25554670Y-62640701D01*
X25760597Y-62660983D01*
X25760600Y-62660983D01*
X25760603Y-62660983D01*
X25966529Y-62640701D01*
X25966534Y-62640700D01*
X26164554Y-62580632D01*
X26347050Y-62483085D01*
X26507010Y-62351810D01*
X26638285Y-62191850D01*
X26735832Y-62009354D01*
X26795900Y-61811334D01*
X26795901Y-61811329D01*
X26816183Y-61605403D01*
X26816183Y-61605396D01*
X26795901Y-61399470D01*
X26795900Y-61399465D01*
X26777678Y-61339397D01*
X26735832Y-61201446D01*
X26638285Y-61018950D01*
X26609044Y-60983320D01*
X26507014Y-60858995D01*
X26507010Y-60858990D01*
X26507004Y-60858985D01*
X26347052Y-60727716D01*
X26164554Y-60630168D01*
X25966534Y-60570099D01*
X25966529Y-60570098D01*
X25760603Y-60549817D01*
X25760597Y-60549817D01*
X25554670Y-60570098D01*
X25554665Y-60570099D01*
X25356645Y-60630168D01*
X25174147Y-60727716D01*
X25014195Y-60858985D01*
X25014185Y-60858995D01*
X24882916Y-61018947D01*
X24785368Y-61201445D01*
X24725299Y-61399465D01*
X24725298Y-61399470D01*
X24705017Y-61605396D01*
X24705017Y-61605403D01*
X24276183Y-61605403D01*
X24276183Y-61605396D01*
X24255901Y-61399470D01*
X24255900Y-61399465D01*
X24237678Y-61339397D01*
X24195832Y-61201446D01*
X24098285Y-61018950D01*
X24069044Y-60983320D01*
X23967014Y-60858995D01*
X23967010Y-60858990D01*
X23967004Y-60858985D01*
X23807052Y-60727716D01*
X23624554Y-60630168D01*
X23426534Y-60570099D01*
X23426529Y-60570098D01*
X23220603Y-60549817D01*
X23220597Y-60549817D01*
X23014670Y-60570098D01*
X23014665Y-60570099D01*
X22816645Y-60630168D01*
X22634147Y-60727716D01*
X22474195Y-60858985D01*
X22474185Y-60858995D01*
X22342916Y-61018947D01*
X22245368Y-61201445D01*
X22185299Y-61399465D01*
X22185298Y-61399470D01*
X22165017Y-61605396D01*
X22165017Y-61605403D01*
X20003908Y-61605403D01*
X20007107Y-59465400D01*
X22186592Y-59465400D01*
X22186739Y-59465917D01*
X22186740Y-59465921D01*
X22277935Y-59649063D01*
X22277940Y-59649072D01*
X22401240Y-59812347D01*
X22552443Y-59950187D01*
X22726394Y-60057892D01*
X22726396Y-60057893D01*
X22820599Y-60094387D01*
X22820600Y-60094387D01*
X23620600Y-60094387D01*
X23714803Y-60057893D01*
X23714805Y-60057892D01*
X23888756Y-59950187D01*
X24039959Y-59812347D01*
X24163259Y-59649072D01*
X24163264Y-59649063D01*
X24254459Y-59465921D01*
X24254460Y-59465917D01*
X24254608Y-59465400D01*
X23620601Y-59465400D01*
X23620600Y-59465401D01*
X23620600Y-60094387D01*
X22820600Y-60094387D01*
X22820600Y-59465401D01*
X22820599Y-59465400D01*
X22186592Y-59465400D01*
X20007107Y-59465400D01*
X20007598Y-59137289D01*
X22720600Y-59137289D01*
X22761107Y-59275244D01*
X22838839Y-59396198D01*
X22947500Y-59490352D01*
X23078285Y-59550080D01*
X23184837Y-59565400D01*
X23256363Y-59565400D01*
X23362915Y-59550080D01*
X23493700Y-59490352D01*
X23602361Y-59396198D01*
X23680093Y-59275244D01*
X23720600Y-59137289D01*
X23720600Y-59065403D01*
X24705017Y-59065403D01*
X24725298Y-59271329D01*
X24725299Y-59271334D01*
X24785368Y-59469354D01*
X24882916Y-59651852D01*
X25014185Y-59811804D01*
X25014190Y-59811810D01*
X25014195Y-59811814D01*
X25174147Y-59943083D01*
X25174148Y-59943083D01*
X25174150Y-59943085D01*
X25356646Y-60040632D01*
X25490145Y-60081128D01*
X25554665Y-60100700D01*
X25554670Y-60100701D01*
X25760597Y-60120983D01*
X25760600Y-60120983D01*
X25760603Y-60120983D01*
X25966529Y-60100701D01*
X25966534Y-60100700D01*
X25987345Y-60094387D01*
X26164554Y-60040632D01*
X26347050Y-59943085D01*
X26507010Y-59811810D01*
X26638285Y-59651850D01*
X26735832Y-59469354D01*
X26795900Y-59271334D01*
X26795901Y-59271329D01*
X26816183Y-59065403D01*
X26816183Y-59065396D01*
X26795901Y-58859470D01*
X26795900Y-58859465D01*
X26737031Y-58665400D01*
X26735832Y-58661446D01*
X26638285Y-58478950D01*
X26507010Y-58318990D01*
X26507004Y-58318985D01*
X26347052Y-58187716D01*
X26164554Y-58090168D01*
X25966534Y-58030099D01*
X25966529Y-58030098D01*
X25760603Y-58009817D01*
X25760597Y-58009817D01*
X25554670Y-58030098D01*
X25554665Y-58030099D01*
X25356645Y-58090168D01*
X25174147Y-58187716D01*
X25014195Y-58318985D01*
X25014185Y-58318995D01*
X24882916Y-58478947D01*
X24785368Y-58661445D01*
X24725299Y-58859465D01*
X24725298Y-58859470D01*
X24705017Y-59065396D01*
X24705017Y-59065403D01*
X23720600Y-59065403D01*
X23720600Y-58993511D01*
X23680093Y-58855556D01*
X23602361Y-58734602D01*
X23493700Y-58640448D01*
X23362915Y-58580720D01*
X23256363Y-58565400D01*
X23184837Y-58565400D01*
X23078285Y-58580720D01*
X22947500Y-58640448D01*
X22838839Y-58734602D01*
X22761107Y-58855556D01*
X22720600Y-58993511D01*
X22720600Y-59137289D01*
X20007598Y-59137289D01*
X20008303Y-58665399D01*
X22186591Y-58665399D01*
X22186592Y-58665400D01*
X22820599Y-58665400D01*
X22820600Y-58665399D01*
X22820600Y-58036411D01*
X23620600Y-58036411D01*
X23620600Y-58665399D01*
X23620601Y-58665400D01*
X24254608Y-58665400D01*
X24254608Y-58665399D01*
X24254460Y-58664882D01*
X24254459Y-58664878D01*
X24163264Y-58481736D01*
X24163259Y-58481727D01*
X24039959Y-58318452D01*
X23888756Y-58180612D01*
X23714806Y-58072908D01*
X23620600Y-58036411D01*
X22820600Y-58036411D01*
X22726393Y-58072908D01*
X22552443Y-58180612D01*
X22401240Y-58318452D01*
X22277940Y-58481727D01*
X22277935Y-58481736D01*
X22186740Y-58664878D01*
X22186739Y-58664882D01*
X22186591Y-58665399D01*
X20008303Y-58665399D01*
X20013007Y-55518000D01*
X44548992Y-55518000D01*
X44549139Y-55518517D01*
X44549140Y-55518521D01*
X44640335Y-55701663D01*
X44640340Y-55701672D01*
X44763640Y-55864947D01*
X44914843Y-56002787D01*
X45088794Y-56110492D01*
X45088796Y-56110493D01*
X45182999Y-56146987D01*
X45183000Y-56146987D01*
X45983000Y-56146987D01*
X46077203Y-56110493D01*
X46077205Y-56110492D01*
X46251156Y-56002787D01*
X46402359Y-55864947D01*
X46525659Y-55701672D01*
X46525664Y-55701663D01*
X46616859Y-55518521D01*
X46616860Y-55518517D01*
X46617008Y-55518000D01*
X45983001Y-55518000D01*
X45983000Y-55518001D01*
X45983000Y-56146987D01*
X45183000Y-56146987D01*
X45183000Y-55518001D01*
X45182999Y-55518000D01*
X44548992Y-55518000D01*
X20013007Y-55518000D01*
X20013498Y-55189889D01*
X45083000Y-55189889D01*
X45123507Y-55327844D01*
X45201239Y-55448798D01*
X45309900Y-55542952D01*
X45440685Y-55602680D01*
X45547237Y-55618000D01*
X45618763Y-55618000D01*
X45725315Y-55602680D01*
X45856100Y-55542952D01*
X45964761Y-55448798D01*
X46042493Y-55327844D01*
X46083000Y-55189889D01*
X46083000Y-55118003D01*
X47067417Y-55118003D01*
X47087698Y-55323929D01*
X47087699Y-55323934D01*
X47147768Y-55521954D01*
X47245316Y-55704452D01*
X47376585Y-55864404D01*
X47376590Y-55864410D01*
X47376595Y-55864414D01*
X47536547Y-55995683D01*
X47536548Y-55995683D01*
X47536550Y-55995685D01*
X47719046Y-56093232D01*
X47856997Y-56135078D01*
X47917065Y-56153300D01*
X47917070Y-56153301D01*
X48122997Y-56173583D01*
X48123000Y-56173583D01*
X48123003Y-56173583D01*
X48328929Y-56153301D01*
X48328934Y-56153300D01*
X48349745Y-56146987D01*
X48526954Y-56093232D01*
X48709450Y-55995685D01*
X48869410Y-55864410D01*
X49000685Y-55704450D01*
X49098232Y-55521954D01*
X49158300Y-55323934D01*
X49158301Y-55323929D01*
X49178583Y-55118003D01*
X49607417Y-55118003D01*
X49627698Y-55323929D01*
X49627699Y-55323934D01*
X49687768Y-55521954D01*
X49785316Y-55704452D01*
X49916585Y-55864404D01*
X49916590Y-55864410D01*
X49916595Y-55864414D01*
X50076547Y-55995683D01*
X50076548Y-55995683D01*
X50076550Y-55995685D01*
X50259046Y-56093232D01*
X50396997Y-56135078D01*
X50457065Y-56153300D01*
X50457070Y-56153301D01*
X50662997Y-56173583D01*
X50663000Y-56173583D01*
X50663003Y-56173583D01*
X50868929Y-56153301D01*
X50868934Y-56153300D01*
X50889745Y-56146987D01*
X51066954Y-56093232D01*
X51249450Y-55995685D01*
X51409410Y-55864410D01*
X51540685Y-55704450D01*
X51638232Y-55521954D01*
X51698300Y-55323934D01*
X51698301Y-55323929D01*
X51718583Y-55118003D01*
X51718583Y-55117996D01*
X51698301Y-54912070D01*
X51698300Y-54912065D01*
X51639431Y-54718000D01*
X51638232Y-54714046D01*
X51540685Y-54531550D01*
X51485248Y-54464000D01*
X51409414Y-54371595D01*
X51409410Y-54371590D01*
X51409404Y-54371585D01*
X51249452Y-54240316D01*
X51066954Y-54142768D01*
X50868934Y-54082699D01*
X50868929Y-54082698D01*
X50663003Y-54062417D01*
X50662997Y-54062417D01*
X50457070Y-54082698D01*
X50457065Y-54082699D01*
X50259045Y-54142768D01*
X50076547Y-54240316D01*
X49916595Y-54371585D01*
X49916585Y-54371595D01*
X49785316Y-54531547D01*
X49687768Y-54714045D01*
X49627699Y-54912065D01*
X49627698Y-54912070D01*
X49607417Y-55117996D01*
X49607417Y-55118003D01*
X49178583Y-55118003D01*
X49178583Y-55117996D01*
X49158301Y-54912070D01*
X49158300Y-54912065D01*
X49099431Y-54718000D01*
X49098232Y-54714046D01*
X49000685Y-54531550D01*
X48945248Y-54464000D01*
X48869414Y-54371595D01*
X48869410Y-54371590D01*
X48869404Y-54371585D01*
X48709452Y-54240316D01*
X48526954Y-54142768D01*
X48328934Y-54082699D01*
X48328929Y-54082698D01*
X48123003Y-54062417D01*
X48122997Y-54062417D01*
X47917070Y-54082698D01*
X47917065Y-54082699D01*
X47719045Y-54142768D01*
X47536547Y-54240316D01*
X47376595Y-54371585D01*
X47376585Y-54371595D01*
X47245316Y-54531547D01*
X47147768Y-54714045D01*
X47087699Y-54912065D01*
X47087698Y-54912070D01*
X47067417Y-55117996D01*
X47067417Y-55118003D01*
X46083000Y-55118003D01*
X46083000Y-55046111D01*
X46042493Y-54908156D01*
X45964761Y-54787202D01*
X45856100Y-54693048D01*
X45725315Y-54633320D01*
X45618763Y-54618000D01*
X45547237Y-54618000D01*
X45440685Y-54633320D01*
X45309900Y-54693048D01*
X45201239Y-54787202D01*
X45123507Y-54908156D01*
X45083000Y-55046111D01*
X45083000Y-55189889D01*
X20013498Y-55189889D01*
X20014203Y-54717999D01*
X44548991Y-54717999D01*
X44548992Y-54718000D01*
X45182999Y-54718000D01*
X45183000Y-54717999D01*
X45183000Y-54089011D01*
X45983000Y-54089011D01*
X45983000Y-54717999D01*
X45983001Y-54718000D01*
X46617008Y-54718000D01*
X46617008Y-54717999D01*
X46616860Y-54717482D01*
X46616859Y-54717478D01*
X46525664Y-54534336D01*
X46525659Y-54534327D01*
X46402359Y-54371052D01*
X46251156Y-54233212D01*
X46077206Y-54125508D01*
X45983000Y-54089011D01*
X45183000Y-54089011D01*
X45088793Y-54125508D01*
X44914843Y-54233212D01*
X44763640Y-54371052D01*
X44640340Y-54534327D01*
X44640335Y-54534336D01*
X44549140Y-54717478D01*
X44549139Y-54717482D01*
X44548991Y-54717999D01*
X20014203Y-54717999D01*
X20022689Y-49041000D01*
X38462992Y-49041000D01*
X38463139Y-49041517D01*
X38463140Y-49041521D01*
X38554335Y-49224663D01*
X38554340Y-49224672D01*
X38677640Y-49387947D01*
X38828843Y-49525787D01*
X39002794Y-49633492D01*
X39002796Y-49633493D01*
X39096999Y-49669987D01*
X39097000Y-49669987D01*
X39897000Y-49669987D01*
X39991203Y-49633493D01*
X39991205Y-49633492D01*
X40165156Y-49525787D01*
X40316359Y-49387947D01*
X40439659Y-49224672D01*
X40439664Y-49224663D01*
X40530859Y-49041521D01*
X40530860Y-49041517D01*
X40531008Y-49041000D01*
X39897001Y-49041000D01*
X39897000Y-49041001D01*
X39897000Y-49669987D01*
X39097000Y-49669987D01*
X39097000Y-49041001D01*
X39096999Y-49041000D01*
X38462992Y-49041000D01*
X20022689Y-49041000D01*
X20023180Y-48712889D01*
X38997000Y-48712889D01*
X39037507Y-48850844D01*
X39115239Y-48971798D01*
X39223900Y-49065952D01*
X39354685Y-49125680D01*
X39461237Y-49141000D01*
X39532763Y-49141000D01*
X39639315Y-49125680D01*
X39770100Y-49065952D01*
X39878761Y-48971798D01*
X39956493Y-48850844D01*
X39997000Y-48712889D01*
X39997000Y-48569111D01*
X39956493Y-48431156D01*
X39878761Y-48310202D01*
X39770100Y-48216048D01*
X39639315Y-48156320D01*
X39532763Y-48141000D01*
X39461237Y-48141000D01*
X39354685Y-48156320D01*
X39223900Y-48216048D01*
X39115239Y-48310202D01*
X39037507Y-48431156D01*
X38997000Y-48569111D01*
X38997000Y-48712889D01*
X20023180Y-48712889D01*
X20023885Y-48240999D01*
X38462991Y-48240999D01*
X38462992Y-48241000D01*
X39096999Y-48241000D01*
X39097000Y-48240999D01*
X39097000Y-47612011D01*
X39897000Y-47612011D01*
X39897000Y-48240999D01*
X39897001Y-48241000D01*
X40531008Y-48241000D01*
X40531008Y-48240999D01*
X40530860Y-48240482D01*
X40530859Y-48240478D01*
X40439664Y-48057336D01*
X40439659Y-48057327D01*
X40316359Y-47894052D01*
X40165156Y-47756212D01*
X39991206Y-47648508D01*
X39897000Y-47612011D01*
X39097000Y-47612011D01*
X39002793Y-47648508D01*
X38828843Y-47756212D01*
X38677640Y-47894052D01*
X38554340Y-48057327D01*
X38554335Y-48057336D01*
X38463140Y-48240478D01*
X38463139Y-48240482D01*
X38462991Y-48240999D01*
X20023885Y-48240999D01*
X20027084Y-46101003D01*
X38441417Y-46101003D01*
X38461698Y-46306929D01*
X38461699Y-46306934D01*
X38521768Y-46504954D01*
X38619316Y-46687452D01*
X38750585Y-46847404D01*
X38750590Y-46847410D01*
X38750595Y-46847414D01*
X38910547Y-46978683D01*
X38910548Y-46978683D01*
X38910550Y-46978685D01*
X39093046Y-47076232D01*
X39230997Y-47118078D01*
X39291065Y-47136300D01*
X39291070Y-47136301D01*
X39496997Y-47156583D01*
X39497000Y-47156583D01*
X39497003Y-47156583D01*
X39702929Y-47136301D01*
X39702934Y-47136300D01*
X39900954Y-47076232D01*
X40083450Y-46978685D01*
X40243410Y-46847410D01*
X40374685Y-46687450D01*
X40472232Y-46504954D01*
X40532300Y-46306934D01*
X40532301Y-46306929D01*
X40552583Y-46101003D01*
X40552583Y-46100996D01*
X40532301Y-45895070D01*
X40532300Y-45895065D01*
X40508690Y-45817233D01*
X40472232Y-45697046D01*
X40374685Y-45514550D01*
X40348529Y-45482679D01*
X40243414Y-45354595D01*
X40243410Y-45354590D01*
X40243404Y-45354585D01*
X40083452Y-45223316D01*
X39900954Y-45125768D01*
X39702934Y-45065699D01*
X39702929Y-45065698D01*
X39497003Y-45045417D01*
X39496997Y-45045417D01*
X39291070Y-45065698D01*
X39291065Y-45065699D01*
X39093045Y-45125768D01*
X38910547Y-45223316D01*
X38750595Y-45354585D01*
X38750585Y-45354595D01*
X38619316Y-45514547D01*
X38521768Y-45697045D01*
X38461699Y-45895065D01*
X38461698Y-45895070D01*
X38441417Y-46100996D01*
X38441417Y-46101003D01*
X20027084Y-46101003D01*
X20030808Y-43609390D01*
X23175824Y-43609390D01*
X23178358Y-43625929D01*
X23179500Y-43640923D01*
X23179500Y-44650607D01*
X23194155Y-44794721D01*
X23252026Y-44979168D01*
X23252027Y-44979170D01*
X23345838Y-45148187D01*
X23345840Y-45148190D01*
X23471759Y-45294868D01*
X23593313Y-45388957D01*
X23624627Y-45413196D01*
X23798180Y-45498328D01*
X23798184Y-45498330D01*
X23985326Y-45546785D01*
X24178390Y-45556576D01*
X24369474Y-45527303D01*
X24403122Y-45514841D01*
X24550749Y-45460166D01*
X24550751Y-45460164D01*
X24550753Y-45460164D01*
X24714807Y-45357909D01*
X24854919Y-45224723D01*
X24965353Y-45066058D01*
X25041587Y-44888412D01*
X25080500Y-44699056D01*
X25080500Y-44610500D01*
X25099407Y-44552309D01*
X25148907Y-44516345D01*
X25179500Y-44511500D01*
X38420097Y-44511500D01*
X38478288Y-44530407D01*
X38502411Y-44555497D01*
X38502448Y-44555552D01*
X38568769Y-44599867D01*
X38613231Y-44608711D01*
X38627241Y-44611498D01*
X38627246Y-44611498D01*
X38627252Y-44611500D01*
X38627253Y-44611500D01*
X40366747Y-44611500D01*
X40366748Y-44611500D01*
X40425231Y-44599867D01*
X40491552Y-44555552D01*
X40491587Y-44555498D01*
X40491667Y-44555435D01*
X40498446Y-44548657D01*
X40499248Y-44549459D01*
X40539637Y-44517619D01*
X40573903Y-44511500D01*
X46428282Y-44511500D01*
X46486473Y-44530407D01*
X46498286Y-44540496D01*
X52223504Y-50265714D01*
X52251281Y-50320231D01*
X52252500Y-50335718D01*
X52252500Y-54041097D01*
X52233593Y-54099288D01*
X52208505Y-54123409D01*
X52208473Y-54123431D01*
X52208449Y-54123447D01*
X52208445Y-54123451D01*
X52164134Y-54189766D01*
X52164132Y-54189772D01*
X52152501Y-54248241D01*
X52152500Y-54248253D01*
X52152500Y-55987746D01*
X52152501Y-55987758D01*
X52164132Y-56046227D01*
X52164134Y-56046233D01*
X52207072Y-56110493D01*
X52208448Y-56112552D01*
X52274769Y-56156867D01*
X52319231Y-56165711D01*
X52333241Y-56168498D01*
X52333246Y-56168498D01*
X52333252Y-56168500D01*
X52333253Y-56168500D01*
X54072747Y-56168500D01*
X54072748Y-56168500D01*
X54131231Y-56156867D01*
X54197552Y-56112552D01*
X54241867Y-56046231D01*
X54253500Y-55987748D01*
X54253500Y-54248252D01*
X54251921Y-54240316D01*
X54250508Y-54233212D01*
X54241867Y-54189769D01*
X54197552Y-54123448D01*
X54197495Y-54123410D01*
X54197428Y-54123325D01*
X54190658Y-54116555D01*
X54191459Y-54115753D01*
X54159618Y-54075360D01*
X54153500Y-54041097D01*
X54153500Y-50082220D01*
X54153784Y-50074727D01*
X54154688Y-50062853D01*
X54156962Y-50048007D01*
X54160746Y-50031704D01*
X54162520Y-49961653D01*
X54162774Y-49956659D01*
X54168095Y-49886797D01*
X54165980Y-49870198D01*
X54165219Y-49855179D01*
X54165644Y-49838456D01*
X54165644Y-49838454D01*
X54153277Y-49769458D01*
X54152525Y-49764554D01*
X54143672Y-49695033D01*
X54138260Y-49679203D01*
X54134490Y-49664641D01*
X54131539Y-49648172D01*
X54105538Y-49583081D01*
X54103809Y-49578413D01*
X54081147Y-49512111D01*
X54072654Y-49497682D01*
X54066042Y-49484204D01*
X54059830Y-49468652D01*
X54021270Y-49410145D01*
X54018616Y-49405886D01*
X53983083Y-49345522D01*
X53983082Y-49345521D01*
X53983081Y-49345519D01*
X53971861Y-49333101D01*
X53962657Y-49321210D01*
X53953452Y-49307242D01*
X53953450Y-49307240D01*
X53903899Y-49257688D01*
X53900443Y-49254052D01*
X53853490Y-49202081D01*
X53853487Y-49202079D01*
X53840004Y-49192178D01*
X53828595Y-49182385D01*
X52189180Y-47542970D01*
X64858500Y-47542970D01*
X64873630Y-47677249D01*
X64873633Y-47677261D01*
X64933211Y-47847522D01*
X64933211Y-47847523D01*
X65029181Y-48000258D01*
X65029184Y-48000262D01*
X65156738Y-48127816D01*
X65156740Y-48127817D01*
X65156741Y-48127818D01*
X65309474Y-48223787D01*
X65309475Y-48223787D01*
X65309478Y-48223789D01*
X65418368Y-48261890D01*
X65455674Y-48285331D01*
X68956597Y-51786254D01*
X68960695Y-51790609D01*
X69001064Y-51836176D01*
X69001067Y-51836179D01*
X69001071Y-51836183D01*
X69051193Y-51870780D01*
X69056009Y-51874324D01*
X69103940Y-51911876D01*
X69103942Y-51911876D01*
X69103944Y-51911878D01*
X69114449Y-51916606D01*
X69115247Y-51916965D01*
X69130856Y-51925768D01*
X69136967Y-51929986D01*
X69141070Y-51932818D01*
X69198018Y-51954415D01*
X69203512Y-51956690D01*
X69259069Y-51981695D01*
X69271279Y-51983932D01*
X69288529Y-51988741D01*
X69300128Y-51993140D01*
X69360575Y-52000479D01*
X69366465Y-52001375D01*
X69426394Y-52012358D01*
X69487177Y-52008680D01*
X69493155Y-52008500D01*
X85284768Y-52008500D01*
X85284772Y-52008500D01*
X85284778Y-52008499D01*
X85284781Y-52008499D01*
X85294448Y-52007325D01*
X85411272Y-51993140D01*
X85570330Y-51932818D01*
X85710329Y-51836183D01*
X85823134Y-51708852D01*
X85902190Y-51558225D01*
X85942900Y-51393056D01*
X85942900Y-51222944D01*
X85902190Y-51057775D01*
X85823134Y-50907148D01*
X85710329Y-50779817D01*
X85570330Y-50683182D01*
X85411272Y-50622860D01*
X85398622Y-50621324D01*
X85284781Y-50607500D01*
X85284772Y-50607500D01*
X76369372Y-50607500D01*
X69800165Y-50607500D01*
X69741974Y-50588593D01*
X69730161Y-50578504D01*
X66488496Y-47336839D01*
X66460719Y-47282322D01*
X66459500Y-47266835D01*
X66459500Y-45212000D01*
X73308318Y-45212000D01*
X73328955Y-45368758D01*
X73328957Y-45368766D01*
X73389462Y-45514838D01*
X73389462Y-45514839D01*
X73421488Y-45556576D01*
X73485718Y-45640282D01*
X73611159Y-45736536D01*
X73757238Y-45797044D01*
X73901820Y-45816078D01*
X73957044Y-45842419D01*
X73958900Y-45844226D01*
X74516949Y-46402276D01*
X75067741Y-46953068D01*
X75073565Y-46959424D01*
X75098545Y-46989194D01*
X75132208Y-47008629D01*
X75139473Y-47013257D01*
X75171316Y-47035554D01*
X75172767Y-47035942D01*
X75196659Y-47045840D01*
X75197954Y-47046588D01*
X75209190Y-47048568D01*
X75236233Y-47053337D01*
X75244642Y-47055201D01*
X75282193Y-47065263D01*
X75282194Y-47065262D01*
X75282194Y-47065263D01*
X75320897Y-47061877D01*
X75329525Y-47061500D01*
X92691466Y-47061500D01*
X92700094Y-47061876D01*
X92738807Y-47065264D01*
X92776354Y-47055202D01*
X92784784Y-47053334D01*
X92823045Y-47046588D01*
X92824345Y-47045838D01*
X92848236Y-47035942D01*
X92848464Y-47035880D01*
X92849684Y-47035554D01*
X92881533Y-47013251D01*
X92888779Y-47008635D01*
X92922455Y-46989194D01*
X92947443Y-46959413D01*
X92953257Y-46953068D01*
X93309034Y-46597290D01*
X93363549Y-46569515D01*
X93391952Y-46569143D01*
X93472000Y-46579682D01*
X93628762Y-46559044D01*
X93774841Y-46498536D01*
X93900282Y-46402282D01*
X93996536Y-46276841D01*
X94057044Y-46130762D01*
X94077682Y-45974000D01*
X94057044Y-45817238D01*
X94048679Y-45797042D01*
X93996537Y-45671161D01*
X93996537Y-45671160D01*
X93900286Y-45545723D01*
X93900285Y-45545722D01*
X93900282Y-45545718D01*
X93900277Y-45545714D01*
X93900276Y-45545713D01*
X93788788Y-45460166D01*
X93774841Y-45449464D01*
X93774840Y-45449463D01*
X93774838Y-45449462D01*
X93628766Y-45388957D01*
X93628758Y-45388955D01*
X93472001Y-45368318D01*
X93471999Y-45368318D01*
X93315241Y-45388955D01*
X93315233Y-45388957D01*
X93169161Y-45449462D01*
X93169160Y-45449462D01*
X93043723Y-45545713D01*
X93043713Y-45545723D01*
X92947462Y-45671160D01*
X92947462Y-45671161D01*
X92886957Y-45817233D01*
X92886955Y-45817241D01*
X92866318Y-45973999D01*
X92866318Y-45974000D01*
X92876855Y-46054041D01*
X92865705Y-46114202D01*
X92848706Y-46136966D01*
X92604171Y-46381503D01*
X92549654Y-46409281D01*
X92534167Y-46410500D01*
X75486835Y-46410500D01*
X75428644Y-46391593D01*
X75416831Y-46381504D01*
X74518006Y-45482679D01*
X74490229Y-45428162D01*
X74496548Y-45374787D01*
X74499044Y-45368762D01*
X74519682Y-45212000D01*
X74499044Y-45055238D01*
X74438537Y-44909161D01*
X74438537Y-44909160D01*
X74342286Y-44783723D01*
X74342285Y-44783722D01*
X74342282Y-44783718D01*
X74342277Y-44783714D01*
X74342276Y-44783713D01*
X74216838Y-44687462D01*
X74070766Y-44626957D01*
X74070758Y-44626955D01*
X73914001Y-44606318D01*
X73913999Y-44606318D01*
X73757241Y-44626955D01*
X73757233Y-44626957D01*
X73611161Y-44687462D01*
X73611160Y-44687462D01*
X73485723Y-44783713D01*
X73485713Y-44783723D01*
X73389462Y-44909160D01*
X73389462Y-44909161D01*
X73328957Y-45055233D01*
X73328955Y-45055241D01*
X73308318Y-45211999D01*
X73308318Y-45212000D01*
X66459500Y-45212000D01*
X66459500Y-42555500D01*
X66478407Y-42497309D01*
X66527907Y-42461345D01*
X66558500Y-42456500D01*
X69305191Y-42456500D01*
X69305194Y-42456500D01*
X69343893Y-42447667D01*
X69354810Y-42445812D01*
X69394255Y-42441368D01*
X69431718Y-42428258D01*
X69442373Y-42425190D01*
X69481054Y-42416362D01*
X69481055Y-42416361D01*
X69481061Y-42416360D01*
X69516819Y-42399139D01*
X69527051Y-42394900D01*
X69564522Y-42381789D01*
X69598125Y-42360673D01*
X69607826Y-42355311D01*
X69643587Y-42338091D01*
X69674607Y-42313351D01*
X69683660Y-42306929D01*
X69692917Y-42301112D01*
X69717262Y-42285816D01*
X69844816Y-42158262D01*
X71039982Y-40963096D01*
X71094499Y-40935319D01*
X71109986Y-40934100D01*
X77494435Y-40934100D01*
X77552626Y-40953007D01*
X77564439Y-40963096D01*
X80179633Y-43578290D01*
X80279944Y-43656878D01*
X80435069Y-43726695D01*
X80602394Y-43757358D01*
X80772196Y-43747086D01*
X80934606Y-43696478D01*
X80973509Y-43672959D01*
X81019641Y-43660099D01*
X81019566Y-43659529D01*
X81023584Y-43658999D01*
X81024725Y-43658682D01*
X81026000Y-43658682D01*
X81182762Y-43638044D01*
X81328841Y-43577536D01*
X81454282Y-43481282D01*
X81550536Y-43355841D01*
X81611044Y-43209762D01*
X81631682Y-43053000D01*
X81611044Y-42896238D01*
X81550537Y-42750161D01*
X81550537Y-42750160D01*
X81454286Y-42624723D01*
X81454285Y-42624722D01*
X81454282Y-42624718D01*
X81454277Y-42624714D01*
X81454276Y-42624713D01*
X81364075Y-42555500D01*
X81328841Y-42528464D01*
X81328840Y-42528463D01*
X81328838Y-42528462D01*
X81182762Y-42467956D01*
X81063895Y-42452306D01*
X81008670Y-42425965D01*
X81006814Y-42424157D01*
X78338001Y-39755344D01*
X78333902Y-39750989D01*
X78293530Y-39705418D01*
X78293525Y-39705414D01*
X78243406Y-39670818D01*
X78238592Y-39667276D01*
X78190655Y-39629720D01*
X78179343Y-39624629D01*
X78163741Y-39615829D01*
X78153533Y-39608783D01*
X78145509Y-39605740D01*
X78096574Y-39587181D01*
X78091081Y-39584905D01*
X78068458Y-39574723D01*
X78035533Y-39559905D01*
X78035526Y-39559903D01*
X78023323Y-39557667D01*
X78006061Y-39552855D01*
X77994475Y-39548461D01*
X77994473Y-39548460D01*
X77934037Y-39541121D01*
X77928129Y-39540222D01*
X77868202Y-39529241D01*
X77810149Y-39532754D01*
X77807422Y-39532919D01*
X77801445Y-39533100D01*
X71411500Y-39533100D01*
X71353309Y-39514193D01*
X71317345Y-39464693D01*
X71312500Y-39434100D01*
X71312500Y-37973000D01*
X73054318Y-37973000D01*
X73074955Y-38129758D01*
X73074957Y-38129766D01*
X73135462Y-38275838D01*
X73135462Y-38275839D01*
X73135464Y-38275841D01*
X73231718Y-38401282D01*
X73357159Y-38497536D01*
X73503238Y-38558044D01*
X73620809Y-38573522D01*
X73659999Y-38578682D01*
X73660000Y-38578682D01*
X73660001Y-38578682D01*
X73691352Y-38574554D01*
X73816762Y-38558044D01*
X73962841Y-38497536D01*
X74088282Y-38401282D01*
X74184536Y-38275841D01*
X74245044Y-38129762D01*
X74265682Y-37973000D01*
X74255143Y-37892956D01*
X74266292Y-37832799D01*
X74283293Y-37810032D01*
X74908831Y-37184496D01*
X74963347Y-37156719D01*
X74978834Y-37155500D01*
X94186030Y-37155500D01*
X94244221Y-37174407D01*
X94264570Y-37194231D01*
X94313718Y-37258282D01*
X94439159Y-37354536D01*
X94439160Y-37354536D01*
X94439161Y-37354537D01*
X94519839Y-37387955D01*
X94585238Y-37415044D01*
X94702809Y-37430522D01*
X94741999Y-37435682D01*
X94742000Y-37435682D01*
X94742001Y-37435682D01*
X94773352Y-37431554D01*
X94898762Y-37415044D01*
X95044841Y-37354536D01*
X95170282Y-37258282D01*
X95266536Y-37132841D01*
X95327044Y-36986762D01*
X95347682Y-36830000D01*
X95327044Y-36673238D01*
X95299429Y-36606570D01*
X95266537Y-36527161D01*
X95266537Y-36527160D01*
X95170286Y-36401723D01*
X95170285Y-36401722D01*
X95170282Y-36401718D01*
X95170277Y-36401714D01*
X95170276Y-36401713D01*
X95044838Y-36305462D01*
X94898766Y-36244957D01*
X94898758Y-36244955D01*
X94742001Y-36224318D01*
X94741999Y-36224318D01*
X94585241Y-36244955D01*
X94585233Y-36244957D01*
X94439161Y-36305462D01*
X94439160Y-36305462D01*
X94313723Y-36401713D01*
X94313714Y-36401722D01*
X94264572Y-36465767D01*
X94214148Y-36500423D01*
X94186030Y-36504500D01*
X74821526Y-36504500D01*
X74812898Y-36504123D01*
X74774194Y-36500736D01*
X74774189Y-36500737D01*
X74736656Y-36510794D01*
X74728227Y-36512663D01*
X74689956Y-36519411D01*
X74689948Y-36519414D01*
X74688640Y-36520170D01*
X74664786Y-36530051D01*
X74663324Y-36530442D01*
X74663317Y-36530445D01*
X74663316Y-36530446D01*
X74631475Y-36552740D01*
X74624205Y-36557371D01*
X74590545Y-36576805D01*
X74565569Y-36606570D01*
X74559736Y-36612936D01*
X73822966Y-37349706D01*
X73768449Y-37377483D01*
X73740040Y-37377855D01*
X73660001Y-37367318D01*
X73659999Y-37367318D01*
X73503241Y-37387955D01*
X73503233Y-37387957D01*
X73357161Y-37448462D01*
X73357160Y-37448462D01*
X73231723Y-37544713D01*
X73231713Y-37544723D01*
X73135462Y-37670160D01*
X73135462Y-37670161D01*
X73074957Y-37816233D01*
X73074955Y-37816241D01*
X73054318Y-37972999D01*
X73054318Y-37973000D01*
X71312500Y-37973000D01*
X71312500Y-35136631D01*
X71312499Y-35136618D01*
X71309361Y-35110777D01*
X71297140Y-35010128D01*
X71236818Y-34851070D01*
X71140183Y-34711071D01*
X71012852Y-34598266D01*
X70862225Y-34519210D01*
X70862224Y-34519209D01*
X70862223Y-34519209D01*
X70697058Y-34478500D01*
X70697056Y-34478500D01*
X70526944Y-34478500D01*
X70526941Y-34478500D01*
X70361776Y-34519209D01*
X70211146Y-34598267D01*
X70083818Y-34711069D01*
X70083816Y-34711072D01*
X69987182Y-34851070D01*
X69926860Y-35010128D01*
X69911500Y-35136618D01*
X69911500Y-39786414D01*
X69892593Y-39844605D01*
X69882504Y-39856418D01*
X68912418Y-40826504D01*
X68857901Y-40854281D01*
X68842414Y-40855500D01*
X66003194Y-40855500D01*
X65822806Y-40855500D01*
X65784105Y-40864332D01*
X65773177Y-40866188D01*
X65733750Y-40870630D01*
X65733744Y-40870632D01*
X65696286Y-40883738D01*
X65685625Y-40886809D01*
X65646938Y-40895640D01*
X65611182Y-40912858D01*
X65600932Y-40917103D01*
X65563483Y-40930208D01*
X65563472Y-40930214D01*
X65529869Y-40951326D01*
X65520160Y-40956692D01*
X65484416Y-40973906D01*
X65484410Y-40973910D01*
X65453391Y-40998647D01*
X65444340Y-41005070D01*
X65410739Y-41026183D01*
X65410738Y-41026184D01*
X65378748Y-41058174D01*
X65156738Y-41280184D01*
X65156737Y-41280183D01*
X65029184Y-41407737D01*
X65008070Y-41441340D01*
X65001647Y-41450391D01*
X64976910Y-41481410D01*
X64976906Y-41481416D01*
X64959692Y-41517160D01*
X64954326Y-41526869D01*
X64933214Y-41560472D01*
X64933208Y-41560483D01*
X64920103Y-41597932D01*
X64915858Y-41608182D01*
X64898640Y-41643938D01*
X64889809Y-41682625D01*
X64886738Y-41693286D01*
X64873632Y-41730744D01*
X64873630Y-41730750D01*
X64869188Y-41770177D01*
X64867332Y-41781105D01*
X64858500Y-41819806D01*
X64858500Y-41819809D01*
X64858500Y-47542970D01*
X52189180Y-47542970D01*
X47544512Y-42898302D01*
X47542762Y-42896506D01*
X47485328Y-42836086D01*
X47485316Y-42836075D01*
X47438746Y-42803662D01*
X47432740Y-42799134D01*
X47388756Y-42763270D01*
X47388755Y-42763269D01*
X47388751Y-42763266D01*
X47371717Y-42754368D01*
X47362072Y-42749330D01*
X47351355Y-42742837D01*
X47326658Y-42725647D01*
X47274500Y-42703264D01*
X47267718Y-42700044D01*
X47217406Y-42673763D01*
X47217405Y-42673762D01*
X47217404Y-42673762D01*
X47188474Y-42665484D01*
X47176670Y-42661281D01*
X47149013Y-42649412D01*
X47149009Y-42649411D01*
X47093421Y-42637988D01*
X47086115Y-42636195D01*
X47031554Y-42620583D01*
X47031551Y-42620582D01*
X47001546Y-42618298D01*
X46989135Y-42616558D01*
X46959656Y-42610500D01*
X46959654Y-42610500D01*
X46902901Y-42610500D01*
X46895384Y-42610214D01*
X46838797Y-42605905D01*
X46808944Y-42609707D01*
X46796437Y-42610500D01*
X40573903Y-42610500D01*
X40515712Y-42591593D01*
X40491587Y-42566501D01*
X40491552Y-42566448D01*
X40491548Y-42566445D01*
X40425233Y-42522134D01*
X40425231Y-42522133D01*
X40425228Y-42522132D01*
X40425227Y-42522132D01*
X40366758Y-42510501D01*
X40366748Y-42510500D01*
X38627252Y-42510500D01*
X38627251Y-42510500D01*
X38627241Y-42510501D01*
X38568772Y-42522132D01*
X38568766Y-42522134D01*
X38502451Y-42566445D01*
X38502447Y-42566449D01*
X38502413Y-42566501D01*
X38502332Y-42566564D01*
X38495554Y-42573343D01*
X38494751Y-42572540D01*
X38454363Y-42604381D01*
X38420097Y-42610500D01*
X25179500Y-42610500D01*
X25121309Y-42591593D01*
X25085345Y-42542093D01*
X25080500Y-42511500D01*
X25080500Y-42420592D01*
X25076554Y-42381788D01*
X25065845Y-42276479D01*
X25007974Y-42092032D01*
X24914159Y-41923009D01*
X24848458Y-41846477D01*
X24788240Y-41776331D01*
X24635372Y-41658003D01*
X24461818Y-41572871D01*
X24461820Y-41572871D01*
X24413956Y-41560478D01*
X24274674Y-41524415D01*
X24274672Y-41524414D01*
X24274669Y-41524414D01*
X24130560Y-41517106D01*
X24081610Y-41514624D01*
X24081608Y-41514624D01*
X24081605Y-41514624D01*
X23890525Y-41543896D01*
X23709250Y-41611033D01*
X23545191Y-41713292D01*
X23545185Y-41713297D01*
X23405082Y-41846475D01*
X23294651Y-42005134D01*
X23294645Y-42005145D01*
X23218413Y-42182786D01*
X23218413Y-42182788D01*
X23179500Y-42372144D01*
X23179500Y-42372147D01*
X23179500Y-43534394D01*
X23179373Y-43539408D01*
X23175824Y-43609390D01*
X20030808Y-43609390D01*
X20046366Y-33201000D01*
X43950778Y-33201000D01*
X43969643Y-33488836D01*
X44025920Y-33771759D01*
X44118640Y-34044900D01*
X44118645Y-34044911D01*
X44246222Y-34303611D01*
X44406477Y-34543450D01*
X44406487Y-34543463D01*
X44553477Y-34711072D01*
X44596673Y-34760327D01*
X44596681Y-34760334D01*
X44596682Y-34760335D01*
X44813536Y-34950512D01*
X44813543Y-34950517D01*
X44813546Y-34950520D01*
X45053389Y-35110778D01*
X45312098Y-35238359D01*
X45441659Y-35282339D01*
X45585240Y-35331079D01*
X45585242Y-35331079D01*
X45585247Y-35331081D01*
X45868161Y-35387356D01*
X46156000Y-35406222D01*
X46443839Y-35387356D01*
X46726753Y-35331081D01*
X46999902Y-35238359D01*
X47258611Y-35110778D01*
X47498454Y-34950520D01*
X47715327Y-34760327D01*
X47905520Y-34543454D01*
X48065778Y-34303611D01*
X48193359Y-34044902D01*
X48286081Y-33771753D01*
X48290570Y-33749186D01*
X48320467Y-33695802D01*
X48376032Y-33670186D01*
X48387668Y-33669500D01*
X53974332Y-33669500D01*
X54032523Y-33688407D01*
X54068487Y-33737907D01*
X54071430Y-33749186D01*
X54075918Y-33771753D01*
X54168640Y-34044900D01*
X54168645Y-34044911D01*
X54296222Y-34303611D01*
X54456477Y-34543450D01*
X54456487Y-34543463D01*
X54603477Y-34711072D01*
X54646673Y-34760327D01*
X54646681Y-34760334D01*
X54646682Y-34760335D01*
X54863536Y-34950512D01*
X54863543Y-34950517D01*
X54863546Y-34950520D01*
X55103389Y-35110778D01*
X55362098Y-35238359D01*
X55491659Y-35282339D01*
X55635240Y-35331079D01*
X55635242Y-35331079D01*
X55635247Y-35331081D01*
X55918161Y-35387356D01*
X56206000Y-35406222D01*
X56493839Y-35387356D01*
X56776753Y-35331081D01*
X57049902Y-35238359D01*
X57308611Y-35110778D01*
X57548454Y-34950520D01*
X57765327Y-34760327D01*
X57955520Y-34543454D01*
X58115778Y-34303611D01*
X58243359Y-34044902D01*
X58336081Y-33771753D01*
X58392356Y-33488839D01*
X58411222Y-33201000D01*
X58392356Y-32913161D01*
X58336081Y-32630247D01*
X58243359Y-32357098D01*
X58115778Y-32098389D01*
X57955520Y-31858546D01*
X57955517Y-31858543D01*
X57955512Y-31858536D01*
X57765335Y-31641682D01*
X57765334Y-31641681D01*
X57765327Y-31641673D01*
X57765317Y-31641664D01*
X57548463Y-31451487D01*
X57548450Y-31451477D01*
X57308611Y-31291222D01*
X57049911Y-31163645D01*
X57049900Y-31163640D01*
X56776760Y-31070921D01*
X56776757Y-31070920D01*
X56776753Y-31070919D01*
X56736183Y-31062849D01*
X56682802Y-31032953D01*
X56657186Y-30977387D01*
X56656500Y-30965752D01*
X56656500Y-27065600D01*
X62004529Y-27065600D01*
X62024379Y-27305161D01*
X62024379Y-27305162D01*
X62083388Y-27538185D01*
X62083390Y-27538191D01*
X62086562Y-27545422D01*
X62179950Y-27758327D01*
X62179953Y-27758332D01*
X62311425Y-27959564D01*
X62311427Y-27959566D01*
X62311429Y-27959569D01*
X62474236Y-28136425D01*
X62663933Y-28284072D01*
X62875344Y-28398482D01*
X63102703Y-28476534D01*
X63339808Y-28516100D01*
X63580192Y-28516100D01*
X63817297Y-28476534D01*
X64044656Y-28398482D01*
X64256067Y-28284072D01*
X64445764Y-28136425D01*
X64608571Y-27959569D01*
X64647083Y-27900622D01*
X64712594Y-27800352D01*
X64760250Y-27761978D01*
X64795473Y-27755500D01*
X67204527Y-27755500D01*
X67262718Y-27774407D01*
X67287406Y-27800352D01*
X67391425Y-27959564D01*
X67391427Y-27959566D01*
X67391429Y-27959569D01*
X67554236Y-28136425D01*
X67743933Y-28284072D01*
X67955344Y-28398482D01*
X68182703Y-28476534D01*
X68419808Y-28516100D01*
X68660192Y-28516100D01*
X68897297Y-28476534D01*
X69124656Y-28398482D01*
X69336067Y-28284072D01*
X69525764Y-28136425D01*
X69688571Y-27959569D01*
X69820049Y-27758328D01*
X69916610Y-27538191D01*
X69975620Y-27305163D01*
X69995471Y-27065600D01*
X74004529Y-27065600D01*
X74024379Y-27305161D01*
X74024379Y-27305162D01*
X74083388Y-27538185D01*
X74083390Y-27538191D01*
X74086562Y-27545422D01*
X74179950Y-27758327D01*
X74179953Y-27758332D01*
X74311425Y-27959564D01*
X74311427Y-27959566D01*
X74311429Y-27959569D01*
X74474236Y-28136425D01*
X74663933Y-28284072D01*
X74875344Y-28398482D01*
X75102703Y-28476534D01*
X75339808Y-28516100D01*
X75580192Y-28516100D01*
X75817297Y-28476534D01*
X76044656Y-28398482D01*
X76256067Y-28284072D01*
X76445764Y-28136425D01*
X76608571Y-27959569D01*
X76647083Y-27900622D01*
X76712594Y-27800352D01*
X76760250Y-27761978D01*
X76795473Y-27755500D01*
X79204527Y-27755500D01*
X79262718Y-27774407D01*
X79287406Y-27800352D01*
X79391425Y-27959564D01*
X79391427Y-27959566D01*
X79391429Y-27959569D01*
X79554236Y-28136425D01*
X79743933Y-28284072D01*
X79955344Y-28398482D01*
X80182703Y-28476534D01*
X80419808Y-28516100D01*
X80660192Y-28516100D01*
X80897297Y-28476534D01*
X81124656Y-28398482D01*
X81336067Y-28284072D01*
X81525764Y-28136425D01*
X81688571Y-27959569D01*
X81820049Y-27758328D01*
X81916610Y-27538191D01*
X81975620Y-27305163D01*
X81995471Y-27065600D01*
X86004529Y-27065600D01*
X86024379Y-27305161D01*
X86024379Y-27305162D01*
X86083388Y-27538185D01*
X86083390Y-27538191D01*
X86086562Y-27545422D01*
X86179950Y-27758327D01*
X86179953Y-27758332D01*
X86311425Y-27959564D01*
X86311427Y-27959566D01*
X86311429Y-27959569D01*
X86474236Y-28136425D01*
X86663933Y-28284072D01*
X86875344Y-28398482D01*
X87102703Y-28476534D01*
X87339808Y-28516100D01*
X87580192Y-28516100D01*
X87817297Y-28476534D01*
X88044656Y-28398482D01*
X88256067Y-28284072D01*
X88445764Y-28136425D01*
X88608571Y-27959569D01*
X88647083Y-27900622D01*
X88712594Y-27800352D01*
X88760250Y-27761978D01*
X88795473Y-27755500D01*
X91204527Y-27755500D01*
X91262718Y-27774407D01*
X91287406Y-27800352D01*
X91391425Y-27959564D01*
X91391427Y-27959566D01*
X91391429Y-27959569D01*
X91554236Y-28136425D01*
X91743933Y-28284072D01*
X91955344Y-28398482D01*
X92182703Y-28476534D01*
X92419808Y-28516100D01*
X92660192Y-28516100D01*
X92897297Y-28476534D01*
X93124656Y-28398482D01*
X93336067Y-28284072D01*
X93525764Y-28136425D01*
X93688571Y-27959569D01*
X93820049Y-27758328D01*
X93916610Y-27538191D01*
X93975620Y-27305163D01*
X93995471Y-27065600D01*
X93975620Y-26826037D01*
X93916610Y-26593009D01*
X93820049Y-26372872D01*
X93820046Y-26372867D01*
X93688574Y-26171635D01*
X93688572Y-26171633D01*
X93688571Y-26171631D01*
X93525764Y-25994775D01*
X93477811Y-25957451D01*
X93336070Y-25847130D01*
X93336067Y-25847128D01*
X93124660Y-25732720D01*
X93124659Y-25732719D01*
X93124656Y-25732718D01*
X93057354Y-25709613D01*
X93008455Y-25672835D01*
X92990500Y-25615977D01*
X92990500Y-23435222D01*
X93009407Y-23377031D01*
X93057356Y-23341586D01*
X93124647Y-23318485D01*
X93124645Y-23318485D01*
X93124656Y-23318482D01*
X93336067Y-23204072D01*
X93525764Y-23056425D01*
X93688571Y-22879569D01*
X93820049Y-22678328D01*
X93916610Y-22458191D01*
X93975620Y-22225163D01*
X93995471Y-21985600D01*
X93975620Y-21746037D01*
X93916610Y-21513009D01*
X93820049Y-21292872D01*
X93786304Y-21241222D01*
X93688574Y-21091635D01*
X93688572Y-21091633D01*
X93688571Y-21091631D01*
X93525764Y-20914775D01*
X93336067Y-20767128D01*
X93124659Y-20652719D01*
X93091629Y-20641380D01*
X92897297Y-20574666D01*
X92897294Y-20574665D01*
X92897293Y-20574665D01*
X92660192Y-20535100D01*
X92419808Y-20535100D01*
X92182706Y-20574665D01*
X91955340Y-20652719D01*
X91743932Y-20767128D01*
X91743929Y-20767130D01*
X91554239Y-20914772D01*
X91554236Y-20914774D01*
X91554236Y-20914775D01*
X91484461Y-20990570D01*
X91391425Y-21091635D01*
X91259953Y-21292867D01*
X91259950Y-21292872D01*
X91163388Y-21513014D01*
X91116088Y-21699803D01*
X91083474Y-21751571D01*
X91026660Y-21774284D01*
X91020117Y-21774500D01*
X88979883Y-21774500D01*
X88921692Y-21755593D01*
X88885728Y-21706093D01*
X88883912Y-21699803D01*
X88836611Y-21513014D01*
X88836610Y-21513009D01*
X88740049Y-21292872D01*
X88706304Y-21241222D01*
X88608574Y-21091635D01*
X88608572Y-21091633D01*
X88608571Y-21091631D01*
X88445764Y-20914775D01*
X88256067Y-20767128D01*
X88044659Y-20652719D01*
X88011629Y-20641380D01*
X87817297Y-20574666D01*
X87817294Y-20574665D01*
X87817293Y-20574665D01*
X87580192Y-20535100D01*
X87339808Y-20535100D01*
X87102706Y-20574665D01*
X86875340Y-20652719D01*
X86663932Y-20767128D01*
X86663929Y-20767130D01*
X86474239Y-20914772D01*
X86474236Y-20914774D01*
X86474236Y-20914775D01*
X86404461Y-20990570D01*
X86311425Y-21091635D01*
X86179953Y-21292867D01*
X86179950Y-21292872D01*
X86083388Y-21513014D01*
X86024379Y-21746037D01*
X86024379Y-21746038D01*
X86004529Y-21985600D01*
X86024379Y-22225161D01*
X86024379Y-22225162D01*
X86083388Y-22458185D01*
X86083390Y-22458191D01*
X86086562Y-22465422D01*
X86179950Y-22678327D01*
X86179953Y-22678332D01*
X86311425Y-22879564D01*
X86311427Y-22879566D01*
X86311429Y-22879569D01*
X86474236Y-23056425D01*
X86663933Y-23204072D01*
X86744301Y-23247565D01*
X86875342Y-23318481D01*
X86875352Y-23318485D01*
X86942644Y-23341586D01*
X86991543Y-23378362D01*
X87009500Y-23435222D01*
X87009500Y-25615977D01*
X86990593Y-25674168D01*
X86942645Y-25709613D01*
X86875344Y-25732718D01*
X86875342Y-25732718D01*
X86875339Y-25732720D01*
X86663932Y-25847128D01*
X86663929Y-25847130D01*
X86474239Y-25994772D01*
X86311425Y-26171635D01*
X86179953Y-26372867D01*
X86179950Y-26372872D01*
X86083388Y-26593014D01*
X86024379Y-26826037D01*
X86024379Y-26826038D01*
X86004529Y-27065600D01*
X81995471Y-27065600D01*
X81975620Y-26826037D01*
X81916610Y-26593009D01*
X81820049Y-26372872D01*
X81820046Y-26372867D01*
X81688574Y-26171635D01*
X81688572Y-26171633D01*
X81688571Y-26171631D01*
X81525764Y-25994775D01*
X81477811Y-25957451D01*
X81336070Y-25847130D01*
X81336067Y-25847128D01*
X81124660Y-25732720D01*
X81124659Y-25732719D01*
X81124656Y-25732718D01*
X81057354Y-25709613D01*
X81008455Y-25672835D01*
X80990500Y-25615977D01*
X80990500Y-23435222D01*
X81009407Y-23377031D01*
X81057356Y-23341586D01*
X81124647Y-23318485D01*
X81124645Y-23318485D01*
X81124656Y-23318482D01*
X81336067Y-23204072D01*
X81525764Y-23056425D01*
X81688571Y-22879569D01*
X81820049Y-22678328D01*
X81916610Y-22458191D01*
X81975620Y-22225163D01*
X81995471Y-21985600D01*
X81975620Y-21746037D01*
X81916610Y-21513009D01*
X81820049Y-21292872D01*
X81786304Y-21241222D01*
X81688574Y-21091635D01*
X81688572Y-21091633D01*
X81688571Y-21091631D01*
X81525764Y-20914775D01*
X81336067Y-20767128D01*
X81124659Y-20652719D01*
X81091629Y-20641380D01*
X80897297Y-20574666D01*
X80897294Y-20574665D01*
X80897293Y-20574665D01*
X80660192Y-20535100D01*
X80419808Y-20535100D01*
X80182706Y-20574665D01*
X79955340Y-20652719D01*
X79743932Y-20767128D01*
X79743929Y-20767130D01*
X79554239Y-20914772D01*
X79554236Y-20914774D01*
X79554236Y-20914775D01*
X79484461Y-20990570D01*
X79391425Y-21091635D01*
X79259953Y-21292867D01*
X79259950Y-21292872D01*
X79163388Y-21513014D01*
X79116088Y-21699803D01*
X79083474Y-21751571D01*
X79026660Y-21774284D01*
X79020117Y-21774500D01*
X76979883Y-21774500D01*
X76921692Y-21755593D01*
X76885728Y-21706093D01*
X76883912Y-21699803D01*
X76836611Y-21513014D01*
X76836610Y-21513009D01*
X76740049Y-21292872D01*
X76706304Y-21241222D01*
X76608574Y-21091635D01*
X76608572Y-21091633D01*
X76608571Y-21091631D01*
X76445764Y-20914775D01*
X76256067Y-20767128D01*
X76044659Y-20652719D01*
X76011629Y-20641380D01*
X75817297Y-20574666D01*
X75817294Y-20574665D01*
X75817293Y-20574665D01*
X75580192Y-20535100D01*
X75339808Y-20535100D01*
X75102706Y-20574665D01*
X74875340Y-20652719D01*
X74663932Y-20767128D01*
X74663929Y-20767130D01*
X74474239Y-20914772D01*
X74474236Y-20914774D01*
X74474236Y-20914775D01*
X74404461Y-20990570D01*
X74311425Y-21091635D01*
X74179953Y-21292867D01*
X74179950Y-21292872D01*
X74083388Y-21513014D01*
X74024379Y-21746037D01*
X74024379Y-21746038D01*
X74004529Y-21985600D01*
X74024379Y-22225161D01*
X74024379Y-22225162D01*
X74083388Y-22458185D01*
X74083390Y-22458191D01*
X74086562Y-22465422D01*
X74179950Y-22678327D01*
X74179953Y-22678332D01*
X74311425Y-22879564D01*
X74311427Y-22879566D01*
X74311429Y-22879569D01*
X74474236Y-23056425D01*
X74663933Y-23204072D01*
X74744301Y-23247565D01*
X74875342Y-23318481D01*
X74875352Y-23318485D01*
X74942644Y-23341586D01*
X74991543Y-23378362D01*
X75009500Y-23435222D01*
X75009500Y-25615977D01*
X74990593Y-25674168D01*
X74942645Y-25709613D01*
X74875344Y-25732718D01*
X74875342Y-25732718D01*
X74875339Y-25732720D01*
X74663932Y-25847128D01*
X74663929Y-25847130D01*
X74474239Y-25994772D01*
X74311425Y-26171635D01*
X74179953Y-26372867D01*
X74179950Y-26372872D01*
X74083388Y-26593014D01*
X74024379Y-26826037D01*
X74024379Y-26826038D01*
X74004529Y-27065600D01*
X69995471Y-27065600D01*
X69975620Y-26826037D01*
X69916610Y-26593009D01*
X69820049Y-26372872D01*
X69820046Y-26372867D01*
X69688574Y-26171635D01*
X69688572Y-26171633D01*
X69688571Y-26171631D01*
X69525764Y-25994775D01*
X69477811Y-25957451D01*
X69336070Y-25847130D01*
X69336067Y-25847128D01*
X69124660Y-25732720D01*
X69124659Y-25732719D01*
X69124656Y-25732718D01*
X69057354Y-25709613D01*
X69008455Y-25672835D01*
X68990500Y-25615977D01*
X68990500Y-23435222D01*
X69009407Y-23377031D01*
X69057356Y-23341586D01*
X69124647Y-23318485D01*
X69124645Y-23318485D01*
X69124656Y-23318482D01*
X69336067Y-23204072D01*
X69525764Y-23056425D01*
X69688571Y-22879569D01*
X69820049Y-22678328D01*
X69916610Y-22458191D01*
X69975620Y-22225163D01*
X69995471Y-21985600D01*
X69975620Y-21746037D01*
X69916610Y-21513009D01*
X69820049Y-21292872D01*
X69786304Y-21241222D01*
X69688574Y-21091635D01*
X69688572Y-21091633D01*
X69688571Y-21091631D01*
X69525764Y-20914775D01*
X69336067Y-20767128D01*
X69124659Y-20652719D01*
X69091629Y-20641380D01*
X68897297Y-20574666D01*
X68897294Y-20574665D01*
X68897293Y-20574665D01*
X68660192Y-20535100D01*
X68419808Y-20535100D01*
X68182706Y-20574665D01*
X67955340Y-20652719D01*
X67743932Y-20767128D01*
X67743929Y-20767130D01*
X67554239Y-20914772D01*
X67554236Y-20914774D01*
X67554236Y-20914775D01*
X67484461Y-20990570D01*
X67391425Y-21091635D01*
X67259953Y-21292867D01*
X67259950Y-21292872D01*
X67163388Y-21513014D01*
X67116088Y-21699803D01*
X67083474Y-21751571D01*
X67026660Y-21774284D01*
X67020117Y-21774500D01*
X64979883Y-21774500D01*
X64921692Y-21755593D01*
X64885728Y-21706093D01*
X64883912Y-21699803D01*
X64836611Y-21513014D01*
X64836610Y-21513009D01*
X64740049Y-21292872D01*
X64706304Y-21241222D01*
X64608574Y-21091635D01*
X64608572Y-21091633D01*
X64608571Y-21091631D01*
X64445764Y-20914775D01*
X64256067Y-20767128D01*
X64044659Y-20652719D01*
X64011629Y-20641380D01*
X63817297Y-20574666D01*
X63817294Y-20574665D01*
X63817293Y-20574665D01*
X63580192Y-20535100D01*
X63339808Y-20535100D01*
X63102706Y-20574665D01*
X62875340Y-20652719D01*
X62663932Y-20767128D01*
X62663929Y-20767130D01*
X62474239Y-20914772D01*
X62474236Y-20914774D01*
X62474236Y-20914775D01*
X62404461Y-20990570D01*
X62311425Y-21091635D01*
X62179953Y-21292867D01*
X62179950Y-21292872D01*
X62083388Y-21513014D01*
X62024379Y-21746037D01*
X62024379Y-21746038D01*
X62004529Y-21985600D01*
X62024379Y-22225161D01*
X62024379Y-22225162D01*
X62083388Y-22458185D01*
X62083390Y-22458191D01*
X62086562Y-22465422D01*
X62179950Y-22678327D01*
X62179953Y-22678332D01*
X62311425Y-22879564D01*
X62311427Y-22879566D01*
X62311429Y-22879569D01*
X62474236Y-23056425D01*
X62663933Y-23204072D01*
X62744301Y-23247565D01*
X62875342Y-23318481D01*
X62875352Y-23318485D01*
X62942644Y-23341586D01*
X62991543Y-23378362D01*
X63009500Y-23435222D01*
X63009500Y-25615977D01*
X62990593Y-25674168D01*
X62942645Y-25709613D01*
X62875344Y-25732718D01*
X62875342Y-25732718D01*
X62875339Y-25732720D01*
X62663932Y-25847128D01*
X62663929Y-25847130D01*
X62474239Y-25994772D01*
X62311425Y-26171635D01*
X62179953Y-26372867D01*
X62179950Y-26372872D01*
X62083388Y-26593014D01*
X62024379Y-26826037D01*
X62024379Y-26826038D01*
X62004529Y-27065600D01*
X56656500Y-27065600D01*
X56656500Y-25386248D01*
X56675407Y-25328057D01*
X56724907Y-25292093D01*
X56736187Y-25289150D01*
X56756204Y-25285168D01*
X56776753Y-25281081D01*
X57049902Y-25188359D01*
X57308611Y-25060778D01*
X57548454Y-24900520D01*
X57765327Y-24710327D01*
X57955520Y-24493454D01*
X58115778Y-24253611D01*
X58243359Y-23994902D01*
X58336081Y-23721753D01*
X58392356Y-23438839D01*
X58411222Y-23151000D01*
X58392356Y-22863161D01*
X58336081Y-22580247D01*
X58243359Y-22307098D01*
X58115778Y-22048389D01*
X57955520Y-21808546D01*
X57955517Y-21808543D01*
X57955512Y-21808536D01*
X57765335Y-21591682D01*
X57765334Y-21591681D01*
X57765327Y-21591673D01*
X57675634Y-21513014D01*
X57548463Y-21401487D01*
X57548450Y-21401477D01*
X57308611Y-21241222D01*
X57049911Y-21113645D01*
X57049900Y-21113640D01*
X56776759Y-21020920D01*
X56493836Y-20964643D01*
X56206000Y-20945778D01*
X55918163Y-20964643D01*
X55635240Y-21020920D01*
X55362099Y-21113640D01*
X55362088Y-21113645D01*
X55103388Y-21241222D01*
X54863549Y-21401477D01*
X54863536Y-21401487D01*
X54646682Y-21591664D01*
X54646664Y-21591682D01*
X54456487Y-21808536D01*
X54456477Y-21808549D01*
X54296222Y-22048388D01*
X54168645Y-22307088D01*
X54168640Y-22307099D01*
X54075920Y-22580240D01*
X54075919Y-22580247D01*
X54064269Y-22638815D01*
X54034373Y-22692198D01*
X53978808Y-22717814D01*
X53967172Y-22718500D01*
X48394828Y-22718500D01*
X48336637Y-22699593D01*
X48300673Y-22650093D01*
X48297732Y-22638823D01*
X48286081Y-22580247D01*
X48193359Y-22307098D01*
X48065778Y-22048389D01*
X47905520Y-21808546D01*
X47905517Y-21808543D01*
X47905512Y-21808536D01*
X47715335Y-21591682D01*
X47715334Y-21591681D01*
X47715327Y-21591673D01*
X47625634Y-21513014D01*
X47498463Y-21401487D01*
X47498450Y-21401477D01*
X47258611Y-21241222D01*
X46999911Y-21113645D01*
X46999900Y-21113640D01*
X46726759Y-21020920D01*
X46443836Y-20964643D01*
X46156000Y-20945778D01*
X45868163Y-20964643D01*
X45585240Y-21020920D01*
X45312099Y-21113640D01*
X45312088Y-21113645D01*
X45053388Y-21241222D01*
X44813549Y-21401477D01*
X44813536Y-21401487D01*
X44596682Y-21591664D01*
X44596664Y-21591682D01*
X44406487Y-21808536D01*
X44406477Y-21808549D01*
X44246222Y-22048388D01*
X44118645Y-22307088D01*
X44118640Y-22307099D01*
X44025920Y-22580240D01*
X43969643Y-22863163D01*
X43950778Y-23150999D01*
X43950778Y-23151000D01*
X43969643Y-23438836D01*
X44025920Y-23721759D01*
X44118640Y-23994900D01*
X44118645Y-23994911D01*
X44246222Y-24253611D01*
X44406477Y-24493450D01*
X44406487Y-24493463D01*
X44596664Y-24710317D01*
X44596673Y-24710327D01*
X44596681Y-24710334D01*
X44596682Y-24710335D01*
X44813536Y-24900512D01*
X44813543Y-24900517D01*
X44813546Y-24900520D01*
X45053389Y-25060778D01*
X45312098Y-25188359D01*
X45585247Y-25281081D01*
X45625813Y-25289150D01*
X45679197Y-25319046D01*
X45704814Y-25374611D01*
X45705500Y-25386248D01*
X45705500Y-30965752D01*
X45686593Y-31023943D01*
X45637093Y-31059907D01*
X45625823Y-31062847D01*
X45585247Y-31070919D01*
X45585244Y-31070919D01*
X45585239Y-31070921D01*
X45312099Y-31163640D01*
X45312088Y-31163645D01*
X45053388Y-31291222D01*
X44813549Y-31451477D01*
X44813536Y-31451487D01*
X44596682Y-31641664D01*
X44596664Y-31641682D01*
X44406487Y-31858536D01*
X44406477Y-31858549D01*
X44246222Y-32098388D01*
X44118645Y-32357088D01*
X44118640Y-32357099D01*
X44025920Y-32630240D01*
X43969643Y-32913163D01*
X43950778Y-33200999D01*
X43950778Y-33201000D01*
X20046366Y-33201000D01*
X20055537Y-27065600D01*
X22859349Y-27065600D01*
X22877922Y-27301603D01*
X22933188Y-27531800D01*
X23023780Y-27750510D01*
X23023786Y-27750522D01*
X23059352Y-27808559D01*
X23554617Y-27313293D01*
X23573714Y-27382073D01*
X23660316Y-27545422D01*
X23780009Y-27686335D01*
X23927195Y-27798223D01*
X24094993Y-27875855D01*
X24118300Y-27880985D01*
X23625039Y-28374246D01*
X23625039Y-28374247D01*
X23683077Y-28409813D01*
X23683089Y-28409819D01*
X23901799Y-28500411D01*
X23901798Y-28500411D01*
X24131996Y-28555677D01*
X24368000Y-28574250D01*
X24604003Y-28555677D01*
X24834200Y-28500411D01*
X25052910Y-28409818D01*
X25052916Y-28409815D01*
X25110959Y-28374245D01*
X24615779Y-27879065D01*
X24727010Y-27841588D01*
X24885431Y-27746269D01*
X25019658Y-27619123D01*
X25123413Y-27466095D01*
X25183464Y-27315378D01*
X25676645Y-27808559D01*
X25712215Y-27750516D01*
X25712218Y-27750510D01*
X25802811Y-27531800D01*
X25858077Y-27301603D01*
X25876650Y-27065600D01*
X27939349Y-27065600D01*
X27957922Y-27301603D01*
X28013188Y-27531800D01*
X28103780Y-27750510D01*
X28103786Y-27750522D01*
X28139352Y-27808559D01*
X28634617Y-27313293D01*
X28653714Y-27382073D01*
X28740316Y-27545422D01*
X28860009Y-27686335D01*
X29007195Y-27798223D01*
X29174993Y-27875855D01*
X29198300Y-27880985D01*
X28705039Y-28374246D01*
X28705039Y-28374247D01*
X28763077Y-28409813D01*
X28763089Y-28409819D01*
X28981799Y-28500411D01*
X28981798Y-28500411D01*
X29211996Y-28555677D01*
X29448000Y-28574250D01*
X29684003Y-28555677D01*
X29914200Y-28500411D01*
X30132910Y-28409818D01*
X30132916Y-28409815D01*
X30190959Y-28374245D01*
X29695779Y-27879065D01*
X29807010Y-27841588D01*
X29965431Y-27746269D01*
X30099658Y-27619123D01*
X30203413Y-27466095D01*
X30263464Y-27315378D01*
X30756645Y-27808559D01*
X30792215Y-27750516D01*
X30792218Y-27750510D01*
X30882811Y-27531800D01*
X30938077Y-27301603D01*
X30956650Y-27065600D01*
X30938077Y-26829596D01*
X30882811Y-26599399D01*
X30792219Y-26380689D01*
X30792213Y-26380677D01*
X30756646Y-26322639D01*
X30261382Y-26817903D01*
X30242286Y-26749127D01*
X30155684Y-26585778D01*
X30035991Y-26444865D01*
X29888805Y-26332977D01*
X29721007Y-26255345D01*
X29697696Y-26250214D01*
X30190959Y-25756952D01*
X30132922Y-25721386D01*
X30132910Y-25721380D01*
X29914200Y-25630788D01*
X29914201Y-25630788D01*
X29684003Y-25575522D01*
X29448000Y-25556949D01*
X29211996Y-25575522D01*
X28981799Y-25630788D01*
X28763088Y-25721381D01*
X28705039Y-25756952D01*
X29200221Y-26252134D01*
X29088990Y-26289612D01*
X28930569Y-26384931D01*
X28796342Y-26512077D01*
X28692587Y-26665105D01*
X28632535Y-26815822D01*
X28139352Y-26322639D01*
X28103781Y-26380688D01*
X28013188Y-26599399D01*
X27957922Y-26829596D01*
X27939349Y-27065600D01*
X25876650Y-27065600D01*
X25858077Y-26829596D01*
X25802811Y-26599399D01*
X25712219Y-26380689D01*
X25712213Y-26380677D01*
X25676646Y-26322639D01*
X25181382Y-26817903D01*
X25162286Y-26749127D01*
X25075684Y-26585778D01*
X24955991Y-26444865D01*
X24808805Y-26332977D01*
X24641007Y-26255345D01*
X24617696Y-26250214D01*
X25110959Y-25756952D01*
X25052922Y-25721386D01*
X25052910Y-25721380D01*
X24834200Y-25630788D01*
X24834201Y-25630788D01*
X24604003Y-25575522D01*
X24368000Y-25556949D01*
X24131996Y-25575522D01*
X23901799Y-25630788D01*
X23683088Y-25721381D01*
X23625039Y-25756952D01*
X24120221Y-26252134D01*
X24008990Y-26289612D01*
X23850569Y-26384931D01*
X23716342Y-26512077D01*
X23612587Y-26665105D01*
X23552535Y-26815822D01*
X23059352Y-26322639D01*
X23023781Y-26380688D01*
X22933188Y-26599399D01*
X22877922Y-26829596D01*
X22859349Y-27065600D01*
X20055537Y-27065600D01*
X20057867Y-25507033D01*
X25557500Y-25507033D01*
X25557501Y-25507035D01*
X25572355Y-25600830D01*
X25572357Y-25600838D01*
X25629965Y-25713897D01*
X25629968Y-25713902D01*
X25719698Y-25803632D01*
X25832765Y-25861243D01*
X25926569Y-25876100D01*
X27889430Y-25876099D01*
X27889433Y-25876099D01*
X27889434Y-25876098D01*
X27936332Y-25868671D01*
X27983230Y-25861244D01*
X27983232Y-25861243D01*
X27983235Y-25861243D01*
X27983235Y-25861242D01*
X27983238Y-25861242D01*
X28038766Y-25832948D01*
X28096302Y-25803632D01*
X28186032Y-25713902D01*
X28243643Y-25600835D01*
X28258500Y-25507031D01*
X28258499Y-23544170D01*
X28258499Y-23544169D01*
X28258499Y-23544166D01*
X28258498Y-23544164D01*
X28243644Y-23450369D01*
X28243642Y-23450361D01*
X28186034Y-23337302D01*
X28186033Y-23337300D01*
X28186032Y-23337298D01*
X28096302Y-23247568D01*
X28096299Y-23247566D01*
X28096297Y-23247565D01*
X27983238Y-23189958D01*
X27983236Y-23189957D01*
X27889433Y-23175100D01*
X25926566Y-23175100D01*
X25926564Y-23175101D01*
X25832769Y-23189955D01*
X25832761Y-23189957D01*
X25719702Y-23247565D01*
X25719700Y-23247566D01*
X25629966Y-23337300D01*
X25629965Y-23337302D01*
X25572358Y-23450361D01*
X25572357Y-23450363D01*
X25557500Y-23544166D01*
X25557500Y-25507033D01*
X20057867Y-25507033D01*
X20063130Y-21985600D01*
X22859349Y-21985600D01*
X22877922Y-22221603D01*
X22933188Y-22451800D01*
X23023780Y-22670510D01*
X23023786Y-22670522D01*
X23059352Y-22728559D01*
X23554617Y-22233293D01*
X23573714Y-22302073D01*
X23660316Y-22465422D01*
X23780009Y-22606335D01*
X23927195Y-22718223D01*
X24094993Y-22795855D01*
X24118300Y-22800985D01*
X23625039Y-23294246D01*
X23625039Y-23294247D01*
X23683077Y-23329813D01*
X23683089Y-23329819D01*
X23901799Y-23420411D01*
X23901798Y-23420411D01*
X24131996Y-23475677D01*
X24368000Y-23494250D01*
X24604003Y-23475677D01*
X24834200Y-23420411D01*
X25052910Y-23329818D01*
X25052916Y-23329815D01*
X25110959Y-23294245D01*
X24615779Y-22799065D01*
X24727010Y-22761588D01*
X24885431Y-22666269D01*
X25019658Y-22539123D01*
X25123413Y-22386095D01*
X25183464Y-22235378D01*
X25676645Y-22728559D01*
X25712215Y-22670516D01*
X25712218Y-22670510D01*
X25802811Y-22451800D01*
X25858077Y-22221603D01*
X25876650Y-21985600D01*
X27939349Y-21985600D01*
X27957922Y-22221603D01*
X28013188Y-22451800D01*
X28103780Y-22670510D01*
X28103786Y-22670522D01*
X28139352Y-22728559D01*
X28634617Y-22233293D01*
X28653714Y-22302073D01*
X28740316Y-22465422D01*
X28860009Y-22606335D01*
X29007195Y-22718223D01*
X29174993Y-22795855D01*
X29198300Y-22800985D01*
X28705039Y-23294246D01*
X28705039Y-23294247D01*
X28763077Y-23329813D01*
X28763089Y-23329819D01*
X28981799Y-23420411D01*
X28981798Y-23420411D01*
X29211996Y-23475677D01*
X29448000Y-23494250D01*
X29684003Y-23475677D01*
X29914200Y-23420411D01*
X30132910Y-23329818D01*
X30132916Y-23329815D01*
X30190959Y-23294245D01*
X29695779Y-22799065D01*
X29807010Y-22761588D01*
X29965431Y-22666269D01*
X30099658Y-22539123D01*
X30203413Y-22386095D01*
X30263464Y-22235378D01*
X30756645Y-22728559D01*
X30792215Y-22670516D01*
X30792218Y-22670510D01*
X30882811Y-22451800D01*
X30938077Y-22221603D01*
X30956650Y-21985600D01*
X30938077Y-21749596D01*
X30882811Y-21519399D01*
X30792219Y-21300689D01*
X30792213Y-21300677D01*
X30756646Y-21242639D01*
X30261382Y-21737903D01*
X30242286Y-21669127D01*
X30155684Y-21505778D01*
X30035991Y-21364865D01*
X29888805Y-21252977D01*
X29721007Y-21175345D01*
X29697696Y-21170214D01*
X30190959Y-20676952D01*
X30132922Y-20641386D01*
X30132910Y-20641380D01*
X29914200Y-20550788D01*
X29914201Y-20550788D01*
X29684003Y-20495522D01*
X29448000Y-20476949D01*
X29211996Y-20495522D01*
X28981799Y-20550788D01*
X28763088Y-20641381D01*
X28705039Y-20676952D01*
X29200221Y-21172134D01*
X29088990Y-21209612D01*
X28930569Y-21304931D01*
X28796342Y-21432077D01*
X28692587Y-21585105D01*
X28632535Y-21735822D01*
X28139352Y-21242639D01*
X28103781Y-21300688D01*
X28013188Y-21519399D01*
X27957922Y-21749596D01*
X27939349Y-21985600D01*
X25876650Y-21985600D01*
X25858077Y-21749596D01*
X25802811Y-21519399D01*
X25712219Y-21300689D01*
X25712213Y-21300677D01*
X25676646Y-21242639D01*
X25181382Y-21737903D01*
X25162286Y-21669127D01*
X25075684Y-21505778D01*
X24955991Y-21364865D01*
X24808805Y-21252977D01*
X24641007Y-21175345D01*
X24617696Y-21170214D01*
X25110959Y-20676952D01*
X25052922Y-20641386D01*
X25052910Y-20641380D01*
X24834200Y-20550788D01*
X24834201Y-20550788D01*
X24604003Y-20495522D01*
X24368000Y-20476949D01*
X24131996Y-20495522D01*
X23901799Y-20550788D01*
X23683088Y-20641381D01*
X23625039Y-20676952D01*
X24120221Y-21172134D01*
X24008990Y-21209612D01*
X23850569Y-21304931D01*
X23716342Y-21432077D01*
X23612587Y-21585105D01*
X23552535Y-21735822D01*
X23059352Y-21242639D01*
X23023781Y-21300688D01*
X22933188Y-21519399D01*
X22877922Y-21749596D01*
X22859349Y-21985600D01*
X20063130Y-21985600D01*
X20065852Y-20164702D01*
X20084846Y-20106542D01*
X20134400Y-20070652D01*
X20164701Y-20065852D01*
X63885500Y-20000500D01*
X104900500Y-20000500D01*
X104958691Y-20019407D01*
G37*
G04 #@! TD.AperFunction*
G04 #@! TA.AperFunction,Conductor*
G36*
X103523321Y-69920802D02*
G01*
X103569814Y-69974458D01*
X103581200Y-70026800D01*
X103581200Y-90958400D01*
X103561198Y-91026521D01*
X103507542Y-91073014D01*
X103455200Y-91084400D01*
X101776800Y-91084400D01*
X101708679Y-91064398D01*
X101662186Y-91010742D01*
X101650800Y-90958400D01*
X101650800Y-70026800D01*
X101670802Y-69958679D01*
X101724458Y-69912186D01*
X101776800Y-69900800D01*
X103455200Y-69900800D01*
X103523321Y-69920802D01*
G37*
G04 #@! TD.AperFunction*
M02*
