G04 #@! TF.GenerationSoftware,KiCad,Pcbnew,7.0.11*
G04 #@! TF.CreationDate,2024-03-19T21:31:16+01:00*
G04 #@! TF.ProjectId,GPSDO,47505344-4f2e-46b6-9963-61645f706362,rev?*
G04 #@! TF.SameCoordinates,Original*
G04 #@! TF.FileFunction,Paste,Bot*
G04 #@! TF.FilePolarity,Positive*
%FSLAX46Y46*%
G04 Gerber Fmt 4.6, Leading zero omitted, Abs format (unit mm)*
G04 Created by KiCad (PCBNEW 7.0.11) date 2024-03-19 21:31:16*
%MOMM*%
%LPD*%
G01*
G04 APERTURE LIST*
G04 Aperture macros list*
%AMRoundRect*
0 Rectangle with rounded corners*
0 $1 Rounding radius*
0 $2 $3 $4 $5 $6 $7 $8 $9 X,Y pos of 4 corners*
0 Add a 4 corners polygon primitive as box body*
4,1,4,$2,$3,$4,$5,$6,$7,$8,$9,$2,$3,0*
0 Add four circle primitives for the rounded corners*
1,1,$1+$1,$2,$3*
1,1,$1+$1,$4,$5*
1,1,$1+$1,$6,$7*
1,1,$1+$1,$8,$9*
0 Add four rect primitives between the rounded corners*
20,1,$1+$1,$2,$3,$4,$5,0*
20,1,$1+$1,$4,$5,$6,$7,0*
20,1,$1+$1,$6,$7,$8,$9,0*
20,1,$1+$1,$8,$9,$2,$3,0*%
G04 Aperture macros list end*
%ADD10RoundRect,0.250000X1.000000X-1.500000X1.000000X1.500000X-1.000000X1.500000X-1.000000X-1.500000X0*%
%ADD11RoundRect,0.250000X0.475000X-0.337500X0.475000X0.337500X-0.475000X0.337500X-0.475000X-0.337500X0*%
%ADD12RoundRect,0.250000X0.337500X0.475000X-0.337500X0.475000X-0.337500X-0.475000X0.337500X-0.475000X0*%
%ADD13RoundRect,0.100000X0.680000X0.100000X-0.680000X0.100000X-0.680000X-0.100000X0.680000X-0.100000X0*%
%ADD14RoundRect,0.250000X-1.100000X0.412500X-1.100000X-0.412500X1.100000X-0.412500X1.100000X0.412500X0*%
%ADD15RoundRect,0.250000X-0.475000X0.337500X-0.475000X-0.337500X0.475000X-0.337500X0.475000X0.337500X0*%
%ADD16RoundRect,0.250000X0.412500X1.100000X-0.412500X1.100000X-0.412500X-1.100000X0.412500X-1.100000X0*%
%ADD17RoundRect,0.218750X0.381250X-0.218750X0.381250X0.218750X-0.381250X0.218750X-0.381250X-0.218750X0*%
%ADD18RoundRect,0.250000X1.500000X1.000000X-1.500000X1.000000X-1.500000X-1.000000X1.500000X-1.000000X0*%
%ADD19RoundRect,0.150000X-0.512500X-0.150000X0.512500X-0.150000X0.512500X0.150000X-0.512500X0.150000X0*%
%ADD20RoundRect,0.250000X0.350000X0.450000X-0.350000X0.450000X-0.350000X-0.450000X0.350000X-0.450000X0*%
%ADD21RoundRect,0.150000X-0.150000X0.725000X-0.150000X-0.725000X0.150000X-0.725000X0.150000X0.725000X0*%
G04 APERTURE END LIST*
D10*
X76454000Y-102437000D03*
X76454000Y-95937000D03*
D11*
X82550000Y-99081500D03*
X82550000Y-97006500D03*
D12*
X70887500Y-80967500D03*
X68812500Y-80967500D03*
X70252500Y-78486000D03*
X68177500Y-78486000D03*
D13*
X71327000Y-83892000D03*
X71327000Y-84542000D03*
X71327000Y-85202000D03*
X71327000Y-85852000D03*
X68627000Y-85852000D03*
X68627000Y-85202000D03*
X68627000Y-84542000D03*
X68627000Y-83892000D03*
D14*
X69850000Y-92925500D03*
X69850000Y-96050500D03*
D12*
X70506500Y-67818000D03*
X68431500Y-67818000D03*
D15*
X67183000Y-101705500D03*
X67183000Y-103780500D03*
D11*
X67818000Y-90064500D03*
X67818000Y-87989500D03*
D16*
X70777500Y-75184000D03*
X67652500Y-75184000D03*
D17*
X102235000Y-70404500D03*
X102235000Y-68279500D03*
D18*
X102564000Y-91440000D03*
X96064000Y-91440000D03*
D19*
X68077500Y-71689000D03*
X68077500Y-70739000D03*
X68077500Y-69789000D03*
X70352500Y-69789000D03*
X70352500Y-70739000D03*
X70352500Y-71689000D03*
D20*
X72120000Y-90043000D03*
X70120000Y-90043000D03*
D21*
X85598000Y-95469000D03*
X86868000Y-95469000D03*
X88138000Y-95469000D03*
X89408000Y-95469000D03*
X89408000Y-100619000D03*
X88138000Y-100619000D03*
X86868000Y-100619000D03*
X85598000Y-100619000D03*
D15*
X102235000Y-63859500D03*
X102235000Y-65934500D03*
D20*
X89900000Y-90932000D03*
X87900000Y-90932000D03*
M02*
